<?xml version="1.0" encoding="utf-8"?>
<!-- Generator: Adobe Illustrator 27.3.1, SVG Export Plug-In . SVG Version: 6.00 Build 0)  -->
<svg version="1.1" id="Layer_1" xmlns="http://www.w3.org/2000/svg" xmlns:xlink="http://www.w3.org/1999/xlink" x="0px" y="0px"
	 viewBox="0 0 100 100" style="enable-background:new 0 0 100 100;" xml:space="preserve">
<style type="text/css">
	.st0{fill:#34A853;}
	.st1{fill:#FBBC05;}
	.st2{fill:#EA4335;}
	.st3{fill:#4285F4;}
</style>
<g id="ICON">
	<g>
		<path class="st0" d="M84.5,88c-7.9,7.5-19.1,12-33.8,12c-18.8,0-35.8-11.2-44.1-27.5l16.5-13c3.8,12,14.7,20.7,27.6,20.7
			c7.2,0,13-1.8,17.5-4.9L84.5,88z"/>
	</g>
	<g>
		<path class="st1" d="M21.6,50c0,3.3,0.5,6.5,1.5,9.5l-16.5,13C3.1,65.7,1.1,58.1,1.1,50s2-15.7,5.4-22.5l16.5,13
			C22.1,43.5,21.6,46.7,21.6,50z"/>
	</g>
	<g>
		<path class="st2" d="M84.3,13.4l-14,13.8c-5-4.6-11.7-7.4-19.6-7.4c-12.9,0-23.8,8.7-27.6,20.7l-16.5-13C14.9,11.2,31.9,0,50.7,0
			C64.4,0,76,5.1,84.3,13.4z"/>
	</g>
	<g>
		<path class="st3" d="M98.9,50c0,3.5-0.3,7-0.8,10.3C96.4,71.3,91.9,81,84.5,88L68.2,75.3c5.1-3.5,8.5-8.8,10.2-15H51.4V41.8h46.9
			C98.7,44.4,98.9,47.2,98.9,50z"/>
	</g>
</g>
</svg>
