<?xml version="1.0" encoding="utf-8"?>
<!-- Generator: Adobe Illustrator 27.3.1, SVG Export Plug-In . SVG Version: 6.00 Build 0)  -->
<svg version="1.1" id="Layer_1" xmlns="http://www.w3.org/2000/svg" xmlns:xlink="http://www.w3.org/1999/xlink" x="0px" y="0px"
	 viewBox="0 0 25.2 36.9" style="enable-background:new 0 0 25.2 36.9;" xml:space="preserve">
<style type="text/css">
	.st0{fill:#E5212A;}
	.st1{fill:#E3242C;}
	.st2{fill:#1E1E1E;}
	.st3{fill:#E6E7E7;}
	.st4{fill:none;stroke:#010101;stroke-width:0.3422;}
	.st5{fill:none;stroke:#010101;stroke-width:0.455;}
	.st6{fill:#E4232B;}
	.st7{fill:#F05253;}
	.st8{fill:#F37A7A;}
	.st9{fill:#F1AC7C;}
	.st10{fill:#E87C62;}
	.st11{fill:#FDE2BE;}
	.st12{fill:none;stroke:#1E1E1E;stroke-width:0.5;stroke-miterlimit:10;stroke-dasharray:2,2,2,2,2,2;}
	.st13{fill:#2F4047;}
	.st14{fill:#F58E81;}
	.st15{fill:none;stroke:#E22026;stroke-width:0.5945;stroke-miterlimit:10;}
	.st16{opacity:0.3;enable-background:new    ;}
	.st17{opacity:0.2;enable-background:new    ;}
	.st18{fill:#E22026;}
	.st19{fill:none;stroke:#4D6470;stroke-width:0.2972;stroke-linecap:round;stroke-linejoin:round;stroke-miterlimit:10;}
	.st20{fill:none;stroke:#4D6470;stroke-width:0.5945;stroke-linecap:round;stroke-linejoin:round;stroke-miterlimit:10;}
	.st21{fill:#DC514D;}
	.st22{fill:#4D6470;}
	.st23{opacity:0.3;fill:#FFFFFF;enable-background:new    ;}
	.st24{opacity:0.5;fill:#FFFFFF;enable-background:new    ;}
	.st25{fill:#D9382F;}
	.st26{fill:#E37367;}
	.st27{fill:none;stroke:#E3242C;stroke-width:11.7181;stroke-miterlimit:10;}
	
		.st28{fill:none;stroke:#1E1E1E;stroke-width:0.5;stroke-miterlimit:10.0006;stroke-dasharray:1.9982,1.9982,1.9982,1.9982,1.9982,1.9982;}
	
		.st29{fill:none;stroke:#1E1E1E;stroke-width:0.5;stroke-miterlimit:9.9999;stroke-dasharray:1.9921,1.9921,1.9921,1.9921,1.9921,1.9921;}
	
		.st30{fill:none;stroke:#1E1E1E;stroke-width:0.5;stroke-miterlimit:9.9998;stroke-dasharray:1.9921,1.9921,1.9921,1.9921,1.9921,1.9921;}
	
		.st31{fill:none;stroke:#1E1E1E;stroke-width:0.4883;stroke-miterlimit:10;stroke-dasharray:1.9531,1.9531,1.9531,1.9531,1.9531,1.9531;}
	.st32{fill:#FFFFFF;}
	.st33{fill:#E4252B;}
</style>
<g>
	<g>
		<path class="st0" d="M80.7-1677.9H44.3l-8.5,15H12.1l52.7-87.9h20.8l21.5,87.9H83.9L80.7-1677.9z M76.9-1696.4l-6-28.2L55-1696.4
			H76.9z"/>
		<path class="st0" d="M190.6-1725.2l-11.1,62.3h-20.8l0.8-4.1c-5.8,3.7-11.6,5.8-18.3,5.8c-15.7,0-24.6-10.7-21.3-28.4l6.2-35.6
			h20.8l-5.7,32.4c-1.5,8.9,2.2,12.9,9,12.9c3.9,0,8.2-2.1,12.6-6l6.9-39.2h20.9L190.6-1725.2L190.6-1725.2z"/>
		<path class="st0" d="M243.8-1706.5c-10.3,0.4-17.2,3.1-22.9,8l-6.3,35.6h-20.8l10.9-62.3h20.8l-1.2,6.8c6.3-4.9,13.6-7.8,22.9-7.8
			L243.8-1706.5z"/>
		<path class="st0" d="M323.4-1725.2l-10.9,62.3h-20.8l0.6-3.5c-5.3,3-11.1,4.8-18,4.8c-15,0-25.7-11.1-25.7-27.4
			c0-21.2,18.4-37.7,37.3-37.7c6.8,0,12.1,1.7,16.2,4.6l0.5-3.2L323.4-1725.2L323.4-1725.2z M295.4-1684.4l3.5-19.5
			c-3.1-4.4-7.3-5.8-11.8-5.8c-9.5,0-17.7,8.2-17.7,18c0,7.8,5,13,12.2,13C286-1678.7,290.7-1680,295.4-1684.4z"/>
		<path class="st0" d="M442.9-1723.2h-21.7c0.1-6.6-3.1-11.8-12.3-11.8c-8.5,0-14.4,3.9-14.4,10.3c0,4,3.2,6,9.1,7.3l11.8,2.8
			c13.5,3.1,22.2,8.9,22.2,21.1c0,19.7-17.2,32.4-41.6,32.4c-19.7,0-35.7-9.5-33.9-31.1H384c0,8.5,5,12.7,15.9,12.7
			c8.6,0,13.9-3.6,13.9-9c0-2.7-1.7-5.3-8-6.7l-13.9-3.3c-14.4-3.5-21.7-9.8-21.2-22.6c0.8-20.7,19.7-31.1,40.1-31.1
			C425.1-1752.2,445-1746.7,442.9-1723.2z"/>
		<path class="st0" d="M520.4-1725.2l-11.1,62.3h-20.8l0.8-4.1c-5.8,3.7-11.6,5.8-18.3,5.8c-15.7,0-24.6-10.7-21.3-28.4l6.2-35.6
			h20.8l-5.7,32.4c-1.5,8.9,2.2,12.9,9,12.9c3.9,0,8.2-2.1,12.6-6l6.9-39.2h20.9V-1725.2z"/>
		<path class="st0" d="M701.5-1754.2l-16.2,91.3h-21l16.2-91.3H701.5z"/>
		<path class="st0" d="M733.1-1725.2l-11.1,62.3h-20.8l10.9-62.3H733.1z M714-1746.7c0-6.8,5.4-11.8,12.2-11.8
			c6.7,0,12.2,5,12.2,11.8c0,6.7-5.5,11.7-12.2,11.7C719.4-1735,714-1740,714-1746.7z"/>
		<path class="st0" d="M803.6-1689.4h-44.9c0.4,6.9,4.4,11.8,13,11.8c4.2,0,7.6-1.2,9.9-3.3h20.6c-5.5,12.1-18.5,19.4-33.4,19.4
			c-20.8,0-31.9-14.1-28.7-32.6c3.3-19.4,19.5-32.5,38.8-32.5C799.4-1726.6,809.3-1712.4,803.6-1689.4z M761.1-1701.3h25.6
			c0.4-7.8-4.1-10.2-9.8-10.2C769.2-1711.5,764-1707.6,761.1-1701.3z"/>
		<path class="st0" d="M859.7-1706.5c-10.3,0.4-17.2,3.1-22.9,8l-6.3,35.6h-20.8l10.9-62.3h20.8l-1.2,6.8c6.3-4.9,13.6-7.8,22.9-7.8
			L859.7-1706.5z"/>
		<path class="st0" d="M544.6-1663.8l-0.3,1.9C544.3-1662.5,544.5-1663.2,544.6-1663.8z"/>
		<path class="st0" d="M572.6-1726.9c-6.8,0-12.6,1.8-17.7,4.8l0.5-3.1h-20.8l-10.7,61.1l-0.1,0.6c-0.1,1.1-0.3,2.2-0.6,3.3
			c-3.3,14.5-15.5,27.2-33.3,27.2h20.8c15.1,0,25.5-7.7,30.7-19.5c1.3-2.9,2.2-6,2.9-9.4l0.3-1.9l0.4-2.4c4.1,3,9.4,4.8,16.2,4.8
			c19.8,0,37.3-16.7,37.3-37.8C598.4-1715.1,587.7-1726.9,572.6-1726.9z M560-1678.4c-4.5,0-8.7-1.4-11.8-5.9l3.5-19.5
			c4.6-4.5,9.4-5.9,13.9-5.9c7.5,0,12.2,5.9,12.2,13.2C577.8-1686.9,569.5-1678.4,560-1678.4z"/>
		<path class="st0" d="M633.8-1726.9c-6.8,0-12.6,1.8-17.7,4.8l0.5-3.1h-20.8l-10.7,61.1l-0.1,0.6c-0.1,1.1-0.3,2.2-0.6,3.3
			c-3.3,14.5-15.5,27.2-33.3,27.2h20.8c15.1,0,25.5-7.7,30.7-19.5c1.3-2.9,2.2-6,2.9-9.4l0.3-1.9l0.4-2.4c4.1,3,9.4,4.8,16.2,4.8
			c19.8,0,37.3-16.7,37.3-37.8C659.6-1715.1,648.9-1726.9,633.8-1726.9z M621.2-1678.4c-4.5,0-8.7-1.4-11.8-5.9l3.5-19.5
			c4.6-4.5,9.4-5.9,13.9-5.9c7.5,0,12.2,5.9,12.2,13.2C639-1686.9,630.7-1678.4,621.2-1678.4z"/>
	</g>
</g>
<rect x="2217.3" y="-1992.3" class="st1" width="960" height="540"/>
<rect x="2217.3" y="-1452.3" class="st2" width="960" height="540"/>
<text transform="matrix(1 0 0 1 1939.2395 924.5073)" class="st1" style="font-family:'Campton-Bold'; font-size:80.9028px;">FONT FAMILY</text>
<text transform="matrix(1 0 0 1 1744.5886 -687.944)" class="st1" style="font-family:'Campton-Bold'; font-size:80.9028px;">logo construction</text>
<text transform="matrix(1 0 0 1 1890.3342 112.3105)" class="st1" style="font-family:'Campton-Bold'; font-size:80.9028px;">LOGO MEANING</text>
<g>
	<path class="st3" d="M1526.3,2200.9h1389.5c16.2,0,29.4-13.2,29.4-29.4v-476.3c0-16.2-13.2-29.4-29.4-29.4H1526.3
		c-16.2,0-29.4,13.2-29.4,29.4v476.3C1496.9,2187.7,1510.1,2200.9,1526.3,2200.9z"/>
	<text transform="matrix(1 0 0 1 1549.6267 1950.0325)" class="st2" style="font-family:'Campton-Bold'; font-size:18.2005px;">Campton</text>
	<text transform="matrix(1 0 0 1 1636.6267 1950.0325)" class="st2" style="font-family:'Campton-Bold'; font-size:18.2005px;"> </text>
	<text transform="matrix(1 0 0 1 1641.3267 1950.0325)" class="st2" style="font-family:'Campton-Bold'; font-size:18.2005px;">Bo</text>
	<text transform="matrix(1 0 0 1 1664.9268 1950.0325)" class="st2" style="font-family:'Campton-Bold'; font-size:18.2005px;">l</text>
	<text transform="matrix(1 0 0 1 1670.0269 1950.0325)" class="st2" style="font-family:'Campton-Bold'; font-size:18.2005px;">d </text>
	<text transform="matrix(1 0 0 1 1549.6267 1971.8325)" class="st2" style="font-family:'Campton-Bold'; font-size:18.2005px;">AB</text>
	<text transform="matrix(1 0 0 1 1576.2267 1971.8325)" class="st2" style="font-family:'Campton-Bold'; font-size:18.2005px;">C</text>
	<text transform="matrix(1 0 0 1 1590.6267 1971.8325)" class="st2" style="font-family:'Campton-Bold'; font-size:18.2005px;">D</text>
	<text transform="matrix(1 0 0 1 1604.3267 1971.8325)" class="st2" style="font-family:'Campton-Bold'; font-size:18.2005px;">E</text>
	<text transform="matrix(1 0 0 1 1615.4268 1971.8325)" class="st2" style="font-family:'Campton-Bold'; font-size:18.2005px;">F</text>
	<text transform="matrix(1 0 0 1 1625.8267 1971.8325)" class="st2" style="font-family:'Campton-Bold'; font-size:18.2005px;">G</text>
	<text transform="matrix(1 0 0 1 1640.8267 1971.8325)" class="st2" style="font-family:'Campton-Bold'; font-size:18.2005px;">H</text>
	<text transform="matrix(1 0 0 1 1654.3267 1971.8325)" class="st2" style="font-family:'Campton-Bold'; font-size:18.2005px;">I</text>
	<text transform="matrix(1 0 0 1 1659.6267 1971.8325)" class="st2" style="font-family:'Campton-Bold'; font-size:18.2005px;">JK</text>
	<text transform="matrix(1 0 0 1 1684.5269 1971.8325)" class="st2" style="font-family:'Campton-Bold'; font-size:18.2005px;">L</text>
	<text transform="matrix(1 0 0 1 1695.1267 1971.8325)" class="st2" style="font-family:'Campton-Bold'; font-size:18.2005px;">N</text>
	<text transform="matrix(1 0 0 1 1708.9268 1971.8325)" class="st2" style="font-family:'Campton-Bold'; font-size:18.2005px;">O</text>
	<text transform="matrix(1 0 0 1 1723.7266 1971.8325)" class="st2" style="font-family:'Campton-Bold'; font-size:18.2005px;">P</text>
	<text transform="matrix(1 0 0 1 1735.6267 1971.8325)" class="st2" style="font-family:'Campton-Bold'; font-size:18.2005px;">Q</text>
	<text transform="matrix(1 0 0 1 1750.4268 1971.8325)" class="st2" style="font-family:'Campton-Bold'; font-size:18.2005px;">R</text>
	<text transform="matrix(1 0 0 1 1763.4268 1971.8325)" class="st2" style="font-family:'Campton-Bold'; font-size:18.2005px;">S</text>
	<text transform="matrix(1 0 0 1 1775.9268 1971.8325)" class="st2" style="font-family:'Campton-Bold'; font-size:18.2005px;">T</text>
	<text transform="matrix(1 0 0 1 1787.8267 1971.8325)" class="st2" style="font-family:'Campton-Bold'; font-size:18.2005px;">U</text>
	<text transform="matrix(1 0 0 1 1801.3267 1971.8325)" class="st2" style="font-family:'Campton-Bold'; font-size:18.2005px;">V</text>
	<text transform="matrix(1 0 0 1 1816.3267 1971.8325)" class="st2" style="font-family:'Campton-Bold'; font-size:18.2005px;">W</text>
	<text transform="matrix(1 0 0 1 1836.2266 1971.8325)" class="st2" style="font-family:'Campton-Bold'; font-size:18.2005px;">X</text>
	<text transform="matrix(1 0 0 1 1849.7266 1971.8325)" class="st2" style="font-family:'Campton-Bold'; font-size:18.2005px;">Y</text>
	<text transform="matrix(1 0 0 1 1863.2266 1971.8325)" class="st2" style="font-family:'Campton-Bold'; font-size:18.2005px;">Z (ÇË) </text>
	<text transform="matrix(1 0 0 1 1549.6267 1993.7325)" class="st2" style="font-family:'Campton-Bold'; font-size:18.2005px;">a</text>
	<text transform="matrix(1 0 0 1 1561.1267 1993.7325)" class="st2" style="font-family:'Campton-Bold'; font-size:18.2005px;">b</text>
	<text transform="matrix(1 0 0 1 1572.6267 1993.7325)" class="st2" style="font-family:'Campton-Bold'; font-size:18.2005px;">c</text>
	<text transform="matrix(1 0 0 1 1583.2267 1993.7325)" class="st2" style="font-family:'Campton-Bold'; font-size:18.2005px;">d</text>
	<text transform="matrix(1 0 0 1 1594.7266 1993.7325)" class="st2" style="font-family:'Campton-Bold'; font-size:18.2005px;">e</text>
	<text transform="matrix(1 0 0 1 1605.1267 1993.7325)" class="st2" style="font-family:'Campton-Bold'; font-size:18.2005px;">f</text>
	<text transform="matrix(1 0 0 1 1613.6267 1993.7325)" class="st2" style="font-family:'Campton-Bold'; font-size:18.2005px;">g</text>
	<text transform="matrix(1 0 0 1 1625.0269 1993.7325)" class="st2" style="font-family:'Campton-Bold'; font-size:18.2005px;">hij</text>
	<text transform="matrix(1 0 0 1 1647.0269 1993.7325)" class="st2" style="font-family:'Campton-Bold'; font-size:18.2005px;">k</text>
	<text transform="matrix(1 0 0 1 1658.0269 1993.7325)" class="st2" style="font-family:'Campton-Bold'; font-size:18.2005px;">l</text>
	<text transform="matrix(1 0 0 1 1663.1267 1993.7325)" class="st2" style="font-family:'Campton-Bold'; font-size:18.2005px;">no</text>
	<text transform="matrix(1 0 0 1 1685.3267 1993.7325)" class="st2" style="font-family:'Campton-Bold'; font-size:18.2005px;">p</text>
	<text transform="matrix(1 0 0 1 1696.8267 1993.7325)" class="st2" style="font-family:'Campton-Bold'; font-size:18.2005px;">q</text>
	<text transform="matrix(1 0 0 1 1708.3267 1993.7325)" class="st2" style="font-family:'Campton-Bold'; font-size:18.2005px;">r</text>
	<text transform="matrix(1 0 0 1 1716.0269 1993.7325)" class="st2" style="font-family:'Campton-Bold'; font-size:18.2005px;">s</text>
	<text transform="matrix(1 0 0 1 1725.7266 1993.7325)" class="st2" style="font-family:'Campton-Bold'; font-size:18.2005px;">t</text>
	<text transform="matrix(1 0 0 1 1734.3267 1993.7325)" class="st2" style="font-family:'Campton-Bold'; font-size:18.2005px;">u</text>
	<text transform="matrix(1 0 0 1 1745.5269 1993.7325)" class="st2" style="font-family:'Campton-Bold'; font-size:18.2005px;">v</text>
	<text transform="matrix(1 0 0 1 1757.0269 1993.7325)" class="st2" style="font-family:'Campton-Bold'; font-size:18.2005px;">w</text>
	<text transform="matrix(1 0 0 1 1772.1267 1993.7325)" class="st2" style="font-family:'Campton-Bold'; font-size:18.2005px;">x</text>
	<text transform="matrix(1 0 0 1 1783.1267 1993.7325)" class="st2" style="font-family:'Campton-Bold'; font-size:18.2005px;">y</text>
	<text transform="matrix(1 0 0 1 1794.9268 1993.7325)" class="st2" style="font-family:'Campton-Bold'; font-size:18.2005px;">z (çë) </text>
	<text transform="matrix(1 0 0 1 1549.6267 2015.5325)" class="st2" style="font-family:'Campton-Bold'; font-size:18.2005px;">1</text>
	<text transform="matrix(1 0 0 1 1559.2267 2015.5325)" class="st2" style="font-family:'Campton-Bold'; font-size:18.2005px;">2</text>
	<text transform="matrix(1 0 0 1 1569.5267 2015.5325)" class="st2" style="font-family:'Campton-Bold'; font-size:18.2005px;">3</text>
	<text transform="matrix(1 0 0 1 1580.4268 2015.5325)" class="st2" style="font-family:'Campton-Bold'; font-size:18.2005px;">4</text>
	<text transform="matrix(1 0 0 1 1592.2266 2015.5325)" class="st2" style="font-family:'Campton-Bold'; font-size:18.2005px;">5</text>
	<text transform="matrix(1 0 0 1 1603.3267 2015.5325)" class="st2" style="font-family:'Campton-Bold'; font-size:18.2005px;">6</text>
	<text transform="matrix(1 0 0 1 1614.0269 2015.5325)" class="st2" style="font-family:'Campton-Bold'; font-size:18.2005px;">7</text>
	<text transform="matrix(1 0 0 1 1623.3267 2015.5325)" class="st2" style="font-family:'Campton-Bold'; font-size:18.2005px;">8</text>
	<text transform="matrix(1 0 0 1 1634.5269 2015.5325)" class="st2" style="font-family:'Campton-Bold'; font-size:18.2005px;">9</text>
	<text transform="matrix(1 0 0 1 1645.8267 2015.5325)" class="st2" style="font-family:'Campton-Bold'; font-size:18.2005px;">0</text>
	<text transform="matrix(1 0 0 1 1659.1267 2015.5325)" class="st2" style="font-family:'Campton-Bold'; font-size:18.2005px;">!</text>
	<text transform="matrix(1 0 0 1 1664.5269 2015.5325)" class="st2" style="font-family:'Campton-Bold'; font-size:18.2005px;">@</text>
	<text transform="matrix(1 0 0 1 1682.8267 2015.5325)" class="st2" style="font-family:'Campton-Bold'; font-size:18.2005px;">£</text>
	<text transform="matrix(1 0 0 1 1694.3267 2015.5325)" class="st2" style="font-family:'Campton-Bold'; font-size:18.2005px;">$</text>
	<text transform="matrix(1 0 0 1 1706.5269 2015.5325)" class="st2" style="font-family:'Campton-Bold'; font-size:18.2005px;">%</text>
	<text transform="matrix(1 0 0 1 1725.8267 2015.5325)" class="st2" style="font-family:'Campton-Bold'; font-size:18.2005px;">^</text>
	<text transform="matrix(1 0 0 1 1733.3267 2015.5325)" class="st2" style="font-family:'Campton-Bold'; font-size:18.2005px;">&amp;</text>
	<text transform="matrix(1 0 0 1 1549.6267 2082.7651)" class="st2" style="font-family:'Campton-Light'; font-size:18.2005px;">Campton</text>
	<text transform="matrix(1 0 0 1 1635.9268 2082.7651)" class="st2" style="font-family:'Campton-Light'; font-size:18.2005px;"> </text>
	<text transform="matrix(1 0 0 1 1640.9268 2082.7651)" class="st2" style="font-family:'Campton-Light'; font-size:18.2005px;">Light </text>
	<text transform="matrix(1 0 0 1 1549.6267 2104.5652)" class="st2" style="font-family:'Campton-Light'; font-size:18.2005px;">AB</text>
	<text transform="matrix(1 0 0 1 1576.0267 2104.5652)" class="st2" style="font-family:'Campton-Light'; font-size:18.2005px;">C</text>
	<text transform="matrix(1 0 0 1 1590.9268 2104.5652)" class="st2" style="font-family:'Campton-Light'; font-size:18.2005px;">D</text>
	<text transform="matrix(1 0 0 1 1604.8267 2104.5652)" class="st2" style="font-family:'Campton-Light'; font-size:18.2005px;">E</text>
	<text transform="matrix(1 0 0 1 1616.5269 2104.5652)" class="st2" style="font-family:'Campton-Light'; font-size:18.2005px;">F</text>
	<text transform="matrix(1 0 0 1 1627.2266 2104.5652)" class="st2" style="font-family:'Campton-Light'; font-size:18.2005px;">G</text>
	<text transform="matrix(1 0 0 1 1642.7266 2104.5652)" class="st2" style="font-family:'Campton-Light'; font-size:18.2005px;">H</text>
	<text transform="matrix(1 0 0 1 1656.5269 2104.5652)" class="st2" style="font-family:'Campton-Light'; font-size:18.2005px;">I</text>
	<text transform="matrix(1 0 0 1 1661.2266 2104.5652)" class="st2" style="font-family:'Campton-Light'; font-size:18.2005px;">JK</text>
	<text transform="matrix(1 0 0 1 1685.1267 2104.5652)" class="st2" style="font-family:'Campton-Light'; font-size:18.2005px;">L</text>
	<text transform="matrix(1 0 0 1 1695.6267 2104.5652)" class="st2" style="font-family:'Campton-Light'; font-size:18.2005px;">N</text>
	<text transform="matrix(1 0 0 1 1709.9268 2104.5652)" class="st2" style="font-family:'Campton-Light'; font-size:18.2005px;">O</text>
	<text transform="matrix(1 0 0 1 1725.5269 2104.5652)" class="st2" style="font-family:'Campton-Light'; font-size:18.2005px;">P</text>
	<text transform="matrix(1 0 0 1 1737.2266 2104.5652)" class="st2" style="font-family:'Campton-Light'; font-size:18.2005px;">Q</text>
	<text transform="matrix(1 0 0 1 1752.8267 2104.5652)" class="st2" style="font-family:'Campton-Light'; font-size:18.2005px;">R</text>
	<text transform="matrix(1 0 0 1 1765.2266 2104.5652)" class="st2" style="font-family:'Campton-Light'; font-size:18.2005px;">S</text>
	<text transform="matrix(1 0 0 1 1777.3267 2104.5652)" class="st2" style="font-family:'Campton-Light'; font-size:18.2005px;">T</text>
	<text transform="matrix(1 0 0 1 1788.9268 2104.5652)" class="st2" style="font-family:'Campton-Light'; font-size:18.2005px;">U</text>
	<text transform="matrix(1 0 0 1 1802.9268 2104.5652)" class="st2" style="font-family:'Campton-Light'; font-size:18.2005px;">V</text>
	<text transform="matrix(1 0 0 1 1817.0269 2104.5652)" class="st2" style="font-family:'Campton-Light'; font-size:18.2005px;">W</text>
	<text transform="matrix(1 0 0 1 1836.3267 2104.5652)" class="st2" style="font-family:'Campton-Light'; font-size:18.2005px;">X</text>
	<text transform="matrix(1 0 0 1 1849.1267 2104.5652)" class="st2" style="font-family:'Campton-Light'; font-size:18.2005px;">Y</text>
	<text transform="matrix(1 0 0 1 1861.5269 2104.5652)" class="st2" style="font-family:'Campton-Light'; font-size:18.2005px;">Z (ÇË) </text>
	<text transform="matrix(1 0 0 1 1549.6267 2126.4651)" class="st2" style="font-family:'Campton-Light'; font-size:18.2005px;">a</text>
	<text transform="matrix(1 0 0 1 1561.1267 2126.4651)" class="st2" style="font-family:'Campton-Light'; font-size:18.2005px;">b</text>
	<text transform="matrix(1 0 0 1 1572.6267 2126.4651)" class="st2" style="font-family:'Campton-Light'; font-size:18.2005px;">c</text>
	<text transform="matrix(1 0 0 1 1583.1267 2126.4651)" class="st2" style="font-family:'Campton-Light'; font-size:18.2005px;">d</text>
	<text transform="matrix(1 0 0 1 1594.6267 2126.4651)" class="st2" style="font-family:'Campton-Light'; font-size:18.2005px;">e</text>
	<text transform="matrix(1 0 0 1 1605.3267 2126.4651)" class="st2" style="font-family:'Campton-Light'; font-size:18.2005px;">f</text>
	<text transform="matrix(1 0 0 1 1612.4268 2126.4651)" class="st2" style="font-family:'Campton-Light'; font-size:18.2005px;">g</text>
	<text transform="matrix(1 0 0 1 1623.8267 2126.4651)" class="st2" style="font-family:'Campton-Light'; font-size:18.2005px;">hij</text>
	<text transform="matrix(1 0 0 1 1643.9268 2126.4651)" class="st2" style="font-family:'Campton-Light'; font-size:18.2005px;">k</text>
	<text transform="matrix(1 0 0 1 1654.1267 2126.4651)" class="st2" style="font-family:'Campton-Light'; font-size:18.2005px;">l</text>
	<text transform="matrix(1 0 0 1 1658.3267 2126.4651)" class="st2" style="font-family:'Campton-Light'; font-size:18.2005px;">no</text>
	<text transform="matrix(1 0 0 1 1680.4268 2126.4651)" class="st2" style="font-family:'Campton-Light'; font-size:18.2005px;">p</text>
	<text transform="matrix(1 0 0 1 1691.9268 2126.4651)" class="st2" style="font-family:'Campton-Light'; font-size:18.2005px;">q</text>
	<text transform="matrix(1 0 0 1 1703.3267 2126.4651)" class="st2" style="font-family:'Campton-Light'; font-size:18.2005px;">r</text>
	<text transform="matrix(1 0 0 1 1709.9268 2126.4651)" class="st2" style="font-family:'Campton-Light'; font-size:18.2005px;">s</text>
	<text transform="matrix(1 0 0 1 1719.9268 2126.4651)" class="st2" style="font-family:'Campton-Light'; font-size:18.2005px;">t</text>
	<text transform="matrix(1 0 0 1 1727.7266 2126.4651)" class="st2" style="font-family:'Campton-Light'; font-size:18.2005px;">u</text>
	<text transform="matrix(1 0 0 1 1738.4268 2126.4651)" class="st2" style="font-family:'Campton-Light'; font-size:18.2005px;">v</text>
	<text transform="matrix(1 0 0 1 1749.4268 2126.4651)" class="st2" style="font-family:'Campton-Light'; font-size:18.2005px;">w</text>
	<text transform="matrix(1 0 0 1 1764.0269 2126.4651)" class="st2" style="font-family:'Campton-Light'; font-size:18.2005px;">x</text>
	<text transform="matrix(1 0 0 1 1774.2266 2126.4651)" class="st2" style="font-family:'Campton-Light'; font-size:18.2005px;">y</text>
	<text transform="matrix(1 0 0 1 1785.5269 2126.4651)" class="st2" style="font-family:'Campton-Light'; font-size:18.2005px;">z (çë) </text>
	<text transform="matrix(1 0 0 1 1549.6267 2148.2649)" class="st2" style="font-family:'Campton-Light'; font-size:18.2005px;">1</text>
	<text transform="matrix(1 0 0 1 1558.7267 2148.2649)" class="st2" style="font-family:'Campton-Light'; font-size:18.2005px;">2</text>
	<text transform="matrix(1 0 0 1 1568.7267 2148.2649)" class="st2" style="font-family:'Campton-Light'; font-size:18.2005px;">3</text>
	<text transform="matrix(1 0 0 1 1579.6267 2148.2649)" class="st2" style="font-family:'Campton-Light'; font-size:18.2005px;">4</text>
	<text transform="matrix(1 0 0 1 1591.1267 2148.2649)" class="st2" style="font-family:'Campton-Light'; font-size:18.2005px;">5</text>
	<text transform="matrix(1 0 0 1 1601.7266 2148.2649)" class="st2" style="font-family:'Campton-Light'; font-size:18.2005px;">6</text>
	<text transform="matrix(1 0 0 1 1612.6267 2148.2649)" class="st2" style="font-family:'Campton-Light'; font-size:18.2005px;">7</text>
	<text transform="matrix(1 0 0 1 1621.5269 2148.2649)" class="st2" style="font-family:'Campton-Light'; font-size:18.2005px;">8</text>
	<text transform="matrix(1 0 0 1 1633.0269 2148.2649)" class="st2" style="font-family:'Campton-Light'; font-size:18.2005px;">9</text>
	<text transform="matrix(1 0 0 1 1644.5269 2148.2649)" class="st2" style="font-family:'Campton-Light'; font-size:18.2005px;">0</text>
	<text transform="matrix(1 0 0 1 1657.8267 2148.2649)" class="st2" style="font-family:'Campton-Light'; font-size:18.2005px;">!</text>
	<text transform="matrix(1 0 0 1 1662.4268 2148.2649)" class="st2" style="font-family:'Campton-Light'; font-size:18.2005px;">@</text>
	<text transform="matrix(1 0 0 1 1680.7266 2148.2649)" class="st2" style="font-family:'Campton-Light'; font-size:18.2005px;">£</text>
	<text transform="matrix(1 0 0 1 1692.6267 2148.2649)" class="st2" style="font-family:'Campton-Light'; font-size:18.2005px;">$</text>
	<text transform="matrix(1 0 0 1 1704.4268 2148.2649)" class="st2" style="font-family:'Campton-Light'; font-size:18.2005px;">%</text>
	<text transform="matrix(1 0 0 1 1723.6267 2148.2649)" class="st2" style="font-family:'Campton-Light'; font-size:18.2005px;">^</text>
	<text transform="matrix(1 0 0 1 1730.1267 2148.2649)" class="st2" style="font-family:'Campton-Light'; font-size:18.2005px;">&amp;</text>
	<text transform="matrix(1 0 0 1 1628.033 1956.9114)" style="fill:#64666C; font-family:'Lato-Bold'; font-size:18.2005px;"> </text>
	<text transform="matrix(1 0 0 1 1777.6414 2026.5999)" style="fill:#64666C; font-family:'Lato-Bold'; font-size:18.2005px;"> </text>
	<text transform="matrix(1 0 0 1 1796.592 2135.8022)" style="fill:#64666C; font-family:'Lato-Light'; font-size:18.2005px;"> </text>
	<text transform="matrix(1 0 0 1 1549.6248 1755.2805)" class="st2" style="font-family:'Campton-Book'; font-size:52.7815px;">A</text>
	<text transform="matrix(1 0 0 1 1588.8247 1755.2805)" class="st2" style="font-family:'Campton-Book'; font-size:52.7815px;">B</text>
	<text transform="matrix(1 0 0 1 1624.6248 1755.2805)" class="st2" style="font-family:'Campton-Book'; font-size:52.7815px;">C</text>
	<text transform="matrix(1 0 0 1 1666.4248 1755.2805)" class="st2" style="font-family:'Campton-Book'; font-size:52.7815px;">D</text>
	<text transform="matrix(1 0 0 1 1705.7246 1755.2805)" class="st2" style="font-family:'Campton-Book'; font-size:52.7815px;">EF</text>
	<text transform="matrix(1 0 0 1 1767.9248 1755.2805)" class="st2" style="font-family:'Campton-Book'; font-size:52.7815px;">G</text>
	<text transform="matrix(1 0 0 1 1811.7246 1755.2805)" class="st2" style="font-family:'Campton-Book'; font-size:52.7815px;">HI</text>
	<text transform="matrix(1 0 0 1 1863.8247 1755.2805)" class="st2" style="font-family:'Campton-Book'; font-size:52.7815px;">J</text>
	<text transform="matrix(1 0 0 1 1894.7246 1755.2805)" class="st2" style="font-family:'Campton-Book'; font-size:52.7815px;">K</text>
	<text transform="matrix(1 0 0 1 1931.8247 1755.2805)" class="st2" style="font-family:'Campton-Book'; font-size:52.7815px;">L</text>
	<text transform="matrix(1 0 0 1 1962.3247 1755.2805)" class="st2" style="font-family:'Campton-Book'; font-size:52.7815px;">N</text>
	<text transform="matrix(1 0 0 1 2002.4248 1755.2805)" class="st2" style="font-family:'Campton-Book'; font-size:52.7815px;">O</text>
	<text transform="matrix(1 0 0 1 2046.1248 1755.2805)" class="st2" style="font-family:'Campton-Book'; font-size:52.7815px;">P</text>
	<text transform="matrix(1 0 0 1 2079.3247 1755.2805)" class="st2" style="font-family:'Campton-Book'; font-size:52.7815px;">Q</text>
	<text transform="matrix(1 0 0 1 2122.9248 1755.2805)" class="st2" style="font-family:'Campton-Book'; font-size:52.7815px;">R</text>
	<text transform="matrix(1 0 0 1 2158.5249 1755.2805)" class="st2" style="font-family:'Campton-Book'; font-size:52.7815px;">S</text>
	<text transform="matrix(1 0 0 1 2193.6248 1755.2805)" class="st2" style="font-family:'Campton-Book'; font-size:52.7815px;">T</text>
	<text transform="matrix(1 0 0 1 2226.9248 1755.2805)" class="st2" style="font-family:'Campton-Book'; font-size:52.7815px;">U</text>
	<text transform="matrix(1 0 0 1 2266.3247 1755.2805)" class="st2" style="font-family:'Campton-Book'; font-size:52.7815px;">V</text>
	<text transform="matrix(1 0 0 1 2307.6248 1755.2805)" class="st2" style="font-family:'Campton-Book'; font-size:52.7815px;">W</text>
	<text transform="matrix(1 0 0 1 2363.7246 1755.2805)" class="st2" style="font-family:'Campton-Book'; font-size:52.7815px;">X</text>
	<text transform="matrix(1 0 0 1 2400.4248 1755.2805)" class="st2" style="font-family:'Campton-Book'; font-size:52.7815px;">Y</text>
	<text transform="matrix(1 0 0 1 2436.6248 1755.2805)" class="st2" style="font-family:'Campton-Book'; font-size:52.7815px;">Z (ÇË) </text>
	<text transform="matrix(1 0 0 1 1549.6248 1818.5806)" class="st2" style="font-family:'Campton-Book'; font-size:52.7815px;">a</text>
	<text transform="matrix(1 0 0 1 1581.8247 1818.5806)" class="st2" style="font-family:'Campton-Book'; font-size:52.7815px;">b</text>
	<text transform="matrix(1 0 0 1 1614.3247 1818.5806)" class="st2" style="font-family:'Campton-Book'; font-size:52.7815px;">c</text>
	<text transform="matrix(1 0 0 1 1644.0249 1818.5806)" class="st2" style="font-family:'Campton-Book'; font-size:52.7815px;">d</text>
	<text transform="matrix(1 0 0 1 1676.3247 1818.5806)" class="st2" style="font-family:'Campton-Book'; font-size:52.7815px;">e</text>
	<text transform="matrix(1 0 0 1 1706.3247 1818.5806)" class="st2" style="font-family:'Campton-Book'; font-size:52.7815px;">f</text>
	<text transform="matrix(1 0 0 1 1727.4248 1818.5806)" class="st2" style="font-family:'Campton-Book'; font-size:52.7815px;">g</text>
	<text transform="matrix(1 0 0 1 1759.6248 1818.5806)" class="st2" style="font-family:'Campton-Book'; font-size:52.7815px;">h</text>
	<text transform="matrix(1 0 0 1 1789.9248 1818.5806)" class="st2" style="font-family:'Campton-Book'; font-size:52.7815px;">i</text>
	<text transform="matrix(1 0 0 1 1803.2246 1818.5806)" class="st2" style="font-family:'Campton-Book'; font-size:52.7815px;">j</text>
	<text transform="matrix(1 0 0 1 1816.2246 1818.5806)" class="st2" style="font-family:'Campton-Book'; font-size:52.7815px;">k</text>
	<text transform="matrix(1 0 0 1 1845.8247 1818.5806)" class="st2" style="font-family:'Campton-Book'; font-size:52.7815px;">l</text>
	<text transform="matrix(1 0 0 1 1857.7246 1818.5806)" class="st2" style="font-family:'Campton-Book'; font-size:52.7815px;">n</text>
	<text transform="matrix(1 0 0 1 1888.3247 1818.5806)" class="st2" style="font-family:'Campton-Book'; font-size:52.7815px;">o</text>
	<text transform="matrix(1 0 0 1 1920.0249 1818.5806)" class="st2" style="font-family:'Campton-Book'; font-size:52.7815px;">p</text>
	<text transform="matrix(1 0 0 1 1952.6248 1818.5806)" class="st2" style="font-family:'Campton-Book'; font-size:52.7815px;">q</text>
	<text transform="matrix(1 0 0 1 1984.8247 1818.5806)" class="st2" style="font-family:'Campton-Book'; font-size:52.7815px;">r</text>
	<text transform="matrix(1 0 0 1 2004.0249 1818.5806)" class="st2" style="font-family:'Campton-Book'; font-size:52.7815px;">s</text>
	<text transform="matrix(1 0 0 1 2031.9248 1818.5806)" class="st2" style="font-family:'Campton-Book'; font-size:52.7815px;">t</text>
	<text transform="matrix(1 0 0 1 2054.3247 1818.5806)" class="st2" style="font-family:'Campton-Book'; font-size:52.7815px;">u</text>
	<text transform="matrix(1 0 0 1 2085.1248 1818.5806)" class="st2" style="font-family:'Campton-Book'; font-size:52.7815px;">v</text>
	<text transform="matrix(1 0 0 1 2116.6248 1818.5806)" class="st2" style="font-family:'Campton-Book'; font-size:52.7815px;">w</text>
	<text transform="matrix(1 0 0 1 2158.8247 1818.5806)" class="st2" style="font-family:'Campton-Book'; font-size:52.7815px;">x</text>
	<text transform="matrix(1 0 0 1 2188.4248 1818.5806)" class="st2" style="font-family:'Campton-Book'; font-size:52.7815px;">y</text>
	<text transform="matrix(1 0 0 1 2220.7246 1818.5806)" class="st2" style="font-family:'Campton-Book'; font-size:52.7815px;">z (çë) </text>
	<text transform="matrix(1 0 0 1 1549.6248 1881.9805)" class="st2" style="font-family:'Campton-Book'; font-size:52.7815px;">1</text>
	<text transform="matrix(1 0 0 1 1575.5248 1881.9805)" class="st2" style="font-family:'Campton-Book'; font-size:52.7815px;">2</text>
	<text transform="matrix(1 0 0 1 1603.6248 1881.9805)" class="st2" style="font-family:'Campton-Book'; font-size:52.7815px;">3</text>
	<text transform="matrix(1 0 0 1 1634.4248 1881.9805)" class="st2" style="font-family:'Campton-Book'; font-size:52.7815px;">4</text>
	<text transform="matrix(1 0 0 1 1666.5249 1881.9805)" class="st2" style="font-family:'Campton-Book'; font-size:52.7815px;">5</text>
	<text transform="matrix(1 0 0 1 1696.4248 1881.9805)" class="st2" style="font-family:'Campton-Book'; font-size:52.7815px;">6</text>
	<text transform="matrix(1 0 0 1 1726.4248 1881.9805)" class="st2" style="font-family:'Campton-Book'; font-size:52.7815px;">7</text>
	<text transform="matrix(1 0 0 1 1751.4248 1881.9805)" class="st2" style="font-family:'Campton-Book'; font-size:52.7815px;">8</text>
	<text transform="matrix(1 0 0 1 1783.5249 1881.9805)" class="st2" style="font-family:'Campton-Book'; font-size:52.7815px;">9</text>
	<text transform="matrix(1 0 0 1 1815.8247 1881.9805)" class="st2" style="font-family:'Campton-Book'; font-size:52.7815px;">0</text>
	<text transform="matrix(1 0 0 1 1853.8247 1881.9805)" class="st2" style="font-family:'Campton-Book'; font-size:52.7815px;">!</text>
	<text transform="matrix(1 0 0 1 1867.0249 1881.9805)" class="st2" style="font-family:'Campton-Book'; font-size:52.7815px;">@</text>
	<text transform="matrix(1 0 0 1 1919.7246 1881.9805)" class="st2" style="font-family:'Campton-Book'; font-size:52.7815px;">£</text>
	<text transform="matrix(1 0 0 1 1953.1248 1881.9805)" class="st2" style="font-family:'Campton-Book'; font-size:52.7815px;">$</text>
	<text transform="matrix(1 0 0 1 1986.8247 1881.9805)" class="st2" style="font-family:'Campton-Book'; font-size:52.7815px;">%</text>
	<text transform="matrix(1 0 0 1 2041.5249 1881.9805)" class="st2" style="font-family:'Campton-Book'; font-size:52.7815px;">^</text>
	<text transform="matrix(1 0 0 1 2059.9248 1881.9805)" class="st2" style="font-family:'Campton-Book'; font-size:52.7815px;">&amp;</text>
	<text transform="matrix(1 0 0 1 1956.3391 1769.7268)" style="fill:#010101; font-family:'Lato-Regular'; font-size:52.7815px;"> </text>
	<text transform="matrix(1 0 0 1 1939.8176 1893.4456)" style="fill:#010101; font-family:'Lato-Regular'; font-size:52.7815px;"> </text>
	<text transform="matrix(1 0 0 1 1818.8113 1940.8606)" style="fill:#010101; font-family:'Lato-Regular'; font-size:52.7815px;"> </text>
	<line class="st4" x1="2105.9" y1="1909.9" x2="1549.6" y2="1909.9"/>
	<line class="st4" x1="2105.9" y1="2042.8" x2="1549.6" y2="2042.8"/>
</g>
<line class="st5" x1="1997.4" y1="1173" x2="1496.9" y2="1173"/>
<line class="st4" x1="1997.4" y1="1559.8" x2="1496.9" y2="1559.8"/>
<text transform="matrix(1 0 0 1 2207.0195 1244.0208)" class="st2" style="font-family:'Campton-Thin'; font-size:31.9337px;">Campton Thin </text>
<text transform="matrix(1 0 0 1 2207.0195 1282.3208)" class="st2" style="font-family:'Campton-ThinItalic'; font-size:31.9337px;">Campton Italic </text>
<text transform="matrix(1 0 0 1 2207.0195 1320.6207)" class="st2" style="font-family:'Campton-ExtraLight'; font-size:31.9337px;">Campton ExtraLight </text>
<text transform="matrix(1 0 0 1 2207.0195 1359.0208)" class="st2" style="font-family:'Campton-ExtraLightItalic'; font-size:31.9337px;">Campton ExtraLight Italic </text>
<text transform="matrix(1 0 0 1 2207.0195 1397.3208)" class="st2" style="font-family:'Campton-Light'; font-size:31.9337px;">Campton Light </text>
<text transform="matrix(1 0 0 1 2207.0195 1435.6207)" class="st2" style="font-family:'Campton-LightItalic'; font-size:31.9337px;">Campton Light Italic </text>
<text transform="matrix(1 0 0 1 2207.0195 1473.9208)" class="st2" style="font-family:'Campton-Book'; font-size:31.9337px;">Campton Book </text>
<text transform="matrix(1 0 0 1 2207.0195 1512.2208)" class="st2" style="font-family:'Campton-BookItalic'; font-size:31.9337px;">Campton Book Italic </text>
<text transform="matrix(1 0 0 1 2207.0195 1550.6207)" class="st2" style="font-family:'Campton-Medium'; font-size:31.9337px;">Campton Medium </text>
<text transform="matrix(1 0 0 1 2207.0195 1588.9208)" class="st2" style="font-family:'Campton-MediumItalic'; font-size:31.9337px;">Campton Medium Italic</text>
<text transform="matrix(1 0 0 1 2625.29 1244.0208)" class="st2" style="font-family:'Campton-SemiBold'; font-size:31.9337px;">Campton SemiBold </text>
<text transform="matrix(1 0 0 1 2625.29 1282.3208)" class="st2" style="font-family:'Campton-SemiBoldItalic'; font-size:31.9337px;">Campton SemiBold Italic </text>
<text transform="matrix(1 0 0 1 2625.29 1320.6207)" class="st2" style="font-family:'Campton-Bold'; font-size:31.9337px;">Campton Bold </text>
<text transform="matrix(1 0 0 1 2625.29 1359.0208)" class="st2" style="font-family:'Campton-BoldItalic'; font-size:31.9337px;">Campton Bold Italic </text>
<text transform="matrix(1 0 0 1 2625.29 1397.3208)" class="st2" style="font-family:'Campton-ExtraBold'; font-size:31.9337px;">Campton ExtraBold </text>
<text transform="matrix(1 0 0 1 2625.29 1435.6207)" class="st2" style="font-family:'Campton-ExtraBoldItalic'; font-size:31.9337px;">Campton ExtraBold Italic </text>
<text transform="matrix(1 0 0 1 2625.29 1473.9208)" class="st2" style="font-family:'Campton-Black'; font-size:31.9337px;">Campton Black </text>
<text transform="matrix(1 0 0 1 2625.29 1512.2208)" class="st2" style="font-family:'Campton-BlackItalic'; font-size:31.9337px;">Campton Black Italic</text>
<line class="st4" x1="1997.4" y1="1338.8" x2="1496.9" y2="1338.8"/>
<text transform="matrix(1 0 0 1 1496.896 1109.3958)" class="st2" style="font-family:'Campton-Medium'; font-size:43.6812px;">Primary</text>
<text transform="matrix(1 0 0 1 1658.696 1109.3958)" class="st2" style="font-family:'Campton-Medium'; font-size:43.6812px;"> </text>
<text transform="matrix(1 0 0 1 1669.7959 1109.3958)" class="st2" style="font-family:'Campton-Medium'; font-size:43.6812px; letter-spacing:-2;">T</text>
<text transform="matrix(1 0 0 1 1693.7959 1109.3958)" class="st2" style="font-family:'Campton-Medium'; font-size:43.6812px;">y</text>
<text transform="matrix(1 0 0 1 1719.896 1109.3958)" class="st2" style="font-family:'Campton-Medium'; font-size:43.6812px;">p</text>
<text transform="matrix(1 0 0 1 1746.0959 1109.3958)" class="st2" style="font-family:'Campton-Medium'; font-size:43.6812px;">e</text>
<text transform="matrix(1 0 0 1 1770.196 1109.3958)" class="st2" style="font-family:'Campton-Medium'; font-size:43.6812px;">f</text>
<text transform="matrix(1 0 0 1 1788.5959 1109.3958)" class="st2" style="font-family:'Campton-Medium'; font-size:43.6812px;">a</text>
<text transform="matrix(1 0 0 1 1814.896 1109.3958)" class="st2" style="font-family:'Campton-Medium'; font-size:43.6812px;">c</text>
<text transform="matrix(1 0 0 1 1838.696 1109.3958)" class="st2" style="font-family:'Campton-Medium'; font-size:43.6812px;">e</text>
<text transform="matrix(1 0 0 1 2207.0195 1109.3958)" class="st2" style="font-family:'Campton-Medium'; font-size:50.7962px;">S</text>
<text transform="matrix(1 0 0 1 2240.2195 1109.3958)" class="st2" style="font-family:'Campton-Medium'; font-size:50.7962px;">t</text>
<text transform="matrix(1 0 0 1 2264.0195 1109.3958)" class="st2" style="font-family:'Campton-Medium'; font-size:50.7962px;">y</text>
<text transform="matrix(1 0 0 1 2295.2195 1109.3958)" class="st2" style="font-family:'Campton-Medium'; font-size:50.7962px;">l</text>
<text transform="matrix(1 0 0 1 2308.0195 1109.3958)" class="st2" style="font-family:'Campton-Medium'; font-size:50.7962px;">e</text>
<text transform="matrix(1 0 0 1 2337.5195 1109.3958)" class="st2" style="font-family:'Campton-Medium'; font-size:50.7962px;">s</text>
<text transform="matrix(1 0 0 1 1487.0581 1288.4055)" class="st1" style="font-family:'Campton-Bold'; font-size:91.2484px;">Campton</text>
<text transform="matrix(1 0 0 1 1903.5581 1288.4055)" class="st1" style="font-family:'Campton-Bold'; font-size:91.2484px;"> </text>
<text transform="matrix(1 0 0 1 1926.1582 1288.4055)" class="st1" style="font-family:'Campton-Bold'; font-size:91.2484px; letter-spacing:-2;">F</text>
<text transform="matrix(1 0 0 1 1975.1582 1288.4055)" class="st1" style="font-family:'Campton-Bold'; font-size:91.2484px;">o</text>
<text transform="matrix(1 0 0 1 2027.6582 1288.4055)" class="st1" style="font-family:'Campton-Bold'; font-size:91.2484px; letter-spacing:-1;">n</text>
<text transform="matrix(1 0 0 1 2079.8582 1288.4055)" class="st1" style="font-family:'Campton-Bold'; font-size:91.2484px;">t</text>
<text transform="matrix(1 0 0 1 1496.896 1416.4844)" class="st2" style="font-family:'Campton-Medium'; font-size:21.8406px;">Campton</text>
<text transform="matrix(1 0 0 1 1599.4961 1416.4844)" class="st2" style="font-family:'Campton-Medium'; font-size:21.8406px;"> </text>
<text transform="matrix(1 0 0 1 1605.2959 1416.4844)" class="st2" style="font-family:'Campton-Medium'; font-size:21.8406px;">i</text>
<text transform="matrix(1 0 0 1 1611.0959 1416.4844)" class="st2" style="font-family:'Campton-Medium'; font-size:21.8406px;">s a f</text>
<text transform="matrix(1 0 0 1 1656.5959 1416.4844)" class="st2" style="font-family:'Campton-Medium'; font-size:21.8406px;">r</text>
<text transform="matrix(1 0 0 1 1664.7959 1416.4844)" class="st2" style="font-family:'Campton-Medium'; font-size:21.8406px;">e</text>
<text transform="matrix(1 0 0 1 1677.396 1416.4844)" class="st2" style="font-family:'Campton-Medium'; font-size:21.8406px;">e </text>
<text transform="matrix(1 0 0 1 1695.696 1416.4844)" class="st2" style="font-family:'Campton-Medium'; font-size:21.8406px;">t</text>
<text transform="matrix(1 0 0 1 1705.896 1416.4844)" class="st2" style="font-family:'Campton-Medium'; font-size:21.8406px;">yp</text>
<text transform="matrix(1 0 0 1 1732.696 1416.4844)" class="st2" style="font-family:'Campton-Medium'; font-size:21.8406px;">e</text>
<text transform="matrix(1 0 0 1 1744.9961 1416.4844)" class="st2" style="font-family:'Campton-Medium'; font-size:21.8406px;">f</text>
<text transform="matrix(1 0 0 1 1754.4961 1416.4844)" class="st2" style="font-family:'Campton-Medium'; font-size:21.8406px;">a</text>
<text transform="matrix(1 0 0 1 1767.896 1416.4844)" class="st2" style="font-family:'Campton-Medium'; font-size:21.8406px;">c</text>
<text transform="matrix(1 0 0 1 1780.196 1416.4844)" class="st2" style="font-family:'Campton-Medium'; font-size:21.8406px;">e </text>
<text transform="matrix(1 0 0 1 1798.4961 1416.4844)" class="st2" style="font-family:'Campton-Medium'; font-size:21.8406px;">a</text>
<text transform="matrix(1 0 0 1 1811.896 1416.4844)" class="st2" style="font-family:'Campton-Medium'; font-size:21.8406px;">nd </text>
<text transform="matrix(1 0 0 1 1843.9961 1416.4844)" class="st2" style="font-family:'Campton-Medium'; font-size:21.8406px;">c</text>
<text transform="matrix(1 0 0 1 1856.7959 1416.4844)" class="st2" style="font-family:'Campton-Medium'; font-size:21.8406px;">a</text>
<text transform="matrix(1 0 0 1 1870.0959 1416.4844)" class="st2" style="font-family:'Campton-Medium'; font-size:21.8406px;">n </text>
<text transform="matrix(1 0 0 1 1496.896 1442.6844)" class="st2" style="font-family:'Campton-Medium'; font-size:21.8406px;">b</text>
<text transform="matrix(1 0 0 1 1510.296 1442.6844)" class="st2" style="font-family:'Campton-Medium'; font-size:21.8406px;">e d</text>
<text transform="matrix(1 0 0 1 1542.0959 1442.6844)" class="st2" style="font-family:'Campton-Medium'; font-size:21.8406px;">o</text>
<text transform="matrix(1 0 0 1 1554.796 1442.6844)" class="st2" style="font-family:'Campton-Medium'; font-size:21.8406px;">w</text>
<text transform="matrix(1 0 0 1 1571.996 1442.6844)" class="st2" style="font-family:'Campton-Medium'; font-size:21.8406px;">n</text>
<text transform="matrix(1 0 0 1 1584.896 1442.6844)" class="st2" style="font-family:'Campton-Medium'; font-size:21.8406px;">l</text>
<text transform="matrix(1 0 0 1 1590.196 1442.6844)" class="st2" style="font-family:'Campton-Medium'; font-size:21.8406px;">oa</text>
<text transform="matrix(1 0 0 1 1616.696 1442.6844)" class="st2" style="font-family:'Campton-Medium'; font-size:21.8406px;">d</text>
<text transform="matrix(1 0 0 1 1630.0959 1442.6844)" class="st2" style="font-family:'Campton-Medium'; font-size:21.8406px;">e</text>
<text transform="matrix(1 0 0 1 1642.5959 1442.6844)" class="st2" style="font-family:'Campton-Medium'; font-size:21.8406px;">d </text>
<text transform="matrix(1 0 0 1 1661.7959 1442.6844)" class="st2" style="font-family:'Campton-Medium'; font-size:21.8406px;">he</text>
<text transform="matrix(1 0 0 1 1687.2959 1442.6844)" class="st2" style="font-family:'Campton-Medium'; font-size:21.8406px;">r</text>
<text transform="matrix(1 0 0 1 1695.396 1442.6844)" class="st2" style="font-family:'Campton-Medium'; font-size:21.8406px;">e</text>
<text transform="matrix(1 0 0 1 1707.7959 1442.6844)" class="st2" style="font-family:'Campton-Medium'; font-size:21.8406px;">: </text>
<text transform="matrix(1 0 0 1 1496.896 1468.8844)" class="st2" style="font-family:'Campton-Medium'; font-size:21.8406px;"> </text>
<text transform="matrix(1 0 0 1 1496.896 1495.0844)" class="st2" style="font-family:'Campton-Medium'; font-size:21.8406px;">https://www.cufonfonts.com/font/campton</text>
<line class="st5" x1="2707.5" y1="1173" x2="2207" y2="1173"/>
<g>
	<g>
		<text transform="matrix(1 0 0 1 1841.3889 2425.1589)" class="st1" style="font-family:'Campton-Bold'; font-size:80.9028px;">Primary COLORS</text>
	</g>
	<g>
		<g>
			
				<ellipse transform="matrix(0.7071 -0.7071 0.7071 0.7071 -1300.9548 2233.8083)" class="st6" cx="2046" cy="2687.3" rx="108.6" ry="108.6"/>
			<g>
				<g>
					<polygon class="st2" points="2046,2795.9 2046.7,2861.1 2045.2,2861.1 					"/>
					<g>
						<polygon class="st2" points="2046,2874 2038.6,2855.9 2046,2860.2 2053.4,2855.9 						"/>
					</g>
				</g>
			</g>
			<g>
				
					<text transform="matrix(1 0 0 1 1989.4978 2909.5027)" class="st2" style="font-family:'Campton-SemiBold'; font-size:24.8307px;">#e4232b</text>
			</g>
		</g>
		<g>
			<circle class="st2" cx="2388.5" cy="2687.3" r="108.6"/>
			<g>
				<g>
					<polygon class="st2" points="2388.5,2795.9 2389.3,2861.1 2387.8,2861.1 					"/>
					<g>
						<polygon class="st2" points="2388.5,2874 2381.1,2855.9 2388.5,2860.2 2395.9,2855.9 						"/>
					</g>
				</g>
			</g>
			<g>
				
					<text transform="matrix(1 0 0 1 2334.8604 2911.4556)" class="st2" style="font-family:'Campton-SemiBold'; font-size:24.8307px;">#1e1e1e</text>
			</g>
		</g>
	</g>
</g>
<g>
	<text transform="matrix(1 0 0 1 1765.0574 3139.3059)" class="st1" style="font-family:'Campton-Bold'; font-size:80.9028px;">Secondary COLORS</text>
</g>
<g>
	<g>
		<circle class="st7" cx="1864" cy="3370.5" r="77.6"/>
		<g>
			<g>
				<polygon class="st2" points="1864,3448.1 1864.8,3513.4 1863.2,3513.4 				"/>
				<g>
					<polygon class="st2" points="1864,3526.2 1856.6,3508.1 1864,3512.4 1871.4,3508.1 					"/>
				</g>
			</g>
		</g>
		<g>
			
				<text transform="matrix(1 0 0 1 1807.5908 3561.717)" class="st2" style="font-family:'Campton-SemiBold'; font-size:24.8307px;">#F05253</text>
		</g>
	</g>
	<g>
		
			<ellipse transform="matrix(0.7071 -0.7071 0.7071 0.7071 -1787.182 2426.3423)" class="st8" cx="2035.3" cy="3370.5" rx="77.6" ry="77.6"/>
		<g>
			<g>
				<polygon class="st2" points="2035.3,3448.1 2036,3513.4 2034.5,3513.4 				"/>
				<g>
					<polygon class="st2" points="2035.3,3526.2 2027.9,3508.1 2035.3,3512.4 2042.7,3508.1 					"/>
				</g>
			</g>
		</g>
		<g>
			<text transform="matrix(1 0 0 1 1978.281 3561.717)" class="st2" style="font-family:'Campton-SemiBold'; font-size:24.8307px;">#F37A7A</text>
		</g>
	</g>
	<g>
		<circle class="st9" cx="2212" cy="3370.5" r="77.6"/>
		<g>
			<g>
				<polygon class="st2" points="2212,3448.1 2212.7,3513.4 2211.2,3513.4 				"/>
				<g>
					<polygon class="st2" points="2212,3526.2 2204.6,3508.1 2212,3512.4 2219.4,3508.1 					"/>
				</g>
			</g>
		</g>
		<g>
			
				<text transform="matrix(1 0 0 1 2151.5107 3561.717)" class="st2" style="font-family:'Campton-SemiBold'; font-size:24.8307px;">#F1AC7C</text>
		</g>
	</g>
	<g>
		<circle class="st10" cx="2392.8" cy="3370.5" r="77.6"/>
		<g>
			<g>
				<polygon class="st2" points="2392.8,3448.1 2393.6,3513.4 2392.1,3513.4 				"/>
				<g>
					<polygon class="st2" points="2392.8,3526.2 2385.4,3508.1 2392.8,3512.4 2400.2,3508.1 					"/>
				</g>
			</g>
		</g>
		<g>
			
				<text transform="matrix(1 0 0 1 2335.4543 3561.717)" class="st2" style="font-family:'Campton-SemiBold'; font-size:24.8307px;">#E87C62</text>
		</g>
	</g>
	<g>
		<circle class="st11" cx="2570.5" cy="3370.5" r="77.6"/>
		<g>
			<g>
				<polygon class="st2" points="2570.5,3448.1 2571.3,3513.4 2569.8,3513.4 				"/>
				<g>
					<polygon class="st2" points="2570.5,3526.2 2563.1,3508.1 2570.5,3512.4 2577.9,3508.1 					"/>
				</g>
			</g>
		</g>
		<g>
			
				<text transform="matrix(1 0 0 1 2511.8777 3561.717)" class="st2" style="font-family:'Campton-SemiBold'; font-size:24.8307px;">#FDE2BE</text>
		</g>
	</g>
</g>
<g>
	<g>
		<line class="st12" x1="1491.1" y1="-568.1" x2="1491.1" y2="-503.8"/>
		<line class="st12" x1="1548" y1="-568.1" x2="1548" y2="-503.8"/>
	</g>
	<text transform="matrix(1 0 0 1 1508.2684 -529.5331)" class="st2" style="font-family:'Campton-Medium'; font-size:21.6555px;">x1</text>
</g>
<g>
	<g>
		<path class="st1" d="M2183.2,703.3l101.5-84.8l0.7-0.6h1l103,0.8l-4,2.1l27.3-44.7l1.1-1.8l2.3-0.6l112.1-30.5
			c4.3-1.2,8.7,1.4,9.8,5.6c1.2,4.4-1.5,8.9-5.9,9.9l-113.3,26l3.4-2.5l-29.1,43.6l-1.5,2.3l-2.5-0.1l-102.9-4.8l1.7-0.6
			C2288,622.6,2183.2,703.3,2183.2,703.3L2183.2,703.3z"/>
	</g>
	<path class="st2" d="M2466.1,531c26.6-26.6,26.6-69.8,0-96.4s-69.8-26.6-96.4,0c-26.6,26.6-26.6,69.8,0,96.4l0,0l19.9,19.9
		l28.3,28.3l18.2-18.2L2466.1,531L2466.1,531z M2397.9,462.9c11-11,28.8-11,39.8,0s11,28.8,0,39.8c-11,11-28.8,11-39.8,0
		S2386.9,473.9,2397.9,462.9z"/>
	<g>
		<path class="st13" d="M3011,392.6c0,0,1.1-2.7,7.9-1.9c6.8,0.8,7.5,9.8,10.9,16.3c3.4,6.4,7,9.5,7,9.5s0.5,3.9-6.9,6.1
			s-22-1.5-22-1.5s-1.9-17.1,0.9-22.3C3011.7,393.6,3011,392.6,3011,392.6z"/>
		<path class="st13" d="M2991,563.3l9.2,0.6c0,0,3.9-35.6,8.2-61.5c0-0.1,0-0.2,0-0.3c1.8-10.6,3.6-19.5,5.2-23.7
			c0,0,2.1,33.2,2.8,47.9c0.6,14.7,3.6,40.5,3.6,40.5l8.5,1.3c0,0,1.4-51.3,0.6-61c-0.8-9.7,3-45.6-3.6-54.5h-23.8
			c0,0-9.2,50.4-9.9,64.4C2991.3,531,2991,563.3,2991,563.3z"/>
		<polygon class="st14" points="3022.1,566.9 3022.3,569.7 3022.6,576.1 3027.4,576.8 3027.5,569.9 3027.5,567.2 		"/>
		<path class="st14" d="M2993.1,573.9l5.4,1.5c0,0,0.1-3.2,0.3-6.3c0.1-2,0.2-3.9,0.2-4.9c0-0.4,0-0.6,0-0.7l-5.8-0.6v1.8v4.1
			L2993.1,573.9z"/>
		<path class="st15" d="M3020.7,574.6c0,0-0.9-3.6-2.3-3.4C3017,571.4,3020.7,574.6,3020.7,574.6z"/>
		<path class="st15" d="M3020.3,574.6c0,0-3.3-2.4-4-1.2C3015.7,574.7,3020.3,574.6,3020.3,574.6z"/>
		<path class="st15" d="M2991,575c0,0-0.7-3.8-1.6-3.7C2988.6,571.3,2991,575,2991,575z"/>
		<path class="st15" d="M2991.2,576.2c0,0-2-3.9-3-3S2991.2,576.2,2991.2,576.2z"/>
		<path class="st13" d="M3016.5,579.3c0,0,10.2,0.3,10.9,0.2s1.6-0.1,1.6-0.9c0-0.4-0.4-2.8-0.4-3.6c-0.1-0.8,0.1-1.3-0.9-1.5
			c-1-0.3-6.1-0.9-6.7-0.2c-0.6,0.6-2.7,3-4.2,3.3s-2.8,0.2-2.9,1C3013.8,578.4,3013.8,579.2,3016.5,579.3z"/>
		<path class="st13" d="M2987.1,579.3c0,0,10.2,0.3,10.9,0.2s1.5-0.3,1.6-0.7s-0.3-3-0.4-3.8c-0.1-0.8,0.1-1.3-0.9-1.5
			c-1-0.3-6.1-0.9-6.7-0.2c-0.6,0.6-2.7,3-4.2,3.3s-2.8,0.2-2.9,1C2984.4,578.4,2984.4,579.2,2987.1,579.3z"/>
		<path class="st16" d="M3008.5,502c1.8-10.6,3.6-19.5,5.2-23.7l-1.1-6C3012.7,472.3,3009.9,493.8,3008.5,502z"/>
		<path class="st17" d="M3022.1,566.9l0.1,2.8c1.3,0.1,4,0.1,5.2,0.2v-2.6L3022.1,566.9z"/>
		<path class="st17" d="M2993.1,568.8l5.6,0.3c0.1-2,0.2-3.9,0.2-4.9l-5.7,0.6L2993.1,568.8z"/>
		<polygon class="st18" points="2989.5,562.9 2990.3,567.3 3000.5,568.1 3001.8,562.9 		"/>
		<polygon class="st18" points="3018.8,564.3 3019.6,568.7 3030.3,569.2 3030.3,564.3 		"/>
		<path class="st18" d="M2985.3,442c0,0,7.9,5.8,11.4,5.6c3.5-0.2,5.8-6.1,5.8-6.1l-0.5,11.1h23.8v-1.5c0,0,6.8,1.6,8.7-2.4
			s-0.4-17.6-0.7-21.2c-0.4-3.6-1.1-9.7-5.2-10.6c-4.1-0.8-15.9-1-18.7-0.6s-7.6,2.4-8.7,8.5c-1.1,6.1-5.2,16.7-5.2,16.7
			s-6.3-1.2-8.6-2.3L2985.3,442z M3026.6,445.5l1-5.2l0.7-3.7c0.5,2,0.7,8.9,0.7,8.9L3026.6,445.5L3026.6,445.5z"/>
		<path class="st14" d="M3014,443.9l-3.7-4.5l-5.2-0.8l-0.8,4.7l4,1.5c0,0,1.9,2.3,5.8,1.9v-2.8L3014,443.9L3014,443.9z"/>
		<path class="st14" d="M2987.2,439.2l-1.9-3.6l-4.7-2l-1.8,4.9l3.9,1.5c0,0,1,2.3,2.6,2L2987.2,439.2z"/>
		<path class="st14" d="M3013.9,411.9c0,0,0,0.5,0,1.2c-0.1,0.8,0.1,2.2-1.5,3c0.8,1.7,2.7,6,3.9,7.5c1.8-1.5,5.9-7.3,5.9-7.3
			s-2.9-3.2-0.8-9.1c0,0,2.9-2.2,2.4-3.3c-0.7-1.4-2.6-0.6-3-0.1c0.4-0.6,2.4-7.6,0-10.1c-1.5-1.6-3-1.6-5.9-1.7h-0.1
			c-0.1,0-0.1,0-0.2,0c-1.8-0.1-3.1,0-3.1,0l0,0c-0.1,0.1-0.8,0.8-1.6,2.2l0,0c-0.9,1.6-2,3.9-2.3,6.9
			C3007.1,406.7,3008.2,411.3,3013.9,411.9z"/>
		<path class="st19" d="M3012.3,404.9c0,0,2.6,0.9,3.5-1.1"/>
		<path class="st20" d="M3015.4,396.7c0,0,1.5-0.1,2.1,1.2"/>
		<path class="st20" d="M3008.9,396.1c0.7-0.8,1.6-0.7,1.6-0.7"/>
		<path class="st21" d="M3011.3,403.8l0.5-4.3l-2.5,3.2C3009.2,402.8,3009.5,403.9,3011.3,403.8z"/>
		<path class="st22" d="M3015.4,399.6c0,0.4-0.3,0.8-0.6,0.8s-0.5-0.4-0.5-0.8s0.3-0.8,0.6-0.8S3015.4,399.1,3015.4,399.6z"/>
		<path class="st22" d="M3010.4,398.8c0,0.4-0.3,0.8-0.6,0.8s-0.5-0.4-0.5-0.8s0.3-0.8,0.6-0.8
			C3010.2,398,3010.4,398.4,3010.4,398.8z"/>
		<path class="st22" d="M3022.5,400.6c0,0,2.9-3.9,0.5-6.5c-1.5-1.6-5.6-2.6-8.4-2.7C3014.7,392.1,3014.6,397.9,3022.5,400.6z"/>
		<path class="st22" d="M3009.9,394.2c0,0,2.7-0.2,4.8-2.2c0.1-0.1,0.2-0.2,0.2-0.2c-1.9-0.1-3.4,0.2-3.4,0.2l0,0
			C3011.4,392.1,3010.7,392.8,3009.9,394.2L3009.9,394.2z"/>
		<path class="st17" d="M3013.9,413.2c2-0.6,3.1-2,3.2-2.1c-1.5,0.8-3.2,0.9-3.2,0.9S3013.9,412.5,3013.9,413.2z"/>
		<path class="st17" d="M3027.6,440.2l0.7-3.7v-5.3C3028.3,431.2,3027.5,436.8,3027.6,440.2z"/>
	</g>
	<g>
		<g>
			<g>
				<g>
					
						<rect x="2926.1" y="419.4" transform="matrix(5.651921e-02 -0.9984 0.9984 5.651921e-02 2336.1663 3352.9558)" class="st18" width="32.2" height="41.9"/>
					
						<rect x="2926.1" y="419.4" transform="matrix(5.651921e-02 -0.9984 0.9984 5.651921e-02 2336.1663 3352.9558)" class="st16" width="32.2" height="41.9"/>
				</g>
				
					<rect x="2941.2" y="420.3" transform="matrix(5.651921e-02 -0.9984 0.9984 5.651921e-02 2349.6707 3368.8713)" class="st18" width="32.2" height="41.9"/>
				
					<rect x="2941.2" y="420.3" transform="matrix(5.651921e-02 -0.9984 0.9984 5.651921e-02 2349.6707 3368.8713)" class="st23" width="32.2" height="41.9"/>
			</g>
			
				<rect x="2935.6" y="424.4" transform="matrix(5.651956e-02 -0.9984 0.9984 5.651956e-02 2342.9741 3337.0706)" class="st16" width="3" height="8.9"/>
			
				<rect x="2969.6" y="427.9" transform="matrix(5.651990e-02 -0.9984 0.9984 5.651990e-02 2372.4133 3375.2542)" class="st24" width="4.9" height="8.9"/>
			
				<rect x="2969.4" y="437.8" transform="matrix(5.652182e-02 -0.9984 0.9984 5.652182e-02 2359.3665 3386.0217)" class="st16" width="3.8" height="13.7"/>
		</g>
		<g>
			<path class="st25" d="M2910.1,396.5l2.3,2.9c0,0-0.7,0.6-2.1,0.9L2910.1,396.5z"/>
			<polygon class="st26" points="2870.5,576 2877.2,575.6 2878.5,569.9 2879.3,566.8 2879.6,565.6 2874.4,565.3 2874.1,565.2 
				2873,568.5 			"/>
			<path class="st26" d="M2908.8,576.9c-0.1,0.5,6.2-0.4,6.2-0.4l0.2-5.3l0.2-4.1v-0.2h-0.1l-6.4,0.6c0,0,0,1.7,0,3.7
				C2909,573.7,2908.9,576.6,2908.8,576.9z"/>
			<path class="st26" d="M2895.5,411.9c0,0,9,2.4,8.3,0.7c-0.4-1-0.4-2.3-0.4-3.3c0-0.7,0.1-1.3,0.1-1.3c3.3,0.2,5.4-2.2,6.4-5.1
				c1.3-3.7,0.8-7.9-0.7-11.4c-0.1-0.3-0.5-1.5-0.8-1.7l-3.5-1.6c0,0-3.5,2.3-5.2,3.7c-1.8,1.4-3.2,7.9-3.2,13
				C2896.4,409.9,2895.5,411.9,2895.5,411.9z"/>
			<path class="st22" d="M2910.4,395.5c0,0,0.5,0.1,0.6,0.7c0,0.6-0.4,0.8-0.4,0.8L2910.4,395.5z"/>
			<path class="st20" d="M2910.4,392.5c0,0-0.6,0-1.1,0.3"/>
			<path class="st13" d="M2907.3,401.9c0,0-2.6,4.1-6.8,5s-5.5-0.5-6-2.9c-0.6-2.4-1.7-4.5-3.1-5.9c-1.4-1.5-0.6-5.5,1.3-8.8
				c0,0-2-1.6,1.2-3.2s4.3,1,7.1-0.5c2.7-1.5-0.9-2.1,1.7,2.7c2.6,4.8,4,1.3,4.4,3.4C2907.3,393.8,2909.3,397.5,2907.3,401.9z"/>
			<path class="st18" d="M2906.9,392.7c0.3-0.1,8.6-3.1,8.6-4.4c0.1-1.4-6.4,1.1-6.7,1.2l0,0l-1.7,2.7L2906.9,392.7z"/>
			<path class="st18" d="M2890.2,396c0.1,0.2,0.6,1.9,0.8,1.9s0.5,0,0.7,0c0.6,0,1.3-0.1,1.9-0.2c0.7-0.1,1.4-0.2,2.1-0.4l0,0
				c0.7-0.2,1.4-0.3,2-0.6c1.8-0.5,3.4-1.2,4.8-1.8l0,0c0.9-0.4,1.7-0.8,2.3-1.1c1.3-0.6,2.1-1.1,2.1-1.1l0.1-0.2l0.5-0.7l1-1.6
				l0.3-0.5l0,0c0,0,0-0.1,0-0.2c0-0.6-1.3-2.3-1.5-2.6c-1-1.2-2-2.2-3.4-3c-1.8-1-3.9-0.6-5.9-0.2c-0.6,0.1-1.3,0.3-2,0.6l0,0
				c-0.1,0.1-0.3,0.1-0.4,0.2l0,0h-0.1c-0.1,0-0.1,0.1-0.2,0.1c0,0-0.1,0-0.1,0.1c-1.5,0.8-3.1,1.8-3.9,2.8
				C2888.8,390.3,2889.9,395,2890.2,396z"/>
			<path class="st18" d="M2893,415c0,0,0.4-2.9,1.3-3.4c0.9-0.6,9.8-0.5,11.2,0.5s1.1,4.2,1.1,4.2L2893,415z"/>
			<path class="st26" d="M2908.9,397.3c0,0-1.5-2-3.2-0.7c-1.6,1.2-0.3,4.1,1.6,4.9c0,0,2.5,0.8,2.8-1.7
				C2910.4,397.3,2908.9,397.3,2908.9,397.3z"/>
			<g>
				<g>
					<path class="st18" d="M2915,466c0,0,3.4,32.7,4.4,47.7c1,15-2.5,53.4-2.5,53.4h-8.3c0,0-1-38.2-2.4-49.6
						c-1.4-11.4-6.2-26.9-6.2-26.9s-2.9,24.6-5.7,34.6s-12.2,40.6-12.2,40.6l-9.6-1.8c0,0,11.5-39.3,11.5-51.4
						c0-12.2-0.1-36.7,2.8-46.5h28.2V466z"/>
					<path class="st16" d="M2872.5,563.9l9.6,1.8c0,0,9.3-30.6,12.2-40.6c1.6-5.5,3.2-15.4,4.2-23.2c0.9-6.4,1.5-11.3,1.5-11.3
						s4.8,15.5,6.2,26.9c1.4,11.4,2.4,49.6,2.4,49.6h8.3c0,0,3.5-38.4,2.5-53.4c-0.9-15-4.4-47.7-4.4-47.7h-28.3
						c-2.9,9.8-2.8,34.3-2.8,46.5C2884,524.6,2872.5,563.9,2872.5,563.9z"/>
				</g>
				<path class="st16" d="M2898.5,501.9c0.9-6.4,1.5-11.3,1.5-11.3l-0.5-8.9L2898.5,501.9z"/>
			</g>
			<polygon class="st13" points="2917.7,565.5 2907.8,565.5 2908.3,569.6 2917.3,569.6 			"/>
			<polygon class="st13" points="2883.2,564.9 2872.5,560.9 2871.1,566.7 2881.6,569.6 			"/>
			<polygon class="st17" points="2874.4,565.3 2879.3,566.8 2878.5,569.9 2873,568.5 			"/>
			<path class="st17" d="M2909,571.2h6.3l0.2-4.1v-0.2l-6.4,0.6C2909,567.5,2909,569.3,2909,571.2z"/>
			<path class="st15" d="M2918.3,578.9c0,0.1,4-2.2,2.9-3.3C2920.1,574.5,2918.3,578.9,2918.3,578.9z"/>
			<path class="st15" d="M2917.7,578.8c0,0.1,2.2-4,0.7-4.3C2917,574.1,2917.7,578.8,2917.7,578.8z"/>
			<path class="st15" d="M2878.1,576.4c0,0,1.3-4.2,2.6-3.5C2882,573.6,2878.1,576.4,2878.1,576.4z"/>
			<path class="st15" d="M2878.5,576.8c0,0,3-3.3,3.8-2.1C2883.2,575.9,2878.5,576.8,2878.5,576.8z"/>
			<path class="st13" d="M2870.3,575.6h7.1c0,0,4.1,2.5,5.9,2.7c1.8,0.2,2.9,0.3,2.8,1.6s-1.1,1.4-4.8,1.4c-3.7-0.1-11,0.4-11.8-0.3
				C2868.7,580.2,2869.2,578.8,2870.3,575.6z"/>
			<path class="st13" d="M2908.8,576.4l6.9,0.1c0,0,4.1,2.5,5.9,2.7c1.8,0.2,2.9,0.3,2.8,1.6s-1.1,1.4-4.8,1.4
				c-3.7-0.1-10.2,0.5-11-0.3C2907.8,581.2,2908.2,580,2908.8,576.4z"/>
			<path class="st16" d="M2908.9,389.4c-0.2,0.9-0.4,1.6-1.9,3.2c1.9-0.7,8.5-3.2,8.5-4.4C2915.6,387.1,2910.6,388.8,2908.9,389.4z"
				/>
			<path class="st16" d="M2908.9,389.6c0,0,0-0.1,0-0.2l0,0l0,0C2908.9,389.4,2908.9,389.5,2908.9,389.6L2908.9,389.6z"/>
			<path class="st16" d="M2906.9,392.7c0,0,0.1,0,0.2-0.1c0,0,0,0,0-0.1C2907,392.6,2907,392.6,2906.9,392.7z"/>
			<path class="st18" d="M2890.2,396c0.1,0.2,0.6,1.9,0.8,1.9s0.5,0,0.7,0c0.6,0,1.3-0.1,1.9-0.2c0.7-0.1,1.4-0.2,2.1-0.4l0,0
				c0.7-0.2,1.4-0.3,2-0.6c1.8-0.5,3.4-1.2,4.8-1.8l0,0c0.9-0.4,1.7-0.8,2.3-1.1c1.3-0.6,2.1-1.1,2.1-1.1l0.1-0.2l0.5-0.7l1-1.6
				l0.3-0.5l0,0c0,0,0-0.1,0-0.2c0-0.6-1.3-2.3-1.5-2.6c-1-1.2-2-2.2-3.4-3c-1.8-1-3.9-0.6-5.9-0.2c-0.6,0.1-1.3,0.3-2,0.6l0,0
				c-0.1,0.1-0.3,0.1-0.4,0.2l0,0h-0.1c-0.1,0-0.1,0.1-0.2,0.1c0,0-0.1,0-0.1,0.1c-1.5,0.8-3.1,1.8-3.9,2.8
				C2888.8,390.3,2889.9,395,2890.2,396z"/>
			<path class="st17" d="M2901.5,407.5c0,0,0.9,0.9,1.9,1.8c0-0.7,0.1-1.3,0.1-1.3S2902.3,407.8,2901.5,407.5z"/>
			<path class="st13" d="M2915,466.3v-29.4l5.4-2.2c0,0-1-15.7-8.7-18.2c-7.6-2.5-21.2-3.5-25,0c-2.4,2.2-2.7,5.8-2.8,8.9
				c-0.2,6.3,1.5,12.4,1.8,18.6c0.3,5.1,0.5,10.1,0.6,15.2c0,0.4,0.2,7.1,0.2,7.1H2915z"/>
			<path class="st26" d="M2912.1,437.9c0,0,4,13.1,7.9,13.9s17.3-6.5,17.3-6.5h6l0.8-5.3c0,0-5.6-2.1-9.3,0.4c0,0-8.7,3.8-11.6,4.9
				l-4.2-10.1L2912.1,437.9z"/>
		</g>
	</g>
	<g>
		<g>
			<line class="st27" x1="2766" y1="496.9" x2="2812.9" y2="496.9"/>
			<g>
				<polygon class="st1" points="2846,496.9 2799.3,516 2810.4,496.9 2799.3,477.8 				"/>
			</g>
		</g>
	</g>
	<g>
		<g>
			<polygon class="st2" points="2417.9,407.5 2417.1,331.3 2418.6,331.3 			"/>
			<g>
				<polygon class="st2" points="2417.9,318.4 2425.3,336.5 2417.9,332.2 2410.5,336.5 				"/>
			</g>
		</g>
	</g>
	<g>
		<text transform="matrix(1 0 0 1 2368.874 272.7859)" class="st2" style="font-family:'Campton-Medium'; font-size:16.6282px;">Location Pin </text>
		<text transform="matrix(1 0 0 1 2349.2739 292.7859)" class="st2" style="font-family:'Campton-Medium'; font-size:16.6282px;">Package Delivery</text>
	</g>
	<g>
		<g>
			<polygon class="st2" points="2619.8,407.5 2619,331.3 2620.6,331.3 			"/>
			<g>
				<polygon class="st2" points="2619.8,318.4 2627.2,336.5 2619.8,332.2 2612.4,336.5 				"/>
			</g>
		</g>
	</g>
	<text transform="matrix(1 0 0 1 2568.791 292.74)" class="st2" style="font-family:'Campton-Medium'; font-size:16.6282px;">Delivery Guy</text>
	<g>
		<g>
			<polygon class="st2" points="2721.8,407.5 2721,331.3 2722.6,331.3 			"/>
			<g>
				<polygon class="st2" points="2721.8,318.4 2729.2,336.5 2721.8,332.2 2714.4,336.5 				"/>
			</g>
		</g>
	</g>
	<text transform="matrix(1 0 0 1 2697.9893 292.74)" class="st2" style="font-family:'Campton-Medium'; font-size:16.6282px;">Client</text>
	<path class="st2" d="M2721.8,378.6c-13.1,0-23.8,10.7-23.8,23.8c0,13.1,10.7,23.8,23.8,23.8s23.8-10.7,23.8-23.8
		C2745.6,389.2,2734.9,378.6,2721.8,378.6z M2741.8,579.1h-40V442.7h40V579.1z"/>
	<path class="st2" d="M2619.8,378.6c-13.1,0-23.8,10.7-23.8,23.8c0,13.1,10.7,23.8,23.8,23.8s23.8-10.7,23.8-23.8
		C2643.6,389.2,2632.9,378.6,2619.8,378.6z M2679.8,442.7v40h-40v96.4h-40v-95.4c0-22.6,18.3-40.9,40.9-40.9h39.1V442.7z"/>
</g>
<g>
	<path class="st1" d="M1968.1-443.3c-53.6,0-97,43.4-97,97s43.4,97,97,97s97-43.4,97-97C2065.1-399.8,2021.7-443.3,1968.1-443.3z
		 M1968.1-306.2c-22.1,0-40.1-17.9-40.1-40.1s17.9-40.1,40.1-40.1c22.1,0,40.1,17.9,40.1,40.1S1990.2-306.2,1968.1-306.2z"/>
	<path class="st1" d="M1748.2-443.3c-53.6,0-97,43.4-97,97v186.4h56.9v-98c12.2,5.6,25.8,8.7,40.1,8.7c53.6,0,97-43.4,97-97
		S1801.8-443.3,1748.2-443.3z M1748.2-306.2c-22.1,0-40.1-17.9-40.1-40.1s17.9-40.1,40.1-40.1c22.1,0,40.1,17.9,40.1,40.1
		S1770.4-306.2,1748.2-306.2z"/>
	<rect x="2091" y="-529.2" class="st1" width="56.9" height="279.9"/>
	<path class="st1" d="M2367.8-346.2c0-53.6-43.4-97-97-97s-97,43.4-97,97s43.4,97,97,97l0,0h40.1h56.9v-36.7V-346.2L2367.8-346.2z
		 M2230.7-346.2c0-22.1,17.9-40.1,40.1-40.1c22.1,0,40.1,17.9,40.1,40.1s-17.9,40.1-40.1,40.1
		C2248.7-306.2,2230.7-324.1,2230.7-346.2z"/>
	<path class="st1" d="M2606.5-500.7c0,18.7-15.2,33.9-33.9,33.9s-33.9-15.2-33.9-33.9s15.2-33.9,33.9-33.9
		C2591.4-534.6,2606.5-519.4,2606.5-500.7z M2601.1-443.3h-56.9v194h56.9V-443.3z"/>
	<path class="st1" d="M2461.4-500.7c0,18.7-15.2,33.9-33.9,33.9s-33.9-15.2-33.9-33.9s15.2-33.9,33.9-33.9
		S2461.4-519.4,2461.4-500.7z M2457.3-443.3c-0.2,0-0.4,0-0.6,0c-0.2,0-0.4,0-0.6,0c-30.5,0-55.3,23.9-56.8,54
		c-0.1,1.4-0.2,2.8-0.2,4.2v135.8h56.9v-80.3v-56.8h56.9l0,0v-56.9L2457.3-443.3L2457.3-443.3z"/>
	<path class="st1" d="M2747.6-443.3L2747.6-443.3L2747.6-443.3c-1.2,0-2.3,0-3.4,0.1c-28.9,1-52.3,23.6-54.6,52.2
		c-0.2,2-0.3,4-0.3,6l0,0l0,0v78.8h-56.8h-0.1v56.9h55.6c1.1,0,2.2,0,3.3-0.1c30.6-1,55-26,55-56.8c0-0.6,0-1.3,0-1.9v-21.3v-56.9
		h56.9l0,0v-56.9h-55.6L2747.6-443.3L2747.6-443.3z"/>
</g>
<g>
	<circle class="st12" cx="2572.7" cy="-500.7" r="33.9"/>
	<circle class="st12" cx="2427.5" cy="-500.7" r="33.9"/>
	<g>
		
			<ellipse transform="matrix(0.9239 -0.3827 0.3827 0.9239 265.5738 642.6849)" class="st28" cx="1748.3" cy="-346.2" rx="40.1" ry="40.1"/>
	</g>
	<g>
		<ellipse class="st29" cx="1748.2" cy="-346.2" rx="97" ry="97"/>
	</g>
	<g>
		
			<ellipse transform="matrix(0.9239 -0.3827 0.3827 0.9239 282.3146 726.8419)" class="st28" cx="1968.2" cy="-346.2" rx="40.1" ry="40.1"/>
	</g>
	<g>
		
			<ellipse transform="matrix(0.7071 -0.7071 0.7071 0.7071 821.2184 1290.2577)" class="st30" cx="1968.1" cy="-346.2" rx="97" ry="97"/>
	</g>
	<g>
		
			<ellipse transform="matrix(0.9239 -0.3827 0.3827 0.9239 305.413 842.6975)" class="st28" cx="2270.9" cy="-346.3" rx="40.1" ry="40.1"/>
	</g>
	<g>
		<ellipse class="st29" cx="2270.8" cy="-346.2" rx="97" ry="97"/>
	</g>
	<g>
		<line class="st12" x1="2091" y1="-111.5" x2="2091" y2="-568.1"/>
		<line class="st12" x1="2147.9" y1="-111.5" x2="2147.9" y2="-568.1"/>
	</g>
	<g>
		<line class="st12" x1="1651.2" y1="-111.5" x2="1651.2" y2="-568.1"/>
		<line class="st12" x1="1708.1" y1="-111.5" x2="1708.1" y2="-568.1"/>
	</g>
	<g>
		<line class="st12" x1="1871.1" y1="-111.5" x2="1871.1" y2="-568.1"/>
		<line class="st12" x1="1928" y1="-111.5" x2="1928" y2="-568.1"/>
	</g>
	<g>
		<line class="st12" x1="2173.8" y1="-111.5" x2="2173.8" y2="-568.1"/>
		<line class="st12" x1="2230.7" y1="-111.5" x2="2230.7" y2="-568.1"/>
	</g>
	<g>
		<line class="st12" x1="1584.3" y1="-529.2" x2="2850.2" y2="-529.2"/>
		<line class="st12" x1="1584.3" y1="-472.2" x2="2850.2" y2="-472.2"/>
	</g>
	<g>
		<line class="st12" x1="1584.3" y1="-443.3" x2="2850.2" y2="-443.3"/>
		<line class="st12" x1="1584.3" y1="-386.3" x2="2850.2" y2="-386.3"/>
	</g>
	<g>
		<line class="st12" x1="1584.3" y1="-306.2" x2="2850.2" y2="-306.2"/>
		<line class="st12" x1="1584.3" y1="-249.2" x2="2850.2" y2="-249.2"/>
	</g>
	<line class="st12" x1="2399.2" y1="-111.5" x2="2399.2" y2="-568.1"/>
	<line class="st12" x1="2455.9" y1="-111.5" x2="2455.9" y2="-568.1"/>
	<line class="st12" x1="2544.3" y1="-111.5" x2="2544.3" y2="-568.1"/>
	<line class="st12" x1="2601" y1="-111.5" x2="2601" y2="-568.1"/>
	<line class="st12" x1="2689.4" y1="-111.5" x2="2689.4" y2="-568.1"/>
	<line class="st12" x1="2746.3" y1="-111.5" x2="2746.3" y2="-568.1"/>
	<path class="st0" d="M2512.9-386.3L2512.9-386.3L2512.9-386.3L2512.9-386.3z"/>
	<circle class="st31" cx="2456" cy="-386.4" r="56.9"/>
	<circle class="st31" cx="2689.4" cy="-306.2" r="56.9"/>
	<circle class="st31" cx="2746.3" cy="-386.4" r="56.9"/>
</g>
<g>
	<path class="st32" d="M2552.7-1238c-31.1,0-56.3,25.2-56.3,56.3c0,31.1,25.2,56.3,56.3,56.3s56.3-25.2,56.3-56.3
		S2583.8-1238,2552.7-1238z M2552.7-1158.4c-12.8,0-23.2-10.4-23.2-23.2c0-12.8,10.4-23.2,23.2-23.2s23.2,10.4,23.2,23.2
		C2576-1168.9,2565.6-1158.4,2552.7-1158.4z"/>
	<path class="st32" d="M2425.2-1238c-31.1,0-56.3,25.2-56.3,56.3v108.1h33v-56.8c7.1,3.2,15,5,23.2,5c31.1,0,56.3-25.2,56.3-56.3
		C2481.5-1212.8,2456.3-1238,2425.2-1238z M2425.2-1158.4c-12.8,0-23.2-10.4-23.2-23.2c0-12.8,10.4-23.2,23.2-23.2
		s23.2,10.4,23.2,23.2C2448.4-1168.9,2438-1158.4,2425.2-1158.4z"/>
	<rect x="2624" y="-1287.8" class="st32" width="33" height="162.4"/>
	<path class="st32" d="M2784.6-1181.7c0-31.1-25.2-56.3-56.3-56.3s-56.3,25.2-56.3,56.3c0,31.1,25.2,56.3,56.3,56.3l0,0h56.3
		V-1181.7L2784.6-1181.7z M2705.1-1181.7c0-12.8,10.4-23.2,23.2-23.2s23.2,10.4,23.2,23.2c0,12.8-10.4,23.2-23.2,23.2
		C2715.5-1158.4,2705.1-1168.9,2705.1-1181.7z"/>
	<path class="st32" d="M2923.1-1271.3c0,10.9-8.8,19.7-19.7,19.7s-19.7-8.8-19.7-19.7c0-10.9,8.8-19.7,19.7-19.7
		S2923.1-1282.1,2923.1-1271.3z M2920-1238h-33v112.6h33V-1238z"/>
	<path class="st32" d="M2838.9-1271.3c0,10.9-8.8,19.7-19.7,19.7s-19.7-8.8-19.7-19.7c0-10.9,8.8-19.7,19.7-19.7
		S2838.9-1282.1,2838.9-1271.3z M2836.5-1238c-0.1,0-0.2,0-0.4,0c-0.1,0-0.2,0-0.4,0c-17.7,0-32.1,13.9-33,31.3
		c-0.1,0.8-0.1,1.6-0.1,2.5v78.8h33v-79.5h33l0,0v-33h-32.1V-1238z"/>
	<path class="st32" d="M3004.9-1238L3004.9-1238L3004.9-1238c-0.7,0-1.3,0-2,0.1c-16.8,0.6-30.3,13.7-31.7,30.3
		c-0.1,1.1-0.2,2.3-0.2,3.5l0,0l0,0v45.7h-32.9h-0.1v33h32.3c0.6,0,1.3,0,1.9-0.1c17.7-0.6,31.9-15.1,31.9-33c0-0.4,0-0.7,0-1.1
		v-45.4h33l0,0v-33H3004.9z"/>
</g>
<g>
	<g>
		<g>
			<path class="st32" d="M2552.8-1238c-31.1,0-56.3,25.2-56.3,56.3c0,31.1,25.2,56.3,56.3,56.3s56.3-25.2,56.3-56.3
				C2609-1212.8,2583.8-1238,2552.8-1238z M2552.8-1158.4c-12.8,0-23.2-10.4-23.2-23.2c0-12.8,10.4-23.2,23.2-23.2
				s23.2,10.4,23.2,23.2C2576-1168.9,2565.6-1158.4,2552.8-1158.4z"/>
			<path class="st32" d="M2425.2-1238c-31.1,0-56.3,25.2-56.3,56.3v108.1h33v-56.8c7.1,3.2,15,5,23.2,5c31.1,0,56.3-25.2,56.3-56.3
				C2481.5-1212.8,2456.3-1238,2425.2-1238z M2425.2-1158.4c-12.8,0-23.2-10.4-23.2-23.2c0-12.8,10.4-23.2,23.2-23.2
				s23.2,10.4,23.2,23.2C2448.5-1168.9,2438.1-1158.4,2425.2-1158.4z"/>
			<rect x="2624" y="-1287.8" class="st32" width="33" height="162.4"/>
			<path class="st32" d="M2784.6-1181.7c0-31.1-25.2-56.3-56.3-56.3s-56.3,25.2-56.3,56.3c0,31.1,25.2,56.3,56.3,56.3l0,0h56.3
				V-1181.7L2784.6-1181.7z M2705.1-1181.7c0-12.8,10.4-23.2,23.2-23.2s23.2,10.4,23.2,23.2c0,12.8-10.4,23.2-23.2,23.2
				S2705.1-1168.9,2705.1-1181.7z"/>
			<path class="st32" d="M2923.1-1271.3c0,10.9-8.8,19.7-19.7,19.7s-19.7-8.8-19.7-19.7c0-10.9,8.8-19.7,19.7-19.7
				S2923.1-1282.1,2923.1-1271.3z M2920-1238h-33v112.6h33V-1238z"/>
			<path class="st32" d="M2838.9-1271.3c0,10.9-8.8,19.7-19.7,19.7s-19.7-8.8-19.7-19.7c0-10.9,8.8-19.7,19.7-19.7
				S2838.9-1282.1,2838.9-1271.3z M2836.5-1238c-0.1,0-0.2,0-0.4,0c-0.1,0-0.2,0-0.4,0c-17.7,0-32.1,13.9-33,31.3
				c-0.1,0.8-0.1,1.6-0.1,2.5v78.8h33v-79.5h33l0,0v-33h-32.1V-1238z"/>
			<path class="st32" d="M3005-1238C3004.9-1238,3004.9-1238,3005-1238C3004.9-1238,3004.9-1238,3005-1238c-0.7,0-1.3,0-2,0.1
				c-16.8,0.6-30.3,13.7-31.7,30.3c-0.1,1.1-0.2,2.3-0.2,3.5l0,0l0,0v45.7h-32.9h-0.1v33h32.3c0.6,0,1.3,0,1.9-0.1
				c17.7-0.6,31.9-15.1,31.9-33c0-0.4,0-0.7,0-1.1v-45.4h33l0,0v-33H3005z"/>
		</g>
		<g>
			<path class="st32" d="M2604.1-1064.8c0,16.9-15.8,30.9-32.2,30.9c-13.6,0-23-10-23-23.1c0-16.8,15.7-30.9,32.2-30.9
				C2594.7-1087.7,2604.1-1077.7,2604.1-1064.8z M2598-1064.2c0-9.9-6.8-17.8-17.5-17.8c-13.3,0-25.4,11.2-25.4,24.5
				c0,10,6.7,17.8,17.4,17.8C2585.4-1039.6,2598-1050.7,2598-1064.2z"/>
			<path class="st32" d="M2647.1-1055.1l-3.6,20.4h-5.8l3.5-20.1c1.3-7.2-2.1-11-8.4-11c-4.2,0-9,2.1-12.8,6.1l-4.4,25h-5.8
				l6.3-35.5h5.8l-0.7,4.1c3.8-3.2,8.6-5,13.6-5C2643.8-1071.2,2648.8-1065.1,2647.1-1055.1z"/>
			<path class="st32" d="M2670.3-1089.1l-9.7,54.4h-5.8l9.7-54.4H2670.3z"/>
			<path class="st32" d="M2686.6-1070.3l-6.3,35.5h-5.8l6.3-35.5H2686.6z M2681.9-1083.6c0-2.2,1.7-3.9,3.9-3.9s4,1.7,4,3.9
				c0,2.1-1.8,3.8-4,3.8C2683.6-1079.8,2681.9-1081.5,2681.9-1083.6z"/>
			<path class="st32" d="M2730.7-1055.1l-3.6,20.4h-5.8l3.5-20.1c1.3-7.2-2.1-11-8.4-11c-4.2,0-9,2.1-12.8,6.1l-4.4,25h-5.8
				l6.3-35.5h5.8l-0.7,4.1c3.8-3.2,8.6-5,13.6-5C2727.4-1071.2,2732.4-1065.1,2730.7-1055.1z"/>
			<path class="st32" d="M2745.2-1050.7c-0.5,6.7,3.4,11.7,10.9,11.7c4.4,0,8.3-1.8,10.2-4.6h6.5c-3.1,6.1-10.1,9.8-17.7,9.8
				c-11.3,0-17.3-8.4-15.5-18.7c1.8-10.6,11.1-18.6,21.8-18.6c10.6,0,16.3,8,13.6,20.4H2745.2z M2745.9-1054.9h23.8
				c0.8-7.2-2.6-11.3-9.1-11.3C2753.4-1066.1,2748-1061.3,2745.9-1054.9z"/>
			<path class="st32" d="M2849.1-1072.5h-6.1c0.1-6.1-4.1-10.1-12.4-10.1c-8.7,0-14.2,4.3-14.2,10.3c0,4.2,3,6.5,9,7.7l6.7,1.3
				c9,1.8,13.3,5.6,13.3,12.4c0,10.1-8.8,17.2-22.1,17.2c-12.6,0-19.9-6.4-19.1-17.7h6c-0.2,8.1,4.7,12.3,14.4,12.3
				c9.1,0,14.4-4.1,14.4-10.1c0-3.8-1.9-6.7-8.9-8.2l-7.9-1.6c-8.2-1.7-12.4-5.6-12.2-12.6c0.3-10.3,9.9-16.2,21.3-16.2
				C2841.3-1087.9,2849.7-1083.1,2849.1-1072.5z"/>
			<path class="st32" d="M2864.9-1047.8c-0.9,5.3,1.1,8.7,5.8,8.7c1.9,0,4.7-0.7,6.7-1.6l-0.2,5.7c-3.1,0.8-5.5,1.3-7.8,1.3
				c-7.5,0-11.8-5.9-10.3-14.2l3.1-17.5h-9.2l0.8-5h9.3l2.3-13.1h5.8l-2.3,13.1h13.3l-0.8,5H2868L2864.9-1047.8z"/>
			<path class="st32" d="M2923-1055.3c0,11.9-10.6,21.4-22.4,21.4c-9.5,0-15.9-6.7-15.9-15.8c0-12,10.6-21.6,22.5-21.6
				C2916.5-1071.2,2923-1064.4,2923-1055.3z M2917.1-1054.5c0-6.4-4.3-11.3-10.9-11.3c-8.3,0-15.7,7.1-15.7,15.5
				c0,6.4,4.3,11.2,11,11.2C2909.8-1039.2,2917.1-1046.1,2917.1-1054.5z"/>
			<path class="st32" d="M2955.9-1071l-1,5.5c-5.9,0.2-11.1,2.8-15.2,7.7l-4.1,23.1h-5.8l6.3-35.5h5.8l-1.1,5.9
				C2944.9-1068.6,2950.1-1071,2955.9-1071z"/>
			<path class="st32" d="M2963.5-1050.7c-0.5,6.7,3.4,11.7,10.9,11.7c4.4,0,8.3-1.8,10.2-4.6h6.5c-3.1,6.1-10.1,9.8-17.7,9.8
				c-11.3,0-17.3-8.4-15.5-18.7c1.8-10.6,11.1-18.6,21.8-18.6c10.6,0,16.3,8,13.6,20.4H2963.5z M2964.2-1054.9h23.8
				c0.8-7.2-2.6-11.3-9.1-11.3C2971.7-1066.1,2966.3-1061.3,2964.2-1054.9z"/>
		</g>
	</g>
</g>
<g>
	<path class="st1" d="M1600.2,458.7c-29.2,0-52.9,23.7-52.9,52.9s23.7,52.9,52.9,52.9c29.2,0,52.9-23.7,52.9-52.9
		C1653.1,482.4,1629.4,458.7,1600.2,458.7z M1600.2,533.4c-12.1,0-21.9-9.8-21.9-21.9s9.8-21.9,21.9-21.9s21.9,9.8,21.9,21.9
		C1622,523.7,1612.2,533.4,1600.2,533.4z"/>
	<path class="st1" d="M1480.2,458.7c-29.2,0-52.9,23.7-52.9,52.9v101.6h31.1v-53.4c6.7,3,14.1,4.7,21.9,4.7
		c29.2,0,52.9-23.7,52.9-52.9C1533.1,482.4,1509.5,458.7,1480.2,458.7z M1480.2,533.4c-12.1,0-21.9-9.8-21.9-21.9
		s9.8-21.9,21.9-21.9s21.9,9.8,21.9,21.9C1502.1,523.7,1492.3,533.4,1480.2,533.4z"/>
	<rect x="1667.2" y="411.8" class="st1" width="31.1" height="152.7"/>
	<path class="st2" d="M1818.2,511.6c0-29.2-23.7-52.9-52.9-52.9s-52.9,23.7-52.9,52.9s23.7,52.9,52.9,52.9l0,0h52.9V511.6
		L1818.2,511.6z M1743.4,511.6c0-12.1,9.8-21.9,21.9-21.9s21.9,9.8,21.9,21.9c0,12.1-9.8,21.9-21.9,21.9S1743.4,523.7,1743.4,511.6z
		"/>
	<path class="st2" d="M1948.4,427.3c0,10.2-8.3,18.5-18.5,18.5s-18.5-8.3-18.5-18.5s8.3-18.5,18.5-18.5S1948.4,417.1,1948.4,427.3z
		 M1945.4,458.7h-31.1v105.8h31.1V458.7z"/>
	<path class="st2" d="M1869.2,427.3c0,10.2-8.3,18.5-18.5,18.5s-18.5-8.3-18.5-18.5s8.3-18.5,18.5-18.5S1869.2,417.1,1869.2,427.3z
		 M1867,458.7c-0.1,0-0.2,0-0.3,0c-0.1,0-0.2,0-0.3,0c-16.6,0-30.2,13.1-31,29.5c-0.1,0.8-0.1,1.5-0.1,2.3v74.1h31.1v-74.8h31.1l0,0
		v-31H1867V458.7z"/>
	<path class="st1" d="M2025.3,458.7L2025.3,458.7L2025.3,458.7c-0.6,0-1.2,0-1.8,0.1c-15.8,0.6-28.5,12.9-29.8,28.4
		c-0.1,1.1-0.2,2.2-0.2,3.3l0,0l0,0v43h-31h-0.1v31.1h30.3c0.6,0,1.2,0,1.8-0.1c16.7-0.5,30-14.2,30-31c0-0.4,0-0.7,0-1.1v-42.7
		h31.1l0,0v-31.1L2025.3,458.7L2025.3,458.7z"/>
</g>
<g>
	<g>
		<path class="st33" d="M37.2-1378.9c-14.5,0-26.2,11.7-26.2,26.2s11.7,26.2,26.2,26.2s26.2-11.7,26.2-26.2
			C63.3-1367.2,51.6-1378.9,37.2-1378.9z M37.2-1341.9c-6,0-10.8-4.8-10.8-10.8s4.8-10.8,10.8-10.8s10.8,4.8,10.8,10.8
			C48-1346.8,43.1-1341.9,37.2-1341.9z"/>
		<path class="st33" d="M-22.2-1378.9c-14.5,0-26.2,11.7-26.2,26.2v50.3H-33v-26.4c3.3,1.5,7,2.3,10.8,2.3
			c14.5,0,26.2-11.7,26.2-26.2C4-1367.2-7.7-1378.9-22.2-1378.9z M-22.2-1341.9c-6,0-10.8-4.8-10.8-10.8s4.8-10.8,10.8-10.8
			s10.8,4.8,10.8,10.8C-11.4-1346.8-16.2-1341.9-22.2-1341.9z"/>
		<rect x="70.3" y="-1402.1" class="st33" width="15.4" height="75.5"/>
		<path class="st33" d="M145-1352.7c0-14.5-11.7-26.2-26.2-26.2s-26.2,11.7-26.2,26.2s11.7,26.2,26.2,26.2l0,0H145V-1352.7
			L145-1352.7z M108-1352.7c0-6,4.8-10.8,10.8-10.8s10.8,4.8,10.8,10.8s-4.8,10.8-10.8,10.8S108-1346.8,108-1352.7z"/>
		<path class="st33" d="M209.4-1394.4c0,5-4.1,9.1-9.1,9.1s-9.1-4.1-9.1-9.1s4.1-9.1,9.1-9.1S209.4-1399.5,209.4-1394.4z
			 M208-1378.9h-15.4v52.4H208V-1378.9z"/>
		<path class="st33" d="M170.3-1394.4c0,5-4.1,9.1-9.1,9.1s-9.1-4.1-9.1-9.1s4.1-9.1,9.1-9.1
			C166.2-1403.6,170.3-1399.5,170.3-1394.4z M169.2-1378.9c-0.1,0-0.1,0-0.2,0c-0.1,0-0.1,0-0.2,0c-8.2,0-14.9,6.5-15.3,14.6
			c0,0.4,0,0.8,0,1.1v36.6h15.4v-37h15.4l0,0v-15.4h-15.1L169.2-1378.9L169.2-1378.9z"/>
		<path class="st33" d="M247.5-1378.9L247.5-1378.9L247.5-1378.9c-0.3,0-0.6,0-0.9,0c-7.8,0.3-14.1,6.4-14.7,14.1
			c-0.1,0.5-0.1,1.1-0.1,1.6l0,0l0,0v21.3h-15.3l0,0v15.4h15c0.3,0,0.6,0,0.9,0c8.2-0.3,14.9-7,14.9-15.3c0-0.2,0-0.3,0-0.5v-21.1
			h15.4l0,0v-15.4L247.5-1378.9L247.5-1378.9z"/>
	</g>
	
		<text transform="matrix(1 0 0 1 31.5534 -1284.3871)" class="st33" style="font-family:'Campton-BookItalic'; font-size:35.6223px;">Online Store</text>
</g>
<g>
	<g>
		<path class="st33" d="M448.1-1239.7c-31.1,0-56.3,25.2-56.3,56.3s25.2,56.3,56.3,56.3s56.3-25.2,56.3-56.3
			S479.2-1239.7,448.1-1239.7z M448.1-1160.2c-12.8,0-23.2-10.4-23.2-23.2s10.4-23.2,23.2-23.2c12.8,0,23.2,10.4,23.2,23.2
			S461-1160.2,448.1-1160.2z"/>
		<path class="st33" d="M320.6-1239.7c-31.1,0-56.3,25.2-56.3,56.3v108.1h33v-56.8c7.1,3.2,15,5,23.2,5c31.1,0,56.3-25.2,56.3-56.3
			S351.7-1239.7,320.6-1239.7z M320.6-1160.2c-12.8,0-23.2-10.4-23.2-23.2s10.4-23.2,23.2-23.2c12.8,0,23.2,10.4,23.2,23.2
			S333.4-1160.2,320.6-1160.2z"/>
		<rect x="519.4" y="-1289.6" class="st33" width="33" height="162.4"/>
		<path class="st33" d="M680-1183.5c0-31.1-25.2-56.3-56.3-56.3s-56.3,25.2-56.3,56.3s25.2,56.3,56.3,56.3l0,0H680V-1183.5
			L680-1183.5z M600.5-1183.5c0-12.8,10.4-23.2,23.2-23.2s23.2,10.4,23.2,23.2s-10.4,23.2-23.2,23.2S600.5-1170.6,600.5-1183.5z"/>
		<path class="st33" d="M818.5-1273c0,10.9-8.8,19.7-19.7,19.7s-19.7-8.8-19.7-19.7s8.8-19.7,19.7-19.7
			C809.7-1292.7,818.5-1283.9,818.5-1273z M815.4-1239.7h-33v112.6h33V-1239.7z"/>
		<path class="st33" d="M734.3-1273c0,10.9-8.8,19.7-19.7,19.7s-19.7-8.8-19.7-19.7s8.8-19.7,19.7-19.7
			C725.5-1292.7,734.3-1283.9,734.3-1273z M731.9-1239.7c-0.1,0-0.2,0-0.4,0c-0.1,0-0.2,0-0.4,0c-17.7,0-32.1,13.9-33,31.3
			c-0.1,0.8-0.1,1.6-0.1,2.5v78.8h33v-79.5h33l0,0v-33h-32.1V-1239.7z"/>
		<path class="st33" d="M900.3-1239.7L900.3-1239.7L900.3-1239.7c-0.7,0-1.3,0-2,0.1c-16.8,0.6-30.3,13.7-31.7,30.3
			c-0.1,1.1-0.2,2.3-0.2,3.5l0,0l0,0v45.7h-32.9h-0.1v33h32.3c0.6,0,1.3,0,1.9-0.1c17.7-0.6,31.9-15.1,31.9-33c0-0.4,0-0.7,0-1.1
			v-45.4h33l0,0v-33H900.3z"/>
	</g>
	<g>
		<path class="st33" d="M436.1-1069.9c0,15.7-13.2,27.5-29.6,27.5H390l8.3-47.2h16.6C427.9-1089.5,436.1-1081.4,436.1-1069.9z
			 M430.6-1069.1c0-8.9-6.4-15.3-16.3-15.3h-11.4l-6.5,37h11.4C420.4-1047.4,430.6-1056.8,430.6-1069.1z"/>
		<path class="st33" d="M446.7-1056.8c-0.4,6,3.1,10.6,9.9,10.6c4,0,7.6-1.6,9.2-4.2h5.9c-2.8,5.5-9.2,8.9-16,8.9
			c-10.3,0-15.7-7.6-14.1-16.9c1.7-9.6,10.1-16.9,19.7-16.9s14.8,7.2,12.3,18.5H446.7z M447.4-1060.6H469c0.7-6.5-2.4-10.2-8.3-10.2
			C454.2-1070.8,449.3-1066.4,447.4-1060.6z"/>
		<path class="st33" d="M494-1045.9c5.5,0,9.2-2,9.2-5.8c0-2.6-1.8-3.9-5.1-4.4l-6.3-1.1c-4.7-0.8-8.3-2.7-8.3-7.6
			c0-6.5,6.4-10.6,14.8-10.6c6.5,0,13,2.6,12.3,10.2h-4.9c0.3-4-2.8-6-8-6c-5.5,0-8.7,2.2-8.7,5.4c0,2.2,1.4,3.7,5.2,4.4l5.8,1
			c4.3,0.8,8.5,2.3,8.5,7.8c0,6.6-6,11-15,11c-7.7,0-13.9-3.2-13.6-11h5C484.8-1048,488.4-1045.9,494-1045.9z"/>
		<path class="st33" d="M528.1-1074.5l-5.7,32.2h-5.3l5.7-32.2H528.1z M523.8-1086.6c0-2,1.5-3.5,3.5-3.5s3.6,1.5,3.6,3.5
			c0,1.9-1.6,3.5-3.6,3.5S523.8-1084.6,523.8-1086.6z"/>
		<path class="st33" d="M571.8-1074.5l-5.8,32.7c-1.7,9.8-9.3,15.9-18.9,15.9c-8.5,0-14-5-13.9-12.1h5.4c0.1,4.4,3.5,7.6,9.2,7.6
			c6.5,0,11.7-4.4,12.9-11.3l0.8-4.9c-3.5,2.6-7.8,4.2-12.3,4.2c-8.4,0-13.7-6.3-13.7-14.2c0-10.3,9-18.7,19.5-18.7
			c4.5,0,8.3,1.5,10.9,4.1l0.6-3.3L571.8-1074.5L571.8-1074.5z M562.7-1052.8l2.2-12.6c-2.1-3.8-5.8-5.3-9.9-5.3
			c-7.8,0-14.1,6.1-14.1,13.3c0,5.5,3.6,10.3,9.9,10.3C554.8-1047.1,559.2-1048.8,562.7-1052.8z"/>
		<path class="st33" d="M611-1060.8l-3.3,18.5h-5.3l3.2-18.2c1.2-6.5-1.9-10-7.6-10c-3.8,0-8.2,1.9-11.6,5.5l-4,22.6h-5.3l5.7-32.2
			h5.3l-0.6,3.7c3.5-2.9,7.8-4.5,12.3-4.5C608-1075.3,612.6-1069.9,611-1060.8z"/>
		<path class="st33" d="M686.3-1089.5l-30,47.5h-5.1l-13.3-47.5h5.8l11,39.8l25.3-39.8H686.3z"/>
		<path class="st33" d="M685.9-1056.8c-0.4,6,3.1,10.6,9.9,10.6c4,0,7.6-1.6,9.2-4.2h5.9c-2.8,5.5-9.2,8.9-16,8.9
			c-10.3,0-15.7-7.6-14.1-16.9c1.7-9.6,10.1-16.9,19.7-16.9c9.6,0,14.8,7.2,12.3,18.5H685.9z M686.6-1060.6h21.6
			c0.7-6.5-2.4-10.2-8.3-10.2C693.4-1070.8,688.5-1066.4,686.6-1060.6z"/>
		<path class="st33" d="M753.3-1060.8l-3.3,18.5h-5.3l3.2-18.2c1.2-6.5-1.9-10-7.6-10c-3.8,0-8.2,1.9-11.6,5.5l-4,22.6h-5.3
			l5.7-32.2h5.3l-0.6,3.7c3.5-2.9,7.8-4.5,12.3-4.5C750.3-1075.3,754.9-1069.9,753.3-1060.8z"/>
		<path class="st33" d="M770.7-1054.2c-0.8,4.8,1,7.9,5.3,7.9c1.7,0,4.2-0.6,6-1.5l-0.1,5.2c-2.8,0.8-5,1.2-7.1,1.2
			c-6.8,0-10.7-5.3-9.4-12.8l2.8-15.8h-8.3l0.8-4.5h8.4l2.1-11.9h5.3l-2.1,11.9h12.1l-0.8,4.5h-12.1L770.7-1054.2z"/>
		<path class="st33" d="M825.4-1074.5l-5.6,32.2h-5.3l0.6-3.7c-3.5,2.9-7.8,4.5-12.4,4.5c-8.1,0-12.7-5.5-11.1-14.6l3.2-18.5h5.3
			l-3.2,18.2c-1.1,6.5,2,10,7.7,10c3.8,0,8.2-1.9,11.6-5.5l4-22.6H825.4z"/>
		<path class="st33" d="M854.7-1075.2l-0.9,5c-5.3,0.1-10.1,2.6-13.7,6.9l-3.7,20.9h-5.3l5.7-32.2h5.3l-1,5.3
			C844.8-1073,849.5-1075.2,854.7-1075.2z"/>
		<path class="st33" d="M861.6-1056.8c-0.4,6,3.1,10.6,9.9,10.6c4,0,7.6-1.6,9.2-4.2h5.9c-2.8,5.5-9.2,8.9-16,8.9
			c-10.3,0-15.7-7.6-14.1-16.9c1.7-9.6,10.1-16.9,19.7-16.9c9.6,0,14.8,7.2,12.3,18.5H861.6z M862.3-1060.6h21.6
			c0.7-6.5-2.4-10.2-8.3-10.2C869.1-1070.8,864.2-1066.4,862.3-1060.6z"/>
	</g>
</g>
<g>
	<g>
		<g>
			<path class="st1" d="M1581.2-1520.3c-31.1,0-56.3,25.2-56.3,56.3s25.2,56.3,56.3,56.3c31.1,0,56.3-25.2,56.3-56.3
				S1612.2-1520.3,1581.2-1520.3z M1581.2-1440.8c-12.8,0-23.2-10.4-23.2-23.2s10.4-23.2,23.2-23.2c12.8,0,23.2,10.4,23.2,23.2
				S1594-1440.8,1581.2-1440.8z"/>
			<path class="st1" d="M1453.6-1520.3c-31.1,0-56.3,25.2-56.3,56.3v108.1h33v-56.8c7.1,3.2,15,5,23.2,5c31.1,0,56.3-25.2,56.3-56.3
				S1484.7-1520.3,1453.6-1520.3z M1453.6-1440.8c-12.8,0-23.2-10.4-23.2-23.2s10.4-23.2,23.2-23.2c12.8,0,23.2,10.4,23.2,23.2
				S1466.5-1440.8,1453.6-1440.8z"/>
			<rect x="1652.4" y="-1570.1" class="st1" width="33" height="162.4"/>
			<path class="st1" d="M1813-1464c0-31.1-25.2-56.3-56.3-56.3s-56.3,25.2-56.3,56.3s25.2,56.3,56.3,56.3l0,0h56.3V-1464L1813-1464z
				 M1733.5-1464c0-12.8,10.4-23.2,23.2-23.2s23.2,10.4,23.2,23.2s-10.4,23.2-23.2,23.2S1733.5-1451.2,1733.5-1464z"/>
			<path class="st1" d="M1951.5-1553.6c0,10.9-8.8,19.7-19.7,19.7s-19.7-8.8-19.7-19.7s8.8-19.7,19.7-19.7
				S1951.5-1564.4,1951.5-1553.6z M1948.4-1520.3h-33v112.6h33V-1520.3z"/>
			<path class="st1" d="M1867.3-1553.6c0,10.9-8.8,19.7-19.7,19.7s-19.7-8.8-19.7-19.7s8.8-19.7,19.7-19.7
				S1867.3-1564.4,1867.3-1553.6z M1864.9-1520.3c-0.1,0-0.2,0-0.4,0c-0.1,0-0.2,0-0.4,0c-17.7,0-32.1,13.9-33,31.3
				c-0.1,0.8-0.1,1.6-0.1,2.5v78.8h33v-79.5h33l0,0v-33h-32.1V-1520.3z"/>
			<path class="st1" d="M2033.4-1520.3C2033.3-1520.3,2033.3-1520.3,2033.4-1520.3C2033.3-1520.3,2033.3-1520.3,2033.4-1520.3
				c-0.7,0-1.3,0-2,0.1c-16.8,0.6-30.3,13.7-31.7,30.3c-0.1,1.1-0.2,2.3-0.2,3.5l0,0l0,0v45.7h-32.9h-0.1v33h32.3
				c0.6,0,1.3,0,1.9-0.1c17.7-0.6,31.9-15.1,31.9-33c0-0.4,0-0.7,0-1.1v-45.4h33l0,0v-33H2033.4z"/>
		</g>
		<g>
			<path class="st1" d="M1632.5-1347.1c0,16.9-15.8,30.9-32.2,30.9c-13.6,0-23-10-23-23.1c0-16.8,15.7-30.9,32.2-30.9
				C1623.1-1370,1632.5-1360,1632.5-1347.1z M1626.4-1346.5c0-9.9-6.8-17.8-17.5-17.8c-13.3,0-25.4,11.2-25.4,24.5
				c0,10,6.7,17.8,17.4,17.8C1613.8-1321.9,1626.4-1333,1626.4-1346.5z"/>
			<path class="st1" d="M1675.5-1337.4l-3.6,20.4h-5.8l3.5-20.1c1.3-7.2-2.1-11-8.4-11c-4.2,0-9,2.1-12.8,6.1l-4.4,25h-5.8l6.3-35.5
				h5.8l-0.7,4.1c3.8-3.2,8.6-5,13.6-5C1672.2-1353.5,1677.2-1347.5,1675.5-1337.4z"/>
			<path class="st1" d="M1698.7-1371.4l-9.7,54.4h-5.8l9.7-54.4H1698.7z"/>
			<path class="st1" d="M1715-1352.6l-6.3,35.5h-5.8l6.3-35.5H1715z M1710.3-1365.9c0-2.2,1.7-3.9,3.9-3.9s4,1.7,4,3.9
				c0,2.1-1.8,3.8-4,3.8S1710.3-1363.8,1710.3-1365.9z"/>
			<path class="st1" d="M1759.1-1337.4l-3.6,20.4h-5.8l3.5-20.1c1.3-7.2-2.1-11-8.4-11c-4.2,0-9,2.1-12.8,6.1l-4.4,25h-5.8l6.3-35.5
				h5.8l-0.7,4.1c3.8-3.2,8.6-5,13.6-5C1755.8-1353.5,1760.8-1347.5,1759.1-1337.4z"/>
			<path class="st1" d="M1773.6-1333.1c-0.5,6.7,3.4,11.7,10.9,11.7c4.4,0,8.3-1.8,10.2-4.6h6.5c-3.1,6.1-10.1,9.8-17.7,9.8
				c-11.3,0-17.3-8.4-15.5-18.7c1.8-10.6,11.1-18.6,21.8-18.6c10.6,0,16.3,8,13.6,20.4L1773.6-1333.1L1773.6-1333.1z M1774.3-1337.2
				h23.8c0.8-7.2-2.6-11.3-9.1-11.3C1781.8-1348.4,1776.4-1343.6,1774.3-1337.2z"/>
			<path class="st1" d="M1877.5-1354.8h-6.1c0.1-6.1-4.1-10.1-12.4-10.1c-8.7,0-14.2,4.3-14.2,10.3c0,4.2,3,6.5,9,7.7l6.7,1.3
				c9,1.8,13.3,5.6,13.3,12.4c0,10.1-8.8,17.2-22.1,17.2c-12.6,0-19.9-6.4-19.1-17.7h6c-0.2,8.1,4.7,12.3,14.4,12.3
				c9.1,0,14.4-4.1,14.4-10.1c0-3.8-1.9-6.7-8.9-8.2l-7.9-1.6c-8.2-1.7-12.4-5.6-12.2-12.6c0.3-10.3,9.9-16.2,21.3-16.2
				C1869.7-1370.2,1878.1-1365.5,1877.5-1354.8z"/>
			<path class="st1" d="M1893.3-1330.1c-0.9,5.3,1.1,8.7,5.8,8.7c1.9,0,4.7-0.7,6.7-1.6l-0.2,5.7c-3.1,0.8-5.5,1.3-7.8,1.3
				c-7.5,0-11.8-5.9-10.3-14.2l3.1-17.5h-9.2l0.8-5h9.3l2.3-13.1h5.8l-2.3,13.1h13.3l-0.8,5h-13.4L1893.3-1330.1z"/>
			<path class="st1" d="M1951.4-1337.6c0,11.9-10.6,21.4-22.4,21.4c-9.5,0-15.9-6.7-15.9-15.8c0-12,10.6-21.6,22.5-21.6
				C1944.9-1353.5,1951.4-1346.7,1951.4-1337.6z M1945.5-1336.8c0-6.4-4.3-11.3-10.9-11.3c-8.3,0-15.7,7.1-15.7,15.5
				c0,6.4,4.3,11.2,11,11.2C1938.2-1321.5,1945.5-1328.5,1945.5-1336.8z"/>
			<path class="st1" d="M1984.3-1353.4l-1,5.5c-5.9,0.2-11.1,2.8-15.2,7.7l-4.1,23.1h-5.8l6.3-35.5h5.8l-1.1,5.9
				C1973.3-1350.9,1978.5-1353.4,1984.3-1353.4z"/>
			<path class="st1" d="M1991.9-1333.1c-0.5,6.7,3.4,11.7,10.9,11.7c4.4,0,8.3-1.8,10.2-4.6h6.5c-3.1,6.1-10.1,9.8-17.7,9.8
				c-11.3,0-17.3-8.4-15.5-18.7c1.8-10.6,11.1-18.6,21.8-18.6c10.6,0,16.3,8,13.6,20.4L1991.9-1333.1L1991.9-1333.1z M1992.6-1337.2
				h23.8c0.8-7.2-2.6-11.3-9.1-11.3C2000.1-1348.4,1994.7-1343.6,1992.6-1337.2z"/>
		</g>
	</g>
</g>
<g>
	<g>
		<g>
			<path class="st32" d="M2552.8-1778c-31.1,0-56.3,25.2-56.3,56.3c0,31.1,25.2,56.3,56.3,56.3s56.3-25.2,56.3-56.3
				C2609-1752.8,2583.8-1778,2552.8-1778z M2552.8-1698.4c-12.8,0-23.2-10.4-23.2-23.2c0-12.8,10.4-23.2,23.2-23.2
				s23.2,10.4,23.2,23.2C2576-1708.9,2565.6-1698.4,2552.8-1698.4z"/>
			<path class="st32" d="M2425.2-1778c-31.1,0-56.3,25.2-56.3,56.3v108.1h33v-56.8c7.1,3.2,15,5,23.2,5c31.1,0,56.3-25.2,56.3-56.3
				C2481.5-1752.8,2456.3-1778,2425.2-1778z M2425.2-1698.4c-12.8,0-23.2-10.4-23.2-23.2c0-12.8,10.4-23.2,23.2-23.2
				s23.2,10.4,23.2,23.2C2448.5-1708.9,2438.1-1698.4,2425.2-1698.4z"/>
			<rect x="2624" y="-1827.8" class="st32" width="33" height="162.4"/>
			<path class="st32" d="M2784.6-1721.7c0-31.1-25.2-56.3-56.3-56.3s-56.3,25.2-56.3,56.3c0,31.1,25.2,56.3,56.3,56.3l0,0h56.3
				V-1721.7L2784.6-1721.7z M2705.1-1721.7c0-12.8,10.4-23.2,23.2-23.2s23.2,10.4,23.2,23.2c0,12.8-10.4,23.2-23.2,23.2
				S2705.1-1708.9,2705.1-1721.7z"/>
			<path class="st32" d="M2923.1-1811.3c0,10.9-8.8,19.7-19.7,19.7s-19.7-8.8-19.7-19.7s8.8-19.7,19.7-19.7
				S2923.1-1822.1,2923.1-1811.3z M2920-1778h-33v112.6h33V-1778z"/>
			<path class="st32" d="M2838.9-1811.3c0,10.9-8.8,19.7-19.7,19.7s-19.7-8.8-19.7-19.7s8.8-19.7,19.7-19.7
				S2838.9-1822.1,2838.9-1811.3z M2836.5-1778c-0.1,0-0.2,0-0.4,0c-0.1,0-0.2,0-0.4,0c-17.7,0-32.1,13.9-33,31.3
				c-0.1,0.8-0.1,1.6-0.1,2.5v78.8h33v-79.5h33l0,0v-33h-32.1V-1778z"/>
			<path class="st32" d="M3005-1778C3004.9-1778,3004.9-1778,3005-1778C3004.9-1778,3004.9-1778,3005-1778c-0.7,0-1.3,0-2,0.1
				c-16.8,0.6-30.3,13.7-31.7,30.3c-0.1,1.1-0.2,2.3-0.2,3.5l0,0l0,0v45.7h-32.9h-0.1v33h32.3c0.6,0,1.3,0,1.9-0.1
				c17.7-0.6,31.9-15.1,31.9-33c0-0.4,0-0.7,0-1.1v-45.4h33l0,0v-33H3005z"/>
		</g>
		<g>
			<path class="st32" d="M2604.1-1604.8c0,16.9-15.8,30.9-32.2,30.9c-13.6,0-23-10-23-23.1c0-16.8,15.7-30.9,32.2-30.9
				C2594.7-1627.7,2604.1-1617.7,2604.1-1604.8z M2598-1604.2c0-9.9-6.8-17.8-17.5-17.8c-13.3,0-25.4,11.2-25.4,24.5
				c0,10,6.7,17.8,17.4,17.8C2585.4-1579.6,2598-1590.7,2598-1604.2z"/>
			<path class="st32" d="M2647.1-1595.1l-3.6,20.4h-5.8l3.5-20.1c1.3-7.2-2.1-11-8.4-11c-4.2,0-9,2.1-12.8,6.1l-4.4,25h-5.8
				l6.3-35.5h5.8l-0.7,4.1c3.8-3.2,8.6-5,13.6-5C2643.8-1611.2,2648.8-1605.1,2647.1-1595.1z"/>
			<path class="st32" d="M2670.3-1629.1l-9.7,54.4h-5.8l9.7-54.4H2670.3z"/>
			<path class="st32" d="M2686.6-1610.3l-6.3,35.5h-5.8l6.3-35.5H2686.6z M2681.9-1623.6c0-2.2,1.7-3.9,3.9-3.9s4,1.7,4,3.9
				c0,2.1-1.8,3.8-4,3.8C2683.6-1619.8,2681.9-1621.5,2681.9-1623.6z"/>
			<path class="st32" d="M2730.7-1595.1l-3.6,20.4h-5.8l3.5-20.1c1.3-7.2-2.1-11-8.4-11c-4.2,0-9,2.1-12.8,6.1l-4.4,25h-5.8
				l6.3-35.5h5.8l-0.7,4.1c3.8-3.2,8.6-5,13.6-5C2727.4-1611.2,2732.4-1605.1,2730.7-1595.1z"/>
			<path class="st32" d="M2745.2-1590.7c-0.5,6.7,3.4,11.7,10.9,11.7c4.4,0,8.3-1.8,10.2-4.6h6.5c-3.1,6.1-10.1,9.8-17.7,9.8
				c-11.3,0-17.3-8.4-15.5-18.7c1.8-10.6,11.1-18.6,21.8-18.6c10.6,0,16.3,8,13.6,20.4L2745.2-1590.7L2745.2-1590.7z M2745.9-1594.9
				h23.8c0.8-7.2-2.6-11.3-9.1-11.3C2753.4-1606.1,2748-1601.3,2745.9-1594.9z"/>
			<path class="st32" d="M2849.1-1612.5h-6.1c0.1-6.1-4.1-10.1-12.4-10.1c-8.7,0-14.2,4.3-14.2,10.3c0,4.2,3,6.5,9,7.7l6.7,1.3
				c9,1.8,13.3,5.6,13.3,12.4c0,10.1-8.8,17.2-22.1,17.2c-12.6,0-19.9-6.4-19.1-17.7h6c-0.2,8.1,4.7,12.3,14.4,12.3
				c9.1,0,14.4-4.1,14.4-10.1c0-3.8-1.9-6.7-8.9-8.2l-7.9-1.6c-8.2-1.7-12.4-5.6-12.2-12.6c0.3-10.3,9.9-16.2,21.3-16.2
				C2841.3-1627.9,2849.7-1623.1,2849.1-1612.5z"/>
			<path class="st32" d="M2864.9-1587.8c-0.9,5.3,1.1,8.7,5.8,8.7c1.9,0,4.7-0.7,6.7-1.6l-0.2,5.7c-3.1,0.8-5.5,1.3-7.8,1.3
				c-7.5,0-11.8-5.9-10.3-14.2l3.1-17.5h-9.2l0.8-5h9.3l2.3-13.1h5.8l-2.3,13.1h13.3l-0.8,5H2868L2864.9-1587.8z"/>
			<path class="st32" d="M2923-1595.3c0,11.9-10.6,21.4-22.4,21.4c-9.5,0-15.9-6.7-15.9-15.8c0-12,10.6-21.6,22.5-21.6
				C2916.5-1611.2,2923-1604.4,2923-1595.3z M2917.1-1594.5c0-6.4-4.3-11.3-10.9-11.3c-8.3,0-15.7,7.1-15.7,15.5
				c0,6.4,4.3,11.2,11,11.2C2909.8-1579.2,2917.1-1586.1,2917.1-1594.5z"/>
			<path class="st32" d="M2955.9-1611l-1,5.5c-5.9,0.2-11.1,2.8-15.2,7.7l-4.1,23.1h-5.8l6.3-35.5h5.8l-1.1,5.9
				C2944.9-1608.6,2950.1-1611,2955.9-1611z"/>
			<path class="st32" d="M2963.5-1590.7c-0.5,6.7,3.4,11.7,10.9,11.7c4.4,0,8.3-1.8,10.2-4.6h6.5c-3.1,6.1-10.1,9.8-17.7,9.8
				c-11.3,0-17.3-8.4-15.5-18.7c1.8-10.6,11.1-18.6,21.8-18.6c10.6,0,16.3,8,13.6,20.4L2963.5-1590.7L2963.5-1590.7z M2964.2-1594.9
				h23.8c0.8-7.2-2.6-11.3-9.1-11.3C2971.7-1606.1,2966.3-1601.3,2964.2-1594.9z"/>
		</g>
	</g>
</g>
<g>
	<g>
		<g>
			<path class="st1" d="M12.6,0C5.7,0,0,5.6,0,12.6v24.3h7.4V24.1c1.6,0.7,3.4,1.1,5.2,1.1c7,0,12.6-5.7,12.6-12.6
				C25.3,5.6,19.6,0,12.6,0z M12.6,17.8c-2.9,0-5.2-2.3-5.2-5.2s2.3-5.2,5.2-5.2s5.2,2.3,5.2,5.2S15.5,17.8,12.6,17.8z"/>
		</g>
	</g>
</g>
</svg>
