<?xml version="1.0" encoding="utf-8"?>
<!-- Generator: Adobe Illustrator 27.3.1, SVG Export Plug-In . SVG Version: 6.00 Build 0)  -->
<svg version="1.1" id="Layer_1" xmlns="http://www.w3.org/2000/svg" xmlns:xlink="http://www.w3.org/1999/xlink" x="0px" y="0px"
	 viewBox="0 0 150 57.7" style="enable-background:new 0 0 150 57.7;" xml:space="preserve">
<style type="text/css">
	.st0{fill:#E5212A;}
	.st1{fill:#E3242C;}
	.st2{fill:#1E1E1E;}
	.st3{fill:#E6E7E7;}
	.st4{fill:none;stroke:#010101;stroke-width:0.3422;}
	.st5{fill:none;stroke:#010101;stroke-width:0.455;}
	.st6{fill:#E4232B;}
	.st7{fill:#F05253;}
	.st8{fill:#F37A7A;}
	.st9{fill:#F1AC7C;}
	.st10{fill:#E87C62;}
	.st11{fill:#FDE2BE;}
	.st12{fill:none;stroke:#1E1E1E;stroke-width:0.5;stroke-miterlimit:10;stroke-dasharray:2,2,2,2,2,2;}
	.st13{fill:#2F4047;}
	.st14{fill:#F58E81;}
	.st15{fill:none;stroke:#E22026;stroke-width:0.5945;stroke-miterlimit:10;}
	.st16{opacity:0.3;}
	.st17{opacity:0.2;}
	.st18{fill:#E22026;}
	.st19{fill:none;stroke:#4D6470;stroke-width:0.2972;stroke-linecap:round;stroke-linejoin:round;stroke-miterlimit:10;}
	.st20{fill:none;stroke:#4D6470;stroke-width:0.5945;stroke-linecap:round;stroke-linejoin:round;stroke-miterlimit:10;}
	.st21{fill:#DC514D;}
	.st22{fill:#4D6470;}
	.st23{opacity:0.3;fill:#FFFFFF;}
	.st24{opacity:0.5;fill:#FFFFFF;}
	.st25{fill:#D9382F;}
	.st26{fill:#E37367;}
	.st27{fill:none;stroke:#E3242C;stroke-width:11.7181;stroke-miterlimit:10;}
	.st28{fill:none;stroke:#1E1E1E;stroke-width:0.5;stroke-miterlimit:10;stroke-dasharray:1.998,1.998,1.998,1.998,1.998,1.998;}
	
		.st29{fill:none;stroke:#1E1E1E;stroke-width:0.5;stroke-miterlimit:10;stroke-dasharray:1.9921,1.9921,1.9921,1.9921,1.9921,1.9921;}
	
		.st30{fill:none;stroke:#1E1E1E;stroke-width:0.4883;stroke-miterlimit:10;stroke-dasharray:1.9531,1.9531,1.9531,1.9531,1.9531,1.9531;}
	.st31{fill:#FFFFFF;}
	.st32{fill:#E4252B;}
</style>
<g>
	<g>
		<path class="st0" d="M80.7-1666H44.3l-8.5,15H12.1l52.7-87.9h20.8l21.5,87.9H83.9L80.7-1666z M76.9-1684.5l-6-28.2l-15.9,28.2
			H76.9z"/>
		<path class="st0" d="M190.6-1713.3l-11.1,62.3h-20.8l0.8-4.1c-5.8,3.7-11.6,5.8-18.3,5.8c-15.7,0-24.6-10.7-21.3-28.4l6.2-35.6
			h20.8l-5.7,32.4c-1.5,8.9,2.2,12.9,9,12.9c3.9,0,8.2-2.1,12.6-6l6.9-39.2H190.6z"/>
		<path class="st0" d="M243.8-1694.6c-10.3,0.4-17.2,3.1-22.9,8l-6.3,35.6h-20.8l10.9-62.3h20.8l-1.2,6.8c6.3-4.9,13.6-7.8,22.9-7.8
			L243.8-1694.6z"/>
		<path class="st0" d="M323.4-1713.3l-10.9,62.3h-20.8l0.6-3.5c-5.3,3-11.1,4.8-18,4.8c-15,0-25.7-11.1-25.7-27.4
			c0-21.2,18.4-37.7,37.3-37.7c6.8,0,12.1,1.7,16.2,4.6l0.5-3.2H323.4z M295.4-1672.5l3.5-19.5c-3.1-4.4-7.3-5.8-11.8-5.8
			c-9.5,0-17.7,8.2-17.7,18c0,7.8,5,13,12.2,13C286-1666.8,290.7-1668.1,295.4-1672.5z"/>
		<path class="st0" d="M442.9-1711.3h-21.7c0.1-6.6-3.1-11.8-12.3-11.8c-8.5,0-14.4,3.9-14.4,10.3c0,4,3.2,6,9.1,7.3l11.8,2.8
			c13.5,3.1,22.2,8.9,22.2,21.1c0,19.7-17.2,32.4-41.6,32.4c-19.7,0-35.7-9.5-33.9-31.1h21.9c0,8.5,5,12.7,15.9,12.7
			c8.6,0,13.9-3.6,13.9-9c0-2.7-1.7-5.3-8-6.7l-13.9-3.3c-14.4-3.5-21.7-9.8-21.2-22.6c0.8-20.7,19.7-31.1,40.1-31.1
			C425.1-1740.3,445-1734.8,442.9-1711.3z"/>
		<path class="st0" d="M520.4-1713.3l-11.1,62.3h-20.8l0.8-4.1c-5.8,3.7-11.6,5.8-18.3,5.8c-15.7,0-24.6-10.7-21.3-28.4l6.2-35.6
			h20.8l-5.7,32.4c-1.5,8.9,2.2,12.9,9,12.9c3.9,0,8.2-2.1,12.6-6l6.9-39.2H520.4z"/>
		<path class="st0" d="M701.5-1742.3l-16.2,91.3h-21l16.2-91.3H701.5z"/>
		<path class="st0" d="M733.1-1713.3l-11.1,62.3h-20.8l10.9-62.3H733.1z M714-1734.8c0-6.8,5.4-11.8,12.2-11.8
			c6.7,0,12.2,5,12.2,11.8c0,6.7-5.5,11.7-12.2,11.7C719.4-1723.1,714-1728.1,714-1734.8z"/>
		<path class="st0" d="M803.6-1677.5h-44.9c0.4,6.9,4.4,11.8,13,11.8c4.2,0,7.6-1.2,9.9-3.3h20.6c-5.5,12.1-18.5,19.4-33.4,19.4
			c-20.8,0-31.9-14.1-28.7-32.6c3.3-19.4,19.5-32.5,38.8-32.5C799.4-1714.7,809.3-1700.5,803.6-1677.5z M761.1-1689.4h25.6
			c0.4-7.8-4.1-10.2-9.8-10.2C769.2-1699.6,764-1695.7,761.1-1689.4z"/>
		<path class="st0" d="M859.7-1694.6c-10.3,0.4-17.2,3.1-22.9,8l-6.3,35.6h-20.8l10.9-62.3h20.8l-1.2,6.8c6.3-4.9,13.6-7.8,22.9-7.8
			L859.7-1694.6z"/>
		<path class="st0" d="M544.6-1651.9l-0.3,1.9C544.3-1650.6,544.5-1651.3,544.6-1651.9z"/>
		<path class="st0" d="M572.6-1715c-6.8,0-12.6,1.8-17.7,4.8l0.5-3.1h-20.8l-10.7,61.1l-0.1,0.6c-0.1,1.1-0.3,2.2-0.6,3.3
			c-3.3,14.5-15.5,27.2-33.3,27.2h20.8c15.1,0,25.5-7.7,30.7-19.5c1.3-2.9,2.2-6,2.9-9.4l0.3-1.9l0.4-2.4c4.1,3,9.4,4.8,16.2,4.8
			c19.8,0,37.3-16.7,37.3-37.8C598.4-1703.2,587.7-1715,572.6-1715z M560-1666.5c-4.5,0-8.7-1.4-11.8-5.9l3.5-19.5
			c4.6-4.5,9.4-5.9,13.9-5.9c7.5,0,12.2,5.9,12.2,13.2C577.8-1675,569.5-1666.5,560-1666.5z"/>
		<path class="st0" d="M633.8-1715c-6.8,0-12.6,1.8-17.7,4.8l0.5-3.1h-20.8l-10.7,61.1l-0.1,0.6c-0.1,1.1-0.3,2.2-0.6,3.3
			c-3.3,14.5-15.5,27.2-33.3,27.2h20.8c15.1,0,25.5-7.7,30.7-19.5c1.3-2.9,2.2-6,2.9-9.4l0.3-1.9l0.4-2.4c4.1,3,9.4,4.8,16.2,4.8
			c19.8,0,37.3-16.7,37.3-37.8C659.6-1703.2,648.9-1715,633.8-1715z M621.2-1666.5c-4.5,0-8.7-1.4-11.8-5.9l3.5-19.5
			c4.6-4.5,9.4-5.9,13.9-5.9c7.5,0,12.2,5.9,12.2,13.2C639-1675,630.7-1666.5,621.2-1666.5z"/>
	</g>
</g>
<rect x="2217.3" y="-1980.4" class="st1" width="960" height="540"/>
<rect x="2217.3" y="-1440.4" class="st2" width="960" height="540"/>
<text transform="matrix(1 0 0 1 1939.2395 936.4073)" class="st1" style="font-family:'Campton-Bold'; font-size:80.9028px;">FONT FAMILY</text>
<text transform="matrix(1 0 0 1 1744.5886 -676.0439)" class="st1" style="font-family:'Campton-Bold'; font-size:80.9028px;">logo construction</text>
<text transform="matrix(1 0 0 1 1890.3342 124.2105)" class="st1" style="font-family:'Campton-Bold'; font-size:80.9028px;">LOGO MEANING</text>
<g>
	<path class="st3" d="M1526.3,2212.8h1389.5c16.2,0,29.4-13.2,29.4-29.4v-476.3c0-16.2-13.2-29.4-29.4-29.4H1526.3
		c-16.2,0-29.4,13.2-29.4,29.4v476.3C1496.9,2199.6,1510.1,2212.8,1526.3,2212.8z"/>
	<text transform="matrix(1 0 0 1 1549.6267 1961.9325)"><tspan x="0" y="0" class="st2" style="font-family:'Campton-Bold'; font-size:18.2005px;">Campton</tspan><tspan x="87" y="0" class="st2" style="font-family:'Campton-Bold'; font-size:18.2005px;"> </tspan><tspan x="91.7" y="0" class="st2" style="font-family:'Campton-Bold'; font-size:18.2005px;">Bo</tspan><tspan x="115.3" y="0" class="st2" style="font-family:'Campton-Bold'; font-size:18.2005px;">l</tspan><tspan x="120.4" y="0" class="st2" style="font-family:'Campton-Bold'; font-size:18.2005px;">d </tspan><tspan x="0" y="21.8" class="st2" style="font-family:'Campton-Bold'; font-size:18.2005px;">AB</tspan><tspan x="26.6" y="21.8" class="st2" style="font-family:'Campton-Bold'; font-size:18.2005px;">C</tspan><tspan x="41" y="21.8" class="st2" style="font-family:'Campton-Bold'; font-size:18.2005px;">D</tspan><tspan x="54.7" y="21.8" class="st2" style="font-family:'Campton-Bold'; font-size:18.2005px;">E</tspan><tspan x="65.8" y="21.8" class="st2" style="font-family:'Campton-Bold'; font-size:18.2005px;">F</tspan><tspan x="76.2" y="21.8" class="st2" style="font-family:'Campton-Bold'; font-size:18.2005px;">G</tspan><tspan x="91.2" y="21.8" class="st2" style="font-family:'Campton-Bold'; font-size:18.2005px;">H</tspan><tspan x="104.7" y="21.8" class="st2" style="font-family:'Campton-Bold'; font-size:18.2005px;">I</tspan><tspan x="110" y="21.8" class="st2" style="font-family:'Campton-Bold'; font-size:18.2005px;">JK</tspan><tspan x="134.9" y="21.8" class="st2" style="font-family:'Campton-Bold'; font-size:18.2005px;">L</tspan><tspan x="145.5" y="21.8" class="st2" style="font-family:'Campton-Bold'; font-size:18.2005px;">N</tspan><tspan x="159.3" y="21.8" class="st2" style="font-family:'Campton-Bold'; font-size:18.2005px;">O</tspan><tspan x="174.1" y="21.8" class="st2" style="font-family:'Campton-Bold'; font-size:18.2005px;">P</tspan><tspan x="186" y="21.8" class="st2" style="font-family:'Campton-Bold'; font-size:18.2005px;">Q</tspan><tspan x="200.8" y="21.8" class="st2" style="font-family:'Campton-Bold'; font-size:18.2005px;">R</tspan><tspan x="213.8" y="21.8" class="st2" style="font-family:'Campton-Bold'; font-size:18.2005px;">S</tspan><tspan x="226.3" y="21.8" class="st2" style="font-family:'Campton-Bold'; font-size:18.2005px;">T</tspan><tspan x="238.2" y="21.8" class="st2" style="font-family:'Campton-Bold'; font-size:18.2005px;">U</tspan><tspan x="251.7" y="21.8" class="st2" style="font-family:'Campton-Bold'; font-size:18.2005px;">V</tspan><tspan x="266.7" y="21.8" class="st2" style="font-family:'Campton-Bold'; font-size:18.2005px;">W</tspan><tspan x="286.6" y="21.8" class="st2" style="font-family:'Campton-Bold'; font-size:18.2005px;">X</tspan><tspan x="300.1" y="21.8" class="st2" style="font-family:'Campton-Bold'; font-size:18.2005px;">Y</tspan><tspan x="313.6" y="21.8" class="st2" style="font-family:'Campton-Bold'; font-size:18.2005px;">Z (ÇË) </tspan><tspan x="0" y="43.7" class="st2" style="font-family:'Campton-Bold'; font-size:18.2005px;">a</tspan><tspan x="11.5" y="43.7" class="st2" style="font-family:'Campton-Bold'; font-size:18.2005px;">b</tspan><tspan x="23" y="43.7" class="st2" style="font-family:'Campton-Bold'; font-size:18.2005px;">c</tspan><tspan x="33.6" y="43.7" class="st2" style="font-family:'Campton-Bold'; font-size:18.2005px;">d</tspan><tspan x="45.1" y="43.7" class="st2" style="font-family:'Campton-Bold'; font-size:18.2005px;">e</tspan><tspan x="55.5" y="43.7" class="st2" style="font-family:'Campton-Bold'; font-size:18.2005px;">f</tspan><tspan x="64" y="43.7" class="st2" style="font-family:'Campton-Bold'; font-size:18.2005px;">g</tspan><tspan x="75.4" y="43.7" class="st2" style="font-family:'Campton-Bold'; font-size:18.2005px;">hij</tspan><tspan x="97.4" y="43.7" class="st2" style="font-family:'Campton-Bold'; font-size:18.2005px;">k</tspan><tspan x="108.4" y="43.7" class="st2" style="font-family:'Campton-Bold'; font-size:18.2005px;">l</tspan><tspan x="113.5" y="43.7" class="st2" style="font-family:'Campton-Bold'; font-size:18.2005px;">no</tspan><tspan x="135.7" y="43.7" class="st2" style="font-family:'Campton-Bold'; font-size:18.2005px;">p</tspan><tspan x="147.2" y="43.7" class="st2" style="font-family:'Campton-Bold'; font-size:18.2005px;">q</tspan><tspan x="158.7" y="43.7" class="st2" style="font-family:'Campton-Bold'; font-size:18.2005px;">r</tspan><tspan x="166.4" y="43.7" class="st2" style="font-family:'Campton-Bold'; font-size:18.2005px;">s</tspan><tspan x="176.1" y="43.7" class="st2" style="font-family:'Campton-Bold'; font-size:18.2005px;">t</tspan><tspan x="184.7" y="43.7" class="st2" style="font-family:'Campton-Bold'; font-size:18.2005px;">u</tspan><tspan x="195.9" y="43.7" class="st2" style="font-family:'Campton-Bold'; font-size:18.2005px;">v</tspan><tspan x="207.4" y="43.7" class="st2" style="font-family:'Campton-Bold'; font-size:18.2005px;">w</tspan><tspan x="222.5" y="43.7" class="st2" style="font-family:'Campton-Bold'; font-size:18.2005px;">x</tspan><tspan x="233.5" y="43.7" class="st2" style="font-family:'Campton-Bold'; font-size:18.2005px;">y</tspan><tspan x="245.3" y="43.7" class="st2" style="font-family:'Campton-Bold'; font-size:18.2005px;">z (çë) </tspan><tspan x="0" y="65.5" class="st2" style="font-family:'Campton-Bold'; font-size:18.2005px;">1</tspan><tspan x="9.6" y="65.5" class="st2" style="font-family:'Campton-Bold'; font-size:18.2005px;">2</tspan><tspan x="19.9" y="65.5" class="st2" style="font-family:'Campton-Bold'; font-size:18.2005px;">3</tspan><tspan x="30.8" y="65.5" class="st2" style="font-family:'Campton-Bold'; font-size:18.2005px;">4</tspan><tspan x="42.6" y="65.5" class="st2" style="font-family:'Campton-Bold'; font-size:18.2005px;">5</tspan><tspan x="53.7" y="65.5" class="st2" style="font-family:'Campton-Bold'; font-size:18.2005px;">6</tspan><tspan x="64.4" y="65.5" class="st2" style="font-family:'Campton-Bold'; font-size:18.2005px;">7</tspan><tspan x="73.7" y="65.5" class="st2" style="font-family:'Campton-Bold'; font-size:18.2005px;">8</tspan><tspan x="84.9" y="65.5" class="st2" style="font-family:'Campton-Bold'; font-size:18.2005px;">9</tspan><tspan x="96.2" y="65.5" class="st2" style="font-family:'Campton-Bold'; font-size:18.2005px;">0</tspan><tspan x="109.5" y="65.5" class="st2" style="font-family:'Campton-Bold'; font-size:18.2005px;">!</tspan><tspan x="114.9" y="65.5" class="st2" style="font-family:'Campton-Bold'; font-size:18.2005px;">@</tspan><tspan x="133.2" y="65.5" class="st2" style="font-family:'Campton-Bold'; font-size:18.2005px;">£</tspan><tspan x="144.7" y="65.5" class="st2" style="font-family:'Campton-Bold'; font-size:18.2005px;">$</tspan><tspan x="156.9" y="65.5" class="st2" style="font-family:'Campton-Bold'; font-size:18.2005px;">%</tspan><tspan x="176.2" y="65.5" class="st2" style="font-family:'Campton-Bold'; font-size:18.2005px;">^</tspan><tspan x="183.7" y="65.5" class="st2" style="font-family:'Campton-Bold'; font-size:18.2005px;">&amp;</tspan></text>
	<text transform="matrix(1 0 0 1 1549.6267 2094.665)"><tspan x="0" y="0" class="st2" style="font-family:'Campton-Light'; font-size:18.2005px;">Campton</tspan><tspan x="86.3" y="0" class="st2" style="font-family:'Campton-Light'; font-size:18.2005px;"> </tspan><tspan x="91.3" y="0" class="st2" style="font-family:'Campton-Light'; font-size:18.2005px;">Light </tspan><tspan x="0" y="21.8" class="st2" style="font-family:'Campton-Light'; font-size:18.2005px;">AB</tspan><tspan x="26.4" y="21.8" class="st2" style="font-family:'Campton-Light'; font-size:18.2005px;">C</tspan><tspan x="41.3" y="21.8" class="st2" style="font-family:'Campton-Light'; font-size:18.2005px;">D</tspan><tspan x="55.2" y="21.8" class="st2" style="font-family:'Campton-Light'; font-size:18.2005px;">E</tspan><tspan x="66.9" y="21.8" class="st2" style="font-family:'Campton-Light'; font-size:18.2005px;">F</tspan><tspan x="77.6" y="21.8" class="st2" style="font-family:'Campton-Light'; font-size:18.2005px;">G</tspan><tspan x="93.1" y="21.8" class="st2" style="font-family:'Campton-Light'; font-size:18.2005px;">H</tspan><tspan x="106.9" y="21.8" class="st2" style="font-family:'Campton-Light'; font-size:18.2005px;">I</tspan><tspan x="111.6" y="21.8" class="st2" style="font-family:'Campton-Light'; font-size:18.2005px;">JK</tspan><tspan x="135.5" y="21.8" class="st2" style="font-family:'Campton-Light'; font-size:18.2005px;">L</tspan><tspan x="146" y="21.8" class="st2" style="font-family:'Campton-Light'; font-size:18.2005px;">N</tspan><tspan x="160.3" y="21.8" class="st2" style="font-family:'Campton-Light'; font-size:18.2005px;">O</tspan><tspan x="175.9" y="21.8" class="st2" style="font-family:'Campton-Light'; font-size:18.2005px;">P</tspan><tspan x="187.6" y="21.8" class="st2" style="font-family:'Campton-Light'; font-size:18.2005px;">Q</tspan><tspan x="203.2" y="21.8" class="st2" style="font-family:'Campton-Light'; font-size:18.2005px;">R</tspan><tspan x="215.6" y="21.8" class="st2" style="font-family:'Campton-Light'; font-size:18.2005px;">S</tspan><tspan x="227.7" y="21.8" class="st2" style="font-family:'Campton-Light'; font-size:18.2005px;">T</tspan><tspan x="239.3" y="21.8" class="st2" style="font-family:'Campton-Light'; font-size:18.2005px;">U</tspan><tspan x="253.3" y="21.8" class="st2" style="font-family:'Campton-Light'; font-size:18.2005px;">V</tspan><tspan x="267.4" y="21.8" class="st2" style="font-family:'Campton-Light'; font-size:18.2005px;">W</tspan><tspan x="286.7" y="21.8" class="st2" style="font-family:'Campton-Light'; font-size:18.2005px;">X</tspan><tspan x="299.5" y="21.8" class="st2" style="font-family:'Campton-Light'; font-size:18.2005px;">Y</tspan><tspan x="311.9" y="21.8" class="st2" style="font-family:'Campton-Light'; font-size:18.2005px;">Z (ÇË) </tspan><tspan x="0" y="43.7" class="st2" style="font-family:'Campton-Light'; font-size:18.2005px;">a</tspan><tspan x="11.5" y="43.7" class="st2" style="font-family:'Campton-Light'; font-size:18.2005px;">b</tspan><tspan x="23" y="43.7" class="st2" style="font-family:'Campton-Light'; font-size:18.2005px;">c</tspan><tspan x="33.5" y="43.7" class="st2" style="font-family:'Campton-Light'; font-size:18.2005px;">d</tspan><tspan x="45" y="43.7" class="st2" style="font-family:'Campton-Light'; font-size:18.2005px;">e</tspan><tspan x="55.7" y="43.7" class="st2" style="font-family:'Campton-Light'; font-size:18.2005px;">f</tspan><tspan x="62.8" y="43.7" class="st2" style="font-family:'Campton-Light'; font-size:18.2005px;">g</tspan><tspan x="74.2" y="43.7" class="st2" style="font-family:'Campton-Light'; font-size:18.2005px;">hij</tspan><tspan x="94.3" y="43.7" class="st2" style="font-family:'Campton-Light'; font-size:18.2005px;">k</tspan><tspan x="104.5" y="43.7" class="st2" style="font-family:'Campton-Light'; font-size:18.2005px;">l</tspan><tspan x="108.7" y="43.7" class="st2" style="font-family:'Campton-Light'; font-size:18.2005px;">no</tspan><tspan x="130.8" y="43.7" class="st2" style="font-family:'Campton-Light'; font-size:18.2005px;">p</tspan><tspan x="142.3" y="43.7" class="st2" style="font-family:'Campton-Light'; font-size:18.2005px;">q</tspan><tspan x="153.7" y="43.7" class="st2" style="font-family:'Campton-Light'; font-size:18.2005px;">r</tspan><tspan x="160.3" y="43.7" class="st2" style="font-family:'Campton-Light'; font-size:18.2005px;">s</tspan><tspan x="170.3" y="43.7" class="st2" style="font-family:'Campton-Light'; font-size:18.2005px;">t</tspan><tspan x="178.1" y="43.7" class="st2" style="font-family:'Campton-Light'; font-size:18.2005px;">u</tspan><tspan x="188.8" y="43.7" class="st2" style="font-family:'Campton-Light'; font-size:18.2005px;">v</tspan><tspan x="199.8" y="43.7" class="st2" style="font-family:'Campton-Light'; font-size:18.2005px;">w</tspan><tspan x="214.4" y="43.7" class="st2" style="font-family:'Campton-Light'; font-size:18.2005px;">x</tspan><tspan x="224.6" y="43.7" class="st2" style="font-family:'Campton-Light'; font-size:18.2005px;">y</tspan><tspan x="235.9" y="43.7" class="st2" style="font-family:'Campton-Light'; font-size:18.2005px;">z (çë) </tspan><tspan x="0" y="65.5" class="st2" style="font-family:'Campton-Light'; font-size:18.2005px;">1</tspan><tspan x="9.1" y="65.5" class="st2" style="font-family:'Campton-Light'; font-size:18.2005px;">2</tspan><tspan x="19.1" y="65.5" class="st2" style="font-family:'Campton-Light'; font-size:18.2005px;">3</tspan><tspan x="30" y="65.5" class="st2" style="font-family:'Campton-Light'; font-size:18.2005px;">4</tspan><tspan x="41.5" y="65.5" class="st2" style="font-family:'Campton-Light'; font-size:18.2005px;">5</tspan><tspan x="52.1" y="65.5" class="st2" style="font-family:'Campton-Light'; font-size:18.2005px;">6</tspan><tspan x="63" y="65.5" class="st2" style="font-family:'Campton-Light'; font-size:18.2005px;">7</tspan><tspan x="71.9" y="65.5" class="st2" style="font-family:'Campton-Light'; font-size:18.2005px;">8</tspan><tspan x="83.4" y="65.5" class="st2" style="font-family:'Campton-Light'; font-size:18.2005px;">9</tspan><tspan x="94.9" y="65.5" class="st2" style="font-family:'Campton-Light'; font-size:18.2005px;">0</tspan><tspan x="108.2" y="65.5" class="st2" style="font-family:'Campton-Light'; font-size:18.2005px;">!</tspan><tspan x="112.8" y="65.5" class="st2" style="font-family:'Campton-Light'; font-size:18.2005px;">@</tspan><tspan x="131.1" y="65.5" class="st2" style="font-family:'Campton-Light'; font-size:18.2005px;">£</tspan><tspan x="143" y="65.5" class="st2" style="font-family:'Campton-Light'; font-size:18.2005px;">$</tspan><tspan x="154.8" y="65.5" class="st2" style="font-family:'Campton-Light'; font-size:18.2005px;">%</tspan><tspan x="174" y="65.5" class="st2" style="font-family:'Campton-Light'; font-size:18.2005px;">^</tspan><tspan x="180.5" y="65.5" class="st2" style="font-family:'Campton-Light'; font-size:18.2005px;">&amp;</tspan></text>
	<text transform="matrix(1 0 0 1 1628.033 1968.8114)" style="fill:#64666C; font-family:'Lato-Bold'; font-size:18.2005px;"> </text>
	<text transform="matrix(1 0 0 1 1777.6414 2038.4999)" style="fill:#64666C; font-family:'Lato-Bold'; font-size:18.2005px;"> </text>
	<text transform="matrix(1 0 0 1 1796.592 2147.7021)" style="fill:#64666C; font-family:'Lato-Light'; font-size:18.2005px;"> </text>
	<text transform="matrix(1 0 0 1 1549.6248 1767.1805)"><tspan x="0" y="0" class="st2" style="font-family:'Campton-Book'; font-size:52.7815px;">A</tspan><tspan x="39.2" y="0" class="st2" style="font-family:'Campton-Book'; font-size:52.7815px;">B</tspan><tspan x="75" y="0" class="st2" style="font-family:'Campton-Book'; font-size:52.7815px;">C</tspan><tspan x="116.8" y="0" class="st2" style="font-family:'Campton-Book'; font-size:52.7815px;">D</tspan><tspan x="156.1" y="0" class="st2" style="font-family:'Campton-Book'; font-size:52.7815px; letter-spacing:-1;">EF</tspan><tspan x="218.3" y="0" class="st2" style="font-family:'Campton-Book'; font-size:52.7815px;">G</tspan><tspan x="262.1" y="0" class="st2" style="font-family:'Campton-Book'; font-size:52.7815px;">HI</tspan><tspan x="314.2" y="0" class="st2" style="font-family:'Campton-Book'; font-size:52.7815px;">J</tspan><tspan x="345.1" y="0" class="st2" style="font-family:'Campton-Book'; font-size:52.7815px;">K</tspan><tspan x="382.2" y="0" class="st2" style="font-family:'Campton-Book'; font-size:52.7815px;">L</tspan><tspan x="412.7" y="0" class="st2" style="font-family:'Campton-Book'; font-size:52.7815px;">N</tspan><tspan x="452.8" y="0" class="st2" style="font-family:'Campton-Book'; font-size:52.7815px;">O</tspan><tspan x="496.5" y="0" class="st2" style="font-family:'Campton-Book'; font-size:52.7815px;">P</tspan><tspan x="529.7" y="0" class="st2" style="font-family:'Campton-Book'; font-size:52.7815px;">Q</tspan><tspan x="573.3" y="0" class="st2" style="font-family:'Campton-Book'; font-size:52.7815px;">R</tspan><tspan x="608.9" y="0" class="st2" style="font-family:'Campton-Book'; font-size:52.7815px;">S</tspan><tspan x="644" y="0" class="st2" style="font-family:'Campton-Book'; font-size:52.7815px;">T</tspan><tspan x="677.3" y="0" class="st2" style="font-family:'Campton-Book'; font-size:52.7815px;">U</tspan><tspan x="716.7" y="0" class="st2" style="font-family:'Campton-Book'; font-size:52.7815px; letter-spacing:1;">V</tspan><tspan x="758" y="0" class="st2" style="font-family:'Campton-Book'; font-size:52.7815px; letter-spacing:1;">W</tspan><tspan x="814.1" y="0" class="st2" style="font-family:'Campton-Book'; font-size:52.7815px; letter-spacing:1;">X</tspan><tspan x="850.8" y="0" class="st2" style="font-family:'Campton-Book'; font-size:52.7815px;">Y</tspan><tspan x="887" y="0" class="st2" style="font-family:'Campton-Book'; font-size:52.7815px;">Z (ÇË) </tspan><tspan x="0" y="63.3" class="st2" style="font-family:'Campton-Book'; font-size:52.7815px;">a</tspan><tspan x="32.2" y="63.3" class="st2" style="font-family:'Campton-Book'; font-size:52.7815px;">b</tspan><tspan x="64.7" y="63.3" class="st2" style="font-family:'Campton-Book'; font-size:52.7815px;">c</tspan><tspan x="94.4" y="63.3" class="st2" style="font-family:'Campton-Book'; font-size:52.7815px;">d</tspan><tspan x="126.7" y="63.3" class="st2" style="font-family:'Campton-Book'; font-size:52.7815px;">e</tspan><tspan x="156.7" y="63.3" class="st2" style="font-family:'Campton-Book'; font-size:52.7815px;">f</tspan><tspan x="177.8" y="63.3" class="st2" style="font-family:'Campton-Book'; font-size:52.7815px;">g</tspan><tspan x="210" y="63.3" class="st2" style="font-family:'Campton-Book'; font-size:52.7815px;">h</tspan><tspan x="240.3" y="63.3" class="st2" style="font-family:'Campton-Book'; font-size:52.7815px;">i</tspan><tspan x="253.6" y="63.3" class="st2" style="font-family:'Campton-Book'; font-size:52.7815px;">j</tspan><tspan x="266.6" y="63.3" class="st2" style="font-family:'Campton-Book'; font-size:52.7815px;">k</tspan><tspan x="296.2" y="63.3" class="st2" style="font-family:'Campton-Book'; font-size:52.7815px;">l</tspan><tspan x="308.1" y="63.3" class="st2" style="font-family:'Campton-Book'; font-size:52.7815px;">n</tspan><tspan x="338.7" y="63.3" class="st2" style="font-family:'Campton-Book'; font-size:52.7815px;">o</tspan><tspan x="370.4" y="63.3" class="st2" style="font-family:'Campton-Book'; font-size:52.7815px;">p</tspan><tspan x="403" y="63.3" class="st2" style="font-family:'Campton-Book'; font-size:52.7815px;">q</tspan><tspan x="435.2" y="63.3" class="st2" style="font-family:'Campton-Book'; font-size:52.7815px;">r</tspan><tspan x="454.4" y="63.3" class="st2" style="font-family:'Campton-Book'; font-size:52.7815px;">s</tspan><tspan x="482.3" y="63.3" class="st2" style="font-family:'Campton-Book'; font-size:52.7815px;">t</tspan><tspan x="504.7" y="63.3" class="st2" style="font-family:'Campton-Book'; font-size:52.7815px;">u</tspan><tspan x="535.5" y="63.3" class="st2" style="font-family:'Campton-Book'; font-size:52.7815px; letter-spacing:1;">v</tspan><tspan x="567" y="63.3" class="st2" style="font-family:'Campton-Book'; font-size:52.7815px; letter-spacing:1;">w</tspan><tspan x="609.2" y="63.3" class="st2" style="font-family:'Campton-Book'; font-size:52.7815px; letter-spacing:1;">x</tspan><tspan x="638.8" y="63.3" class="st2" style="font-family:'Campton-Book'; font-size:52.7815px;">y</tspan><tspan x="671.1" y="63.3" class="st2" style="font-family:'Campton-Book'; font-size:52.7815px;">z (çë) </tspan><tspan x="0" y="126.7" class="st2" style="font-family:'Campton-Book'; font-size:52.7815px;">1</tspan><tspan x="25.9" y="126.7" class="st2" style="font-family:'Campton-Book'; font-size:52.7815px; letter-spacing:-1;">2</tspan><tspan x="54" y="126.7" class="st2" style="font-family:'Campton-Book'; font-size:52.7815px;">3</tspan><tspan x="84.8" y="126.7" class="st2" style="font-family:'Campton-Book'; font-size:52.7815px; letter-spacing:-1;">4</tspan><tspan x="116.9" y="126.7" class="st2" style="font-family:'Campton-Book'; font-size:52.7815px; letter-spacing:-1;">5</tspan><tspan x="146.8" y="126.7" class="st2" style="font-family:'Campton-Book'; font-size:52.7815px; letter-spacing:-2;">6</tspan><tspan x="176.8" y="126.7" class="st2" style="font-family:'Campton-Book'; font-size:52.7815px; letter-spacing:-1;">7</tspan><tspan x="201.8" y="126.7" class="st2" style="font-family:'Campton-Book'; font-size:52.7815px; letter-spacing:-1;">8</tspan><tspan x="233.9" y="126.7" class="st2" style="font-family:'Campton-Book'; font-size:52.7815px;">9</tspan><tspan x="266.2" y="126.7" class="st2" style="font-family:'Campton-Book'; font-size:52.7815px;">0</tspan><tspan x="304.2" y="126.7" class="st2" style="font-family:'Campton-Book'; font-size:52.7815px;">!</tspan><tspan x="317.4" y="126.7" class="st2" style="font-family:'Campton-Book'; font-size:52.7815px;">@</tspan><tspan x="370.1" y="126.7" class="st2" style="font-family:'Campton-Book'; font-size:52.7815px;">£</tspan><tspan x="403.5" y="126.7" class="st2" style="font-family:'Campton-Book'; font-size:52.7815px; letter-spacing:-1;">$</tspan><tspan x="437.2" y="126.7" class="st2" style="font-family:'Campton-Book'; font-size:52.7815px; letter-spacing:-2;">%</tspan><tspan x="491.9" y="126.7" class="st2" style="font-family:'Campton-Book'; font-size:52.7815px; letter-spacing:-2;">^</tspan><tspan x="510.3" y="126.7" class="st2" style="font-family:'Campton-Book'; font-size:52.7815px;">&amp;</tspan></text>
	<text transform="matrix(1 0 0 1 1956.3391 1781.6268)" style="fill:#010101; font-family:'Lato-Regular'; font-size:52.7815px;"> </text>
	<text transform="matrix(1 0 0 1 1939.8176 1905.3456)" style="fill:#010101; font-family:'Lato-Regular'; font-size:52.7815px;"> </text>
	<text transform="matrix(1 0 0 1 1818.8113 1952.7606)" style="fill:#010101; font-family:'Lato-Regular'; font-size:52.7815px;"> </text>
	<line class="st4" x1="2105.9" y1="1921.8" x2="1549.6" y2="1921.8"/>
	<line class="st4" x1="2105.9" y1="2054.7" x2="1549.6" y2="2054.7"/>
</g>
<line class="st5" x1="1997.4" y1="1184.9" x2="1496.9" y2="1184.9"/>
<line class="st4" x1="1997.4" y1="1571.7" x2="1496.9" y2="1571.7"/>
<text transform="matrix(1 0 0 1 2207.0195 1255.9208)"><tspan x="0" y="0" class="st2" style="font-family:'Campton-Thin'; font-size:31.9337px;">Campton Thin </tspan><tspan x="0" y="38.3" class="st2" style="font-family:'Campton-ThinItalic'; font-size:31.9337px;">Campton Italic </tspan><tspan x="0" y="76.6" class="st2" style="font-family:'Campton-ExtraLight'; font-size:31.9337px;">Campton ExtraLight </tspan><tspan x="0" y="115" class="st2" style="font-family:'Campton-ExtraLightItalic'; font-size:31.9337px;">Campton ExtraLight Italic </tspan><tspan x="0" y="153.3" class="st2" style="font-family:'Campton-Light'; font-size:31.9337px;">Campton Light </tspan><tspan x="0" y="191.6" class="st2" style="font-family:'Campton-LightItalic'; font-size:31.9337px;">Campton Light Italic </tspan><tspan x="0" y="229.9" class="st2" style="font-family:'Campton-Book'; font-size:31.9337px;">Campton Book </tspan><tspan x="0" y="268.2" class="st2" style="font-family:'Campton-BookItalic'; font-size:31.9337px;">Campton Book Italic </tspan><tspan x="0" y="306.6" class="st2" style="font-family:'Campton-Medium'; font-size:31.9337px;">Campton Medium </tspan><tspan x="0" y="344.9" class="st2" style="font-family:'Campton-MediumItalic'; font-size:31.9337px;">Campton Medium Italic</tspan></text>
<text transform="matrix(1 0 0 1 2625.29 1255.9208)"><tspan x="0" y="0" class="st2" style="font-family:'Campton-SemiBold'; font-size:31.9337px;">Campton SemiBold </tspan><tspan x="0" y="38.3" class="st2" style="font-family:'Campton-SemiBoldItalic'; font-size:31.9337px;">Campton SemiBold Italic </tspan><tspan x="0" y="76.6" class="st2" style="font-family:'Campton-Bold'; font-size:31.9337px;">Campton Bold </tspan><tspan x="0" y="115" class="st2" style="font-family:'Campton-BoldItalic'; font-size:31.9337px;">Campton Bold Italic </tspan><tspan x="0" y="153.3" class="st2" style="font-family:'Campton-ExtraBold'; font-size:31.9337px;">Campton ExtraBold </tspan><tspan x="0" y="191.6" class="st2" style="font-family:'Campton-ExtraBoldItalic'; font-size:31.9337px;">Campton ExtraBold Italic </tspan><tspan x="0" y="229.9" class="st2" style="font-family:'Campton-Black'; font-size:31.9337px;">Campton Black </tspan><tspan x="0" y="268.2" class="st2" style="font-family:'Campton-BlackItalic'; font-size:31.9337px;">Campton Black Italic</tspan></text>
<line class="st4" x1="1997.4" y1="1350.7" x2="1496.9" y2="1350.7"/>
<text transform="matrix(1 0 0 1 1496.896 1121.2958)"><tspan x="0" y="0" class="st2" style="font-family:'Campton-Medium'; font-size:43.6812px;">Primary</tspan><tspan x="161.8" y="0" class="st2" style="font-family:'Campton-Medium'; font-size:43.6812px;"> </tspan><tspan x="172.9" y="0" class="st2" style="font-family:'Campton-Medium'; font-size:43.6812px; letter-spacing:-4;">T</tspan><tspan x="196.9" y="0" class="st2" style="font-family:'Campton-Medium'; font-size:43.6812px;">y</tspan><tspan x="223" y="0" class="st2" style="font-family:'Campton-Medium'; font-size:43.6812px;">p</tspan><tspan x="249.2" y="0" class="st2" style="font-family:'Campton-Medium'; font-size:43.6812px; letter-spacing:-1;">e</tspan><tspan x="273.3" y="0" class="st2" style="font-family:'Campton-Medium'; font-size:43.6812px;">f</tspan><tspan x="291.7" y="0" class="st2" style="font-family:'Campton-Medium'; font-size:43.6812px;">a</tspan><tspan x="318" y="0" class="st2" style="font-family:'Campton-Medium'; font-size:43.6812px; letter-spacing:-1;">c</tspan><tspan x="341.8" y="0" class="st2" style="font-family:'Campton-Medium'; font-size:43.6812px;">e</tspan></text>
<text transform="matrix(1 0 0 1 2207.0195 1121.2958)"><tspan x="0" y="0" class="st2" style="font-family:'Campton-Medium'; font-size:50.7962px;">S</tspan><tspan x="33.2" y="0" class="st2" style="font-family:'Campton-Medium'; font-size:50.7962px; letter-spacing:1;">t</tspan><tspan x="57" y="0" class="st2" style="font-family:'Campton-Medium'; font-size:50.7962px;">y</tspan><tspan x="88.2" y="0" class="st2" style="font-family:'Campton-Medium'; font-size:50.7962px;">l</tspan><tspan x="101" y="0" class="st2" style="font-family:'Campton-Medium'; font-size:50.7962px;">e</tspan><tspan x="130.5" y="0" class="st2" style="font-family:'Campton-Medium'; font-size:50.7962px;">s</tspan></text>
<text transform="matrix(1 0 0 1 1487.0581 1300.3055)"><tspan x="0" y="0" class="st1" style="font-family:'Campton-Bold'; font-size:91.2484px;">Campton</tspan><tspan x="416.5" y="0" class="st1" style="font-family:'Campton-Bold'; font-size:91.2484px;"> </tspan><tspan x="439.1" y="0" class="st1" style="font-family:'Campton-Bold'; font-size:91.2484px; letter-spacing:-4;">F</tspan><tspan x="488.1" y="0" class="st1" style="font-family:'Campton-Bold'; font-size:91.2484px; letter-spacing:-2;">o</tspan><tspan x="540.6" y="0" class="st1" style="font-family:'Campton-Bold'; font-size:91.2484px; letter-spacing:-3;">n</tspan><tspan x="592.8" y="0" class="st1" style="font-family:'Campton-Bold'; font-size:91.2484px;">t</tspan></text>
<text transform="matrix(1 0 0 1 1496.896 1428.3844)"><tspan x="0" y="0" class="st2" style="font-family:'Campton-Medium'; font-size:21.8406px;">Campton</tspan><tspan x="102.6" y="0" class="st2" style="font-family:'Campton-Medium'; font-size:21.8406px;"> </tspan><tspan x="108.4" y="0" class="st2" style="font-family:'Campton-Medium'; font-size:21.8406px;">i</tspan><tspan x="114.2" y="0" class="st2" style="font-family:'Campton-Medium'; font-size:21.8406px;">s a f</tspan><tspan x="159.7" y="0" class="st2" style="font-family:'Campton-Medium'; font-size:21.8406px;">r</tspan><tspan x="167.9" y="0" class="st2" style="font-family:'Campton-Medium'; font-size:21.8406px;">e</tspan><tspan x="180.5" y="0" class="st2" style="font-family:'Campton-Medium'; font-size:21.8406px;">e </tspan><tspan x="198.8" y="0" class="st2" style="font-family:'Campton-Medium'; font-size:21.8406px;">t</tspan><tspan x="209" y="0" class="st2" style="font-family:'Campton-Medium'; font-size:21.8406px;">yp</tspan><tspan x="235.8" y="0" class="st2" style="font-family:'Campton-Medium'; font-size:21.8406px;">e</tspan><tspan x="248.1" y="0" class="st2" style="font-family:'Campton-Medium'; font-size:21.8406px;">f</tspan><tspan x="257.6" y="0" class="st2" style="font-family:'Campton-Medium'; font-size:21.8406px;">a</tspan><tspan x="271" y="0" class="st2" style="font-family:'Campton-Medium'; font-size:21.8406px;">c</tspan><tspan x="283.3" y="0" class="st2" style="font-family:'Campton-Medium'; font-size:21.8406px;">e </tspan><tspan x="301.6" y="0" class="st2" style="font-family:'Campton-Medium'; font-size:21.8406px;">a</tspan><tspan x="315" y="0" class="st2" style="font-family:'Campton-Medium'; font-size:21.8406px;">nd </tspan><tspan x="347.1" y="0" class="st2" style="font-family:'Campton-Medium'; font-size:21.8406px;">c</tspan><tspan x="359.9" y="0" class="st2" style="font-family:'Campton-Medium'; font-size:21.8406px;">a</tspan><tspan x="373.2" y="0" class="st2" style="font-family:'Campton-Medium'; font-size:21.8406px;">n </tspan><tspan x="0" y="26.2" class="st2" style="font-family:'Campton-Medium'; font-size:21.8406px;">b</tspan><tspan x="13.4" y="26.2" class="st2" style="font-family:'Campton-Medium'; font-size:21.8406px;">e d</tspan><tspan x="45.2" y="26.2" class="st2" style="font-family:'Campton-Medium'; font-size:21.8406px;">o</tspan><tspan x="57.9" y="26.2" class="st2" style="font-family:'Campton-Medium'; font-size:21.8406px;">w</tspan><tspan x="75.1" y="26.2" class="st2" style="font-family:'Campton-Medium'; font-size:21.8406px;">n</tspan><tspan x="88" y="26.2" class="st2" style="font-family:'Campton-Medium'; font-size:21.8406px;">l</tspan><tspan x="93.3" y="26.2" class="st2" style="font-family:'Campton-Medium'; font-size:21.8406px;">oa</tspan><tspan x="119.8" y="26.2" class="st2" style="font-family:'Campton-Medium'; font-size:21.8406px;">d</tspan><tspan x="133.2" y="26.2" class="st2" style="font-family:'Campton-Medium'; font-size:21.8406px;">e</tspan><tspan x="145.7" y="26.2" class="st2" style="font-family:'Campton-Medium'; font-size:21.8406px;">d </tspan><tspan x="164.9" y="26.2" class="st2" style="font-family:'Campton-Medium'; font-size:21.8406px;">he</tspan><tspan x="190.4" y="26.2" class="st2" style="font-family:'Campton-Medium'; font-size:21.8406px;">r</tspan><tspan x="198.5" y="26.2" class="st2" style="font-family:'Campton-Medium'; font-size:21.8406px;">e</tspan><tspan x="210.9" y="26.2" class="st2" style="font-family:'Campton-Medium'; font-size:21.8406px;">: </tspan><tspan x="0" y="52.4" class="st2" style="font-family:'Campton-Medium'; font-size:21.8406px;"> </tspan><tspan x="0" y="78.6" class="st2" style="font-family:'Campton-Medium'; font-size:21.8406px;">https://www.cufonfonts.com/font/campton</tspan></text>
<line class="st5" x1="2707.5" y1="1184.9" x2="2207" y2="1184.9"/>
<g>
	<g>
		<text transform="matrix(1 0 0 1 1841.3889 2437.0588)" class="st1" style="font-family:'Campton-Bold'; font-size:80.9028px;">Primary COLORS</text>
	</g>
	<g>
		<g>
			<circle class="st6" cx="2046" cy="2699.2" r="108.6"/>
			<g>
				<g>
					<polygon class="st2" points="2046,2807.8 2046.7,2873 2045.2,2873 					"/>
					<g>
						<polygon class="st2" points="2046,2885.9 2038.6,2867.8 2046,2872.1 2053.4,2867.8 						"/>
					</g>
				</g>
			</g>
			<g>
				
					<text transform="matrix(1 0 0 1 1989.4978 2921.4026)" class="st2" style="font-family:'Campton-SemiBold'; font-size:24.8307px;">#e4232b</text>
			</g>
		</g>
		<g>
			<circle class="st2" cx="2388.5" cy="2699.2" r="108.6"/>
			<g>
				<g>
					<polygon class="st2" points="2388.5,2807.8 2389.3,2873 2387.8,2873 					"/>
					<g>
						<polygon class="st2" points="2388.5,2885.9 2381.1,2867.8 2388.5,2872.1 2395.9,2867.8 						"/>
					</g>
				</g>
			</g>
			<g>
				
					<text transform="matrix(1 0 0 1 2334.8604 2923.3555)" class="st2" style="font-family:'Campton-SemiBold'; font-size:24.8307px;">#1e1e1e</text>
			</g>
		</g>
	</g>
</g>
<g>
	<text transform="matrix(1 0 0 1 1765.0574 3151.2058)" class="st1" style="font-family:'Campton-Bold'; font-size:80.9028px;">Secondary COLORS</text>
</g>
<g>
	<g>
		<circle class="st7" cx="1864" cy="3382.4" r="77.6"/>
		<g>
			<g>
				<polygon class="st2" points="1864,3460 1864.8,3525.3 1863.2,3525.3 				"/>
				<g>
					<polygon class="st2" points="1864,3538.1 1856.6,3520 1864,3524.3 1871.4,3520 					"/>
				</g>
			</g>
		</g>
		<g>
			
				<text transform="matrix(1 0 0 1 1807.5909 3573.6169)" class="st2" style="font-family:'Campton-SemiBold'; font-size:24.8307px;">#F05253</text>
		</g>
	</g>
	<g>
		<circle class="st8" cx="2035.3" cy="3382.4" r="77.6"/>
		<g>
			<g>
				<polygon class="st2" points="2035.3,3460 2036,3525.3 2034.5,3525.3 				"/>
				<g>
					<polygon class="st2" points="2035.3,3538.1 2027.9,3520 2035.3,3524.3 2042.7,3520 					"/>
				</g>
			</g>
		</g>
		<g>
			
				<text transform="matrix(1 0 0 1 1978.281 3573.6169)" class="st2" style="font-family:'Campton-SemiBold'; font-size:24.8307px;">#F37A7A</text>
		</g>
	</g>
	<g>
		<circle class="st9" cx="2212" cy="3382.4" r="77.6"/>
		<g>
			<g>
				<polygon class="st2" points="2212,3460 2212.7,3525.3 2211.2,3525.3 				"/>
				<g>
					<polygon class="st2" points="2212,3538.1 2204.6,3520 2212,3524.3 2219.4,3520 					"/>
				</g>
			</g>
		</g>
		<g>
			
				<text transform="matrix(1 0 0 1 2151.5107 3573.6169)" class="st2" style="font-family:'Campton-SemiBold'; font-size:24.8307px;">#F1AC7C</text>
		</g>
	</g>
	<g>
		<circle class="st10" cx="2392.8" cy="3382.4" r="77.6"/>
		<g>
			<g>
				<polygon class="st2" points="2392.8,3460 2393.6,3525.3 2392.1,3525.3 				"/>
				<g>
					<polygon class="st2" points="2392.8,3538.1 2385.4,3520 2392.8,3524.3 2400.2,3520 					"/>
				</g>
			</g>
		</g>
		<g>
			
				<text transform="matrix(1 0 0 1 2335.4543 3573.6169)" class="st2" style="font-family:'Campton-SemiBold'; font-size:24.8307px;">#E87C62</text>
		</g>
	</g>
	<g>
		<circle class="st11" cx="2570.5" cy="3382.4" r="77.6"/>
		<g>
			<g>
				<polygon class="st2" points="2570.5,3460 2571.3,3525.3 2569.8,3525.3 				"/>
				<g>
					<polygon class="st2" points="2570.5,3538.1 2563.1,3520 2570.5,3524.3 2577.9,3520 					"/>
				</g>
			</g>
		</g>
		<g>
			
				<text transform="matrix(1 0 0 1 2511.8777 3573.6169)" class="st2" style="font-family:'Campton-SemiBold'; font-size:24.8307px;">#FDE2BE</text>
		</g>
	</g>
</g>
<g>
	<g>
		<line class="st12" x1="1491.1" y1="-556.2" x2="1491.1" y2="-491.9"/>
		<line class="st12" x1="1548" y1="-556.2" x2="1548" y2="-491.9"/>
	</g>
	<text transform="matrix(1 0 0 1 1508.2684 -517.6331)" class="st2" style="font-family:'Campton-Medium'; font-size:21.6555px;">x1</text>
</g>
<g>
	<g>
		<path class="st1" d="M2183.2,715.2c0,0,101.5-84.8,101.5-84.8l0.7-0.6l1,0l103,0.8c0,0-4,2.1-4,2.1l27.3-44.7c0,0,1.1-1.8,1.1-1.8
			s2.3-0.6,2.3-0.6l112.1-30.5c4.3-1.2,8.7,1.4,9.8,5.6c1.2,4.4-1.5,8.9-5.9,9.9c0,0-113.3,26-113.3,26s3.4-2.5,3.4-2.5l-29.1,43.6
			l-1.5,2.3c0,0-2.5-0.1-2.5-0.1l-102.9-4.8l1.7-0.6C2288,634.5,2183.2,715.2,2183.2,715.2L2183.2,715.2z"/>
	</g>
	<path class="st2" d="M2466.1,542.9c26.6-26.6,26.6-69.8,0-96.4c-26.6-26.6-69.8-26.6-96.4,0c-26.6,26.6-26.6,69.8,0,96.4l0,0
		l19.9,19.9l28.3,28.3l18.2-18.2L2466.1,542.9L2466.1,542.9z M2397.9,474.8c11-11,28.8-11,39.8,0c11,11,11,28.8,0,39.8
		c-11,11-28.8,11-39.8,0C2386.9,503.6,2386.9,485.8,2397.9,474.8z"/>
	<g>
		<path class="st13" d="M3011,404.5c0,0,1.1-2.7,7.9-1.9c6.8,0.8,7.5,9.8,10.9,16.3c3.4,6.4,7,9.5,7,9.5s0.5,3.9-6.9,6.1
			c-7.4,2.2-22-1.5-22-1.5s-1.9-17.1,0.9-22.3C3011.7,405.5,3011,404.5,3011,404.5z"/>
		<path class="st13" d="M2991,575.2l9.2,0.6c0,0,3.9-35.6,8.2-61.5c0-0.1,0-0.2,0-0.3c1.8-10.6,3.6-19.5,5.2-23.7
			c0,0,2.1,33.2,2.8,47.9c0.6,14.7,3.6,40.5,3.6,40.5l8.5,1.3c0,0,1.4-51.3,0.6-61c-0.8-9.7,3-45.6-3.6-54.5h-23.8
			c0,0-9.2,50.4-9.9,64.4C2991.3,542.9,2991,575.2,2991,575.2z"/>
		<polygon class="st14" points="3022.1,578.8 3022.3,581.6 3022.6,588 3027.4,588.7 3027.5,581.8 3027.5,579.1 		"/>
		<path class="st14" d="M2993.1,585.8l5.4,1.5c0,0,0.1-3.2,0.3-6.3c0.1-2,0.2-3.9,0.2-4.9c0-0.4,0-0.6,0-0.7l-5.8-0.6l0,1.8l0,4.1
			L2993.1,585.8z"/>
		<path class="st15" d="M3020.7,586.5c0,0-0.9-3.6-2.3-3.4C3017,583.3,3020.7,586.5,3020.7,586.5z"/>
		<path class="st15" d="M3020.3,586.5c0,0-3.3-2.4-4-1.2C3015.7,586.6,3020.3,586.5,3020.3,586.5z"/>
		<path class="st15" d="M2991,586.9c0,0-0.7-3.8-1.6-3.7C2988.6,583.2,2991,586.9,2991,586.9z"/>
		<path class="st15" d="M2991.2,588.1c0,0-2-3.9-3-3S2991.2,588.1,2991.2,588.1z"/>
		<path class="st13" d="M3016.5,591.2c0,0,10.2,0.3,10.9,0.2c0.7-0.1,1.6-0.1,1.6-0.9c0-0.4-0.4-2.8-0.4-3.6
			c-0.1-0.8,0.1-1.3-0.9-1.5c-1-0.3-6.1-0.9-6.7-0.2c-0.6,0.6-2.7,3-4.2,3.3c-1.5,0.3-2.8,0.2-2.9,1
			C3013.8,590.3,3013.8,591.1,3016.5,591.2z"/>
		<path class="st13" d="M2987.1,591.2c0,0,10.2,0.3,10.9,0.2c0.7-0.1,1.5-0.3,1.6-0.7c0.1-0.4-0.3-3-0.4-3.8
			c-0.1-0.8,0.1-1.3-0.9-1.5c-1-0.3-6.1-0.9-6.7-0.2c-0.6,0.6-2.7,3-4.2,3.3c-1.5,0.3-2.8,0.2-2.9,1
			C2984.4,590.3,2984.4,591.1,2987.1,591.2z"/>
		<path class="st16" d="M3008.5,513.9c1.8-10.6,3.6-19.5,5.2-23.7l-1.1-6C3012.7,484.2,3009.9,505.7,3008.5,513.9z"/>
		<path class="st17" d="M3022.1,578.8l0.1,2.8c1.3,0.1,4,0.1,5.2,0.2l0-2.6L3022.1,578.8z"/>
		<path class="st17" d="M2993.1,580.7l5.6,0.3c0.1-2,0.2-3.9,0.2-4.9l-5.7,0.6L2993.1,580.7z"/>
		<polygon class="st18" points="2989.5,574.8 2990.3,579.2 3000.5,580 3001.8,574.8 		"/>
		<polygon class="st18" points="3018.8,576.2 3019.6,580.6 3030.3,581.1 3030.3,576.2 		"/>
		<path class="st18" d="M2985.3,453.9c0,0,7.9,5.8,11.4,5.6c3.5-0.2,5.8-6.1,5.8-6.1l-0.5,11.1h23.8V463c0,0,6.8,1.6,8.7-2.4
			c1.9-4-0.4-17.6-0.7-21.2c-0.4-3.6-1.1-9.7-5.2-10.6c-4.1-0.8-15.9-1-18.7-0.6c-2.8,0.4-7.6,2.4-8.7,8.5
			c-1.1,6.1-5.2,16.7-5.2,16.7s-6.3-1.2-8.6-2.3L2985.3,453.9z M3026.6,457.4l1-5.2l0.7-3.7c0.5,2,0.7,8.9,0.7,8.9H3026.6z"/>
		<path class="st14" d="M3014,455.8l-3.7-4.5l-5.2-0.8l-0.8,4.7l4,1.5c0,0,1.9,2.3,5.8,1.9V455.8z"/>
		<path class="st14" d="M2987.2,451.1l-1.9-3.6l-4.7-2l-1.8,4.9l3.9,1.5c0,0,1,2.3,2.6,2L2987.2,451.1z"/>
		<path class="st14" d="M3013.9,423.8c0,0,0,0.5,0,1.2c-0.1,0.8,0.1,2.2-1.5,3c0.8,1.7,2.7,6,3.9,7.5c1.8-1.5,5.9-7.3,5.9-7.3
			s-2.9-3.2-0.8-9.1c0,0,2.9-2.2,2.4-3.3c-0.7-1.4-2.6-0.6-3-0.1c0.4-0.6,2.4-7.6,0-10.1c-1.5-1.6-3-1.6-5.9-1.7h-0.1
			c-0.1,0-0.1,0-0.2,0c-1.8-0.1-3.1,0-3.1,0l0,0c-0.1,0.1-0.8,0.8-1.6,2.2c0,0,0,0,0,0c-0.9,1.6-2,3.9-2.3,6.9
			C3007.1,418.6,3008.2,423.2,3013.9,423.8z"/>
		<path class="st19" d="M3012.3,416.8c0,0,2.6,0.9,3.5-1.1"/>
		<path class="st20" d="M3015.4,408.6c0,0,1.5-0.1,2.1,1.2"/>
		<path class="st20" d="M3008.9,408c0.7-0.8,1.6-0.7,1.6-0.7"/>
		<path class="st21" d="M3011.3,415.7l0.5-4.3l-2.5,3.2C3009.2,414.7,3009.5,415.8,3011.3,415.7z"/>
		<path class="st22" d="M3015.4,411.5c0,0.4-0.3,0.8-0.6,0.8c-0.3,0-0.5-0.4-0.5-0.8c0-0.4,0.3-0.8,0.6-0.8
			C3015.2,410.7,3015.4,411,3015.4,411.5z"/>
		<path class="st22" d="M3010.4,410.7c0,0.4-0.3,0.8-0.6,0.8c-0.3,0-0.5-0.4-0.5-0.8c0-0.4,0.3-0.8,0.6-0.8
			C3010.2,409.9,3010.4,410.3,3010.4,410.7z"/>
		<path class="st22" d="M3022.5,412.5c0,0,2.9-3.9,0.5-6.5c-1.5-1.6-5.6-2.6-8.4-2.7C3014.7,404,3014.6,409.8,3022.5,412.5z"/>
		<path class="st22" d="M3009.9,406.1c0,0,2.7-0.2,4.8-2.2c0.1-0.1,0.2-0.2,0.2-0.2c-1.9-0.1-3.4,0.2-3.4,0.2l0,0
			C3011.4,404,3010.7,404.7,3009.9,406.1L3009.9,406.1z"/>
		<path class="st17" d="M3013.9,425.1c2-0.6,3.1-2,3.2-2.1c-1.5,0.8-3.2,0.9-3.2,0.9S3013.9,424.4,3013.9,425.1z"/>
		<path class="st17" d="M3027.6,452.1l0.7-3.7v-5.3C3028.3,443.1,3027.5,448.7,3027.6,452.1z"/>
	</g>
	<g>
		<g>
			<g>
				<g>
					
						<rect x="2921.3" y="436.1" transform="matrix(-0.9984 -5.651903e-02 5.651903e-02 -0.9984 5854.1338 1070.0154)" class="st18" width="41.9" height="32.2"/>
					
						<rect x="2921.3" y="436.1" transform="matrix(-0.9984 -5.651903e-02 5.651903e-02 -0.9984 5854.1338 1070.0154)" class="st16" width="41.9" height="32.2"/>
				</g>
				
					<rect x="2936.5" y="437" transform="matrix(-0.9984 -5.651903e-02 5.651903e-02 -0.9984 5884.4517 1072.5933)" class="st18" width="41.9" height="32.2"/>
				
					<rect x="2936.5" y="437" transform="matrix(-0.9984 -5.651903e-02 5.651903e-02 -0.9984 5884.4517 1072.5933)" class="st23" width="41.9" height="32.2"/>
			</g>
			
				<rect x="2932.7" y="439.3" transform="matrix(-0.9984 -5.651938e-02 5.651938e-02 -0.9984 5844.7119 1046.8768)" class="st16" width="8.9" height="3"/>
			
				<rect x="2967.5" y="441.8" transform="matrix(-0.9984 -5.651972e-02 5.651972e-02 -0.9984 5914.1558 1055.7581)" class="st24" width="8.9" height="4.9"/>
			
				<rect x="2964.5" y="454.6" transform="matrix(-0.9984 -5.652166e-02 5.652166e-02 -0.9984 5912.0688 1080.2913)" class="st16" width="13.7" height="3.8"/>
		</g>
		<g>
			<path class="st25" d="M2910.1,408.4l2.3,2.9c0,0-0.7,0.6-2.1,0.9L2910.1,408.4z"/>
			<polygon class="st26" points="2870.5,587.9 2877.2,587.5 2878.5,581.8 2879.3,578.7 2879.6,577.5 2874.4,577.2 2874.1,577.1 
				2873,580.4 			"/>
			<path class="st26" d="M2908.8,588.8c-0.1,0.5,6.2-0.4,6.2-0.4l0.2-5.3l0.2-4.1l0-0.2l-0.1,0l-6.4,0.6c0,0,0,1.7,0,3.7
				C2909,585.6,2908.9,588.5,2908.8,588.8z"/>
			<path class="st26" d="M2895.5,423.8c0,0,9,2.4,8.3,0.7c-0.4-1-0.4-2.3-0.4-3.3c0-0.7,0.1-1.3,0.1-1.3c3.3,0.2,5.4-2.2,6.4-5.1
				c1.3-3.7,0.8-7.9-0.7-11.4c-0.1-0.3-0.5-1.5-0.8-1.7l-3.5-1.6c0,0-3.5,2.3-5.2,3.7c-1.8,1.4-3.2,7.9-3.2,13
				C2896.4,421.8,2895.5,423.8,2895.5,423.8z"/>
			<path class="st22" d="M2910.4,407.4c0,0,0.5,0.1,0.6,0.7c0,0.6-0.4,0.8-0.4,0.8L2910.4,407.4z"/>
			<path class="st20" d="M2910.4,404.4c0,0-0.6,0-1.1,0.3"/>
			<path class="st13" d="M2907.3,413.8c0,0-2.6,4.1-6.8,5c-4.2,0.9-5.5-0.5-6-2.9c-0.6-2.4-1.7-4.5-3.1-5.9
				c-1.4-1.5-0.6-5.5,1.3-8.8c0,0-2-1.6,1.2-3.2c3.2-1.6,4.3,1,7.1-0.5c2.7-1.5-0.9-2.1,1.7,2.7c2.6,4.8,4,1.3,4.4,3.4
				C2907.3,405.7,2909.3,409.4,2907.3,413.8z"/>
			<path class="st18" d="M2906.9,404.6c0.3-0.1,8.6-3.1,8.6-4.4c0.1-1.4-6.4,1.1-6.7,1.2l0,0l-1.7,2.7L2906.9,404.6z"/>
			<path class="st18" d="M2890.2,407.9c0.1,0.2,0.6,1.9,0.8,1.9c0.2,0,0.5,0,0.7,0c0.6,0,1.3-0.1,1.9-0.2c0.7-0.1,1.4-0.2,2.1-0.4
				l0,0c0.7-0.2,1.4-0.3,2-0.6c1.8-0.5,3.4-1.2,4.8-1.8l0,0c0.9-0.4,1.7-0.8,2.3-1.1c1.3-0.6,2.1-1.1,2.1-1.1l0.1-0.2l0.5-0.7l1-1.6
				l0.3-0.5l0,0c0,0,0-0.1,0-0.2c0-0.6-1.3-2.3-1.5-2.6c-1-1.2-2-2.2-3.4-3c-1.8-1-3.9-0.6-5.9-0.2c-0.6,0.1-1.3,0.3-2,0.6
				c0,0,0,0,0,0c-0.1,0.1-0.3,0.1-0.4,0.2h0c0,0-0.1,0-0.1,0c-0.1,0-0.1,0.1-0.2,0.1c0,0-0.1,0-0.1,0.1c-1.5,0.8-3.1,1.8-3.9,2.8
				C2888.8,402.2,2889.9,406.9,2890.2,407.9z"/>
			<path class="st18" d="M2893,426.9c0,0,0.4-2.9,1.3-3.4c0.9-0.6,9.8-0.5,11.2,0.5c1.4,1,1.1,4.2,1.1,4.2L2893,426.9z"/>
			<path class="st26" d="M2908.9,409.2c0,0-1.5-2-3.2-0.7c-1.6,1.2-0.3,4.1,1.6,4.9c0,0,2.5,0.8,2.8-1.7
				C2910.4,409.2,2908.9,409.2,2908.9,409.2z"/>
			<g>
				<g>
					<path class="st18" d="M2915,477.9c0,0,3.4,32.7,4.4,47.7c1,15-2.5,53.4-2.5,53.4h-8.3c0,0-1-38.2-2.4-49.6
						c-1.4-11.4-6.2-26.9-6.2-26.9s-2.9,24.6-5.7,34.6s-12.2,40.6-12.2,40.6l-9.6-1.8c0,0,11.5-39.3,11.5-51.4
						c0-12.2-0.1-36.7,2.8-46.5H2915z"/>
					<path class="st16" d="M2872.5,575.8l9.6,1.8c0,0,9.3-30.6,12.2-40.6c1.6-5.5,3.2-15.4,4.2-23.2c0.9-6.4,1.5-11.3,1.5-11.3
						s4.8,15.5,6.2,26.9c1.4,11.4,2.4,49.6,2.4,49.6h8.3c0,0,3.5-38.4,2.5-53.4c-0.9-15-4.4-47.7-4.4-47.7h-28.3
						c-2.9,9.8-2.8,34.3-2.8,46.5C2884,536.5,2872.5,575.8,2872.5,575.8z"/>
				</g>
				<path class="st16" d="M2898.5,513.8c0.9-6.4,1.5-11.3,1.5-11.3l-0.5-8.9L2898.5,513.8z"/>
			</g>
			<polygon class="st13" points="2917.7,577.4 2907.8,577.4 2908.3,581.5 2917.3,581.5 			"/>
			<polygon class="st13" points="2883.2,576.8 2872.5,572.8 2871.1,578.6 2881.6,581.5 			"/>
			<polygon class="st17" points="2874.4,577.2 2879.3,578.7 2878.5,581.8 2873,580.4 			"/>
			<path class="st17" d="M2909,583.1h6.3l0.2-4.1l0-0.2l-6.4,0.6C2909,579.4,2909,581.2,2909,583.1z"/>
			<path class="st15" d="M2918.3,590.8c0,0.1,4-2.2,2.9-3.3C2920.1,586.4,2918.3,590.8,2918.3,590.8z"/>
			<path class="st15" d="M2917.7,590.7c0,0.1,2.2-4,0.7-4.3C2917,586,2917.7,590.7,2917.7,590.7z"/>
			<path class="st15" d="M2878.1,588.3c0,0,1.3-4.2,2.6-3.5C2882,585.5,2878.1,588.3,2878.1,588.3z"/>
			<path class="st15" d="M2878.5,588.7c0,0,3-3.3,3.8-2.1C2883.2,587.8,2878.5,588.7,2878.5,588.7z"/>
			<path class="st13" d="M2870.3,587.5h7.1c0,0,4.1,2.5,5.9,2.7c1.8,0.2,2.9,0.3,2.8,1.6s-1.1,1.4-4.8,1.4c-3.7-0.1-11,0.4-11.8-0.3
				C2868.7,592.1,2869.2,590.7,2870.3,587.5z"/>
			<path class="st13" d="M2908.8,588.3l6.9,0.1c0,0,4.1,2.5,5.9,2.7c1.8,0.2,2.9,0.3,2.8,1.6s-1.1,1.4-4.8,1.4
				c-3.7-0.1-10.2,0.5-11-0.3C2907.8,593.1,2908.2,591.9,2908.8,588.3z"/>
			<path class="st16" d="M2908.9,401.3c-0.2,0.9-0.4,1.6-1.9,3.2c1.9-0.7,8.5-3.2,8.5-4.4C2915.6,399,2910.6,400.7,2908.9,401.3z"/>
			<path class="st16" d="M2908.9,401.5c0,0,0-0.1,0-0.2c0,0,0,0,0,0l0,0C2908.9,401.3,2908.9,401.4,2908.9,401.5L2908.9,401.5z"/>
			<path class="st16" d="M2906.9,404.6c0,0,0.1,0,0.2-0.1c0,0,0,0,0-0.1C2907,404.5,2907,404.5,2906.9,404.6z"/>
			<path class="st18" d="M2890.2,407.9c0.1,0.2,0.6,1.9,0.8,1.9c0.2,0,0.5,0,0.7,0c0.6,0,1.3-0.1,1.9-0.2c0.7-0.1,1.4-0.2,2.1-0.4
				l0,0c0.7-0.2,1.4-0.3,2-0.6c1.8-0.5,3.4-1.2,4.8-1.8l0,0c0.9-0.4,1.7-0.8,2.3-1.1c1.3-0.6,2.1-1.1,2.1-1.1l0.1-0.2l0.5-0.7l1-1.6
				l0.3-0.5l0,0c0,0,0-0.1,0-0.2c0-0.6-1.3-2.3-1.5-2.6c-1-1.2-2-2.2-3.4-3c-1.8-1-3.9-0.6-5.9-0.2c-0.6,0.1-1.3,0.3-2,0.6
				c0,0,0,0,0,0c-0.1,0.1-0.3,0.1-0.4,0.2h0c0,0-0.1,0-0.1,0c-0.1,0-0.1,0.1-0.2,0.1c0,0-0.1,0-0.1,0.1c-1.5,0.8-3.1,1.8-3.9,2.8
				C2888.8,402.2,2889.9,406.9,2890.2,407.9z"/>
			<path class="st17" d="M2901.5,419.4c0,0,0.9,0.9,1.9,1.8c0-0.7,0.1-1.3,0.1-1.3S2902.3,419.7,2901.5,419.4z"/>
			<path class="st13" d="M2915,478.2v-29.4l5.4-2.2c0,0-1-15.7-8.7-18.2c-7.6-2.5-21.2-3.5-25,0c-2.4,2.2-2.7,5.8-2.8,8.9
				c-0.2,6.3,1.5,12.4,1.8,18.6c0.3,5.1,0.5,10.1,0.6,15.2c0,0.4,0.2,7.1,0.2,7.1C2886.5,478.2,2915,478.2,2915,478.2z"/>
			<path class="st26" d="M2912.1,449.8c0,0,4,13.1,7.9,13.9c3.9,0.8,17.3-6.5,17.3-6.5l6,0l0.8-5.3c0,0-5.6-2.1-9.3,0.4
				c0,0-8.7,3.8-11.6,4.9l-4.2-10.1L2912.1,449.8z"/>
		</g>
	</g>
	<g>
		<g>
			<line class="st27" x1="2766" y1="508.8" x2="2812.9" y2="508.8"/>
			<g>
				<polygon class="st1" points="2846,508.8 2799.3,527.9 2810.4,508.8 2799.3,489.7 				"/>
			</g>
		</g>
	</g>
	<g>
		<g>
			<polygon class="st2" points="2417.9,419.4 2417.1,343.2 2418.6,343.2 			"/>
			<g>
				<polygon class="st2" points="2417.9,330.3 2425.3,348.4 2417.9,344.1 2410.5,348.4 				"/>
			</g>
		</g>
	</g>
	<g>
		<text transform="matrix(1 0 0 1 2368.874 284.6859)"><tspan x="0" y="0" class="st2" style="font-family:'Campton-Medium'; font-size:16.6282px;">Location Pin </tspan><tspan x="-19.6" y="20" class="st2" style="font-family:'Campton-Medium'; font-size:16.6282px;">Package Delivery</tspan></text>
	</g>
	<g>
		<g>
			<polygon class="st2" points="2619.8,419.4 2619,343.2 2620.6,343.2 			"/>
			<g>
				<polygon class="st2" points="2619.8,330.3 2627.2,348.4 2619.8,344.1 2612.4,348.4 				"/>
			</g>
		</g>
	</g>
	<text transform="matrix(1 0 0 1 2568.791 304.64)" class="st2" style="font-family:'Campton-Medium'; font-size:16.6282px;">Delivery Guy</text>
	<g>
		<g>
			<polygon class="st2" points="2721.8,419.4 2721,343.2 2722.6,343.2 			"/>
			<g>
				<polygon class="st2" points="2721.8,330.3 2729.2,348.4 2721.8,344.1 2714.4,348.4 				"/>
			</g>
		</g>
	</g>
	<text transform="matrix(1 0 0 1 2697.9893 304.64)" class="st2" style="font-family:'Campton-Medium'; font-size:16.6282px;">Client</text>
	<path class="st2" d="M2721.8,390.5c-13.1,0-23.8,10.7-23.8,23.8c0,13.1,10.7,23.8,23.8,23.8s23.8-10.7,23.8-23.8
		C2745.6,401.1,2734.9,390.5,2721.8,390.5z M2741.8,591h-40V454.6h40V591z"/>
	<path class="st2" d="M2619.8,390.5c-13.1,0-23.8,10.7-23.8,23.8c0,13.1,10.7,23.8,23.8,23.8s23.8-10.7,23.8-23.8
		C2643.6,401.1,2632.9,390.5,2619.8,390.5z M2679.8,454.6v40h-40V591h-40v-95.4c0-22.6,18.3-40.9,40.9-40.9H2679.8z"/>
</g>
<g>
	<path class="st1" d="M1968.1-431.4c-53.6,0-97,43.4-97,97c0,53.6,43.4,97,97,97c53.6,0,97-43.4,97-97
		C2065.1-387.9,2021.7-431.4,1968.1-431.4z M1968.1-294.3c-22.1,0-40.1-17.9-40.1-40.1s17.9-40.1,40.1-40.1
		c22.1,0,40.1,17.9,40.1,40.1S1990.2-294.3,1968.1-294.3z"/>
	<path class="st1" d="M1748.2-431.4c-53.6,0-97,43.4-97,97V-148h56.9v-98c12.2,5.6,25.8,8.7,40.1,8.7c53.6,0,97-43.4,97-97
		C1845.2-387.9,1801.8-431.4,1748.2-431.4z M1748.2-294.3c-22.1,0-40.1-17.9-40.1-40.1s17.9-40.1,40.1-40.1
		c22.1,0,40.1,17.9,40.1,40.1S1770.4-294.3,1748.2-294.3z"/>
	<rect x="2091" y="-517.3" class="st1" width="56.9" height="279.9"/>
	<path class="st1" d="M2367.8-334.3c0-53.6-43.4-97-97-97c-53.6,0-97,43.4-97,97c0,53.6,43.4,97,97,97l0,0h40.1h56.9V-274V-334.3
		L2367.8-334.3z M2230.7-334.3c0-22.1,17.9-40.1,40.1-40.1c22.1,0,40.1,17.9,40.1,40.1s-17.9,40.1-40.1,40.1
		C2248.7-294.3,2230.7-312.2,2230.7-334.3z"/>
	<path class="st1" d="M2606.5-488.8c0,18.7-15.2,33.9-33.9,33.9c-18.7,0-33.9-15.2-33.9-33.9s15.2-33.9,33.9-33.9
		C2591.4-522.7,2606.5-507.5,2606.5-488.8z M2601.1-431.4h-56.9v194h56.9V-431.4z"/>
	<path class="st1" d="M2461.4-488.8c0,18.7-15.2,33.9-33.9,33.9s-33.9-15.2-33.9-33.9s15.2-33.9,33.9-33.9
		S2461.4-507.5,2461.4-488.8z M2457.3-431.4c-0.2,0-0.4,0-0.6,0c-0.2,0-0.4,0-0.6,0c-30.5,0-55.3,23.9-56.8,54
		c-0.1,1.4-0.2,2.8-0.2,4.2v135.8h56.9v-80.3v-56.8h56.9c0,0,0,0,0,0v-56.9H2457.3z"/>
	<path class="st1" d="M2747.6-431.4C2747.6-431.4,2747.6-431.4,2747.6-431.4C2747.6-431.4,2747.6-431.4,2747.6-431.4
		c-1.2,0-2.3,0-3.4,0.1c-28.9,1-52.3,23.6-54.6,52.2c-0.2,2-0.3,4-0.3,6c0,0,0,0,0,0c0,0,0,0,0,0v78.8h-56.8h-0.1v56.9h55.6
		c1.1,0,2.2,0,3.3-0.1c30.6-1,55-26,55-56.8c0-0.6,0-1.3,0-1.9v-21.3v-56.9h56.9l0,0v-56.9H2747.6z"/>
</g>
<g>
	<circle class="st12" cx="2572.7" cy="-488.8" r="33.9"/>
	<circle class="st12" cx="2427.5" cy="-488.8" r="33.9"/>
	<g>
		
			<ellipse transform="matrix(0.9239 -0.3827 0.3827 0.9239 261.0208 643.5645)" class="st28" cx="1748.2" cy="-334.3" rx="40.1" ry="40.1"/>
	</g>
	<g>
		
			<ellipse transform="matrix(0.7071 -0.7071 0.7071 0.7071 748.4545 1138.2527)" class="st29" cx="1748.2" cy="-334.3" rx="97" ry="97"/>
	</g>
	<g>
		
			<ellipse transform="matrix(0.9239 -0.3827 0.3827 0.9239 277.7586 727.7111)" class="st28" cx="1968.1" cy="-334.3" rx="40.1" ry="40.1"/>
	</g>
	<g>
		
			<ellipse transform="matrix(0.7071 -0.7071 0.7071 0.7071 812.8575 1293.7355)" class="st29" cx="1968.1" cy="-334.3" rx="97" ry="97"/>
	</g>
	<g>
		
			<ellipse transform="matrix(0.9239 -0.3827 0.3827 0.9239 300.7986 843.5414)" class="st28" cx="2270.8" cy="-334.3" rx="40.1" ry="40.1"/>
	</g>
	<g>
		
			<ellipse transform="matrix(0.7071 -0.7071 0.7071 0.7071 901.5103 1507.7622)" class="st29" cx="2270.8" cy="-334.3" rx="97" ry="97"/>
	</g>
	<g>
		<line class="st12" x1="2091" y1="-99.6" x2="2091" y2="-556.2"/>
		<line class="st12" x1="2147.9" y1="-99.6" x2="2147.9" y2="-556.2"/>
	</g>
	<g>
		<line class="st12" x1="1651.2" y1="-99.6" x2="1651.2" y2="-556.2"/>
		<line class="st12" x1="1708.1" y1="-99.6" x2="1708.1" y2="-556.2"/>
	</g>
	<g>
		<line class="st12" x1="1871.1" y1="-99.6" x2="1871.1" y2="-556.2"/>
		<line class="st12" x1="1928" y1="-99.6" x2="1928" y2="-556.2"/>
	</g>
	<g>
		<line class="st12" x1="2173.8" y1="-99.6" x2="2173.8" y2="-556.2"/>
		<line class="st12" x1="2230.7" y1="-99.6" x2="2230.7" y2="-556.2"/>
	</g>
	<g>
		<line class="st12" x1="1584.3" y1="-517.3" x2="2850.2" y2="-517.3"/>
		<line class="st12" x1="1584.3" y1="-460.3" x2="2850.2" y2="-460.3"/>
	</g>
	<g>
		<line class="st12" x1="1584.3" y1="-431.4" x2="2850.2" y2="-431.4"/>
		<line class="st12" x1="1584.3" y1="-374.4" x2="2850.2" y2="-374.4"/>
	</g>
	<g>
		<line class="st12" x1="1584.3" y1="-294.3" x2="2850.2" y2="-294.3"/>
		<line class="st12" x1="1584.3" y1="-237.3" x2="2850.2" y2="-237.3"/>
	</g>
	<line class="st12" x1="2399.2" y1="-99.6" x2="2399.2" y2="-556.2"/>
	<line class="st12" x1="2455.9" y1="-99.6" x2="2455.9" y2="-556.2"/>
	<line class="st12" x1="2544.3" y1="-99.6" x2="2544.3" y2="-556.2"/>
	<line class="st12" x1="2601" y1="-99.6" x2="2601" y2="-556.2"/>
	<line class="st12" x1="2689.4" y1="-99.6" x2="2689.4" y2="-556.2"/>
	<line class="st12" x1="2746.3" y1="-99.6" x2="2746.3" y2="-556.2"/>
	<path class="st0" d="M2512.9-374.4L2512.9-374.4C2512.9-374.4,2512.9-374.4,2512.9-374.4L2512.9-374.4z"/>
	<circle class="st30" cx="2456" cy="-374.5" r="56.9"/>
	<circle class="st30" cx="2689.4" cy="-294.3" r="56.9"/>
	<circle class="st30" cx="2746.3" cy="-374.5" r="56.9"/>
</g>
<g>
	<path class="st31" d="M2552.7-1226.1c-31.1,0-56.3,25.2-56.3,56.3c0,31.1,25.2,56.3,56.3,56.3c31.1,0,56.3-25.2,56.3-56.3
		C2609-1200.9,2583.8-1226.1,2552.7-1226.1z M2552.7-1146.5c-12.8,0-23.2-10.4-23.2-23.2c0-12.8,10.4-23.2,23.2-23.2
		c12.8,0,23.2,10.4,23.2,23.2C2576-1157,2565.6-1146.5,2552.7-1146.5z"/>
	<path class="st31" d="M2425.2-1226.1c-31.1,0-56.3,25.2-56.3,56.3v108.1h33v-56.8c7.1,3.2,15,5,23.2,5c31.1,0,56.3-25.2,56.3-56.3
		C2481.5-1200.9,2456.3-1226.1,2425.2-1226.1z M2425.2-1146.5c-12.8,0-23.2-10.4-23.2-23.2c0-12.8,10.4-23.2,23.2-23.2
		c12.8,0,23.2,10.4,23.2,23.2C2448.4-1157,2438-1146.5,2425.2-1146.5z"/>
	<rect x="2624" y="-1275.9" class="st31" width="33" height="162.4"/>
	<path class="st31" d="M2784.6-1169.8c0-31.1-25.2-56.3-56.3-56.3c-31.1,0-56.3,25.2-56.3,56.3c0,31.1,25.2,56.3,56.3,56.3l0,0h56.3
		V-1169.8L2784.6-1169.8z M2705.1-1169.8c0-12.8,10.4-23.2,23.2-23.2c12.8,0,23.2,10.4,23.2,23.2c0,12.8-10.4,23.2-23.2,23.2
		C2715.5-1146.5,2705.1-1157,2705.1-1169.8z"/>
	<path class="st31" d="M2923.1-1259.4c0,10.9-8.8,19.7-19.7,19.7s-19.7-8.8-19.7-19.7c0-10.9,8.8-19.7,19.7-19.7
		S2923.1-1270.2,2923.1-1259.4z M2920-1226.1h-33v112.6h33V-1226.1z"/>
	<path class="st31" d="M2838.9-1259.4c0,10.9-8.8,19.7-19.7,19.7s-19.7-8.8-19.7-19.7c0-10.9,8.8-19.7,19.7-19.7
		S2838.9-1270.2,2838.9-1259.4z M2836.5-1226.1c-0.1,0-0.2,0-0.4,0c-0.1,0-0.2,0-0.4,0c-17.7,0-32.1,13.9-33,31.3
		c-0.1,0.8-0.1,1.6-0.1,2.5v78.8h33v-79.5h33c0,0,0,0,0,0v-33H2836.5z"/>
	<path class="st31" d="M3004.9-1226.1C3004.9-1226.1,3004.9-1226.1,3004.9-1226.1C3004.9-1226.1,3004.9-1226.1,3004.9-1226.1
		c-0.7,0-1.3,0-2,0.1c-16.8,0.6-30.3,13.7-31.7,30.3c-0.1,1.1-0.2,2.3-0.2,3.5c0,0,0,0,0,0s0,0,0,0v45.7h-32.9h-0.1v33h32.3
		c0.6,0,1.3,0,1.9-0.1c17.7-0.6,31.9-15.1,31.9-33c0-0.4,0-0.7,0-1.1v-45.4h33l0,0v-33H3004.9z"/>
</g>
<g>
	<g>
		<g>
			<path class="st31" d="M2552.8-1226.1c-31.1,0-56.3,25.2-56.3,56.3c0,31.1,25.2,56.3,56.3,56.3c31.1,0,56.3-25.2,56.3-56.3
				C2609-1200.9,2583.8-1226.1,2552.8-1226.1z M2552.8-1146.5c-12.8,0-23.2-10.4-23.2-23.2c0-12.8,10.4-23.2,23.2-23.2
				c12.8,0,23.2,10.4,23.2,23.2C2576-1157,2565.6-1146.5,2552.8-1146.5z"/>
			<path class="st31" d="M2425.2-1226.1c-31.1,0-56.3,25.2-56.3,56.3v108.1h33v-56.8c7.1,3.2,15,5,23.2,5
				c31.1,0,56.3-25.2,56.3-56.3C2481.5-1200.9,2456.3-1226.1,2425.2-1226.1z M2425.2-1146.5c-12.8,0-23.2-10.4-23.2-23.2
				c0-12.8,10.4-23.2,23.2-23.2c12.8,0,23.2,10.4,23.2,23.2C2448.5-1157,2438.1-1146.5,2425.2-1146.5z"/>
			<rect x="2624" y="-1275.9" class="st31" width="33" height="162.4"/>
			<path class="st31" d="M2784.6-1169.8c0-31.1-25.2-56.3-56.3-56.3s-56.3,25.2-56.3,56.3c0,31.1,25.2,56.3,56.3,56.3l0,0h56.3
				V-1169.8L2784.6-1169.8z M2705.1-1169.8c0-12.8,10.4-23.2,23.2-23.2s23.2,10.4,23.2,23.2c0,12.8-10.4,23.2-23.2,23.2
				S2705.1-1157,2705.1-1169.8z"/>
			<path class="st31" d="M2923.1-1259.4c0,10.9-8.8,19.7-19.7,19.7s-19.7-8.8-19.7-19.7c0-10.9,8.8-19.7,19.7-19.7
				S2923.1-1270.2,2923.1-1259.4z M2920-1226.1h-33v112.6h33V-1226.1z"/>
			<path class="st31" d="M2838.9-1259.4c0,10.9-8.8,19.7-19.7,19.7s-19.7-8.8-19.7-19.7c0-10.9,8.8-19.7,19.7-19.7
				S2838.9-1270.2,2838.9-1259.4z M2836.5-1226.1c-0.1,0-0.2,0-0.4,0c-0.1,0-0.2,0-0.4,0c-17.7,0-32.1,13.9-33,31.3
				c-0.1,0.8-0.1,1.6-0.1,2.5v78.8h33v-79.5h33c0,0,0,0,0,0v-33H2836.5z"/>
			<path class="st31" d="M3005-1226.1C3004.9-1226.1,3004.9-1226.1,3005-1226.1C3004.9-1226.1,3004.9-1226.1,3005-1226.1
				c-0.7,0-1.3,0-2,0.1c-16.8,0.6-30.3,13.7-31.7,30.3c-0.1,1.1-0.2,2.3-0.2,3.5c0,0,0,0,0,0s0,0,0,0v45.7h-32.9h-0.1v33h32.3
				c0.6,0,1.3,0,1.9-0.1c17.7-0.6,31.9-15.1,31.9-33c0-0.4,0-0.7,0-1.1v-45.4h33l0,0v-33H3005z"/>
		</g>
		<g>
			<path class="st31" d="M2604.1-1052.9c0,16.9-15.8,30.9-32.2,30.9c-13.6,0-23-10-23-23.1c0-16.8,15.7-30.9,32.2-30.9
				C2594.7-1075.8,2604.1-1065.8,2604.1-1052.9z M2598-1052.3c0-9.9-6.8-17.8-17.5-17.8c-13.3,0-25.4,11.2-25.4,24.5
				c0,10,6.7,17.8,17.4,17.8C2585.4-1027.7,2598-1038.8,2598-1052.3z"/>
			<path class="st31" d="M2647.1-1043.2l-3.6,20.4h-5.8l3.5-20.1c1.3-7.2-2.1-11-8.4-11c-4.2,0-9,2.1-12.8,6.1l-4.4,25h-5.8
				l6.3-35.5h5.8l-0.7,4.1c3.8-3.2,8.6-5,13.6-5C2643.8-1059.3,2648.8-1053.2,2647.1-1043.2z"/>
			<path class="st31" d="M2670.3-1077.2l-9.7,54.4h-5.8l9.7-54.4H2670.3z"/>
			<path class="st31" d="M2686.6-1058.4l-6.3,35.5h-5.8l6.3-35.5H2686.6z M2681.9-1071.7c0-2.2,1.7-3.9,3.9-3.9c2.2,0,4,1.7,4,3.9
				c0,2.1-1.8,3.8-4,3.8C2683.6-1067.9,2681.9-1069.6,2681.9-1071.7z"/>
			<path class="st31" d="M2730.7-1043.2l-3.6,20.4h-5.8l3.5-20.1c1.3-7.2-2.1-11-8.4-11c-4.2,0-9,2.1-12.8,6.1l-4.4,25h-5.8
				l6.3-35.5h5.8l-0.7,4.1c3.8-3.2,8.6-5,13.6-5C2727.4-1059.3,2732.4-1053.2,2730.7-1043.2z"/>
			<path class="st31" d="M2745.2-1038.8c-0.5,6.7,3.4,11.7,10.9,11.7c4.4,0,8.3-1.8,10.2-4.6h6.5c-3.1,6.1-10.1,9.8-17.7,9.8
				c-11.3,0-17.3-8.4-15.5-18.7c1.8-10.6,11.1-18.6,21.8-18.6c10.6,0,16.3,8,13.6,20.4H2745.2z M2745.9-1043h23.8
				c0.8-7.2-2.6-11.3-9.1-11.3C2753.4-1054.2,2748-1049.4,2745.9-1043z"/>
			<path class="st31" d="M2849.1-1060.6h-6.1c0.1-6.1-4.1-10.1-12.4-10.1c-8.7,0-14.2,4.3-14.2,10.3c0,4.2,3,6.5,9,7.7l6.7,1.3
				c9,1.8,13.3,5.6,13.3,12.4c0,10.1-8.8,17.2-22.1,17.2c-12.6,0-19.9-6.4-19.1-17.7h6c-0.2,8.1,4.7,12.3,14.4,12.3
				c9.1,0,14.4-4.1,14.4-10.1c0-3.8-1.9-6.7-8.9-8.2l-7.9-1.6c-8.2-1.7-12.4-5.6-12.2-12.6c0.3-10.3,9.9-16.2,21.3-16.2
				C2841.3-1076,2849.7-1071.2,2849.1-1060.6z"/>
			<path class="st31" d="M2864.9-1035.9c-0.9,5.3,1.1,8.7,5.8,8.7c1.9,0,4.7-0.7,6.7-1.6l-0.2,5.7c-3.1,0.8-5.5,1.3-7.8,1.3
				c-7.5,0-11.8-5.9-10.3-14.2l3.1-17.5h-9.2l0.8-5h9.3l2.3-13.1h5.8l-2.3,13.1h13.3l-0.8,5H2868L2864.9-1035.9z"/>
			<path class="st31" d="M2923-1043.4c0,11.9-10.6,21.4-22.4,21.4c-9.5,0-15.9-6.7-15.9-15.8c0-12,10.6-21.6,22.5-21.6
				C2916.5-1059.3,2923-1052.5,2923-1043.4z M2917.1-1042.6c0-6.4-4.3-11.3-10.9-11.3c-8.3,0-15.7,7.1-15.7,15.5
				c0,6.4,4.3,11.2,11,11.2C2909.8-1027.3,2917.1-1034.2,2917.1-1042.6z"/>
			<path class="st31" d="M2955.9-1059.1l-1,5.5c-5.9,0.2-11.1,2.8-15.2,7.7l-4.1,23.1h-5.8l6.3-35.5h5.8l-1.1,5.9
				C2944.9-1056.7,2950.1-1059.1,2955.9-1059.1z"/>
			<path class="st31" d="M2963.5-1038.8c-0.5,6.7,3.4,11.7,10.9,11.7c4.4,0,8.3-1.8,10.2-4.6h6.5c-3.1,6.1-10.1,9.8-17.7,9.8
				c-11.3,0-17.3-8.4-15.5-18.7c1.8-10.6,11.1-18.6,21.8-18.6c10.6,0,16.3,8,13.6,20.4H2963.5z M2964.2-1043h23.8
				c0.8-7.2-2.6-11.3-9.1-11.3C2971.7-1054.2,2966.3-1049.4,2964.2-1043z"/>
		</g>
	</g>
</g>
<g>
	<path class="st1" d="M1600.2,470.6c-29.2,0-52.9,23.7-52.9,52.9c0,29.2,23.7,52.9,52.9,52.9c29.2,0,52.9-23.7,52.9-52.9
		C1653.1,494.3,1629.4,470.6,1600.2,470.6z M1600.2,545.3c-12.1,0-21.9-9.8-21.9-21.9c0-12.1,9.8-21.9,21.9-21.9
		c12.1,0,21.9,9.8,21.9,21.9C1622,535.6,1612.2,545.3,1600.2,545.3z"/>
	<path class="st1" d="M1480.2,470.6c-29.2,0-52.9,23.7-52.9,52.9v101.6h31.1v-53.4c6.7,3,14.1,4.7,21.9,4.7
		c29.2,0,52.9-23.7,52.9-52.9C1533.1,494.3,1509.5,470.6,1480.2,470.6z M1480.2,545.3c-12.1,0-21.9-9.8-21.9-21.9
		c0-12.1,9.8-21.9,21.9-21.9c12.1,0,21.9,9.8,21.9,21.9C1502.1,535.6,1492.3,545.3,1480.2,545.3z"/>
	<rect x="1667.2" y="423.7" class="st1" width="31.1" height="152.7"/>
	<path class="st2" d="M1818.2,523.5c0-29.2-23.7-52.9-52.9-52.9s-52.9,23.7-52.9,52.9c0,29.2,23.7,52.9,52.9,52.9l0,0h52.9V523.5
		L1818.2,523.5z M1743.4,523.5c0-12.1,9.8-21.9,21.9-21.9s21.9,9.8,21.9,21.9c0,12.1-9.8,21.9-21.9,21.9S1743.4,535.6,1743.4,523.5z
		"/>
	<path class="st2" d="M1948.4,439.2c0,10.2-8.3,18.5-18.5,18.5s-18.5-8.3-18.5-18.5c0-10.2,8.3-18.5,18.5-18.5
		S1948.4,429,1948.4,439.2z M1945.4,470.6h-31.1v105.8h31.1V470.6z"/>
	<path class="st2" d="M1869.2,439.2c0,10.2-8.3,18.5-18.5,18.5s-18.5-8.3-18.5-18.5c0-10.2,8.3-18.5,18.5-18.5
		S1869.2,429,1869.2,439.2z M1867,470.6c-0.1,0-0.2,0-0.3,0c-0.1,0-0.2,0-0.3,0c-16.6,0-30.2,13.1-31,29.5c-0.1,0.8-0.1,1.5-0.1,2.3
		v74.1h31.1v-74.8h31.1c0,0,0,0,0,0v-31H1867z"/>
	<path class="st1" d="M2025.3,470.6C2025.3,470.6,2025.3,470.6,2025.3,470.6C2025.3,470.6,2025.3,470.6,2025.3,470.6
		c-0.6,0-1.2,0-1.8,0.1c-15.8,0.6-28.5,12.9-29.8,28.4c-0.1,1.1-0.2,2.2-0.2,3.3c0,0,0,0,0,0c0,0,0,0,0,0v43h-31h-0.1v31.1h30.3
		c0.6,0,1.2,0,1.8-0.1c16.7-0.5,30-14.2,30-31c0-0.4,0-0.7,0-1.1v-42.7h31.1l0,0v-31.1H2025.3z"/>
</g>
<g>
	<g>
		<path class="st32" d="M37.2-1367c-14.5,0-26.2,11.7-26.2,26.2c0,14.5,11.7,26.2,26.2,26.2s26.2-11.7,26.2-26.2
			C63.3-1355.3,51.6-1367,37.2-1367z M37.2-1330c-6,0-10.8-4.8-10.8-10.8c0-6,4.8-10.8,10.8-10.8s10.8,4.8,10.8,10.8
			C48-1334.9,43.1-1330,37.2-1330z"/>
		<path class="st32" d="M-22.2-1367c-14.5,0-26.2,11.7-26.2,26.2v50.3H-33v-26.4c3.3,1.5,7,2.3,10.8,2.3c14.5,0,26.2-11.7,26.2-26.2
			C4-1355.3-7.7-1367-22.2-1367z M-22.2-1330c-6,0-10.8-4.8-10.8-10.8c0-6,4.8-10.8,10.8-10.8c6,0,10.8,4.8,10.8,10.8
			C-11.4-1334.9-16.2-1330-22.2-1330z"/>
		<rect x="70.3" y="-1390.2" class="st32" width="15.4" height="75.5"/>
		<path class="st32" d="M145-1340.8c0-14.5-11.7-26.2-26.2-26.2s-26.2,11.7-26.2,26.2c0,14.5,11.7,26.2,26.2,26.2l0,0H145V-1340.8
			L145-1340.8z M108-1340.8c0-6,4.8-10.8,10.8-10.8s10.8,4.8,10.8,10.8c0,6-4.8,10.8-10.8,10.8S108-1334.9,108-1340.8z"/>
		<path class="st32" d="M209.4-1382.5c0,5-4.1,9.1-9.1,9.1s-9.1-4.1-9.1-9.1c0-5,4.1-9.1,9.1-9.1S209.4-1387.6,209.4-1382.5z
			 M208-1367h-15.4v52.4H208V-1367z"/>
		<path class="st32" d="M170.3-1382.5c0,5-4.1,9.1-9.1,9.1c-5,0-9.1-4.1-9.1-9.1c0-5,4.1-9.1,9.1-9.1
			C166.2-1391.7,170.3-1387.6,170.3-1382.5z M169.2-1367c-0.1,0-0.1,0-0.2,0c-0.1,0-0.1,0-0.2,0c-8.2,0-14.9,6.5-15.3,14.6
			c0,0.4,0,0.8,0,1.1v36.6h15.4v-37h15.4c0,0,0,0,0,0v-15.4H169.2z"/>
		<path class="st32" d="M247.5-1367C247.5-1367,247.5-1367,247.5-1367C247.5-1367,247.5-1367,247.5-1367c-0.3,0-0.6,0-0.9,0
			c-7.8,0.3-14.1,6.4-14.7,14.1c-0.1,0.5-0.1,1.1-0.1,1.6c0,0,0,0,0,0s0,0,0,0v21.3h-15.3h0v15.4h15c0.3,0,0.6,0,0.9,0
			c8.2-0.3,14.9-7,14.9-15.3c0-0.2,0-0.3,0-0.5v-21.1h15.4h0v-15.4H247.5z"/>
	</g>
	
		<text transform="matrix(1 0 0 1 31.5534 -1272.4871)" class="st32" style="font-family:'Campton-BookItalic'; font-size:35.6223px;">Online Store</text>
</g>
<g>
	<g>
		<path class="st32" d="M448.1-1227.8c-31.1,0-56.3,25.2-56.3,56.3s25.2,56.3,56.3,56.3s56.3-25.2,56.3-56.3
			S479.2-1227.8,448.1-1227.8z M448.1-1148.3c-12.8,0-23.2-10.4-23.2-23.2s10.4-23.2,23.2-23.2c12.8,0,23.2,10.4,23.2,23.2
			S461-1148.3,448.1-1148.3z"/>
		<path class="st32" d="M320.6-1227.8c-31.1,0-56.3,25.2-56.3,56.3v108.1h33v-56.8c7.1,3.2,15,5,23.2,5c31.1,0,56.3-25.2,56.3-56.3
			S351.7-1227.8,320.6-1227.8z M320.6-1148.3c-12.8,0-23.2-10.4-23.2-23.2s10.4-23.2,23.2-23.2c12.8,0,23.2,10.4,23.2,23.2
			S333.4-1148.3,320.6-1148.3z"/>
		<rect x="519.4" y="-1277.7" class="st32" width="33" height="162.4"/>
		<path class="st32" d="M680-1171.6c0-31.1-25.2-56.3-56.3-56.3s-56.3,25.2-56.3,56.3s25.2,56.3,56.3,56.3l0,0H680V-1171.6
			L680-1171.6z M600.5-1171.6c0-12.8,10.4-23.2,23.2-23.2s23.2,10.4,23.2,23.2s-10.4,23.2-23.2,23.2S600.5-1158.7,600.5-1171.6z"/>
		<path class="st32" d="M818.5-1261.1c0,10.9-8.8,19.7-19.7,19.7c-10.9,0-19.7-8.8-19.7-19.7s8.8-19.7,19.7-19.7
			C809.7-1280.8,818.5-1272,818.5-1261.1z M815.4-1227.8h-33v112.6h33V-1227.8z"/>
		<path class="st32" d="M734.3-1261.1c0,10.9-8.8,19.7-19.7,19.7c-10.9,0-19.7-8.8-19.7-19.7s8.8-19.7,19.7-19.7
			C725.5-1280.8,734.3-1272,734.3-1261.1z M731.9-1227.8c-0.1,0-0.2,0-0.4,0c-0.1,0-0.2,0-0.4,0c-17.7,0-32.1,13.9-33,31.3
			c-0.1,0.8-0.1,1.6-0.1,2.5v78.8h33v-79.5h33c0,0,0,0,0,0v-33H731.9z"/>
		<path class="st32" d="M900.3-1227.8C900.3-1227.8,900.3-1227.8,900.3-1227.8C900.3-1227.8,900.3-1227.8,900.3-1227.8
			c-0.7,0-1.3,0-2,0.1c-16.8,0.6-30.3,13.7-31.7,30.3c-0.1,1.1-0.2,2.3-0.2,3.5c0,0,0,0,0,0c0,0,0,0,0,0v45.7h-32.9h-0.1v33h32.3
			c0.6,0,1.3,0,1.9-0.1c17.7-0.6,31.9-15.1,31.9-33c0-0.4,0-0.7,0-1.1v-45.4h33h0v-33H900.3z"/>
	</g>
	<g>
		<path class="st32" d="M436.1-1058c0,15.7-13.2,27.5-29.6,27.5H390l8.3-47.2h16.6C427.9-1077.6,436.1-1069.5,436.1-1058z
			 M430.6-1057.2c0-8.9-6.4-15.3-16.3-15.3h-11.4l-6.5,37h11.4C420.4-1035.5,430.6-1044.9,430.6-1057.2z"/>
		<path class="st32" d="M446.7-1044.9c-0.4,6,3.1,10.6,9.9,10.6c4,0,7.6-1.6,9.2-4.2h5.9c-2.8,5.5-9.2,8.9-16,8.9
			c-10.3,0-15.7-7.6-14.1-16.9c1.7-9.6,10.1-16.9,19.7-16.9c9.6,0,14.8,7.2,12.3,18.5H446.7z M447.4-1048.7H469
			c0.7-6.5-2.4-10.2-8.3-10.2C454.2-1058.9,449.3-1054.5,447.4-1048.7z"/>
		<path class="st32" d="M494-1034c5.5,0,9.2-2,9.2-5.8c0-2.6-1.8-3.9-5.1-4.4l-6.3-1.1c-4.7-0.8-8.3-2.7-8.3-7.6
			c0-6.5,6.4-10.6,14.8-10.6c6.5,0,13,2.6,12.3,10.2h-4.9c0.3-4-2.8-6-8-6c-5.5,0-8.7,2.2-8.7,5.4c0,2.2,1.4,3.7,5.2,4.4l5.8,1
			c4.3,0.8,8.5,2.3,8.5,7.8c0,6.6-6,11-15,11c-7.7,0-13.9-3.2-13.6-11h5C484.8-1036.1,488.4-1034,494-1034z"/>
		<path class="st32" d="M528.1-1062.6l-5.7,32.2h-5.3l5.7-32.2H528.1z M523.8-1074.7c0-2,1.5-3.5,3.5-3.5s3.6,1.5,3.6,3.5
			c0,1.9-1.6,3.5-3.6,3.5S523.8-1072.7,523.8-1074.7z"/>
		<path class="st32" d="M571.8-1062.6l-5.8,32.7c-1.7,9.8-9.3,15.9-18.9,15.9c-8.5,0-14-5-13.9-12.1h5.4c0.1,4.4,3.5,7.6,9.2,7.6
			c6.5,0,11.7-4.4,12.9-11.3l0.8-4.9c-3.5,2.6-7.8,4.2-12.3,4.2c-8.4,0-13.7-6.3-13.7-14.2c0-10.3,9-18.7,19.5-18.7
			c4.5,0,8.3,1.5,10.9,4.1l0.6-3.3H571.8z M562.7-1040.9l2.2-12.6c-2.1-3.8-5.8-5.3-9.9-5.3c-7.8,0-14.1,6.1-14.1,13.3
			c0,5.5,3.6,10.3,9.9,10.3C554.8-1035.2,559.2-1036.9,562.7-1040.9z"/>
		<path class="st32" d="M611-1048.9l-3.3,18.5h-5.3l3.2-18.2c1.2-6.5-1.9-10-7.6-10c-3.8,0-8.2,1.9-11.6,5.5l-4,22.6h-5.3l5.7-32.2
			h5.3l-0.6,3.7c3.5-2.9,7.8-4.5,12.3-4.5C608-1063.4,612.6-1058,611-1048.9z"/>
		<path class="st32" d="M686.3-1077.6l-30,47.5h-5.1l-13.3-47.5h5.8l11,39.8l25.3-39.8H686.3z"/>
		<path class="st32" d="M685.9-1044.9c-0.4,6,3.1,10.6,9.9,10.6c4,0,7.6-1.6,9.2-4.2h5.9c-2.8,5.5-9.2,8.9-16,8.9
			c-10.3,0-15.7-7.6-14.1-16.9c1.7-9.6,10.1-16.9,19.7-16.9c9.6,0,14.8,7.2,12.3,18.5H685.9z M686.6-1048.7h21.6
			c0.7-6.5-2.4-10.2-8.3-10.2C693.4-1058.9,688.5-1054.5,686.6-1048.7z"/>
		<path class="st32" d="M753.3-1048.9l-3.3,18.5h-5.3l3.2-18.2c1.2-6.5-1.9-10-7.6-10c-3.8,0-8.2,1.9-11.6,5.5l-4,22.6h-5.3
			l5.7-32.2h5.3l-0.6,3.7c3.5-2.9,7.8-4.5,12.3-4.5C750.3-1063.4,754.9-1058,753.3-1048.9z"/>
		<path class="st32" d="M770.7-1042.3c-0.8,4.8,1,7.9,5.3,7.9c1.7,0,4.2-0.6,6-1.5l-0.1,5.2c-2.8,0.8-5,1.2-7.1,1.2
			c-6.8,0-10.7-5.3-9.4-12.8l2.8-15.8h-8.3l0.8-4.5h8.4l2.1-11.9h5.3l-2.1,11.9h12.1l-0.8,4.5h-12.1L770.7-1042.3z"/>
		<path class="st32" d="M825.4-1062.6l-5.6,32.2h-5.3l0.6-3.7c-3.5,2.9-7.8,4.5-12.4,4.5c-8.1,0-12.7-5.5-11.1-14.6l3.2-18.5h5.3
			l-3.2,18.2c-1.1,6.5,2,10,7.7,10c3.8,0,8.2-1.9,11.6-5.5l4-22.6H825.4z"/>
		<path class="st32" d="M854.7-1063.3l-0.9,5c-5.3,0.1-10.1,2.6-13.7,6.9l-3.7,20.9h-5.3l5.7-32.2h5.3l-1,5.3
			C844.8-1061.1,849.5-1063.3,854.7-1063.3z"/>
		<path class="st32" d="M861.6-1044.9c-0.4,6,3.1,10.6,9.9,10.6c4,0,7.6-1.6,9.2-4.2h5.9c-2.8,5.5-9.2,8.9-16,8.9
			c-10.3,0-15.7-7.6-14.1-16.9c1.7-9.6,10.1-16.9,19.7-16.9c9.6,0,14.8,7.2,12.3,18.5H861.6z M862.3-1048.7h21.6
			c0.7-6.5-2.4-10.2-8.3-10.2C869.1-1058.9,864.2-1054.5,862.3-1048.7z"/>
	</g>
</g>
<g>
	<g>
		<g>
			<path class="st1" d="M1581.2-1508.4c-31.1,0-56.3,25.2-56.3,56.3s25.2,56.3,56.3,56.3c31.1,0,56.3-25.2,56.3-56.3
				S1612.2-1508.4,1581.2-1508.4z M1581.2-1428.9c-12.8,0-23.2-10.4-23.2-23.2s10.4-23.2,23.2-23.2c12.8,0,23.2,10.4,23.2,23.2
				S1594-1428.9,1581.2-1428.9z"/>
			<path class="st1" d="M1453.6-1508.4c-31.1,0-56.3,25.2-56.3,56.3v108.1h33v-56.8c7.1,3.2,15,5,23.2,5c31.1,0,56.3-25.2,56.3-56.3
				S1484.7-1508.4,1453.6-1508.4z M1453.6-1428.9c-12.8,0-23.2-10.4-23.2-23.2s10.4-23.2,23.2-23.2c12.8,0,23.2,10.4,23.2,23.2
				S1466.5-1428.9,1453.6-1428.9z"/>
			<rect x="1652.4" y="-1558.2" class="st1" width="33" height="162.4"/>
			<path class="st1" d="M1813-1452.1c0-31.1-25.2-56.3-56.3-56.3s-56.3,25.2-56.3,56.3s25.2,56.3,56.3,56.3l0,0h56.3V-1452.1
				L1813-1452.1z M1733.5-1452.1c0-12.8,10.4-23.2,23.2-23.2s23.2,10.4,23.2,23.2s-10.4,23.2-23.2,23.2S1733.5-1439.3,1733.5-1452.1
				z"/>
			<path class="st1" d="M1951.5-1541.7c0,10.9-8.8,19.7-19.7,19.7s-19.7-8.8-19.7-19.7s8.8-19.7,19.7-19.7
				S1951.5-1552.5,1951.5-1541.7z M1948.4-1508.4h-33v112.6h33V-1508.4z"/>
			<path class="st1" d="M1867.3-1541.7c0,10.9-8.8,19.7-19.7,19.7s-19.7-8.8-19.7-19.7s8.8-19.7,19.7-19.7
				S1867.3-1552.5,1867.3-1541.7z M1864.9-1508.4c-0.1,0-0.2,0-0.4,0c-0.1,0-0.2,0-0.4,0c-17.7,0-32.1,13.9-33,31.3
				c-0.1,0.8-0.1,1.6-0.1,2.5v78.8h33v-79.5h33c0,0,0,0,0,0v-33H1864.9z"/>
			<path class="st1" d="M2033.4-1508.4C2033.3-1508.4,2033.3-1508.4,2033.4-1508.4C2033.3-1508.4,2033.3-1508.4,2033.4-1508.4
				c-0.7,0-1.3,0-2,0.1c-16.8,0.6-30.3,13.7-31.7,30.3c-0.1,1.1-0.2,2.3-0.2,3.5c0,0,0,0,0,0c0,0,0,0,0,0v45.7h-32.9h-0.1v33h32.3
				c0.6,0,1.3,0,1.9-0.1c17.7-0.6,31.9-15.1,31.9-33c0-0.4,0-0.7,0-1.1v-45.4h33l0,0v-33H2033.4z"/>
		</g>
		<g>
			<path class="st1" d="M1632.5-1335.2c0,16.9-15.8,30.9-32.2,30.9c-13.6,0-23-10-23-23.1c0-16.8,15.7-30.9,32.2-30.9
				C1623.1-1358.1,1632.5-1348.1,1632.5-1335.2z M1626.4-1334.6c0-9.9-6.8-17.8-17.5-17.8c-13.3,0-25.4,11.2-25.4,24.5
				c0,10,6.7,17.8,17.4,17.8C1613.8-1310,1626.4-1321.1,1626.4-1334.6z"/>
			<path class="st1" d="M1675.5-1325.5l-3.6,20.4h-5.8l3.5-20.1c1.3-7.2-2.1-11-8.4-11c-4.2,0-9,2.1-12.8,6.1l-4.4,25h-5.8l6.3-35.5
				h5.8l-0.7,4.1c3.8-3.2,8.6-5,13.6-5C1672.2-1341.6,1677.2-1335.6,1675.5-1325.5z"/>
			<path class="st1" d="M1698.7-1359.5l-9.7,54.4h-5.8l9.7-54.4H1698.7z"/>
			<path class="st1" d="M1715-1340.7l-6.3,35.5h-5.8l6.3-35.5H1715z M1710.3-1354c0-2.2,1.7-3.9,3.9-3.9s4,1.7,4,3.9
				c0,2.1-1.8,3.8-4,3.8S1710.3-1351.9,1710.3-1354z"/>
			<path class="st1" d="M1759.1-1325.5l-3.6,20.4h-5.8l3.5-20.1c1.3-7.2-2.1-11-8.4-11c-4.2,0-9,2.1-12.8,6.1l-4.4,25h-5.8l6.3-35.5
				h5.8l-0.7,4.1c3.8-3.2,8.6-5,13.6-5C1755.8-1341.6,1760.8-1335.6,1759.1-1325.5z"/>
			<path class="st1" d="M1773.6-1321.2c-0.5,6.7,3.4,11.7,10.9,11.7c4.4,0,8.3-1.8,10.2-4.6h6.5c-3.1,6.1-10.1,9.8-17.7,9.8
				c-11.3,0-17.3-8.4-15.5-18.7c1.8-10.6,11.1-18.6,21.8-18.6c10.6,0,16.3,8,13.6,20.4H1773.6z M1774.3-1325.3h23.8
				c0.8-7.2-2.6-11.3-9.1-11.3C1781.8-1336.5,1776.4-1331.7,1774.3-1325.3z"/>
			<path class="st1" d="M1877.5-1342.9h-6.1c0.1-6.1-4.1-10.1-12.4-10.1c-8.7,0-14.2,4.3-14.2,10.3c0,4.2,3,6.5,9,7.7l6.7,1.3
				c9,1.8,13.3,5.6,13.3,12.4c0,10.1-8.8,17.2-22.1,17.2c-12.6,0-19.9-6.4-19.1-17.7h6c-0.2,8.1,4.7,12.3,14.4,12.3
				c9.1,0,14.4-4.1,14.4-10.1c0-3.8-1.9-6.7-8.9-8.2l-7.9-1.6c-8.2-1.7-12.4-5.6-12.2-12.6c0.3-10.3,9.9-16.2,21.3-16.2
				C1869.7-1358.3,1878.1-1353.6,1877.5-1342.9z"/>
			<path class="st1" d="M1893.3-1318.2c-0.9,5.3,1.1,8.7,5.8,8.7c1.9,0,4.7-0.7,6.7-1.6l-0.2,5.7c-3.1,0.8-5.5,1.3-7.8,1.3
				c-7.5,0-11.8-5.9-10.3-14.2l3.1-17.5h-9.2l0.8-5h9.3l2.3-13.1h5.8l-2.3,13.1h13.3l-0.8,5h-13.4L1893.3-1318.2z"/>
			<path class="st1" d="M1951.4-1325.7c0,11.9-10.6,21.4-22.4,21.4c-9.5,0-15.9-6.7-15.9-15.8c0-12,10.6-21.6,22.5-21.6
				C1944.9-1341.6,1951.4-1334.8,1951.4-1325.7z M1945.5-1324.9c0-6.4-4.3-11.3-10.9-11.3c-8.3,0-15.7,7.1-15.7,15.5
				c0,6.4,4.3,11.2,11,11.2C1938.2-1309.6,1945.5-1316.6,1945.5-1324.9z"/>
			<path class="st1" d="M1984.3-1341.5l-1,5.5c-5.9,0.2-11.1,2.8-15.2,7.7l-4.1,23.1h-5.8l6.3-35.5h5.8l-1.1,5.9
				C1973.3-1339,1978.5-1341.5,1984.3-1341.5z"/>
			<path class="st1" d="M1991.9-1321.2c-0.5,6.7,3.4,11.7,10.9,11.7c4.4,0,8.3-1.8,10.2-4.6h6.5c-3.1,6.1-10.1,9.8-17.7,9.8
				c-11.3,0-17.3-8.4-15.5-18.7c1.8-10.6,11.1-18.6,21.8-18.6c10.6,0,16.3,8,13.6,20.4H1991.9z M1992.6-1325.3h23.8
				c0.8-7.2-2.6-11.3-9.1-11.3C2000.1-1336.5,1994.7-1331.7,1992.6-1325.3z"/>
		</g>
	</g>
</g>
<g>
	<g>
		<g>
			<path class="st31" d="M2552.8-1766.1c-31.1,0-56.3,25.2-56.3,56.3c0,31.1,25.2,56.3,56.3,56.3c31.1,0,56.3-25.2,56.3-56.3
				C2609-1740.9,2583.8-1766.1,2552.8-1766.1z M2552.8-1686.5c-12.8,0-23.2-10.4-23.2-23.2c0-12.8,10.4-23.2,23.2-23.2
				c12.8,0,23.2,10.4,23.2,23.2C2576-1697,2565.6-1686.5,2552.8-1686.5z"/>
			<path class="st31" d="M2425.2-1766.1c-31.1,0-56.3,25.2-56.3,56.3v108.1h33v-56.8c7.1,3.2,15,5,23.2,5
				c31.1,0,56.3-25.2,56.3-56.3C2481.5-1740.9,2456.3-1766.1,2425.2-1766.1z M2425.2-1686.5c-12.8,0-23.2-10.4-23.2-23.2
				c0-12.8,10.4-23.2,23.2-23.2c12.8,0,23.2,10.4,23.2,23.2C2448.5-1697,2438.1-1686.5,2425.2-1686.5z"/>
			<rect x="2624" y="-1815.9" class="st31" width="33" height="162.4"/>
			<path class="st31" d="M2784.6-1709.8c0-31.1-25.2-56.3-56.3-56.3s-56.3,25.2-56.3,56.3c0,31.1,25.2,56.3,56.3,56.3l0,0h56.3
				V-1709.8L2784.6-1709.8z M2705.1-1709.8c0-12.8,10.4-23.2,23.2-23.2s23.2,10.4,23.2,23.2c0,12.8-10.4,23.2-23.2,23.2
				S2705.1-1697,2705.1-1709.8z"/>
			<path class="st31" d="M2923.1-1799.4c0,10.9-8.8,19.7-19.7,19.7s-19.7-8.8-19.7-19.7s8.8-19.7,19.7-19.7
				S2923.1-1810.2,2923.1-1799.4z M2920-1766.1h-33v112.6h33V-1766.1z"/>
			<path class="st31" d="M2838.9-1799.4c0,10.9-8.8,19.7-19.7,19.7s-19.7-8.8-19.7-19.7s8.8-19.7,19.7-19.7
				S2838.9-1810.2,2838.9-1799.4z M2836.5-1766.1c-0.1,0-0.2,0-0.4,0c-0.1,0-0.2,0-0.4,0c-17.7,0-32.1,13.9-33,31.3
				c-0.1,0.8-0.1,1.6-0.1,2.5v78.8h33v-79.5h33c0,0,0,0,0,0v-33H2836.5z"/>
			<path class="st31" d="M3005-1766.1C3004.9-1766.1,3004.9-1766.1,3005-1766.1C3004.9-1766.1,3004.9-1766.1,3005-1766.1
				c-0.7,0-1.3,0-2,0.1c-16.8,0.6-30.3,13.7-31.7,30.3c-0.1,1.1-0.2,2.3-0.2,3.5c0,0,0,0,0,0s0,0,0,0v45.7h-32.9h-0.1v33h32.3
				c0.6,0,1.3,0,1.9-0.1c17.7-0.6,31.9-15.1,31.9-33c0-0.4,0-0.7,0-1.1v-45.4h33l0,0v-33H3005z"/>
		</g>
		<g>
			<path class="st31" d="M2604.1-1592.9c0,16.9-15.8,30.9-32.2,30.9c-13.6,0-23-10-23-23.1c0-16.8,15.7-30.9,32.2-30.9
				C2594.7-1615.8,2604.1-1605.8,2604.1-1592.9z M2598-1592.3c0-9.9-6.8-17.8-17.5-17.8c-13.3,0-25.4,11.2-25.4,24.5
				c0,10,6.7,17.8,17.4,17.8C2585.4-1567.7,2598-1578.8,2598-1592.3z"/>
			<path class="st31" d="M2647.1-1583.2l-3.6,20.4h-5.8l3.5-20.1c1.3-7.2-2.1-11-8.4-11c-4.2,0-9,2.1-12.8,6.1l-4.4,25h-5.8
				l6.3-35.5h5.8l-0.7,4.1c3.8-3.2,8.6-5,13.6-5C2643.8-1599.3,2648.8-1593.2,2647.1-1583.2z"/>
			<path class="st31" d="M2670.3-1617.2l-9.7,54.4h-5.8l9.7-54.4H2670.3z"/>
			<path class="st31" d="M2686.6-1598.4l-6.3,35.5h-5.8l6.3-35.5H2686.6z M2681.9-1611.7c0-2.2,1.7-3.9,3.9-3.9c2.2,0,4,1.7,4,3.9
				c0,2.1-1.8,3.8-4,3.8C2683.6-1607.9,2681.9-1609.6,2681.9-1611.7z"/>
			<path class="st31" d="M2730.7-1583.2l-3.6,20.4h-5.8l3.5-20.1c1.3-7.2-2.1-11-8.4-11c-4.2,0-9,2.1-12.8,6.1l-4.4,25h-5.8
				l6.3-35.5h5.8l-0.7,4.1c3.8-3.2,8.6-5,13.6-5C2727.4-1599.3,2732.4-1593.2,2730.7-1583.2z"/>
			<path class="st31" d="M2745.2-1578.8c-0.5,6.7,3.4,11.7,10.9,11.7c4.4,0,8.3-1.8,10.2-4.6h6.5c-3.1,6.1-10.1,9.8-17.7,9.8
				c-11.3,0-17.3-8.4-15.5-18.7c1.8-10.6,11.1-18.6,21.8-18.6c10.6,0,16.3,8,13.6,20.4H2745.2z M2745.9-1583h23.8
				c0.8-7.2-2.6-11.3-9.1-11.3C2753.4-1594.2,2748-1589.4,2745.9-1583z"/>
			<path class="st31" d="M2849.1-1600.6h-6.1c0.1-6.1-4.1-10.1-12.4-10.1c-8.7,0-14.2,4.3-14.2,10.3c0,4.2,3,6.5,9,7.7l6.7,1.3
				c9,1.8,13.3,5.6,13.3,12.4c0,10.1-8.8,17.2-22.1,17.2c-12.6,0-19.9-6.4-19.1-17.7h6c-0.2,8.1,4.7,12.3,14.4,12.3
				c9.1,0,14.4-4.1,14.4-10.1c0-3.8-1.9-6.7-8.9-8.2l-7.9-1.6c-8.2-1.7-12.4-5.6-12.2-12.6c0.3-10.3,9.9-16.2,21.3-16.2
				C2841.3-1616,2849.7-1611.2,2849.1-1600.6z"/>
			<path class="st31" d="M2864.9-1575.9c-0.9,5.3,1.1,8.7,5.8,8.7c1.9,0,4.7-0.7,6.7-1.6l-0.2,5.7c-3.1,0.8-5.5,1.3-7.8,1.3
				c-7.5,0-11.8-5.9-10.3-14.2l3.1-17.5h-9.2l0.8-5h9.3l2.3-13.1h5.8l-2.3,13.1h13.3l-0.8,5H2868L2864.9-1575.9z"/>
			<path class="st31" d="M2923-1583.4c0,11.9-10.6,21.4-22.4,21.4c-9.5,0-15.9-6.7-15.9-15.8c0-12,10.6-21.6,22.5-21.6
				C2916.5-1599.3,2923-1592.5,2923-1583.4z M2917.1-1582.6c0-6.4-4.3-11.3-10.9-11.3c-8.3,0-15.7,7.1-15.7,15.5
				c0,6.4,4.3,11.2,11,11.2C2909.8-1567.3,2917.1-1574.2,2917.1-1582.6z"/>
			<path class="st31" d="M2955.9-1599.1l-1,5.5c-5.9,0.2-11.1,2.8-15.2,7.7l-4.1,23.1h-5.8l6.3-35.5h5.8l-1.1,5.9
				C2944.9-1596.7,2950.1-1599.1,2955.9-1599.1z"/>
			<path class="st31" d="M2963.5-1578.8c-0.5,6.7,3.4,11.7,10.9,11.7c4.4,0,8.3-1.8,10.2-4.6h6.5c-3.1,6.1-10.1,9.8-17.7,9.8
				c-11.3,0-17.3-8.4-15.5-18.7c1.8-10.6,11.1-18.6,21.8-18.6c10.6,0,16.3,8,13.6,20.4H2963.5z M2964.2-1583h23.8
				c0.8-7.2-2.6-11.3-9.1-11.3C2971.7-1594.2,2966.3-1589.4,2964.2-1583z"/>
		</g>
	</g>
</g>
<g>
	<g>
		<g>
			<path class="st1" d="M41.3,11.9c-7,0-12.6,5.7-12.6,12.6c0,7,5.7,12.6,12.6,12.6s12.6-5.7,12.6-12.6
				C53.9,17.5,48.2,11.9,41.3,11.9z M41.3,29.7c-2.9,0-5.2-2.3-5.2-5.2s2.3-5.2,5.2-5.2s5.2,2.3,5.2,5.2S44.1,29.7,41.3,29.7z"/>
			<path class="st1" d="M12.6,11.9C5.7,11.9,0,17.5,0,24.5v24.3h7.4V36c1.6,0.7,3.4,1.1,5.2,1.1c7,0,12.6-5.7,12.6-12.6
				C25.3,17.5,19.6,11.9,12.6,11.9z M12.6,29.7c-2.9,0-5.2-2.3-5.2-5.2s2.3-5.2,5.2-5.2c2.9,0,5.2,2.3,5.2,5.2S15.5,29.7,12.6,29.7z
				"/>
			<rect x="57.3" y="0.7" class="st1" width="7.4" height="36.4"/>
			<path class="st1" d="M93.3,24.5c0-7-5.7-12.6-12.6-12.6c-7,0-12.6,5.7-12.6,12.6c0,7,5.7,12.6,12.6,12.6l0,0h12.6V24.5L93.3,24.5
				z M75.5,24.5c0-2.9,2.3-5.2,5.2-5.2s5.2,2.3,5.2,5.2s-2.3,5.2-5.2,5.2S75.5,27.4,75.5,24.5z"/>
			<path class="st1" d="M124.4,4.4c0,2.4-2,4.4-4.4,4.4s-4.4-2-4.4-4.4s2-4.4,4.4-4.4S124.4,2,124.4,4.4z M123.7,11.9h-7.4v25.3h7.4
				V11.9z"/>
			<path class="st1" d="M105.5,4.4c0,2.4-2,4.4-4.4,4.4c-2.4,0-4.4-2-4.4-4.4s2-4.4,4.4-4.4C103.5,0,105.5,2,105.5,4.4z M105,11.9
				C104.9,11.9,104.9,11.9,105,11.9c-0.1,0-0.1,0-0.2,0c-4,0-7.2,3.1-7.4,7c0,0.2,0,0.4,0,0.6v17.7h7.4V19.3h7.4c0,0,0,0,0,0v-7.4
				H105z"/>
			<path class="st1" d="M142.8,11.9C142.8,11.9,142.8,11.9,142.8,11.9C142.8,11.9,142.8,11.9,142.8,11.9c-0.2,0-0.3,0-0.4,0
				c-3.8,0.1-6.8,3.1-7.1,6.8c0,0.3,0,0.5,0,0.8c0,0,0,0,0,0c0,0,0,0,0,0v10.3h-7.4h0v7.4h7.2c0.1,0,0.3,0,0.4,0
				c4-0.1,7.2-3.4,7.2-7.4c0-0.1,0-0.2,0-0.3V19.3h7.4h0v-7.4H142.8z"/>
		</g>
		<g>
			<path class="st1" d="M52.8,50.8c0,3.8-3.5,6.9-7.2,6.9c-3.1,0-5.2-2.3-5.2-5.2c0-3.8,3.5-6.9,7.2-6.9
				C50.7,45.6,52.8,47.9,52.8,50.8z M51.4,50.9c0-2.2-1.5-4-3.9-4c-3,0-5.7,2.5-5.7,5.5c0,2.2,1.5,4,3.9,4
				C48.6,56.4,51.4,53.9,51.4,50.9z"/>
			<path class="st1" d="M62.4,52.9l-0.8,4.6h-1.3l0.8-4.5c0.3-1.6-0.5-2.5-1.9-2.5c-0.9,0-2,0.5-2.9,1.4l-1,5.6H54l1.4-8h1.3
				l-0.2,0.9c0.9-0.7,1.9-1.1,3.1-1.1C61.7,49.3,62.8,50.7,62.4,52.9z"/>
			<path class="st1" d="M67.7,45.3l-2.2,12.2h-1.3l2.2-12.2H67.7z"/>
			<path class="st1" d="M71.3,49.5l-1.4,8h-1.3l1.4-8H71.3z M70.2,46.5c0-0.5,0.4-0.9,0.9-0.9c0.5,0,0.9,0.4,0.9,0.9
				c0,0.5-0.4,0.9-0.9,0.9C70.6,47.4,70.2,47,70.2,46.5z"/>
			<path class="st1" d="M81.2,52.9l-0.8,4.6h-1.3l0.8-4.5c0.3-1.6-0.5-2.5-1.9-2.5c-0.9,0-2,0.5-2.9,1.4l-1,5.6h-1.3l1.4-8h1.3
				l-0.2,0.9c0.9-0.7,1.9-1.1,3.1-1.1C80.5,49.3,81.6,50.7,81.2,52.9z"/>
			<path class="st1" d="M84.4,53.9c-0.1,1.5,0.8,2.6,2.4,2.6c1,0,1.9-0.4,2.3-1h1.5c-0.7,1.4-2.3,2.2-4,2.2c-2.5,0-3.9-1.9-3.5-4.2
				c0.4-2.4,2.5-4.2,4.9-4.2c2.4,0,3.7,1.8,3,4.6H84.4z M84.6,53H90c0.2-1.6-0.6-2.5-2-2.5C86.3,50.5,85.1,51.5,84.6,53z"/>
			<path class="st1" d="M107.8,49h-1.4c0-1.4-0.9-2.3-2.8-2.3c-1.9,0-3.2,1-3.2,2.3c0,0.9,0.7,1.5,2,1.7l1.5,0.3c2,0.4,3,1.3,3,2.8
				c0,2.3-2,3.9-5,3.9c-2.8,0-4.5-1.4-4.3-4H99c0,1.8,1,2.8,3.2,2.8c2,0,3.2-0.9,3.2-2.3c0-0.8-0.4-1.5-2-1.8l-1.8-0.4
				c-1.8-0.4-2.8-1.3-2.7-2.8c0.1-2.3,2.2-3.6,4.8-3.6C106,45.6,107.9,46.6,107.8,49z"/>
			<path class="st1" d="M111.3,54.6c-0.2,1.2,0.3,2,1.3,2c0.4,0,1-0.2,1.5-0.4l0,1.3c-0.7,0.2-1.2,0.3-1.8,0.3
				c-1.7,0-2.6-1.3-2.3-3.2l0.7-3.9h-2.1l0.2-1.1h2.1l0.5-2.9h1.3l-0.5,2.9h3l-0.2,1.1h-3L111.3,54.6z"/>
			<path class="st1" d="M124.4,52.9c0,2.7-2.4,4.8-5,4.8c-2.1,0-3.6-1.5-3.6-3.5c0-2.7,2.4-4.8,5.1-4.8
				C122.9,49.3,124.4,50.9,124.4,52.9z M123,53.1c0-1.4-1-2.5-2.4-2.5c-1.9,0-3.5,1.6-3.5,3.5c0,1.4,1,2.5,2.5,2.5
				C121.4,56.5,123,54.9,123,53.1z"/>
			<path class="st1" d="M131.8,49.4l-0.2,1.2c-1.3,0-2.5,0.6-3.4,1.7l-0.9,5.2h-1.3l1.4-8h1.3l-0.2,1.3
				C129.3,49.9,130.5,49.4,131.8,49.4z"/>
			<path class="st1" d="M133.5,53.9c-0.1,1.5,0.8,2.6,2.4,2.6c1,0,1.9-0.4,2.3-1h1.5c-0.7,1.4-2.3,2.2-4,2.2c-2.5,0-3.9-1.9-3.5-4.2
				c0.4-2.4,2.5-4.2,4.9-4.2c2.4,0,3.7,1.8,3,4.6H133.5z M133.6,53h5.3c0.2-1.6-0.6-2.5-2-2.5C135.3,50.5,134.1,51.5,133.6,53z"/>
		</g>
	</g>
</g>
</svg>
