<?xml version="1.0" encoding="utf-8"?>
<!-- Generator: Adobe Illustrator 27.3.1, SVG Export Plug-In . SVG Version: 6.00 Build 0)  -->
<svg version="1.1" id="Layer_1" xmlns="http://www.w3.org/2000/svg" xmlns:xlink="http://www.w3.org/1999/xlink" x="0px" y="0px"
	 viewBox="0 0 150 150" style="enable-background:new 0 0 150 150;" xml:space="preserve">
<style type="text/css">
	.st0{fill:#E5212A;}
	.st1{fill:#E3242C;}
	.st2{fill:#1E1E1E;}
	.st3{fill:#E6E7E7;}
	.st4{fill:none;stroke:#010101;stroke-width:0.3422;}
	.st5{fill:none;stroke:#010101;stroke-width:0.455;}
	.st6{fill:#E4232B;}
	.st7{fill:#F05253;}
	.st8{fill:#F37A7A;}
	.st9{fill:#F1AC7C;}
	.st10{fill:#E87C62;}
	.st11{fill:#FDE2BE;}
	.st12{fill:none;stroke:#1E1E1E;stroke-width:0.5;stroke-miterlimit:10;stroke-dasharray:2,2,2,2,2,2;}
	.st13{fill:#2F4047;}
	.st14{fill:#F58E81;}
	.st15{fill:none;stroke:#E22026;stroke-width:0.5945;stroke-miterlimit:10;}
	.st16{opacity:0.3;enable-background:new    ;}
	.st17{opacity:0.2;enable-background:new    ;}
	.st18{fill:#E22026;}
	.st19{fill:none;stroke:#4D6470;stroke-width:0.2972;stroke-linecap:round;stroke-linejoin:round;stroke-miterlimit:10;}
	.st20{fill:none;stroke:#4D6470;stroke-width:0.5945;stroke-linecap:round;stroke-linejoin:round;stroke-miterlimit:10;}
	.st21{fill:#DC514D;}
	.st22{fill:#4D6470;}
	.st23{opacity:0.3;fill:#FFFFFF;enable-background:new    ;}
	.st24{opacity:0.5;fill:#FFFFFF;enable-background:new    ;}
	.st25{fill:#D9382F;}
	.st26{fill:#E37367;}
	.st27{fill:none;stroke:#E3242C;stroke-width:11.7181;stroke-miterlimit:10;}
	
		.st28{fill:none;stroke:#1E1E1E;stroke-width:0.5;stroke-miterlimit:10.0003;stroke-dasharray:1.9981,1.9981,1.9981,1.9981,1.9981,1.9981;}
	
		.st29{fill:none;stroke:#1E1E1E;stroke-width:0.5;stroke-miterlimit:9.9999;stroke-dasharray:1.9921,1.9921,1.9921,1.9921,1.9921,1.9921;}
	
		.st30{fill:none;stroke:#1E1E1E;stroke-width:0.4883;stroke-miterlimit:10;stroke-dasharray:1.9531,1.9531,1.9531,1.9531,1.9531,1.9531;}
	.st31{fill:#FFFFFF;}
	.st32{fill:#E4252B;}
</style>
<g>
	<g>
		<path class="st0" d="M80.7-1619.8H44.3l-8.5,15H12.1l52.7-87.9h20.8l21.5,87.9H83.9L80.7-1619.8z M76.9-1638.3l-6-28.2L55-1638.3
			H76.9z"/>
		<path class="st0" d="M190.6-1667.2l-11.1,62.3h-20.8l0.8-4.1c-5.8,3.7-11.6,5.8-18.3,5.8c-15.7,0-24.6-10.7-21.3-28.4l6.2-35.6
			h20.8l-5.7,32.4c-1.5,8.9,2.2,12.9,9,12.9c3.9,0,8.2-2.1,12.6-6l6.9-39.2h20.9V-1667.2z"/>
		<path class="st0" d="M243.8-1648.4c-10.3,0.4-17.2,3.1-22.9,8l-6.3,35.6h-20.8l10.9-62.3h20.8l-1.2,6.8c6.3-4.9,13.6-7.8,22.9-7.8
			L243.8-1648.4z"/>
		<path class="st0" d="M323.4-1667.2l-10.9,62.3h-20.8l0.6-3.5c-5.3,3-11.1,4.8-18,4.8c-15,0-25.7-11.1-25.7-27.4
			c0-21.2,18.4-37.7,37.3-37.7c6.8,0,12.1,1.7,16.2,4.6l0.5-3.2L323.4-1667.2L323.4-1667.2z M295.4-1626.3l3.5-19.5
			c-3.1-4.4-7.3-5.8-11.8-5.8c-9.5,0-17.7,8.2-17.7,18c0,7.8,5,13,12.2,13C286-1620.7,290.7-1621.9,295.4-1626.3z"/>
		<path class="st0" d="M442.9-1665.2h-21.7c0.1-6.6-3.1-11.8-12.3-11.8c-8.5,0-14.4,3.9-14.4,10.3c0,4,3.2,6,9.1,7.3l11.8,2.8
			c13.5,3.1,22.2,8.9,22.2,21.1c0,19.7-17.2,32.4-41.6,32.4c-19.7,0-35.7-9.5-33.9-31.1H384c0,8.5,5,12.7,15.9,12.7
			c8.6,0,13.9-3.6,13.9-9c0-2.7-1.7-5.3-8-6.7l-13.9-3.3c-14.4-3.5-21.7-9.8-21.2-22.6c0.8-20.7,19.7-31.1,40.1-31.1
			C425.1-1694.2,445-1688.7,442.9-1665.2z"/>
		<path class="st0" d="M520.4-1667.2l-11.1,62.3h-20.8l0.8-4.1c-5.8,3.7-11.6,5.8-18.3,5.8c-15.7,0-24.6-10.7-21.3-28.4l6.2-35.6
			h20.8l-5.7,32.4c-1.5,8.9,2.2,12.9,9,12.9c3.9,0,8.2-2.1,12.6-6l6.9-39.2h20.9V-1667.2z"/>
		<path class="st0" d="M701.5-1696.2l-16.2,91.3h-21l16.2-91.3H701.5z"/>
		<path class="st0" d="M733.1-1667.2l-11.1,62.3h-20.8l10.9-62.3H733.1z M714-1688.7c0-6.8,5.4-11.8,12.2-11.8
			c6.7,0,12.2,5,12.2,11.8c0,6.7-5.5,11.7-12.2,11.7C719.4-1676.9,714-1681.9,714-1688.7z"/>
		<path class="st0" d="M803.6-1631.3h-44.9c0.4,6.9,4.4,11.8,13,11.8c4.2,0,7.6-1.2,9.9-3.3h20.6c-5.5,12.1-18.5,19.4-33.4,19.4
			c-20.8,0-31.9-14.1-28.7-32.6c3.3-19.4,19.5-32.5,38.8-32.5C799.4-1668.5,809.3-1654.3,803.6-1631.3z M761.1-1643.2h25.6
			c0.4-7.8-4.1-10.2-9.8-10.2C769.2-1653.4,764-1649.5,761.1-1643.2z"/>
		<path class="st0" d="M859.7-1648.4c-10.3,0.4-17.2,3.1-22.9,8l-6.3,35.6h-20.8l10.9-62.3h20.8l-1.2,6.8c6.3-4.9,13.6-7.8,22.9-7.8
			L859.7-1648.4z"/>
		<path class="st0" d="M544.6-1605.8l-0.3,1.9C544.3-1604.4,544.5-1605.2,544.6-1605.8z"/>
		<path class="st0" d="M572.6-1668.8c-6.8,0-12.6,1.8-17.7,4.8l0.5-3.1h-20.8l-10.7,61.1l-0.1,0.6c-0.1,1.1-0.3,2.2-0.6,3.3
			c-3.3,14.5-15.5,27.2-33.3,27.2h20.8c15.1,0,25.5-7.7,30.7-19.5c1.3-2.9,2.2-6,2.9-9.4l0.3-1.9l0.4-2.4c4.1,3,9.4,4.8,16.2,4.8
			c19.8,0,37.3-16.7,37.3-37.8C598.4-1657,587.7-1668.8,572.6-1668.8z M560-1620.3c-4.5,0-8.7-1.4-11.8-5.9l3.5-19.5
			c4.6-4.5,9.4-5.9,13.9-5.9c7.5,0,12.2,5.9,12.2,13.2C577.8-1628.8,569.5-1620.3,560-1620.3z"/>
		<path class="st0" d="M633.8-1668.8c-6.8,0-12.6,1.8-17.7,4.8l0.5-3.1h-20.8l-10.7,61.1l-0.1,0.6c-0.1,1.1-0.3,2.2-0.6,3.3
			c-3.3,14.5-15.5,27.2-33.3,27.2h20.8c15.1,0,25.5-7.7,30.7-19.5c1.3-2.9,2.2-6,2.9-9.4l0.3-1.9l0.4-2.4c4.1,3,9.4,4.8,16.2,4.8
			c19.8,0,37.3-16.7,37.3-37.8C659.6-1657,648.9-1668.8,633.8-1668.8z M621.2-1620.3c-4.5,0-8.7-1.4-11.8-5.9l3.5-19.5
			c4.6-4.5,9.4-5.9,13.9-5.9c7.5,0,12.2,5.9,12.2,13.2C639-1628.8,630.7-1620.3,621.2-1620.3z"/>
	</g>
</g>
<rect x="2217.3" y="-1934.2" class="st1" width="960" height="540"/>
<rect x="2217.3" y="-1394.2" class="st2" width="960" height="540"/>
<text transform="matrix(1 0 0 1 1939.2395 982.5573)" class="st1" style="font-family:'Campton-Bold'; font-size:80.9028px;">FONT FAMILY</text>
<text transform="matrix(1 0 0 1 1744.5886 -629.8939)" class="st1" style="font-family:'Campton-Bold'; font-size:80.9028px;">logo construction</text>
<text transform="matrix(1 0 0 1 1890.3342 170.3605)" class="st1" style="font-family:'Campton-Bold'; font-size:80.9028px;">LOGO MEANING</text>
<g>
	<path class="st3" d="M1526.3,2258.9h1389.5c16.2,0,29.4-13.2,29.4-29.4v-476.3c0-16.2-13.2-29.4-29.4-29.4H1526.3
		c-16.2,0-29.4,13.2-29.4,29.4v476.3C1496.9,2245.8,1510.1,2258.9,1526.3,2258.9z"/>
	<text transform="matrix(1 0 0 1 1549.6267 2008.0825)" class="st2" style="font-family:'Campton-Bold'; font-size:18.2005px;">Campton</text>
	<text transform="matrix(1 0 0 1 1636.6267 2008.0825)" class="st2" style="font-family:'Campton-Bold'; font-size:18.2005px;"> </text>
	<text transform="matrix(1 0 0 1 1641.3267 2008.0825)" class="st2" style="font-family:'Campton-Bold'; font-size:18.2005px;">Bo</text>
	<text transform="matrix(1 0 0 1 1664.9268 2008.0825)" class="st2" style="font-family:'Campton-Bold'; font-size:18.2005px;">l</text>
	<text transform="matrix(1 0 0 1 1670.0267 2008.0825)" class="st2" style="font-family:'Campton-Bold'; font-size:18.2005px;">d </text>
	<text transform="matrix(1 0 0 1 1549.6267 2029.8826)" class="st2" style="font-family:'Campton-Bold'; font-size:18.2005px;">AB</text>
	<text transform="matrix(1 0 0 1 1576.2267 2029.8826)" class="st2" style="font-family:'Campton-Bold'; font-size:18.2005px;">C</text>
	<text transform="matrix(1 0 0 1 1590.6267 2029.8826)" class="st2" style="font-family:'Campton-Bold'; font-size:18.2005px;">D</text>
	<text transform="matrix(1 0 0 1 1604.3267 2029.8826)" class="st2" style="font-family:'Campton-Bold'; font-size:18.2005px;">E</text>
	<text transform="matrix(1 0 0 1 1615.4268 2029.8826)" class="st2" style="font-family:'Campton-Bold'; font-size:18.2005px;">F</text>
	<text transform="matrix(1 0 0 1 1625.8267 2029.8826)" class="st2" style="font-family:'Campton-Bold'; font-size:18.2005px;">G</text>
	<text transform="matrix(1 0 0 1 1640.8267 2029.8826)" class="st2" style="font-family:'Campton-Bold'; font-size:18.2005px;">H</text>
	<text transform="matrix(1 0 0 1 1654.3267 2029.8826)" class="st2" style="font-family:'Campton-Bold'; font-size:18.2005px;">I</text>
	<text transform="matrix(1 0 0 1 1659.6267 2029.8826)" class="st2" style="font-family:'Campton-Bold'; font-size:18.2005px;">JK</text>
	<text transform="matrix(1 0 0 1 1684.5267 2029.8826)" class="st2" style="font-family:'Campton-Bold'; font-size:18.2005px;">L</text>
	<text transform="matrix(1 0 0 1 1695.1267 2029.8826)" class="st2" style="font-family:'Campton-Bold'; font-size:18.2005px;">N</text>
	<text transform="matrix(1 0 0 1 1708.9268 2029.8826)" class="st2" style="font-family:'Campton-Bold'; font-size:18.2005px;">O</text>
	<text transform="matrix(1 0 0 1 1723.7267 2029.8826)" class="st2" style="font-family:'Campton-Bold'; font-size:18.2005px;">P</text>
	<text transform="matrix(1 0 0 1 1735.6267 2029.8826)" class="st2" style="font-family:'Campton-Bold'; font-size:18.2005px;">Q</text>
	<text transform="matrix(1 0 0 1 1750.4268 2029.8826)" class="st2" style="font-family:'Campton-Bold'; font-size:18.2005px;">R</text>
	<text transform="matrix(1 0 0 1 1763.4268 2029.8826)" class="st2" style="font-family:'Campton-Bold'; font-size:18.2005px;">S</text>
	<text transform="matrix(1 0 0 1 1775.9268 2029.8826)" class="st2" style="font-family:'Campton-Bold'; font-size:18.2005px;">T</text>
	<text transform="matrix(1 0 0 1 1787.8267 2029.8826)" class="st2" style="font-family:'Campton-Bold'; font-size:18.2005px;">U</text>
	<text transform="matrix(1 0 0 1 1801.3267 2029.8826)" class="st2" style="font-family:'Campton-Bold'; font-size:18.2005px;">V</text>
	<text transform="matrix(1 0 0 1 1816.3267 2029.8826)" class="st2" style="font-family:'Campton-Bold'; font-size:18.2005px;">W</text>
	<text transform="matrix(1 0 0 1 1836.2267 2029.8826)" class="st2" style="font-family:'Campton-Bold'; font-size:18.2005px;">X</text>
	<text transform="matrix(1 0 0 1 1849.7267 2029.8826)" class="st2" style="font-family:'Campton-Bold'; font-size:18.2005px;">Y</text>
	<text transform="matrix(1 0 0 1 1863.2267 2029.8826)" class="st2" style="font-family:'Campton-Bold'; font-size:18.2005px;">Z (ÇË) </text>
	<text transform="matrix(1 0 0 1 1549.6267 2051.7825)" class="st2" style="font-family:'Campton-Bold'; font-size:18.2005px;">a</text>
	<text transform="matrix(1 0 0 1 1561.1267 2051.7825)" class="st2" style="font-family:'Campton-Bold'; font-size:18.2005px;">b</text>
	<text transform="matrix(1 0 0 1 1572.6267 2051.7825)" class="st2" style="font-family:'Campton-Bold'; font-size:18.2005px;">c</text>
	<text transform="matrix(1 0 0 1 1583.2267 2051.7825)" class="st2" style="font-family:'Campton-Bold'; font-size:18.2005px;">d</text>
	<text transform="matrix(1 0 0 1 1594.7267 2051.7825)" class="st2" style="font-family:'Campton-Bold'; font-size:18.2005px;">e</text>
	<text transform="matrix(1 0 0 1 1605.1267 2051.7825)" class="st2" style="font-family:'Campton-Bold'; font-size:18.2005px;">f</text>
	<text transform="matrix(1 0 0 1 1613.6267 2051.7825)" class="st2" style="font-family:'Campton-Bold'; font-size:18.2005px;">g</text>
	<text transform="matrix(1 0 0 1 1625.0267 2051.7825)" class="st2" style="font-family:'Campton-Bold'; font-size:18.2005px;">hij</text>
	<text transform="matrix(1 0 0 1 1647.0267 2051.7825)" class="st2" style="font-family:'Campton-Bold'; font-size:18.2005px;">k</text>
	<text transform="matrix(1 0 0 1 1658.0267 2051.7825)" class="st2" style="font-family:'Campton-Bold'; font-size:18.2005px;">l</text>
	<text transform="matrix(1 0 0 1 1663.1267 2051.7825)" class="st2" style="font-family:'Campton-Bold'; font-size:18.2005px;">no</text>
	<text transform="matrix(1 0 0 1 1685.3267 2051.7825)" class="st2" style="font-family:'Campton-Bold'; font-size:18.2005px;">p</text>
	<text transform="matrix(1 0 0 1 1696.8267 2051.7825)" class="st2" style="font-family:'Campton-Bold'; font-size:18.2005px;">q</text>
	<text transform="matrix(1 0 0 1 1708.3267 2051.7825)" class="st2" style="font-family:'Campton-Bold'; font-size:18.2005px;">r</text>
	<text transform="matrix(1 0 0 1 1716.0267 2051.7825)" class="st2" style="font-family:'Campton-Bold'; font-size:18.2005px;">s</text>
	<text transform="matrix(1 0 0 1 1725.7267 2051.7825)" class="st2" style="font-family:'Campton-Bold'; font-size:18.2005px;">t</text>
	<text transform="matrix(1 0 0 1 1734.3267 2051.7825)" class="st2" style="font-family:'Campton-Bold'; font-size:18.2005px;">u</text>
	<text transform="matrix(1 0 0 1 1745.5267 2051.7825)" class="st2" style="font-family:'Campton-Bold'; font-size:18.2005px;">v</text>
	<text transform="matrix(1 0 0 1 1757.0267 2051.7825)" class="st2" style="font-family:'Campton-Bold'; font-size:18.2005px;">w</text>
	<text transform="matrix(1 0 0 1 1772.1267 2051.7825)" class="st2" style="font-family:'Campton-Bold'; font-size:18.2005px;">x</text>
	<text transform="matrix(1 0 0 1 1783.1267 2051.7825)" class="st2" style="font-family:'Campton-Bold'; font-size:18.2005px;">y</text>
	<text transform="matrix(1 0 0 1 1794.9268 2051.7825)" class="st2" style="font-family:'Campton-Bold'; font-size:18.2005px;">z (çë) </text>
	<text transform="matrix(1 0 0 1 1549.6267 2073.5825)" class="st2" style="font-family:'Campton-Bold'; font-size:18.2005px;">1</text>
	<text transform="matrix(1 0 0 1 1559.2267 2073.5825)" class="st2" style="font-family:'Campton-Bold'; font-size:18.2005px;">2</text>
	<text transform="matrix(1 0 0 1 1569.5267 2073.5825)" class="st2" style="font-family:'Campton-Bold'; font-size:18.2005px;">3</text>
	<text transform="matrix(1 0 0 1 1580.4268 2073.5825)" class="st2" style="font-family:'Campton-Bold'; font-size:18.2005px;">4</text>
	<text transform="matrix(1 0 0 1 1592.2267 2073.5825)" class="st2" style="font-family:'Campton-Bold'; font-size:18.2005px;">5</text>
	<text transform="matrix(1 0 0 1 1603.3267 2073.5825)" class="st2" style="font-family:'Campton-Bold'; font-size:18.2005px;">6</text>
	<text transform="matrix(1 0 0 1 1614.0267 2073.5825)" class="st2" style="font-family:'Campton-Bold'; font-size:18.2005px;">7</text>
	<text transform="matrix(1 0 0 1 1623.3267 2073.5825)" class="st2" style="font-family:'Campton-Bold'; font-size:18.2005px;">8</text>
	<text transform="matrix(1 0 0 1 1634.5267 2073.5825)" class="st2" style="font-family:'Campton-Bold'; font-size:18.2005px;">9</text>
	<text transform="matrix(1 0 0 1 1645.8267 2073.5825)" class="st2" style="font-family:'Campton-Bold'; font-size:18.2005px;">0</text>
	<text transform="matrix(1 0 0 1 1659.1267 2073.5825)" class="st2" style="font-family:'Campton-Bold'; font-size:18.2005px;">!</text>
	<text transform="matrix(1 0 0 1 1664.5267 2073.5825)" class="st2" style="font-family:'Campton-Bold'; font-size:18.2005px;">@</text>
	<text transform="matrix(1 0 0 1 1682.8267 2073.5825)" class="st2" style="font-family:'Campton-Bold'; font-size:18.2005px;">£</text>
	<text transform="matrix(1 0 0 1 1694.3267 2073.5825)" class="st2" style="font-family:'Campton-Bold'; font-size:18.2005px;">$</text>
	<text transform="matrix(1 0 0 1 1706.5267 2073.5825)" class="st2" style="font-family:'Campton-Bold'; font-size:18.2005px;">%</text>
	<text transform="matrix(1 0 0 1 1725.8267 2073.5825)" class="st2" style="font-family:'Campton-Bold'; font-size:18.2005px;">^</text>
	<text transform="matrix(1 0 0 1 1733.3267 2073.5825)" class="st2" style="font-family:'Campton-Bold'; font-size:18.2005px;">&amp;</text>
	<text transform="matrix(1 0 0 1 1549.6267 2140.8149)" class="st2" style="font-family:'Campton-Light'; font-size:18.2005px;">Campton</text>
	<text transform="matrix(1 0 0 1 1635.9268 2140.8149)" class="st2" style="font-family:'Campton-Light'; font-size:18.2005px;"> </text>
	<text transform="matrix(1 0 0 1 1640.9268 2140.8149)" class="st2" style="font-family:'Campton-Light'; font-size:18.2005px;">Light </text>
	<text transform="matrix(1 0 0 1 1549.6267 2162.615)" class="st2" style="font-family:'Campton-Light'; font-size:18.2005px;">AB</text>
	<text transform="matrix(1 0 0 1 1576.0267 2162.615)" class="st2" style="font-family:'Campton-Light'; font-size:18.2005px;">C</text>
	<text transform="matrix(1 0 0 1 1590.9268 2162.615)" class="st2" style="font-family:'Campton-Light'; font-size:18.2005px;">D</text>
	<text transform="matrix(1 0 0 1 1604.8267 2162.615)" class="st2" style="font-family:'Campton-Light'; font-size:18.2005px;">E</text>
	<text transform="matrix(1 0 0 1 1616.5267 2162.615)" class="st2" style="font-family:'Campton-Light'; font-size:18.2005px;">F</text>
	<text transform="matrix(1 0 0 1 1627.2267 2162.615)" class="st2" style="font-family:'Campton-Light'; font-size:18.2005px;">G</text>
	<text transform="matrix(1 0 0 1 1642.7267 2162.615)" class="st2" style="font-family:'Campton-Light'; font-size:18.2005px;">H</text>
	<text transform="matrix(1 0 0 1 1656.5267 2162.615)" class="st2" style="font-family:'Campton-Light'; font-size:18.2005px;">I</text>
	<text transform="matrix(1 0 0 1 1661.2267 2162.615)" class="st2" style="font-family:'Campton-Light'; font-size:18.2005px;">JK</text>
	<text transform="matrix(1 0 0 1 1685.1267 2162.615)" class="st2" style="font-family:'Campton-Light'; font-size:18.2005px;">L</text>
	<text transform="matrix(1 0 0 1 1695.6267 2162.615)" class="st2" style="font-family:'Campton-Light'; font-size:18.2005px;">N</text>
	<text transform="matrix(1 0 0 1 1709.9268 2162.615)" class="st2" style="font-family:'Campton-Light'; font-size:18.2005px;">O</text>
	<text transform="matrix(1 0 0 1 1725.5267 2162.615)" class="st2" style="font-family:'Campton-Light'; font-size:18.2005px;">P</text>
	<text transform="matrix(1 0 0 1 1737.2267 2162.615)" class="st2" style="font-family:'Campton-Light'; font-size:18.2005px;">Q</text>
	<text transform="matrix(1 0 0 1 1752.8267 2162.615)" class="st2" style="font-family:'Campton-Light'; font-size:18.2005px;">R</text>
	<text transform="matrix(1 0 0 1 1765.2267 2162.615)" class="st2" style="font-family:'Campton-Light'; font-size:18.2005px;">S</text>
	<text transform="matrix(1 0 0 1 1777.3267 2162.615)" class="st2" style="font-family:'Campton-Light'; font-size:18.2005px;">T</text>
	<text transform="matrix(1 0 0 1 1788.9268 2162.615)" class="st2" style="font-family:'Campton-Light'; font-size:18.2005px;">U</text>
	<text transform="matrix(1 0 0 1 1802.9268 2162.615)" class="st2" style="font-family:'Campton-Light'; font-size:18.2005px;">V</text>
	<text transform="matrix(1 0 0 1 1817.0267 2162.615)" class="st2" style="font-family:'Campton-Light'; font-size:18.2005px;">W</text>
	<text transform="matrix(1 0 0 1 1836.3267 2162.615)" class="st2" style="font-family:'Campton-Light'; font-size:18.2005px;">X</text>
	<text transform="matrix(1 0 0 1 1849.1267 2162.615)" class="st2" style="font-family:'Campton-Light'; font-size:18.2005px;">Y</text>
	<text transform="matrix(1 0 0 1 1861.5267 2162.615)" class="st2" style="font-family:'Campton-Light'; font-size:18.2005px;">Z (ÇË) </text>
	<text transform="matrix(1 0 0 1 1549.6267 2184.5149)" class="st2" style="font-family:'Campton-Light'; font-size:18.2005px;">a</text>
	<text transform="matrix(1 0 0 1 1561.1267 2184.5149)" class="st2" style="font-family:'Campton-Light'; font-size:18.2005px;">b</text>
	<text transform="matrix(1 0 0 1 1572.6267 2184.5149)" class="st2" style="font-family:'Campton-Light'; font-size:18.2005px;">c</text>
	<text transform="matrix(1 0 0 1 1583.1267 2184.5149)" class="st2" style="font-family:'Campton-Light'; font-size:18.2005px;">d</text>
	<text transform="matrix(1 0 0 1 1594.6267 2184.5149)" class="st2" style="font-family:'Campton-Light'; font-size:18.2005px;">e</text>
	<text transform="matrix(1 0 0 1 1605.3267 2184.5149)" class="st2" style="font-family:'Campton-Light'; font-size:18.2005px;">f</text>
	<text transform="matrix(1 0 0 1 1612.4268 2184.5149)" class="st2" style="font-family:'Campton-Light'; font-size:18.2005px;">g</text>
	<text transform="matrix(1 0 0 1 1623.8267 2184.5149)" class="st2" style="font-family:'Campton-Light'; font-size:18.2005px;">hij</text>
	<text transform="matrix(1 0 0 1 1643.9268 2184.5149)" class="st2" style="font-family:'Campton-Light'; font-size:18.2005px;">k</text>
	<text transform="matrix(1 0 0 1 1654.1267 2184.5149)" class="st2" style="font-family:'Campton-Light'; font-size:18.2005px;">l</text>
	<text transform="matrix(1 0 0 1 1658.3267 2184.5149)" class="st2" style="font-family:'Campton-Light'; font-size:18.2005px;">no</text>
	<text transform="matrix(1 0 0 1 1680.4268 2184.5149)" class="st2" style="font-family:'Campton-Light'; font-size:18.2005px;">p</text>
	<text transform="matrix(1 0 0 1 1691.9268 2184.5149)" class="st2" style="font-family:'Campton-Light'; font-size:18.2005px;">q</text>
	<text transform="matrix(1 0 0 1 1703.3267 2184.5149)" class="st2" style="font-family:'Campton-Light'; font-size:18.2005px;">r</text>
	<text transform="matrix(1 0 0 1 1709.9268 2184.5149)" class="st2" style="font-family:'Campton-Light'; font-size:18.2005px;">s</text>
	<text transform="matrix(1 0 0 1 1719.9268 2184.5149)" class="st2" style="font-family:'Campton-Light'; font-size:18.2005px;">t</text>
	<text transform="matrix(1 0 0 1 1727.7267 2184.5149)" class="st2" style="font-family:'Campton-Light'; font-size:18.2005px;">u</text>
	<text transform="matrix(1 0 0 1 1738.4268 2184.5149)" class="st2" style="font-family:'Campton-Light'; font-size:18.2005px;">v</text>
	<text transform="matrix(1 0 0 1 1749.4268 2184.5149)" class="st2" style="font-family:'Campton-Light'; font-size:18.2005px;">w</text>
	<text transform="matrix(1 0 0 1 1764.0267 2184.5149)" class="st2" style="font-family:'Campton-Light'; font-size:18.2005px;">x</text>
	<text transform="matrix(1 0 0 1 1774.2267 2184.5149)" class="st2" style="font-family:'Campton-Light'; font-size:18.2005px;">y</text>
	<text transform="matrix(1 0 0 1 1785.5267 2184.5149)" class="st2" style="font-family:'Campton-Light'; font-size:18.2005px;">z (çë) </text>
	<text transform="matrix(1 0 0 1 1549.6267 2206.3149)" class="st2" style="font-family:'Campton-Light'; font-size:18.2005px;">1</text>
	<text transform="matrix(1 0 0 1 1558.7267 2206.3149)" class="st2" style="font-family:'Campton-Light'; font-size:18.2005px;">2</text>
	<text transform="matrix(1 0 0 1 1568.7267 2206.3149)" class="st2" style="font-family:'Campton-Light'; font-size:18.2005px;">3</text>
	<text transform="matrix(1 0 0 1 1579.6267 2206.3149)" class="st2" style="font-family:'Campton-Light'; font-size:18.2005px;">4</text>
	<text transform="matrix(1 0 0 1 1591.1267 2206.3149)" class="st2" style="font-family:'Campton-Light'; font-size:18.2005px;">5</text>
	<text transform="matrix(1 0 0 1 1601.7267 2206.3149)" class="st2" style="font-family:'Campton-Light'; font-size:18.2005px;">6</text>
	<text transform="matrix(1 0 0 1 1612.6267 2206.3149)" class="st2" style="font-family:'Campton-Light'; font-size:18.2005px;">7</text>
	<text transform="matrix(1 0 0 1 1621.5267 2206.3149)" class="st2" style="font-family:'Campton-Light'; font-size:18.2005px;">8</text>
	<text transform="matrix(1 0 0 1 1633.0267 2206.3149)" class="st2" style="font-family:'Campton-Light'; font-size:18.2005px;">9</text>
	<text transform="matrix(1 0 0 1 1644.5267 2206.3149)" class="st2" style="font-family:'Campton-Light'; font-size:18.2005px;">0</text>
	<text transform="matrix(1 0 0 1 1657.8267 2206.3149)" class="st2" style="font-family:'Campton-Light'; font-size:18.2005px;">!</text>
	<text transform="matrix(1 0 0 1 1662.4268 2206.3149)" class="st2" style="font-family:'Campton-Light'; font-size:18.2005px;">@</text>
	<text transform="matrix(1 0 0 1 1680.7267 2206.3149)" class="st2" style="font-family:'Campton-Light'; font-size:18.2005px;">£</text>
	<text transform="matrix(1 0 0 1 1692.6267 2206.3149)" class="st2" style="font-family:'Campton-Light'; font-size:18.2005px;">$</text>
	<text transform="matrix(1 0 0 1 1704.4268 2206.3149)" class="st2" style="font-family:'Campton-Light'; font-size:18.2005px;">%</text>
	<text transform="matrix(1 0 0 1 1723.6267 2206.3149)" class="st2" style="font-family:'Campton-Light'; font-size:18.2005px;">^</text>
	<text transform="matrix(1 0 0 1 1730.1267 2206.3149)" class="st2" style="font-family:'Campton-Light'; font-size:18.2005px;">&amp;</text>
	<text transform="matrix(1 0 0 1 1628.033 2014.9614)" style="fill:#64666C; font-family:'Lato-Bold'; font-size:18.2005px;"> </text>
	<text transform="matrix(1 0 0 1 1777.6414 2084.6499)" style="fill:#64666C; font-family:'Lato-Bold'; font-size:18.2005px;"> </text>
	<text transform="matrix(1 0 0 1 1796.592 2193.8521)" style="fill:#64666C; font-family:'Lato-Light'; font-size:18.2005px;"> </text>
	<text transform="matrix(1 0 0 1 1549.6248 1813.3306)" class="st2" style="font-family:'Campton-Book'; font-size:52.7815px;">A</text>
	<text transform="matrix(1 0 0 1 1588.8247 1813.3306)" class="st2" style="font-family:'Campton-Book'; font-size:52.7815px;">B</text>
	<text transform="matrix(1 0 0 1 1624.6248 1813.3306)" class="st2" style="font-family:'Campton-Book'; font-size:52.7815px;">C</text>
	<text transform="matrix(1 0 0 1 1666.4248 1813.3306)" class="st2" style="font-family:'Campton-Book'; font-size:52.7815px;">D</text>
	<text transform="matrix(1 0 0 1 1705.7247 1813.3306)" class="st2" style="font-family:'Campton-Book'; font-size:52.7815px;">EF</text>
	<text transform="matrix(1 0 0 1 1767.9248 1813.3306)" class="st2" style="font-family:'Campton-Book'; font-size:52.7815px;">G</text>
	<text transform="matrix(1 0 0 1 1811.7247 1813.3306)" class="st2" style="font-family:'Campton-Book'; font-size:52.7815px;">HI</text>
	<text transform="matrix(1 0 0 1 1863.8247 1813.3306)" class="st2" style="font-family:'Campton-Book'; font-size:52.7815px;">J</text>
	<text transform="matrix(1 0 0 1 1894.7247 1813.3306)" class="st2" style="font-family:'Campton-Book'; font-size:52.7815px;">K</text>
	<text transform="matrix(1 0 0 1 1931.8247 1813.3306)" class="st2" style="font-family:'Campton-Book'; font-size:52.7815px;">L</text>
	<text transform="matrix(1 0 0 1 1962.3247 1813.3306)" class="st2" style="font-family:'Campton-Book'; font-size:52.7815px;">N</text>
	<text transform="matrix(1 0 0 1 2002.4248 1813.3306)" class="st2" style="font-family:'Campton-Book'; font-size:52.7815px;">O</text>
	<text transform="matrix(1 0 0 1 2046.1248 1813.3306)" class="st2" style="font-family:'Campton-Book'; font-size:52.7815px;">P</text>
	<text transform="matrix(1 0 0 1 2079.3247 1813.3306)" class="st2" style="font-family:'Campton-Book'; font-size:52.7815px;">Q</text>
	<text transform="matrix(1 0 0 1 2122.9248 1813.3306)" class="st2" style="font-family:'Campton-Book'; font-size:52.7815px;">R</text>
	<text transform="matrix(1 0 0 1 2158.5249 1813.3306)" class="st2" style="font-family:'Campton-Book'; font-size:52.7815px;">S</text>
	<text transform="matrix(1 0 0 1 2193.6248 1813.3306)" class="st2" style="font-family:'Campton-Book'; font-size:52.7815px;">T</text>
	<text transform="matrix(1 0 0 1 2226.9248 1813.3306)" class="st2" style="font-family:'Campton-Book'; font-size:52.7815px;">U</text>
	<text transform="matrix(1 0 0 1 2266.3247 1813.3306)" class="st2" style="font-family:'Campton-Book'; font-size:52.7815px;">V</text>
	<text transform="matrix(1 0 0 1 2307.6248 1813.3306)" class="st2" style="font-family:'Campton-Book'; font-size:52.7815px;">W</text>
	<text transform="matrix(1 0 0 1 2363.7246 1813.3306)" class="st2" style="font-family:'Campton-Book'; font-size:52.7815px;">X</text>
	<text transform="matrix(1 0 0 1 2400.4248 1813.3306)" class="st2" style="font-family:'Campton-Book'; font-size:52.7815px;">Y</text>
	<text transform="matrix(1 0 0 1 2436.6248 1813.3306)" class="st2" style="font-family:'Campton-Book'; font-size:52.7815px;">Z (ÇË) </text>
	<text transform="matrix(1 0 0 1 1549.6248 1876.6306)" class="st2" style="font-family:'Campton-Book'; font-size:52.7815px;">a</text>
	<text transform="matrix(1 0 0 1 1581.8247 1876.6306)" class="st2" style="font-family:'Campton-Book'; font-size:52.7815px;">b</text>
	<text transform="matrix(1 0 0 1 1614.3247 1876.6306)" class="st2" style="font-family:'Campton-Book'; font-size:52.7815px;">c</text>
	<text transform="matrix(1 0 0 1 1644.0248 1876.6306)" class="st2" style="font-family:'Campton-Book'; font-size:52.7815px;">d</text>
	<text transform="matrix(1 0 0 1 1676.3247 1876.6306)" class="st2" style="font-family:'Campton-Book'; font-size:52.7815px;">e</text>
	<text transform="matrix(1 0 0 1 1706.3247 1876.6306)" class="st2" style="font-family:'Campton-Book'; font-size:52.7815px;">f</text>
	<text transform="matrix(1 0 0 1 1727.4248 1876.6306)" class="st2" style="font-family:'Campton-Book'; font-size:52.7815px;">g</text>
	<text transform="matrix(1 0 0 1 1759.6248 1876.6306)" class="st2" style="font-family:'Campton-Book'; font-size:52.7815px;">h</text>
	<text transform="matrix(1 0 0 1 1789.9248 1876.6306)" class="st2" style="font-family:'Campton-Book'; font-size:52.7815px;">i</text>
	<text transform="matrix(1 0 0 1 1803.2247 1876.6306)" class="st2" style="font-family:'Campton-Book'; font-size:52.7815px;">j</text>
	<text transform="matrix(1 0 0 1 1816.2247 1876.6306)" class="st2" style="font-family:'Campton-Book'; font-size:52.7815px;">k</text>
	<text transform="matrix(1 0 0 1 1845.8247 1876.6306)" class="st2" style="font-family:'Campton-Book'; font-size:52.7815px;">l</text>
	<text transform="matrix(1 0 0 1 1857.7247 1876.6306)" class="st2" style="font-family:'Campton-Book'; font-size:52.7815px;">n</text>
	<text transform="matrix(1 0 0 1 1888.3247 1876.6306)" class="st2" style="font-family:'Campton-Book'; font-size:52.7815px;">o</text>
	<text transform="matrix(1 0 0 1 1920.0248 1876.6306)" class="st2" style="font-family:'Campton-Book'; font-size:52.7815px;">p</text>
	<text transform="matrix(1 0 0 1 1952.6248 1876.6306)" class="st2" style="font-family:'Campton-Book'; font-size:52.7815px;">q</text>
	<text transform="matrix(1 0 0 1 1984.8247 1876.6306)" class="st2" style="font-family:'Campton-Book'; font-size:52.7815px;">r</text>
	<text transform="matrix(1 0 0 1 2004.0248 1876.6306)" class="st2" style="font-family:'Campton-Book'; font-size:52.7815px;">s</text>
	<text transform="matrix(1 0 0 1 2031.9248 1876.6306)" class="st2" style="font-family:'Campton-Book'; font-size:52.7815px;">t</text>
	<text transform="matrix(1 0 0 1 2054.3247 1876.6306)" class="st2" style="font-family:'Campton-Book'; font-size:52.7815px;">u</text>
	<text transform="matrix(1 0 0 1 2085.1248 1876.6306)" class="st2" style="font-family:'Campton-Book'; font-size:52.7815px;">v</text>
	<text transform="matrix(1 0 0 1 2116.6248 1876.6306)" class="st2" style="font-family:'Campton-Book'; font-size:52.7815px;">w</text>
	<text transform="matrix(1 0 0 1 2158.8247 1876.6306)" class="st2" style="font-family:'Campton-Book'; font-size:52.7815px;">x</text>
	<text transform="matrix(1 0 0 1 2188.4248 1876.6306)" class="st2" style="font-family:'Campton-Book'; font-size:52.7815px;">y</text>
	<text transform="matrix(1 0 0 1 2220.7246 1876.6306)" class="st2" style="font-family:'Campton-Book'; font-size:52.7815px;">z (çë) </text>
	<text transform="matrix(1 0 0 1 1549.6248 1940.0305)" class="st2" style="font-family:'Campton-Book'; font-size:52.7815px;">1</text>
	<text transform="matrix(1 0 0 1 1575.5248 1940.0305)" class="st2" style="font-family:'Campton-Book'; font-size:52.7815px;">2</text>
	<text transform="matrix(1 0 0 1 1603.6248 1940.0305)" class="st2" style="font-family:'Campton-Book'; font-size:52.7815px;">3</text>
	<text transform="matrix(1 0 0 1 1634.4248 1940.0305)" class="st2" style="font-family:'Campton-Book'; font-size:52.7815px;">4</text>
	<text transform="matrix(1 0 0 1 1666.5248 1940.0305)" class="st2" style="font-family:'Campton-Book'; font-size:52.7815px;">5</text>
	
		<text transform="matrix(1 0 0 1 1696.4248 1940.0305)" class="st2" style="font-family:'Campton-Book'; font-size:52.7815px; letter-spacing:-1;">6</text>
	<text transform="matrix(1 0 0 1 1726.4248 1940.0305)" class="st2" style="font-family:'Campton-Book'; font-size:52.7815px;">7</text>
	<text transform="matrix(1 0 0 1 1751.4248 1940.0305)" class="st2" style="font-family:'Campton-Book'; font-size:52.7815px;">8</text>
	<text transform="matrix(1 0 0 1 1783.5248 1940.0305)" class="st2" style="font-family:'Campton-Book'; font-size:52.7815px;">9</text>
	<text transform="matrix(1 0 0 1 1815.8247 1940.0305)" class="st2" style="font-family:'Campton-Book'; font-size:52.7815px;">0</text>
	<text transform="matrix(1 0 0 1 1853.8247 1940.0305)" class="st2" style="font-family:'Campton-Book'; font-size:52.7815px;">!</text>
	<text transform="matrix(1 0 0 1 1867.0248 1940.0305)" class="st2" style="font-family:'Campton-Book'; font-size:52.7815px;">@</text>
	<text transform="matrix(1 0 0 1 1919.7247 1940.0305)" class="st2" style="font-family:'Campton-Book'; font-size:52.7815px;">£</text>
	<text transform="matrix(1 0 0 1 1953.1248 1940.0305)" class="st2" style="font-family:'Campton-Book'; font-size:52.7815px;">$</text>
	
		<text transform="matrix(1 0 0 1 1986.8247 1940.0305)" class="st2" style="font-family:'Campton-Book'; font-size:52.7815px; letter-spacing:-1;">%</text>
	
		<text transform="matrix(1 0 0 1 2041.5248 1940.0305)" class="st2" style="font-family:'Campton-Book'; font-size:52.7815px; letter-spacing:-1;">^</text>
	<text transform="matrix(1 0 0 1 2059.9248 1940.0305)" class="st2" style="font-family:'Campton-Book'; font-size:52.7815px;">&amp;</text>
	<text transform="matrix(1 0 0 1 1956.3391 1827.7769)" style="fill:#010101; font-family:'Lato-Regular'; font-size:52.7815px;"> </text>
	<text transform="matrix(1 0 0 1 1939.8176 1951.4956)" style="fill:#010101; font-family:'Lato-Regular'; font-size:52.7815px;"> </text>
	<text transform="matrix(1 0 0 1 1818.8113 1998.9106)" style="fill:#010101; font-family:'Lato-Regular'; font-size:52.7815px;"> </text>
	<line class="st4" x1="2105.9" y1="1968" x2="1549.6" y2="1968"/>
	<line class="st4" x1="2105.9" y1="2100.8" x2="1549.6" y2="2100.8"/>
</g>
<line class="st5" x1="1997.4" y1="1231.1" x2="1496.9" y2="1231.1"/>
<line class="st4" x1="1997.4" y1="1617.8" x2="1496.9" y2="1617.8"/>
<text transform="matrix(1 0 0 1 2207.0195 1302.0708)" class="st2" style="font-family:'Campton-Thin'; font-size:31.9337px;">Campton Thin </text>
<text transform="matrix(1 0 0 1 2207.0195 1340.3708)" class="st2" style="font-family:'Campton-ThinItalic'; font-size:31.9337px;">Campton Italic </text>
<text transform="matrix(1 0 0 1 2207.0195 1378.6708)" class="st2" style="font-family:'Campton-ExtraLight'; font-size:31.9337px;">Campton ExtraLight </text>
<text transform="matrix(1 0 0 1 2207.0195 1417.0708)" class="st2" style="font-family:'Campton-ExtraLightItalic'; font-size:31.9337px;">Campton ExtraLight Italic </text>
<text transform="matrix(1 0 0 1 2207.0195 1455.3708)" class="st2" style="font-family:'Campton-Light'; font-size:31.9337px;">Campton Light </text>
<text transform="matrix(1 0 0 1 2207.0195 1493.6708)" class="st2" style="font-family:'Campton-LightItalic'; font-size:31.9337px;">Campton Light Italic </text>
<text transform="matrix(1 0 0 1 2207.0195 1531.9708)" class="st2" style="font-family:'Campton-Book'; font-size:31.9337px;">Campton Book </text>
<text transform="matrix(1 0 0 1 2207.0195 1570.2709)" class="st2" style="font-family:'Campton-BookItalic'; font-size:31.9337px;">Campton Book Italic </text>
<text transform="matrix(1 0 0 1 2207.0195 1608.6708)" class="st2" style="font-family:'Campton-Medium'; font-size:31.9337px;">Campton Medium </text>
<text transform="matrix(1 0 0 1 2207.0195 1646.9708)" class="st2" style="font-family:'Campton-MediumItalic'; font-size:31.9337px;">Campton Medium Italic</text>
<text transform="matrix(1 0 0 1 2625.29 1302.0708)" class="st2" style="font-family:'Campton-SemiBold'; font-size:31.9337px;">Campton SemiBold </text>
<text transform="matrix(1 0 0 1 2625.29 1340.3708)" class="st2" style="font-family:'Campton-SemiBoldItalic'; font-size:31.9337px;">Campton SemiBold Italic </text>
<text transform="matrix(1 0 0 1 2625.29 1378.6708)" class="st2" style="font-family:'Campton-Bold'; font-size:31.9337px;">Campton Bold </text>
<text transform="matrix(1 0 0 1 2625.29 1417.0708)" class="st2" style="font-family:'Campton-BoldItalic'; font-size:31.9337px;">Campton Bold Italic </text>
<text transform="matrix(1 0 0 1 2625.29 1455.3708)" class="st2" style="font-family:'Campton-ExtraBold'; font-size:31.9337px;">Campton ExtraBold </text>
<text transform="matrix(1 0 0 1 2625.29 1493.6708)" class="st2" style="font-family:'Campton-ExtraBoldItalic'; font-size:31.9337px;">Campton ExtraBold Italic </text>
<text transform="matrix(1 0 0 1 2625.29 1531.9708)" class="st2" style="font-family:'Campton-Black'; font-size:31.9337px;">Campton Black </text>
<text transform="matrix(1 0 0 1 2625.29 1570.2709)" class="st2" style="font-family:'Campton-BlackItalic'; font-size:31.9337px;">Campton Black Italic</text>
<line class="st4" x1="1997.4" y1="1396.8" x2="1496.9" y2="1396.8"/>
<text transform="matrix(1 0 0 1 1496.896 1167.4458)" class="st2" style="font-family:'Campton-Medium'; font-size:43.6812px;">Primary</text>
<text transform="matrix(1 0 0 1 1658.696 1167.4458)" class="st2" style="font-family:'Campton-Medium'; font-size:43.6812px;"> </text>
<text transform="matrix(1 0 0 1 1669.796 1167.4458)" class="st2" style="font-family:'Campton-Medium'; font-size:43.6812px; letter-spacing:-3;">T</text>
<text transform="matrix(1 0 0 1 1693.796 1167.4458)" class="st2" style="font-family:'Campton-Medium'; font-size:43.6812px;">y</text>
<text transform="matrix(1 0 0 1 1719.896 1167.4458)" class="st2" style="font-family:'Campton-Medium'; font-size:43.6812px;">p</text>
<text transform="matrix(1 0 0 1 1746.0959 1167.4458)" class="st2" style="font-family:'Campton-Medium'; font-size:43.6812px;">e</text>
<text transform="matrix(1 0 0 1 1770.196 1167.4458)" class="st2" style="font-family:'Campton-Medium'; font-size:43.6812px;">f</text>
<text transform="matrix(1 0 0 1 1788.5959 1167.4458)" class="st2" style="font-family:'Campton-Medium'; font-size:43.6812px;">a</text>
<text transform="matrix(1 0 0 1 1814.896 1167.4458)" class="st2" style="font-family:'Campton-Medium'; font-size:43.6812px;">c</text>
<text transform="matrix(1 0 0 1 1838.696 1167.4458)" class="st2" style="font-family:'Campton-Medium'; font-size:43.6812px;">e</text>
<text transform="matrix(1 0 0 1 2207.0195 1167.4458)" class="st2" style="font-family:'Campton-Medium'; font-size:50.7962px;">S</text>
<text transform="matrix(1 0 0 1 2240.2195 1167.4458)" class="st2" style="font-family:'Campton-Medium'; font-size:50.7962px;">t</text>
<text transform="matrix(1 0 0 1 2264.0195 1167.4458)" class="st2" style="font-family:'Campton-Medium'; font-size:50.7962px;">y</text>
<text transform="matrix(1 0 0 1 2295.2195 1167.4458)" class="st2" style="font-family:'Campton-Medium'; font-size:50.7962px;">l</text>
<text transform="matrix(1 0 0 1 2308.0195 1167.4458)" class="st2" style="font-family:'Campton-Medium'; font-size:50.7962px;">e</text>
<text transform="matrix(1 0 0 1 2337.5195 1167.4458)" class="st2" style="font-family:'Campton-Medium'; font-size:50.7962px;">s</text>
<text transform="matrix(1 0 0 1 1487.0581 1346.4556)" class="st1" style="font-family:'Campton-Bold'; font-size:91.2484px;">Campton</text>
<text transform="matrix(1 0 0 1 1903.5581 1346.4556)" class="st1" style="font-family:'Campton-Bold'; font-size:91.2484px;"> </text>
<text transform="matrix(1 0 0 1 1926.1581 1346.4556)" class="st1" style="font-family:'Campton-Bold'; font-size:91.2484px; letter-spacing:-3;">F</text>
<text transform="matrix(1 0 0 1 1975.1581 1346.4556)" class="st1" style="font-family:'Campton-Bold'; font-size:91.2484px; letter-spacing:-1;">o</text>
<text transform="matrix(1 0 0 1 2027.6581 1346.4556)" class="st1" style="font-family:'Campton-Bold'; font-size:91.2484px; letter-spacing:-2;">n</text>
<text transform="matrix(1 0 0 1 2079.8582 1346.4556)" class="st1" style="font-family:'Campton-Bold'; font-size:91.2484px;">t</text>
<text transform="matrix(1 0 0 1 1496.896 1474.5344)" class="st2" style="font-family:'Campton-Medium'; font-size:21.8406px;">Campton</text>
<text transform="matrix(1 0 0 1 1599.496 1474.5344)" class="st2" style="font-family:'Campton-Medium'; font-size:21.8406px;"> </text>
<text transform="matrix(1 0 0 1 1605.296 1474.5344)" class="st2" style="font-family:'Campton-Medium'; font-size:21.8406px;">i</text>
<text transform="matrix(1 0 0 1 1611.0959 1474.5344)" class="st2" style="font-family:'Campton-Medium'; font-size:21.8406px;">s a f</text>
<text transform="matrix(1 0 0 1 1656.5959 1474.5344)" class="st2" style="font-family:'Campton-Medium'; font-size:21.8406px;">r</text>
<text transform="matrix(1 0 0 1 1664.796 1474.5344)" class="st2" style="font-family:'Campton-Medium'; font-size:21.8406px;">e</text>
<text transform="matrix(1 0 0 1 1677.396 1474.5344)" class="st2" style="font-family:'Campton-Medium'; font-size:21.8406px;">e </text>
<text transform="matrix(1 0 0 1 1695.696 1474.5344)" class="st2" style="font-family:'Campton-Medium'; font-size:21.8406px;">t</text>
<text transform="matrix(1 0 0 1 1705.896 1474.5344)" class="st2" style="font-family:'Campton-Medium'; font-size:21.8406px;">yp</text>
<text transform="matrix(1 0 0 1 1732.696 1474.5344)" class="st2" style="font-family:'Campton-Medium'; font-size:21.8406px;">e</text>
<text transform="matrix(1 0 0 1 1744.996 1474.5344)" class="st2" style="font-family:'Campton-Medium'; font-size:21.8406px;">f</text>
<text transform="matrix(1 0 0 1 1754.496 1474.5344)" class="st2" style="font-family:'Campton-Medium'; font-size:21.8406px;">a</text>
<text transform="matrix(1 0 0 1 1767.896 1474.5344)" class="st2" style="font-family:'Campton-Medium'; font-size:21.8406px;">c</text>
<text transform="matrix(1 0 0 1 1780.196 1474.5344)" class="st2" style="font-family:'Campton-Medium'; font-size:21.8406px;">e </text>
<text transform="matrix(1 0 0 1 1798.496 1474.5344)" class="st2" style="font-family:'Campton-Medium'; font-size:21.8406px;">a</text>
<text transform="matrix(1 0 0 1 1811.896 1474.5344)" class="st2" style="font-family:'Campton-Medium'; font-size:21.8406px;">nd </text>
<text transform="matrix(1 0 0 1 1843.996 1474.5344)" class="st2" style="font-family:'Campton-Medium'; font-size:21.8406px;">c</text>
<text transform="matrix(1 0 0 1 1856.796 1474.5344)" class="st2" style="font-family:'Campton-Medium'; font-size:21.8406px;">a</text>
<text transform="matrix(1 0 0 1 1870.0959 1474.5344)" class="st2" style="font-family:'Campton-Medium'; font-size:21.8406px;">n </text>
<text transform="matrix(1 0 0 1 1496.896 1500.7344)" class="st2" style="font-family:'Campton-Medium'; font-size:21.8406px;">b</text>
<text transform="matrix(1 0 0 1 1510.296 1500.7344)" class="st2" style="font-family:'Campton-Medium'; font-size:21.8406px;">e d</text>
<text transform="matrix(1 0 0 1 1542.0959 1500.7344)" class="st2" style="font-family:'Campton-Medium'; font-size:21.8406px;">o</text>
<text transform="matrix(1 0 0 1 1554.796 1500.7344)" class="st2" style="font-family:'Campton-Medium'; font-size:21.8406px;">w</text>
<text transform="matrix(1 0 0 1 1571.996 1500.7344)" class="st2" style="font-family:'Campton-Medium'; font-size:21.8406px;">n</text>
<text transform="matrix(1 0 0 1 1584.896 1500.7344)" class="st2" style="font-family:'Campton-Medium'; font-size:21.8406px;">l</text>
<text transform="matrix(1 0 0 1 1590.196 1500.7344)" class="st2" style="font-family:'Campton-Medium'; font-size:21.8406px;">oa</text>
<text transform="matrix(1 0 0 1 1616.696 1500.7344)" class="st2" style="font-family:'Campton-Medium'; font-size:21.8406px;">d</text>
<text transform="matrix(1 0 0 1 1630.0959 1500.7344)" class="st2" style="font-family:'Campton-Medium'; font-size:21.8406px;">e</text>
<text transform="matrix(1 0 0 1 1642.5959 1500.7344)" class="st2" style="font-family:'Campton-Medium'; font-size:21.8406px;">d </text>
<text transform="matrix(1 0 0 1 1661.796 1500.7344)" class="st2" style="font-family:'Campton-Medium'; font-size:21.8406px;">he</text>
<text transform="matrix(1 0 0 1 1687.296 1500.7344)" class="st2" style="font-family:'Campton-Medium'; font-size:21.8406px;">r</text>
<text transform="matrix(1 0 0 1 1695.396 1500.7344)" class="st2" style="font-family:'Campton-Medium'; font-size:21.8406px;">e</text>
<text transform="matrix(1 0 0 1 1707.796 1500.7344)" class="st2" style="font-family:'Campton-Medium'; font-size:21.8406px;">: </text>
<text transform="matrix(1 0 0 1 1496.896 1526.9344)" class="st2" style="font-family:'Campton-Medium'; font-size:21.8406px;"> </text>
<text transform="matrix(1 0 0 1 1496.896 1553.1344)" class="st2" style="font-family:'Campton-Medium'; font-size:21.8406px;">https://www.cufonfonts.com/font/campton</text>
<line class="st5" x1="2707.5" y1="1231.1" x2="2207" y2="1231.1"/>
<g>
	<g>
		<text transform="matrix(1 0 0 1 1841.3889 2483.2087)" class="st1" style="font-family:'Campton-Bold'; font-size:80.9028px;">Primary COLORS</text>
	</g>
	<g>
		<g>
			
				<ellipse transform="matrix(0.7071 -0.7071 0.7071 0.7071 -1341.996 2250.835)" class="st6" cx="2046" cy="2745.3" rx="108.6" ry="108.6"/>
			<g>
				<g>
					<polygon class="st2" points="2046,2853.9 2046.7,2919.1 2045.2,2919.1 					"/>
					<g>
						<polygon class="st2" points="2046,2932 2038.6,2913.9 2046,2918.2 2053.4,2913.9 						"/>
					</g>
				</g>
			</g>
			<g>
				
					<text transform="matrix(1 0 0 1 1989.4978 2967.5525)" class="st2" style="font-family:'Campton-SemiBold'; font-size:24.8307px;">#e4232b</text>
			</g>
		</g>
		<g>
			<circle class="st2" cx="2388.5" cy="2745.3" r="108.6"/>
			<g>
				<g>
					<polygon class="st2" points="2388.5,2853.9 2389.3,2919.1 2387.8,2919.1 					"/>
					<g>
						<polygon class="st2" points="2388.5,2932 2381.1,2913.9 2388.5,2918.2 2395.9,2913.9 						"/>
					</g>
				</g>
			</g>
			<g>
				
					<text transform="matrix(1 0 0 1 2334.8604 2969.5054)" class="st2" style="font-family:'Campton-SemiBold'; font-size:24.8307px;">#1e1e1e</text>
			</g>
		</g>
	</g>
</g>
<g>
	<text transform="matrix(1 0 0 1 1765.0574 3197.3557)" class="st1" style="font-family:'Campton-Bold'; font-size:80.9028px;">Secondary COLORS</text>
</g>
<g>
	<g>
		<circle class="st7" cx="1864" cy="3428.5" r="77.6"/>
		<g>
			<g>
				<polygon class="st2" points="1864,3506.1 1864.8,3571.4 1863.2,3571.4 				"/>
				<g>
					<polygon class="st2" points="1864,3584.2 1856.6,3566.1 1864,3570.4 1871.4,3566.1 					"/>
				</g>
			</g>
		</g>
		<g>
			
				<text transform="matrix(1 0 0 1 1807.5909 3619.7668)" class="st2" style="font-family:'Campton-SemiBold'; font-size:24.8307px;">#F05253</text>
		</g>
	</g>
	<g>
		
			<ellipse transform="matrix(0.7071 -0.7071 0.7071 0.7071 -1828.2253 2443.3735)" class="st8" cx="2035.3" cy="3428.5" rx="77.6" ry="77.6"/>
		<g>
			<g>
				<polygon class="st2" points="2035.3,3506.1 2036,3571.4 2034.5,3571.4 				"/>
				<g>
					<polygon class="st2" points="2035.3,3584.2 2027.9,3566.1 2035.3,3570.4 2042.7,3566.1 					"/>
				</g>
			</g>
		</g>
		<g>
			
				<text transform="matrix(1 0 0 1 1978.281 3619.7668)" class="st2" style="font-family:'Campton-SemiBold'; font-size:24.8307px;">#F37A7A</text>
		</g>
	</g>
	<g>
		<circle class="st9" cx="2212" cy="3428.5" r="77.6"/>
		<g>
			<g>
				<polygon class="st2" points="2212,3506.1 2212.7,3571.4 2211.2,3571.4 				"/>
				<g>
					<polygon class="st2" points="2212,3584.2 2204.6,3566.1 2212,3570.4 2219.4,3566.1 					"/>
				</g>
			</g>
		</g>
		<g>
			
				<text transform="matrix(1 0 0 1 2151.5107 3619.7668)" class="st2" style="font-family:'Campton-SemiBold'; font-size:24.8307px;">#F1AC7C</text>
		</g>
	</g>
	<g>
		<circle class="st10" cx="2392.8" cy="3428.5" r="77.6"/>
		<g>
			<g>
				<polygon class="st2" points="2392.8,3506.1 2393.6,3571.4 2392.1,3571.4 				"/>
				<g>
					<polygon class="st2" points="2392.8,3584.2 2385.4,3566.1 2392.8,3570.4 2400.2,3566.1 					"/>
				</g>
			</g>
		</g>
		<g>
			
				<text transform="matrix(1 0 0 1 2335.4543 3619.7668)" class="st2" style="font-family:'Campton-SemiBold'; font-size:24.8307px;">#E87C62</text>
		</g>
	</g>
	<g>
		<circle class="st11" cx="2570.5" cy="3428.5" r="77.6"/>
		<g>
			<g>
				<polygon class="st2" points="2570.5,3506.1 2571.3,3571.4 2569.8,3571.4 				"/>
				<g>
					<polygon class="st2" points="2570.5,3584.2 2563.1,3566.1 2570.5,3570.4 2577.9,3566.1 					"/>
				</g>
			</g>
		</g>
		<g>
			
				<text transform="matrix(1 0 0 1 2511.8777 3619.7668)" class="st2" style="font-family:'Campton-SemiBold'; font-size:24.8307px;">#FDE2BE</text>
		</g>
	</g>
</g>
<g>
	<g>
		<line class="st12" x1="1491.1" y1="-510.1" x2="1491.1" y2="-445.8"/>
		<line class="st12" x1="1548" y1="-510.1" x2="1548" y2="-445.8"/>
	</g>
	<text transform="matrix(1 0 0 1 1508.2684 -471.4831)" class="st2" style="font-family:'Campton-Medium'; font-size:21.6555px;">x1</text>
</g>
<g>
	<g>
		<path class="st1" d="M2183.2,761.4l101.5-84.8l0.7-0.6h1l103,0.8l-4,2.1l27.3-44.7l1.1-1.8l2.3-0.6l112.1-30.5
			c4.3-1.2,8.7,1.4,9.8,5.6c1.2,4.4-1.5,8.9-5.9,9.9l-113.3,26l3.4-2.5l-29.1,43.6l-1.5,2.3l-2.5-0.1l-102.9-4.8l1.7-0.6
			C2288,680.7,2183.2,761.4,2183.2,761.4L2183.2,761.4z"/>
	</g>
	<path class="st2" d="M2466.1,589.1c26.6-26.6,26.6-69.8,0-96.4c-26.6-26.6-69.8-26.6-96.4,0c-26.6,26.6-26.6,69.8,0,96.4l0,0
		l19.9,19.9l28.3,28.3l18.2-18.2L2466.1,589.1L2466.1,589.1z M2397.9,521c11-11,28.8-11,39.8,0c11,11,11,28.8,0,39.8
		s-28.8,11-39.8,0S2386.9,532,2397.9,521z"/>
	<g>
		<path class="st13" d="M3011,450.6c0,0,1.1-2.7,7.9-1.9c6.8,0.8,7.5,9.8,10.9,16.3c3.4,6.4,7,9.5,7,9.5s0.5,3.9-6.9,6.1
			s-22-1.5-22-1.5s-1.9-17.1,0.9-22.3C3011.7,451.6,3011,450.6,3011,450.6z"/>
		<path class="st13" d="M2991,621.4l9.2,0.6c0,0,3.9-35.6,8.2-61.5c0-0.1,0-0.2,0-0.3c1.8-10.6,3.6-19.5,5.2-23.7
			c0,0,2.1,33.2,2.8,47.9c0.6,14.7,3.6,40.5,3.6,40.5l8.5,1.3c0,0,1.4-51.3,0.6-61c-0.8-9.7,3-45.6-3.6-54.5h-23.8
			c0,0-9.2,50.4-9.9,64.4C2991.3,589.1,2991,621.4,2991,621.4z"/>
		<polygon class="st14" points="3022.1,625 3022.3,627.8 3022.6,634.2 3027.4,634.9 3027.5,628 3027.5,625.2 		"/>
		<path class="st14" d="M2993.1,632l5.4,1.5c0,0,0.1-3.2,0.3-6.3c0.1-2,0.2-3.9,0.2-4.9c0-0.4,0-0.6,0-0.7l-5.8-0.6v1.8v4.1
			L2993.1,632z"/>
		<path class="st15" d="M3020.7,632.7c0,0-0.9-3.6-2.3-3.4C3017,629.5,3020.7,632.7,3020.7,632.7z"/>
		<path class="st15" d="M3020.3,632.7c0,0-3.3-2.4-4-1.2C3015.7,632.8,3020.3,632.7,3020.3,632.7z"/>
		<path class="st15" d="M2991,633.1c0,0-0.7-3.8-1.6-3.7C2988.6,629.4,2991,633.1,2991,633.1z"/>
		<path class="st15" d="M2991.2,634.2c0,0-2-3.9-3-3S2991.2,634.2,2991.2,634.2z"/>
		<path class="st13" d="M3016.5,637.4c0,0,10.2,0.3,10.9,0.2s1.6-0.1,1.6-0.9c0-0.4-0.4-2.8-0.4-3.6c-0.1-0.8,0.1-1.3-0.9-1.5
			c-1-0.3-6.1-0.9-6.7-0.2c-0.6,0.6-2.7,3-4.2,3.3s-2.8,0.2-2.9,1C3013.8,636.5,3013.8,637.2,3016.5,637.4z"/>
		<path class="st13" d="M2987.1,637.4c0,0,10.2,0.3,10.9,0.2s1.5-0.3,1.6-0.7s-0.3-3-0.4-3.8c-0.1-0.8,0.1-1.3-0.9-1.5
			c-1-0.3-6.1-0.9-6.7-0.2c-0.6,0.6-2.7,3-4.2,3.3s-2.8,0.2-2.9,1C2984.4,636.5,2984.4,637.2,2987.1,637.4z"/>
		<path class="st16" d="M3008.5,560.1c1.8-10.6,3.6-19.5,5.2-23.7l-1.1-6C3012.7,530.4,3009.9,551.9,3008.5,560.1z"/>
		<path class="st17" d="M3022.1,625l0.1,2.8c1.3,0.1,4,0.1,5.2,0.2v-2.6L3022.1,625z"/>
		<path class="st17" d="M2993.1,626.9l5.6,0.3c0.1-2,0.2-3.9,0.2-4.9l-5.7,0.6L2993.1,626.9z"/>
		<polygon class="st18" points="2989.5,621 2990.3,625.4 3000.5,626.2 3001.8,621 		"/>
		<polygon class="st18" points="3018.8,622.4 3019.6,626.8 3030.3,627.2 3030.3,622.4 		"/>
		<path class="st18" d="M2985.3,500c0,0,7.9,5.8,11.4,5.6c3.5-0.2,5.8-6.1,5.8-6.1l-0.5,11.1h23.8v-1.5c0,0,6.8,1.6,8.7-2.4
			s-0.4-17.6-0.7-21.2c-0.4-3.6-1.1-9.7-5.2-10.6c-4.1-0.8-15.9-1-18.7-0.6s-7.6,2.4-8.7,8.5c-1.1,6.1-5.2,16.7-5.2,16.7
			s-6.3-1.2-8.6-2.3L2985.3,500z M3026.6,503.5l1-5.2l0.7-3.7c0.5,2,0.7,8.9,0.7,8.9L3026.6,503.5L3026.6,503.5z"/>
		<path class="st14" d="M3014,501.9l-3.7-4.5l-5.2-0.8l-0.8,4.7l4,1.5c0,0,1.9,2.3,5.8,1.9v-2.8H3014z"/>
		<path class="st14" d="M2987.2,497.2l-1.9-3.6l-4.7-2l-1.8,4.9l3.9,1.5c0,0,1,2.3,2.6,2L2987.2,497.2z"/>
		<path class="st14" d="M3013.9,469.9c0,0,0,0.5,0,1.2c-0.1,0.8,0.1,2.2-1.5,3c0.8,1.7,2.7,6,3.9,7.5c1.8-1.5,5.9-7.3,5.9-7.3
			s-2.9-3.2-0.8-9.1c0,0,2.9-2.2,2.4-3.3c-0.7-1.4-2.6-0.6-3-0.1c0.4-0.6,2.4-7.6,0-10.1c-1.5-1.6-3-1.6-5.9-1.7h-0.1
			c-0.1,0-0.1,0-0.2,0c-1.8-0.1-3.1,0-3.1,0l0,0c-0.1,0.1-0.8,0.8-1.6,2.2l0,0c-0.9,1.6-2,3.9-2.3,6.9
			C3007.1,464.8,3008.2,469.4,3013.9,469.9z"/>
		<path class="st19" d="M3012.3,462.9c0,0,2.6,0.9,3.5-1.1"/>
		<path class="st20" d="M3015.4,454.8c0,0,1.5-0.1,2.1,1.2"/>
		<path class="st20" d="M3008.9,454.1c0.7-0.8,1.6-0.7,1.6-0.7"/>
		<path class="st21" d="M3011.3,461.9l0.5-4.3l-2.5,3.2C3009.2,460.9,3009.5,461.9,3011.3,461.9z"/>
		<path class="st22" d="M3015.4,457.6c0,0.4-0.3,0.8-0.6,0.8s-0.5-0.4-0.5-0.8s0.3-0.8,0.6-0.8S3015.4,457.1,3015.4,457.6z"/>
		<path class="st22" d="M3010.4,456.9c0,0.4-0.3,0.8-0.6,0.8s-0.5-0.4-0.5-0.8s0.3-0.8,0.6-0.8
			C3010.2,456,3010.4,456.4,3010.4,456.9z"/>
		<path class="st22" d="M3022.5,458.6c0,0,2.9-3.9,0.5-6.5c-1.5-1.6-5.6-2.6-8.4-2.7C3014.7,450.1,3014.6,455.9,3022.5,458.6z"/>
		<path class="st22" d="M3009.9,452.2c0,0,2.7-0.2,4.8-2.2c0.1-0.1,0.2-0.2,0.2-0.2c-1.9-0.1-3.4,0.2-3.4,0.2l0,0
			C3011.4,450.1,3010.7,450.9,3009.9,452.2L3009.9,452.2z"/>
		<path class="st17" d="M3013.9,471.2c2-0.6,3.1-2,3.2-2.1c-1.5,0.8-3.2,0.9-3.2,0.9S3013.9,470.5,3013.9,471.2z"/>
		<path class="st17" d="M3027.6,498.2l0.7-3.7v-5.3C3028.3,489.2,3027.5,494.9,3027.6,498.2z"/>
	</g>
	<g>
		<g>
			<g>
				<g>
					
						<rect x="2926" y="477.4" transform="matrix(5.651912e-02 -0.9984 0.9984 5.651912e-02 2278.2627 3407.6733)" class="st18" width="32.2" height="41.9"/>
					
						<rect x="2926" y="477.4" transform="matrix(5.651912e-02 -0.9984 0.9984 5.651912e-02 2278.2627 3407.6733)" class="st16" width="32.2" height="41.9"/>
				</g>
				
					<rect x="2941.2" y="478.3" transform="matrix(5.651912e-02 -0.9984 0.9984 5.651912e-02 2291.7781 3423.616)" class="st18" width="32.2" height="41.9"/>
				
					<rect x="2941.2" y="478.3" transform="matrix(5.651912e-02 -0.9984 0.9984 5.651912e-02 2291.7781 3423.616)" class="st23" width="32.2" height="41.9"/>
			</g>
			
				<rect x="2935.7" y="482.5" transform="matrix(5.651947e-02 -0.9984 0.9984 5.651947e-02 2285.0198 3391.8855)" class="st16" width="3" height="8.9"/>
			
				<rect x="2969.6" y="485.9" transform="matrix(5.651981e-02 -0.9984 0.9984 5.651981e-02 2314.4778 3429.9971)" class="st24" width="4.9" height="8.9"/>
			
				<rect x="2969.4" y="495.9" transform="matrix(5.652174e-02 -0.9984 0.9984 5.652174e-02 2301.4111 3440.8364)" class="st16" width="3.8" height="13.7"/>
		</g>
		<g>
			<path class="st25" d="M2910.1,454.5l2.3,2.9c0,0-0.7,0.6-2.1,0.9L2910.1,454.5z"/>
			<polygon class="st26" points="2870.5,634.1 2877.2,633.7 2878.5,628 2879.3,624.9 2879.6,623.7 2874.4,623.4 2874.1,623.2 
				2873,626.6 			"/>
			<path class="st26" d="M2908.8,635c-0.1,0.5,6.2-0.4,6.2-0.4l0.2-5.3l0.2-4.1V625h-0.1l-6.4,0.6c0,0,0,1.7,0,3.7
				C2909,631.8,2908.9,634.7,2908.8,635z"/>
			<path class="st26" d="M2895.5,469.9c0,0,9,2.4,8.3,0.7c-0.4-1-0.4-2.3-0.4-3.3c0-0.7,0.1-1.3,0.1-1.3c3.3,0.2,5.4-2.2,6.4-5.1
				c1.3-3.7,0.8-7.9-0.7-11.4c-0.1-0.3-0.5-1.5-0.8-1.7l-3.5-1.6c0,0-3.5,2.3-5.2,3.7c-1.8,1.4-3.2,7.9-3.2,13
				C2896.4,467.9,2895.5,469.9,2895.5,469.9z"/>
			<path class="st22" d="M2910.4,453.5c0,0,0.5,0.1,0.6,0.7c0,0.6-0.4,0.8-0.4,0.8L2910.4,453.5z"/>
			<path class="st20" d="M2910.4,450.5c0,0-0.6,0-1.1,0.3"/>
			<path class="st13" d="M2907.3,459.9c0,0-2.6,4.1-6.8,5s-5.5-0.5-6-2.9c-0.6-2.4-1.7-4.5-3.1-5.9c-1.4-1.5-0.6-5.5,1.3-8.8
				c0,0-2-1.6,1.2-3.2s4.3,1,7.1-0.5c2.7-1.5-0.9-2.1,1.7,2.7c2.6,4.8,4,1.3,4.4,3.4C2907.3,451.9,2909.3,455.5,2907.3,459.9z"/>
			<path class="st18" d="M2906.9,450.8c0.3-0.1,8.6-3.1,8.6-4.4c0.1-1.4-6.4,1.1-6.7,1.2l0,0l-1.7,2.7L2906.9,450.8z"/>
			<path class="st18" d="M2890.2,454c0.1,0.2,0.6,1.9,0.8,1.9s0.5,0,0.7,0c0.6,0,1.3-0.1,1.9-0.2c0.7-0.1,1.4-0.2,2.1-0.4l0,0
				c0.7-0.2,1.4-0.3,2-0.6c1.8-0.5,3.4-1.2,4.8-1.8l0,0c0.9-0.4,1.7-0.8,2.3-1.1c1.3-0.6,2.1-1.1,2.1-1.1l0.1-0.2l0.5-0.7l1-1.6
				l0.3-0.5l0,0c0,0,0-0.1,0-0.2c0-0.6-1.3-2.3-1.5-2.6c-1-1.2-2-2.2-3.4-3c-1.8-1-3.9-0.6-5.9-0.2c-0.6,0.1-1.3,0.3-2,0.6l0,0
				c-0.1,0.1-0.3,0.1-0.4,0.2l0,0h-0.1c-0.1,0-0.1,0.1-0.2,0.1c0,0-0.1,0-0.1,0.1c-1.5,0.8-3.1,1.8-3.9,2.8
				C2888.8,448.4,2889.9,453,2890.2,454z"/>
			<path class="st18" d="M2893,473c0,0,0.4-2.9,1.3-3.4c0.9-0.6,9.8-0.5,11.2,0.5s1.1,4.2,1.1,4.2L2893,473z"/>
			<path class="st26" d="M2908.9,455.4c0,0-1.5-2-3.2-0.7c-1.6,1.2-0.3,4.1,1.6,4.9c0,0,2.5,0.8,2.8-1.7
				C2910.4,455.4,2908.9,455.4,2908.9,455.4z"/>
			<g>
				<g>
					<path class="st18" d="M2915,524c0,0,3.4,32.7,4.4,47.7s-2.5,53.4-2.5,53.4h-8.3c0,0-1-38.2-2.4-49.6
						c-1.4-11.4-6.2-26.9-6.2-26.9s-2.9,24.6-5.7,34.6s-12.2,40.6-12.2,40.6l-9.6-1.8c0,0,11.5-39.3,11.5-51.4
						c0-12.2-0.1-36.7,2.8-46.5h28.2V524z"/>
					<path class="st16" d="M2872.5,622l9.6,1.8c0,0,9.3-30.6,12.2-40.6c1.6-5.5,3.2-15.4,4.2-23.2c0.9-6.4,1.5-11.3,1.5-11.3
						s4.8,15.5,6.2,26.9s2.4,49.6,2.4,49.6h8.3c0,0,3.5-38.4,2.5-53.4c-0.9-15-4.4-47.7-4.4-47.7h-28.3c-2.9,9.8-2.8,34.3-2.8,46.5
						C2884,582.7,2872.5,622,2872.5,622z"/>
				</g>
				<path class="st16" d="M2898.5,560c0.9-6.4,1.5-11.3,1.5-11.3l-0.5-8.9L2898.5,560z"/>
			</g>
			<polygon class="st13" points="2917.7,623.6 2907.8,623.6 2908.3,627.7 2917.3,627.7 			"/>
			<polygon class="st13" points="2883.2,623 2872.5,619 2871.1,624.8 2881.6,627.7 			"/>
			<polygon class="st17" points="2874.4,623.4 2879.3,624.9 2878.5,628 2873,626.6 			"/>
			<path class="st17" d="M2909,629.2h6.3l0.2-4.1V625l-6.4,0.6C2909,625.6,2909,627.4,2909,629.2z"/>
			<path class="st15" d="M2918.3,637c0,0.1,4-2.2,2.9-3.3C2920.1,632.6,2918.3,637,2918.3,637z"/>
			<path class="st15" d="M2917.7,636.9c0,0.1,2.2-4,0.7-4.3C2917,632.2,2917.7,636.9,2917.7,636.9z"/>
			<path class="st15" d="M2878.1,634.5c0,0,1.3-4.2,2.6-3.5C2882,631.7,2878.1,634.5,2878.1,634.5z"/>
			<path class="st15" d="M2878.5,634.9c0,0,3-3.3,3.8-2.1C2883.2,634,2878.5,634.9,2878.5,634.9z"/>
			<path class="st13" d="M2870.3,633.7h7.1c0,0,4.1,2.5,5.9,2.7c1.8,0.2,2.9,0.3,2.8,1.6s-1.1,1.4-4.8,1.4c-3.7-0.1-11,0.4-11.8-0.3
				C2868.7,638.2,2869.2,636.9,2870.3,633.7z"/>
			<path class="st13" d="M2908.8,634.5l6.9,0.1c0,0,4.1,2.5,5.9,2.7c1.8,0.2,2.9,0.3,2.8,1.6s-1.1,1.4-4.8,1.4
				c-3.7-0.1-10.2,0.5-11-0.3C2907.8,639.2,2908.2,638.1,2908.8,634.5z"/>
			<path class="st16" d="M2908.9,447.4c-0.2,0.9-0.4,1.6-1.9,3.2c1.9-0.7,8.5-3.2,8.5-4.4C2915.6,445.1,2910.6,446.9,2908.9,447.4z"
				/>
			<path class="st16" d="M2908.9,447.6c0,0,0-0.1,0-0.2l0,0l0,0C2908.9,447.4,2908.9,447.5,2908.9,447.6L2908.9,447.6z"/>
			<path class="st16" d="M2906.9,450.8c0,0,0.1,0,0.2-0.1c0,0,0,0,0-0.1C2907,450.6,2907,450.6,2906.9,450.8z"/>
			<path class="st18" d="M2890.2,454c0.1,0.2,0.6,1.9,0.8,1.9s0.5,0,0.7,0c0.6,0,1.3-0.1,1.9-0.2c0.7-0.1,1.4-0.2,2.1-0.4l0,0
				c0.7-0.2,1.4-0.3,2-0.6c1.8-0.5,3.4-1.2,4.8-1.8l0,0c0.9-0.4,1.7-0.8,2.3-1.1c1.3-0.6,2.1-1.1,2.1-1.1l0.1-0.2l0.5-0.7l1-1.6
				l0.3-0.5l0,0c0,0,0-0.1,0-0.2c0-0.6-1.3-2.3-1.5-2.6c-1-1.2-2-2.2-3.4-3c-1.8-1-3.9-0.6-5.9-0.2c-0.6,0.1-1.3,0.3-2,0.6l0,0
				c-0.1,0.1-0.3,0.1-0.4,0.2l0,0h-0.1c-0.1,0-0.1,0.1-0.2,0.1c0,0-0.1,0-0.1,0.1c-1.5,0.8-3.1,1.8-3.9,2.8
				C2888.8,448.4,2889.9,453,2890.2,454z"/>
			<path class="st17" d="M2901.5,465.5c0,0,0.9,0.9,1.9,1.8c0-0.7,0.1-1.3,0.1-1.3S2902.3,465.9,2901.5,465.5z"/>
			<path class="st13" d="M2915,524.4V495l5.4-2.2c0,0-1-15.7-8.7-18.2c-7.6-2.5-21.2-3.5-25,0c-2.4,2.2-2.7,5.8-2.8,8.9
				c-0.2,6.3,1.5,12.4,1.8,18.6c0.3,5.1,0.5,10.1,0.6,15.2c0,0.4,0.2,7.1,0.2,7.1H2915z"/>
			<path class="st26" d="M2912.1,495.9c0,0,4,13.1,7.9,13.9s17.3-6.5,17.3-6.5h6l0.8-5.3c0,0-5.6-2.1-9.3,0.4c0,0-8.7,3.8-11.6,4.9
				l-4.2-10.1L2912.1,495.9z"/>
		</g>
	</g>
	<g>
		<g>
			<line class="st27" x1="2766" y1="555" x2="2812.9" y2="555"/>
			<g>
				<polygon class="st1" points="2846,555 2799.3,574.1 2810.4,555 2799.3,535.9 				"/>
			</g>
		</g>
	</g>
	<g>
		<g>
			<polygon class="st2" points="2417.9,465.5 2417.1,389.4 2418.6,389.4 			"/>
			<g>
				<polygon class="st2" points="2417.9,376.4 2425.3,394.5 2417.9,390.2 2410.5,394.5 				"/>
			</g>
		</g>
	</g>
	<g>
		<text transform="matrix(1 0 0 1 2368.874 330.8359)" class="st2" style="font-family:'Campton-Medium'; font-size:16.6282px;">Location Pin </text>
		<text transform="matrix(1 0 0 1 2349.2739 350.8359)" class="st2" style="font-family:'Campton-Medium'; font-size:16.6282px;">Package Delivery</text>
	</g>
	<g>
		<g>
			<polygon class="st2" points="2619.8,465.5 2619,389.4 2620.6,389.4 			"/>
			<g>
				<polygon class="st2" points="2619.8,376.4 2627.2,394.5 2619.8,390.2 2612.4,394.5 				"/>
			</g>
		</g>
	</g>
	<text transform="matrix(1 0 0 1 2568.791 350.79)" class="st2" style="font-family:'Campton-Medium'; font-size:16.6282px;">Delivery Guy</text>
	<g>
		<g>
			<polygon class="st2" points="2721.8,465.5 2721,389.4 2722.6,389.4 			"/>
			<g>
				<polygon class="st2" points="2721.8,376.4 2729.2,394.5 2721.8,390.2 2714.4,394.5 				"/>
			</g>
		</g>
	</g>
	<text transform="matrix(1 0 0 1 2697.9893 350.79)" class="st2" style="font-family:'Campton-Medium'; font-size:16.6282px;">Client</text>
	<path class="st2" d="M2721.8,436.6c-13.1,0-23.8,10.7-23.8,23.8c0,13.1,10.7,23.8,23.8,23.8s23.8-10.7,23.8-23.8
		C2745.6,447.2,2734.9,436.6,2721.8,436.6z M2741.8,637.2h-40V500.8h40V637.2z"/>
	<path class="st2" d="M2619.8,436.6c-13.1,0-23.8,10.7-23.8,23.8c0,13.1,10.7,23.8,23.8,23.8s23.8-10.7,23.8-23.8
		C2643.6,447.2,2632.9,436.6,2619.8,436.6z M2679.8,500.8v40h-40v96.4h-40v-95.4c0-22.6,18.3-40.9,40.9-40.9h39.1V500.8z"/>
</g>
<g>
	<path class="st1" d="M1968.1-385.2c-53.6,0-97,43.4-97,97s43.4,97,97,97s97-43.4,97-97C2065.1-341.8,2021.7-385.2,1968.1-385.2z
		 M1968.1-248.1c-22.1,0-40.1-17.9-40.1-40.1s17.9-40.1,40.1-40.1c22.1,0,40.1,17.9,40.1,40.1S1990.2-248.1,1968.1-248.1z"/>
	<path class="st1" d="M1748.2-385.2c-53.6,0-97,43.4-97,97v186.4h56.9v-98c12.2,5.6,25.8,8.7,40.1,8.7c53.6,0,97-43.4,97-97
		S1801.8-385.2,1748.2-385.2z M1748.2-248.1c-22.1,0-40.1-17.9-40.1-40.1s17.9-40.1,40.1-40.1c22.1,0,40.1,17.9,40.1,40.1
		S1770.4-248.1,1748.2-248.1z"/>
	<rect x="2091" y="-471.1" class="st1" width="56.9" height="279.9"/>
	<path class="st1" d="M2367.8-288.1c0-53.6-43.4-97-97-97s-97,43.4-97,97s43.4,97,97,97l0,0h40.1h56.9v-36.7V-288.1L2367.8-288.1z
		 M2230.7-288.1c0-22.1,17.9-40.1,40.1-40.1c22.1,0,40.1,17.9,40.1,40.1S2293-248,2270.8-248
		C2248.7-248.1,2230.7-266.1,2230.7-288.1z"/>
	<path class="st1" d="M2606.5-442.6c0,18.7-15.2,33.9-33.9,33.9s-33.9-15.2-33.9-33.9s15.2-33.9,33.9-33.9
		C2591.4-476.6,2606.5-461.4,2606.5-442.6z M2601.1-385.2h-56.9v194h56.9V-385.2z"/>
	<path class="st1" d="M2461.4-442.6c0,18.7-15.2,33.9-33.9,33.9s-33.9-15.2-33.9-33.9s15.2-33.9,33.9-33.9
		S2461.4-461.4,2461.4-442.6z M2457.3-385.2c-0.2,0-0.4,0-0.6,0c-0.2,0-0.4,0-0.6,0c-30.5,0-55.3,23.9-56.8,54
		c-0.1,1.4-0.2,2.8-0.2,4.2v135.8h56.9v-80.3v-56.8h56.9l0,0v-56.9L2457.3-385.2L2457.3-385.2z"/>
	<path class="st1" d="M2747.6-385.2L2747.6-385.2L2747.6-385.2c-1.2,0-2.3,0-3.4,0.1c-28.9,1-52.3,23.6-54.6,52.2
		c-0.2,2-0.3,4-0.3,6l0,0l0,0v78.8h-56.8h-0.1v56.9h55.6c1.1,0,2.2,0,3.3-0.1c30.6-1,55-26,55-56.8c0-0.6,0-1.3,0-1.9v-21.3v-56.9
		h56.9l0,0v-56.9h-55.6V-385.2z"/>
</g>
<g>
	<circle class="st12" cx="2572.7" cy="-442.6" r="33.9"/>
	<circle class="st12" cx="2427.5" cy="-442.6" r="33.9"/>
	<g>
		
			<ellipse transform="matrix(0.9239 -0.3827 0.3827 0.9239 243.3665 647.0996)" class="st28" cx="1748.2" cy="-288.2" rx="40.1" ry="40.1"/>
	</g>
	<g>
		<ellipse class="st29" cx="1748.2" cy="-288.1" rx="97" ry="97"/>
	</g>
	<g>
		
			<ellipse transform="matrix(0.9239 -0.3827 0.3827 0.9239 260.1098 731.2538)" class="st28" cx="1968.1" cy="-288.2" rx="40.1" ry="40.1"/>
	</g>
	<g>
		
			<ellipse transform="matrix(0.7071 -0.7071 0.7071 0.7071 780.1951 1307.2745)" class="st29" cx="1968.1" cy="-288.1" rx="97" ry="97"/>
	</g>
	<g>
		
			<ellipse transform="matrix(0.9239 -0.3827 0.3827 0.9239 283.1577 847.0949)" class="st28" cx="2270.9" cy="-288.2" rx="40.1" ry="40.1"/>
	</g>
	<g>
		<ellipse class="st29" cx="2270.8" cy="-288.2" rx="97" ry="97"/>
	</g>
	<g>
		<line class="st12" x1="2091" y1="-53.4" x2="2091" y2="-510.1"/>
		<line class="st12" x1="2147.9" y1="-53.4" x2="2147.9" y2="-510.1"/>
	</g>
	<g>
		<line class="st12" x1="1651.2" y1="-53.4" x2="1651.2" y2="-510.1"/>
		<line class="st12" x1="1708.1" y1="-53.4" x2="1708.1" y2="-510.1"/>
	</g>
	<g>
		<line class="st12" x1="1871.1" y1="-53.4" x2="1871.1" y2="-510.1"/>
		<line class="st12" x1="1928" y1="-53.4" x2="1928" y2="-510.1"/>
	</g>
	<g>
		<line class="st12" x1="2173.8" y1="-53.4" x2="2173.8" y2="-510.1"/>
		<line class="st12" x1="2230.7" y1="-53.4" x2="2230.7" y2="-510.1"/>
	</g>
	<g>
		<line class="st12" x1="1584.3" y1="-471.1" x2="2850.2" y2="-471.1"/>
		<line class="st12" x1="1584.3" y1="-414.1" x2="2850.2" y2="-414.1"/>
	</g>
	<g>
		<line class="st12" x1="1584.3" y1="-385.2" x2="2850.2" y2="-385.2"/>
		<line class="st12" x1="1584.3" y1="-328.2" x2="2850.2" y2="-328.2"/>
	</g>
	<g>
		<line class="st12" x1="1584.3" y1="-248.1" x2="2850.2" y2="-248.1"/>
		<line class="st12" x1="1584.3" y1="-191.2" x2="2850.2" y2="-191.2"/>
	</g>
	<line class="st12" x1="2399.2" y1="-53.4" x2="2399.2" y2="-510.1"/>
	<line class="st12" x1="2455.9" y1="-53.4" x2="2455.9" y2="-510.1"/>
	<line class="st12" x1="2544.3" y1="-53.4" x2="2544.3" y2="-510.1"/>
	<line class="st12" x1="2601" y1="-53.4" x2="2601" y2="-510.1"/>
	<line class="st12" x1="2689.4" y1="-53.4" x2="2689.4" y2="-510.1"/>
	<line class="st12" x1="2746.3" y1="-53.4" x2="2746.3" y2="-510.1"/>
	<path class="st0" d="M2512.9-328.2L2512.9-328.2L2512.9-328.2L2512.9-328.2z"/>
	<circle class="st30" cx="2456" cy="-328.4" r="56.9"/>
	<circle class="st30" cx="2689.4" cy="-248.1" r="56.9"/>
	<circle class="st30" cx="2746.3" cy="-328.4" r="56.9"/>
</g>
<g>
	<path class="st31" d="M2552.7-1179.9c-31.1,0-56.3,25.2-56.3,56.3c0,31.1,25.2,56.3,56.3,56.3s56.3-25.2,56.3-56.3
		S2583.8-1179.9,2552.7-1179.9z M2552.7-1100.3c-12.8,0-23.2-10.4-23.2-23.2c0-12.8,10.4-23.2,23.2-23.2s23.2,10.4,23.2,23.2
		C2576-1110.8,2565.6-1100.3,2552.7-1100.3z"/>
	<path class="st31" d="M2425.2-1179.9c-31.1,0-56.3,25.2-56.3,56.3v108.1h33v-56.8c7.1,3.2,15,5,23.2,5c31.1,0,56.3-25.2,56.3-56.3
		C2481.5-1154.8,2456.3-1179.9,2425.2-1179.9z M2425.2-1100.3c-12.8,0-23.2-10.4-23.2-23.2c0-12.8,10.4-23.2,23.2-23.2
		s23.2,10.4,23.2,23.2C2448.4-1110.8,2438-1100.3,2425.2-1100.3z"/>
	<rect x="2624" y="-1229.8" class="st31" width="33" height="162.4"/>
	<path class="st31" d="M2784.6-1123.7c0-31.1-25.2-56.3-56.3-56.3s-56.3,25.2-56.3,56.3c0,31.1,25.2,56.3,56.3,56.3l0,0h56.3
		V-1123.7L2784.6-1123.7z M2705.1-1123.7c0-12.8,10.4-23.2,23.2-23.2s23.2,10.4,23.2,23.2c0,12.8-10.4,23.2-23.2,23.2
		C2715.5-1100.3,2705.1-1110.8,2705.1-1123.7z"/>
	<path class="st31" d="M2923.1-1213.2c0,10.9-8.8,19.7-19.7,19.7s-19.7-8.8-19.7-19.7c0-10.9,8.8-19.7,19.7-19.7
		S2923.1-1224,2923.1-1213.2z M2920-1179.9h-33v112.6h33V-1179.9z"/>
	<path class="st31" d="M2838.9-1213.2c0,10.9-8.8,19.7-19.7,19.7s-19.7-8.8-19.7-19.7c0-10.9,8.8-19.7,19.7-19.7
		S2838.9-1224,2838.9-1213.2z M2836.5-1179.9c-0.1,0-0.2,0-0.4,0c-0.1,0-0.2,0-0.4,0c-17.7,0-32.1,13.9-33,31.3
		c-0.1,0.8-0.1,1.6-0.1,2.5v78.8h33v-79.5h33l0,0v-33h-32.1V-1179.9z"/>
	<path class="st31" d="M3004.9-1179.9L3004.9-1179.9L3004.9-1179.9c-0.7,0-1.3,0-2,0.1c-16.8,0.6-30.3,13.7-31.7,30.3
		c-0.1,1.1-0.2,2.3-0.2,3.5l0,0l0,0v45.7h-32.9h-0.1v33h32.3c0.6,0,1.3,0,1.9-0.1c17.7-0.6,31.9-15.1,31.9-33c0-0.4,0-0.7,0-1.1
		v-45.4h33l0,0v-33H3004.9z"/>
</g>
<g>
	<g>
		<g>
			<path class="st31" d="M2552.8-1179.9c-31.1,0-56.3,25.2-56.3,56.3c0,31.1,25.2,56.3,56.3,56.3s56.3-25.2,56.3-56.3
				C2609-1154.8,2583.8-1179.9,2552.8-1179.9z M2552.8-1100.3c-12.8,0-23.2-10.4-23.2-23.2c0-12.8,10.4-23.2,23.2-23.2
				s23.2,10.4,23.2,23.2C2576-1110.8,2565.6-1100.3,2552.8-1100.3z"/>
			<path class="st31" d="M2425.2-1179.9c-31.1,0-56.3,25.2-56.3,56.3v108.1h33v-56.8c7.1,3.2,15,5,23.2,5
				c31.1,0,56.3-25.2,56.3-56.3C2481.5-1154.8,2456.3-1179.9,2425.2-1179.9z M2425.2-1100.3c-12.8,0-23.2-10.4-23.2-23.2
				c0-12.8,10.4-23.2,23.2-23.2s23.2,10.4,23.2,23.2C2448.5-1110.8,2438.1-1100.3,2425.2-1100.3z"/>
			<rect x="2624" y="-1229.8" class="st31" width="33" height="162.4"/>
			<path class="st31" d="M2784.6-1123.7c0-31.1-25.2-56.3-56.3-56.3s-56.3,25.2-56.3,56.3c0,31.1,25.2,56.3,56.3,56.3l0,0h56.3
				V-1123.7L2784.6-1123.7z M2705.1-1123.7c0-12.8,10.4-23.2,23.2-23.2s23.2,10.4,23.2,23.2c0,12.8-10.4,23.2-23.2,23.2
				S2705.1-1110.8,2705.1-1123.7z"/>
			<path class="st31" d="M2923.1-1213.2c0,10.9-8.8,19.7-19.7,19.7s-19.7-8.8-19.7-19.7c0-10.9,8.8-19.7,19.7-19.7
				S2923.1-1224,2923.1-1213.2z M2920-1179.9h-33v112.6h33V-1179.9z"/>
			<path class="st31" d="M2838.9-1213.2c0,10.9-8.8,19.7-19.7,19.7s-19.7-8.8-19.7-19.7c0-10.9,8.8-19.7,19.7-19.7
				S2838.9-1224,2838.9-1213.2z M2836.5-1179.9c-0.1,0-0.2,0-0.4,0c-0.1,0-0.2,0-0.4,0c-17.7,0-32.1,13.9-33,31.3
				c-0.1,0.8-0.1,1.6-0.1,2.5v78.8h33v-79.5h33l0,0v-33h-32.1V-1179.9z"/>
			<path class="st31" d="M3005-1179.9C3004.9-1179.9,3004.9-1179.9,3005-1179.9C3004.9-1179.9,3004.9-1179.9,3005-1179.9
				c-0.7,0-1.3,0-2,0.1c-16.8,0.6-30.3,13.7-31.7,30.3c-0.1,1.1-0.2,2.3-0.2,3.5l0,0l0,0v45.7h-32.9h-0.1v33h32.3
				c0.6,0,1.3,0,1.9-0.1c17.7-0.6,31.9-15.1,31.9-33c0-0.4,0-0.7,0-1.1v-45.4h33l0,0v-33H3005z"/>
		</g>
		<g>
			<path class="st31" d="M2604.1-1006.8c0,16.9-15.8,30.9-32.2,30.9c-13.6,0-23-10-23-23.1c0-16.8,15.7-30.9,32.2-30.9
				C2594.7-1029.7,2604.1-1019.7,2604.1-1006.8z M2598-1006.2c0-9.9-6.8-17.8-17.5-17.8c-13.3,0-25.4,11.2-25.4,24.5
				c0,10,6.7,17.8,17.4,17.8C2585.4-981.5,2598-992.7,2598-1006.2z"/>
			<path class="st31" d="M2647.1-997l-3.6,20.4h-5.8l3.5-20.1c1.3-7.2-2.1-11-8.4-11c-4.2,0-9,2.1-12.8,6.1l-4.4,25h-5.8l6.3-35.5
				h5.8l-0.7,4.1c3.8-3.2,8.6-5,13.6-5C2643.8-1013.2,2648.8-1007,2647.1-997z"/>
			<path class="st31" d="M2670.3-1031l-9.7,54.4h-5.8l9.7-54.4H2670.3z"/>
			<path class="st31" d="M2686.6-1012.2l-6.3,35.5h-5.8l6.3-35.5H2686.6z M2681.9-1025.5c0-2.2,1.7-3.9,3.9-3.9s4,1.7,4,3.9
				c0,2.1-1.8,3.8-4,3.8C2683.6-1021.8,2681.9-1023.4,2681.9-1025.5z"/>
			<path class="st31" d="M2730.7-997l-3.6,20.4h-5.8l3.5-20.1c1.3-7.2-2.1-11-8.4-11c-4.2,0-9,2.1-12.8,6.1l-4.4,25h-5.8l6.3-35.5
				h5.8l-0.7,4.1c3.8-3.2,8.6-5,13.6-5C2727.4-1013.2,2732.4-1007,2730.7-997z"/>
			<path class="st31" d="M2745.2-992.7c-0.5,6.7,3.4,11.7,10.9,11.7c4.4,0,8.3-1.8,10.2-4.6h6.5c-3.1,6.1-10.1,9.8-17.7,9.8
				c-11.3,0-17.3-8.4-15.5-18.7c1.8-10.6,11.1-18.6,21.8-18.6c10.6,0,16.3,8,13.6,20.4H2745.2z M2745.9-996.8h23.8
				c0.8-7.2-2.6-11.3-9.1-11.3C2753.4-1008,2748-1003.2,2745.9-996.8z"/>
			<path class="st31" d="M2849.1-1014.4h-6.1c0.1-6.1-4.1-10.1-12.4-10.1c-8.7,0-14.2,4.3-14.2,10.3c0,4.2,3,6.5,9,7.7l6.7,1.3
				c9,1.8,13.3,5.6,13.3,12.4c0,10.1-8.8,17.2-22.1,17.2c-12.6,0-19.9-6.4-19.1-17.7h6c-0.2,8.1,4.7,12.3,14.4,12.3
				c9.1,0,14.4-4.1,14.4-10.1c0-3.8-1.9-6.7-8.9-8.2l-7.9-1.6c-8.2-1.7-12.4-5.6-12.2-12.6c0.3-10.3,9.9-16.2,21.3-16.2
				C2841.3-1029.8,2849.7-1025,2849.1-1014.4z"/>
			<path class="st31" d="M2864.9-989.8c-0.9,5.3,1.1,8.7,5.8,8.7c1.9,0,4.7-0.7,6.7-1.6l-0.2,5.7c-3.1,0.8-5.5,1.3-7.8,1.3
				c-7.5,0-11.8-5.9-10.3-14.2l3.1-17.5h-9.2l0.8-5h9.3l2.3-13.1h5.8l-2.3,13.1h13.3l-0.8,5H2868L2864.9-989.8z"/>
			<path class="st31" d="M2923-997.2c0,11.9-10.6,21.4-22.4,21.4c-9.5,0-15.9-6.7-15.9-15.8c0-12,10.6-21.6,22.5-21.6
				C2916.5-1013.2,2923-1006.3,2923-997.2z M2917.1-996.4c0-6.4-4.3-11.3-10.9-11.3c-8.3,0-15.7,7.1-15.7,15.5
				c0,6.4,4.3,11.2,11,11.2C2909.8-981.2,2917.1-988,2917.1-996.4z"/>
			<path class="st31" d="M2955.9-1012.9l-1,5.5c-5.9,0.2-11.1,2.8-15.2,7.7l-4.1,23.1h-5.8l6.3-35.5h5.8l-1.1,5.9
				C2944.9-1010.5,2950.1-1012.9,2955.9-1012.9z"/>
			<path class="st31" d="M2963.5-992.7c-0.5,6.7,3.4,11.7,10.9,11.7c4.4,0,8.3-1.8,10.2-4.6h6.5c-3.1,6.1-10.1,9.8-17.7,9.8
				c-11.3,0-17.3-8.4-15.5-18.7c1.8-10.6,11.1-18.6,21.8-18.6c10.6,0,16.3,8,13.6,20.4H2963.5z M2964.2-996.8h23.8
				c0.8-7.2-2.6-11.3-9.1-11.3C2971.7-1008,2966.3-1003.2,2964.2-996.8z"/>
		</g>
	</g>
</g>
<g>
	<path class="st1" d="M1600.2,516.8c-29.2,0-52.9,23.7-52.9,52.9s23.7,52.9,52.9,52.9c29.2,0,52.9-23.7,52.9-52.9
		S1629.4,516.8,1600.2,516.8z M1600.2,591.5c-12.1,0-21.9-9.8-21.9-21.9s9.8-21.9,21.9-21.9s21.9,9.8,21.9,21.9
		C1622,581.8,1612.2,591.5,1600.2,591.5z"/>
	<path class="st1" d="M1480.2,516.8c-29.2,0-52.9,23.7-52.9,52.9v101.6h31.1v-53.4c6.7,3,14.1,4.7,21.9,4.7
		c29.2,0,52.9-23.7,52.9-52.9C1533.1,540.5,1509.5,516.8,1480.2,516.8z M1480.2,591.5c-12.1,0-21.9-9.8-21.9-21.9
		s9.8-21.9,21.9-21.9s21.9,9.8,21.9,21.9C1502.1,581.8,1492.3,591.5,1480.2,591.5z"/>
	<rect x="1667.2" y="469.9" class="st1" width="31.1" height="152.7"/>
	<path class="st2" d="M1818.2,569.7c0-29.2-23.7-52.9-52.9-52.9s-52.9,23.7-52.9,52.9s23.7,52.9,52.9,52.9l0,0h52.9V569.7
		L1818.2,569.7z M1743.4,569.7c0-12.1,9.8-21.9,21.9-21.9s21.9,9.8,21.9,21.9c0,12.1-9.8,21.9-21.9,21.9S1743.4,581.8,1743.4,569.7z
		"/>
	<path class="st2" d="M1948.4,485.4c0,10.2-8.3,18.5-18.5,18.5s-18.5-8.3-18.5-18.5s8.3-18.5,18.5-18.5S1948.4,475.1,1948.4,485.4z
		 M1945.4,516.8h-31.1v105.8h31.1V516.8z"/>
	<path class="st2" d="M1869.2,485.4c0,10.2-8.3,18.5-18.5,18.5s-18.5-8.3-18.5-18.5s8.3-18.5,18.5-18.5S1869.2,475.1,1869.2,485.4z
		 M1867,516.8c-0.1,0-0.2,0-0.3,0c-0.1,0-0.2,0-0.3,0c-16.6,0-30.2,13.1-31,29.5c-0.1,0.8-0.1,1.5-0.1,2.3v74.1h31.1v-74.8h31.1l0,0
		v-31H1867V516.8z"/>
	<path class="st1" d="M2025.3,516.8L2025.3,516.8L2025.3,516.8c-0.6,0-1.2,0-1.8,0.1c-15.8,0.6-28.5,12.9-29.8,28.4
		c-0.1,1.1-0.2,2.2-0.2,3.3l0,0l0,0v43h-31h-0.1v31.1h30.3c0.6,0,1.2,0,1.8-0.1c16.7-0.5,30-14.2,30-31c0-0.4,0-0.7,0-1.1v-42.7
		h31.1l0,0v-31.1L2025.3,516.8L2025.3,516.8z"/>
</g>
<g>
	<g>
		<path class="st32" d="M37.2-1320.8c-14.5,0-26.2,11.7-26.2,26.2s11.7,26.2,26.2,26.2s26.2-11.7,26.2-26.2
			C63.3-1309.2,51.6-1320.8,37.2-1320.8z M37.2-1283.8c-6,0-10.8-4.8-10.8-10.8s4.8-10.8,10.8-10.8s10.8,4.8,10.8,10.8
			C48-1288.8,43.1-1283.8,37.2-1283.8z"/>
		<path class="st32" d="M-22.2-1320.8c-14.5,0-26.2,11.7-26.2,26.2v50.3H-33v-26.4c3.3,1.5,7,2.3,10.8,2.3
			c14.5,0,26.2-11.7,26.2-26.2C4-1309.2-7.7-1320.8-22.2-1320.8z M-22.2-1283.8c-6,0-10.8-4.8-10.8-10.8s4.8-10.8,10.8-10.8
			s10.8,4.8,10.8,10.8C-11.4-1288.8-16.2-1283.8-22.2-1283.8z"/>
		<rect x="70.3" y="-1344" class="st32" width="15.4" height="75.5"/>
		<path class="st32" d="M145-1294.7c0-14.5-11.7-26.2-26.2-26.2s-26.2,11.7-26.2,26.2s11.7,26.2,26.2,26.2l0,0H145V-1294.7
			L145-1294.7z M108-1294.7c0-6,4.8-10.8,10.8-10.8s10.8,4.8,10.8,10.8s-4.8,10.8-10.8,10.8S108-1288.8,108-1294.7z"/>
		<path class="st32" d="M209.4-1336.3c0,5-4.1,9.1-9.1,9.1s-9.1-4.1-9.1-9.1s4.1-9.1,9.1-9.1S209.4-1341.4,209.4-1336.3z
			 M208-1320.8h-15.4v52.4H208V-1320.8z"/>
		<path class="st32" d="M170.3-1336.3c0,5-4.1,9.1-9.1,9.1s-9.1-4.1-9.1-9.1s4.1-9.1,9.1-9.1
			C166.2-1345.5,170.3-1341.4,170.3-1336.3z M169.2-1320.8c-0.1,0-0.1,0-0.2,0c-0.1,0-0.1,0-0.2,0c-8.2,0-14.9,6.5-15.3,14.6
			c0,0.4,0,0.8,0,1.1v36.6h15.4v-37h15.4l0,0v-15.4h-15.1V-1320.8z"/>
		<path class="st32" d="M247.5-1320.8L247.5-1320.8L247.5-1320.8c-0.3,0-0.6,0-0.9,0c-7.8,0.3-14.1,6.4-14.7,14.1
			c-0.1,0.5-0.1,1.1-0.1,1.6l0,0l0,0v21.3h-15.3l0,0v15.4h15c0.3,0,0.6,0,0.9,0c8.2-0.3,14.9-7,14.9-15.3c0-0.2,0-0.3,0-0.5v-21.1
			h15.4l0,0v-15.4L247.5-1320.8L247.5-1320.8z"/>
	</g>
	
		<text transform="matrix(1 0 0 1 31.5534 -1226.337)" class="st32" style="font-family:'Campton-BookItalic'; font-size:35.6223px;">Online Store</text>
</g>
<g>
	<g>
		<path class="st32" d="M448.1-1181.7c-31.1,0-56.3,25.2-56.3,56.3s25.2,56.3,56.3,56.3s56.3-25.2,56.3-56.3
			S479.2-1181.7,448.1-1181.7z M448.1-1102.2c-12.8,0-23.2-10.4-23.2-23.2s10.4-23.2,23.2-23.2c12.8,0,23.2,10.4,23.2,23.2
			S461-1102.2,448.1-1102.2z"/>
		<path class="st32" d="M320.6-1181.7c-31.1,0-56.3,25.2-56.3,56.3v108.1h33v-56.8c7.1,3.2,15,5,23.2,5c31.1,0,56.3-25.2,56.3-56.3
			S351.7-1181.7,320.6-1181.7z M320.6-1102.2c-12.8,0-23.2-10.4-23.2-23.2s10.4-23.2,23.2-23.2c12.8,0,23.2,10.4,23.2,23.2
			S333.4-1102.2,320.6-1102.2z"/>
		<rect x="519.4" y="-1231.5" class="st32" width="33" height="162.4"/>
		<path class="st32" d="M680-1125.4c0-31.1-25.2-56.3-56.3-56.3s-56.3,25.2-56.3,56.3s25.2,56.3,56.3,56.3l0,0H680V-1125.4
			L680-1125.4z M600.5-1125.4c0-12.8,10.4-23.2,23.2-23.2s23.2,10.4,23.2,23.2s-10.4,23.2-23.2,23.2S600.5-1112.5,600.5-1125.4z"/>
		<path class="st32" d="M818.5-1214.9c0,10.9-8.8,19.7-19.7,19.7s-19.7-8.8-19.7-19.7s8.8-19.7,19.7-19.7
			C809.7-1234.7,818.5-1225.8,818.5-1214.9z M815.4-1181.7h-33v112.6h33V-1181.7z"/>
		<path class="st32" d="M734.3-1214.9c0,10.9-8.8,19.7-19.7,19.7s-19.7-8.8-19.7-19.7s8.8-19.7,19.7-19.7
			C725.5-1234.7,734.3-1225.8,734.3-1214.9z M731.9-1181.7c-0.1,0-0.2,0-0.4,0c-0.1,0-0.2,0-0.4,0c-17.7,0-32.1,13.9-33,31.3
			c-0.1,0.8-0.1,1.6-0.1,2.5v78.8h33v-79.5h33l0,0v-33h-32.1V-1181.7z"/>
		<path class="st32" d="M900.3-1181.7L900.3-1181.7L900.3-1181.7c-0.7,0-1.3,0-2,0.1c-16.8,0.6-30.3,13.7-31.7,30.3
			c-0.1,1.1-0.2,2.3-0.2,3.5l0,0l0,0v45.7h-32.9h-0.1v33h32.3c0.6,0,1.3,0,1.9-0.1c17.7-0.6,31.9-15.1,31.9-33c0-0.4,0-0.7,0-1.1
			v-45.4h33l0,0v-33H900.3z"/>
	</g>
	<g>
		<path class="st32" d="M436.1-1011.8c0,15.7-13.2,27.5-29.6,27.5H390l8.3-47.2h16.6C427.9-1031.4,436.1-1023.3,436.1-1011.8z
			 M430.6-1011c0-8.9-6.4-15.3-16.3-15.3h-11.4l-6.5,37h11.4C420.4-989.3,430.6-998.8,430.6-1011z"/>
		<path class="st32" d="M446.7-998.8c-0.4,6,3.1,10.6,9.9,10.6c4,0,7.6-1.6,9.2-4.2h5.9c-2.8,5.5-9.2,8.9-16,8.9
			c-10.3,0-15.7-7.6-14.1-16.9c1.7-9.6,10.1-16.9,19.7-16.9s14.8,7.2,12.3,18.5H446.7z M447.4-1002.5H469c0.7-6.5-2.4-10.2-8.3-10.2
			C454.2-1012.8,449.3-1008.3,447.4-1002.5z"/>
		<path class="st32" d="M494-987.8c5.5,0,9.2-2,9.2-5.8c0-2.6-1.8-3.9-5.1-4.4l-6.3-1.1c-4.7-0.8-8.3-2.7-8.3-7.6
			c0-6.5,6.4-10.6,14.8-10.6c6.5,0,13,2.6,12.3,10.2h-4.9c0.3-4-2.8-6-8-6c-5.5,0-8.7,2.2-8.7,5.4c0,2.2,1.4,3.7,5.2,4.4l5.8,1
			c4.3,0.8,8.5,2.3,8.5,7.8c0,6.6-6,11-15,11c-7.7,0-13.9-3.2-13.6-11h5C484.8-989.9,488.4-987.8,494-987.8z"/>
		<path class="st32" d="M528.1-1016.4l-5.7,32.2h-5.3l5.7-32.2H528.1z M523.8-1028.5c0-2,1.5-3.5,3.5-3.5s3.6,1.5,3.6,3.5
			c0,1.9-1.6,3.5-3.6,3.5S523.8-1026.5,523.8-1028.5z"/>
		<path class="st32" d="M571.8-1016.4l-5.8,32.7c-1.7,9.8-9.3,15.9-18.9,15.9c-8.5,0-14-5-13.9-12.1h5.4c0.1,4.4,3.5,7.6,9.2,7.6
			c6.5,0,11.7-4.4,12.9-11.3l0.8-4.9c-3.5,2.6-7.8,4.2-12.3,4.2c-8.4,0-13.7-6.3-13.7-14.2c0-10.3,9-18.7,19.5-18.7
			c4.5,0,8.3,1.5,10.9,4.1l0.6-3.3L571.8-1016.4L571.8-1016.4z M562.7-994.8l2.2-12.6c-2.1-3.8-5.8-5.3-9.9-5.3
			c-7.8,0-14.1,6.1-14.1,13.3c0,5.5,3.6,10.3,9.9,10.3C554.8-989,559.2-990.8,562.7-994.8z"/>
		<path class="st32" d="M611-1002.8l-3.3,18.5h-5.3l3.2-18.2c1.2-6.5-1.9-10-7.6-10c-3.8,0-8.2,1.9-11.6,5.5l-4,22.6h-5.3l5.7-32.2
			h5.3l-0.6,3.7c3.5-2.9,7.8-4.5,12.3-4.5C608-1017.2,612.6-1011.8,611-1002.8z"/>
		<path class="st32" d="M686.3-1031.4l-30,47.5h-5.1l-13.3-47.5h5.8l11,39.8l25.3-39.8H686.3z"/>
		<path class="st32" d="M685.9-998.8c-0.4,6,3.1,10.6,9.9,10.6c4,0,7.6-1.6,9.2-4.2h5.9c-2.8,5.5-9.2,8.9-16,8.9
			c-10.3,0-15.7-7.6-14.1-16.9c1.7-9.6,10.1-16.9,19.7-16.9c9.6,0,14.8,7.2,12.3,18.5H685.9z M686.6-1002.5h21.6
			c0.7-6.5-2.4-10.2-8.3-10.2C693.4-1012.8,688.5-1008.3,686.6-1002.5z"/>
		<path class="st32" d="M753.3-1002.8l-3.3,18.5h-5.3l3.2-18.2c1.2-6.5-1.9-10-7.6-10c-3.8,0-8.2,1.9-11.6,5.5l-4,22.6h-5.3
			l5.7-32.2h5.3l-0.6,3.7c3.5-2.9,7.8-4.5,12.3-4.5C750.3-1017.2,754.9-1011.8,753.3-1002.8z"/>
		<path class="st32" d="M770.7-996.2c-0.8,4.8,1,7.9,5.3,7.9c1.7,0,4.2-0.6,6-1.5l-0.1,5.2c-2.8,0.8-5,1.2-7.1,1.2
			c-6.8,0-10.7-5.3-9.4-12.8l2.8-15.8h-8.3l0.8-4.5h8.4l2.1-11.9h5.3l-2.1,11.9h12.1l-0.8,4.5h-12.1L770.7-996.2z"/>
		<path class="st32" d="M825.4-1016.4l-5.6,32.2h-5.3l0.6-3.7c-3.5,2.9-7.8,4.5-12.4,4.5c-8.1,0-12.7-5.5-11.1-14.6l3.2-18.5h5.3
			l-3.2,18.2c-1.1,6.5,2,10,7.7,10c3.8,0,8.2-1.9,11.6-5.5l4-22.6H825.4z"/>
		<path class="st32" d="M854.7-1017.2l-0.9,5c-5.3,0.1-10.1,2.6-13.7,6.9l-3.7,20.9h-5.3l5.7-32.2h5.3l-1,5.3
			C844.8-1014.9,849.5-1017.2,854.7-1017.2z"/>
		<path class="st32" d="M861.6-998.8c-0.4,6,3.1,10.6,9.9,10.6c4,0,7.6-1.6,9.2-4.2h5.9c-2.8,5.5-9.2,8.9-16,8.9
			c-10.3,0-15.7-7.6-14.1-16.9c1.7-9.6,10.1-16.9,19.7-16.9c9.6,0,14.8,7.2,12.3,18.5H861.6z M862.3-1002.5h21.6
			c0.7-6.5-2.4-10.2-8.3-10.2C869.1-1012.8,864.2-1008.3,862.3-1002.5z"/>
	</g>
</g>
<g>
	<g>
		<g>
			<path class="st1" d="M1581.2-1462.2c-31.1,0-56.3,25.2-56.3,56.3s25.2,56.3,56.3,56.3c31.1,0,56.3-25.2,56.3-56.3
				S1612.2-1462.2,1581.2-1462.2z M1581.2-1382.8c-12.8,0-23.2-10.4-23.2-23.2s10.4-23.2,23.2-23.2c12.8,0,23.2,10.4,23.2,23.2
				S1594-1382.8,1581.2-1382.8z"/>
			<path class="st1" d="M1453.6-1462.2c-31.1,0-56.3,25.2-56.3,56.3v108.1h33v-56.8c7.1,3.2,15,5,23.2,5c31.1,0,56.3-25.2,56.3-56.3
				S1484.7-1462.2,1453.6-1462.2z M1453.6-1382.8c-12.8,0-23.2-10.4-23.2-23.2s10.4-23.2,23.2-23.2c12.8,0,23.2,10.4,23.2,23.2
				S1466.5-1382.8,1453.6-1382.8z"/>
			<rect x="1652.4" y="-1512" class="st1" width="33" height="162.4"/>
			<path class="st1" d="M1813-1405.9c0-31.1-25.2-56.3-56.3-56.3s-56.3,25.2-56.3,56.3s25.2,56.3,56.3,56.3l0,0h56.3V-1405.9
				L1813-1405.9z M1733.5-1405.9c0-12.8,10.4-23.2,23.2-23.2s23.2,10.4,23.2,23.2s-10.4,23.2-23.2,23.2S1733.5-1393.2,1733.5-1405.9
				z"/>
			<path class="st1" d="M1951.5-1495.5c0,10.9-8.8,19.7-19.7,19.7s-19.7-8.8-19.7-19.7s8.8-19.7,19.7-19.7
				S1951.5-1506.3,1951.5-1495.5z M1948.4-1462.2h-33v112.6h33V-1462.2z"/>
			<path class="st1" d="M1867.3-1495.5c0,10.9-8.8,19.7-19.7,19.7s-19.7-8.8-19.7-19.7s8.8-19.7,19.7-19.7
				S1867.3-1506.3,1867.3-1495.5z M1864.9-1462.2c-0.1,0-0.2,0-0.4,0c-0.1,0-0.2,0-0.4,0c-17.7,0-32.1,13.9-33,31.3
				c-0.1,0.8-0.1,1.6-0.1,2.5v78.8h33v-79.5h33l0,0v-33h-32.1V-1462.2z"/>
			<path class="st1" d="M2033.4-1462.2C2033.3-1462.2,2033.3-1462.2,2033.4-1462.2C2033.3-1462.2,2033.3-1462.2,2033.4-1462.2
				c-0.7,0-1.3,0-2,0.1c-16.8,0.6-30.3,13.7-31.7,30.3c-0.1,1.1-0.2,2.3-0.2,3.5l0,0l0,0v45.7h-32.9h-0.1v33h32.3
				c0.6,0,1.3,0,1.9-0.1c17.7-0.6,31.9-15.1,31.9-33c0-0.4,0-0.7,0-1.1v-45.4h33l0,0v-33H2033.4z"/>
		</g>
		<g>
			<path class="st1" d="M1632.5-1289c0,16.9-15.8,30.9-32.2,30.9c-13.6,0-23-10-23-23.1c0-16.8,15.7-30.9,32.2-30.9
				C1623.1-1311.9,1632.5-1301.9,1632.5-1289z M1626.4-1288.4c0-9.9-6.8-17.8-17.5-17.8c-13.3,0-25.4,11.2-25.4,24.5
				c0,10,6.7,17.8,17.4,17.8C1613.8-1263.8,1626.4-1274.9,1626.4-1288.4z"/>
			<path class="st1" d="M1675.5-1279.3l-3.6,20.4h-5.8l3.5-20.1c1.3-7.2-2.1-11-8.4-11c-4.2,0-9,2.1-12.8,6.1l-4.4,25h-5.8l6.3-35.5
				h5.8l-0.7,4.1c3.8-3.2,8.6-5,13.6-5C1672.2-1295.4,1677.2-1289.4,1675.5-1279.3z"/>
			<path class="st1" d="M1698.7-1313.3l-9.7,54.4h-5.8l9.7-54.4H1698.7z"/>
			<path class="st1" d="M1715-1294.5l-6.3,35.5h-5.8l6.3-35.5H1715z M1710.3-1307.8c0-2.2,1.7-3.9,3.9-3.9s4,1.7,4,3.9
				c0,2.1-1.8,3.8-4,3.8S1710.3-1305.8,1710.3-1307.8z"/>
			<path class="st1" d="M1759.1-1279.3l-3.6,20.4h-5.8l3.5-20.1c1.3-7.2-2.1-11-8.4-11c-4.2,0-9,2.1-12.8,6.1l-4.4,25h-5.8l6.3-35.5
				h5.8l-0.7,4.1c3.8-3.2,8.6-5,13.6-5C1755.8-1295.4,1760.8-1289.4,1759.1-1279.3z"/>
			<path class="st1" d="M1773.6-1275c-0.5,6.7,3.4,11.7,10.9,11.7c4.4,0,8.3-1.8,10.2-4.6h6.5c-3.1,6.1-10.1,9.8-17.7,9.8
				c-11.3,0-17.3-8.4-15.5-18.7c1.8-10.6,11.1-18.6,21.8-18.6c10.6,0,16.3,8,13.6,20.4L1773.6-1275L1773.6-1275z M1774.3-1279.2
				h23.8c0.8-7.2-2.6-11.3-9.1-11.3C1781.8-1290.3,1776.4-1285.5,1774.3-1279.2z"/>
			<path class="st1" d="M1877.5-1296.8h-6.1c0.1-6.1-4.1-10.1-12.4-10.1c-8.7,0-14.2,4.3-14.2,10.3c0,4.2,3,6.5,9,7.7l6.7,1.3
				c9,1.8,13.3,5.6,13.3,12.4c0,10.1-8.8,17.2-22.1,17.2c-12.6,0-19.9-6.4-19.1-17.7h6c-0.2,8.1,4.7,12.3,14.4,12.3
				c9.1,0,14.4-4.1,14.4-10.1c0-3.8-1.9-6.7-8.9-8.2l-7.9-1.6c-8.2-1.7-12.4-5.6-12.2-12.6c0.3-10.3,9.9-16.2,21.3-16.2
				C1869.7-1312.2,1878.1-1307.4,1877.5-1296.8z"/>
			<path class="st1" d="M1893.3-1272c-0.9,5.3,1.1,8.7,5.8,8.7c1.9,0,4.7-0.7,6.7-1.6l-0.2,5.7c-3.1,0.8-5.5,1.3-7.8,1.3
				c-7.5,0-11.8-5.9-10.3-14.2l3.1-17.5h-9.2l0.8-5h9.3l2.3-13.1h5.8l-2.3,13.1h13.3l-0.8,5h-13.4L1893.3-1272z"/>
			<path class="st1" d="M1951.4-1279.5c0,11.9-10.6,21.4-22.4,21.4c-9.5,0-15.9-6.7-15.9-15.8c0-12,10.6-21.6,22.5-21.6
				C1944.9-1295.4,1951.4-1288.7,1951.4-1279.5z M1945.5-1278.8c0-6.4-4.3-11.3-10.9-11.3c-8.3,0-15.7,7.1-15.7,15.5
				c0,6.4,4.3,11.2,11,11.2C1938.2-1263.4,1945.5-1270.4,1945.5-1278.8z"/>
			<path class="st1" d="M1984.3-1295.3l-1,5.5c-5.9,0.2-11.1,2.8-15.2,7.7l-4.1,23.1h-5.8l6.3-35.5h5.8l-1.1,5.9
				C1973.3-1292.8,1978.5-1295.3,1984.3-1295.3z"/>
			<path class="st1" d="M1991.9-1275c-0.5,6.7,3.4,11.7,10.9,11.7c4.4,0,8.3-1.8,10.2-4.6h6.5c-3.1,6.1-10.1,9.8-17.7,9.8
				c-11.3,0-17.3-8.4-15.5-18.7c1.8-10.6,11.1-18.6,21.8-18.6c10.6,0,16.3,8,13.6,20.4L1991.9-1275L1991.9-1275z M1992.6-1279.2
				h23.8c0.8-7.2-2.6-11.3-9.1-11.3C2000.1-1290.3,1994.7-1285.5,1992.6-1279.2z"/>
		</g>
	</g>
</g>
<g>
	<g>
		<g>
			<path class="st31" d="M2552.8-1719.9c-31.1,0-56.3,25.2-56.3,56.3c0,31.1,25.2,56.3,56.3,56.3s56.3-25.2,56.3-56.3
				C2609-1694.8,2583.8-1719.9,2552.8-1719.9z M2552.8-1640.3c-12.8,0-23.2-10.4-23.2-23.2c0-12.8,10.4-23.2,23.2-23.2
				s23.2,10.4,23.2,23.2C2576-1650.8,2565.6-1640.3,2552.8-1640.3z"/>
			<path class="st31" d="M2425.2-1719.9c-31.1,0-56.3,25.2-56.3,56.3v108.1h33v-56.8c7.1,3.2,15,5,23.2,5
				c31.1,0,56.3-25.2,56.3-56.3C2481.5-1694.8,2456.3-1719.9,2425.2-1719.9z M2425.2-1640.3c-12.8,0-23.2-10.4-23.2-23.2
				c0-12.8,10.4-23.2,23.2-23.2s23.2,10.4,23.2,23.2C2448.5-1650.8,2438.1-1640.3,2425.2-1640.3z"/>
			<rect x="2624" y="-1769.8" class="st31" width="33" height="162.4"/>
			<path class="st31" d="M2784.6-1663.7c0-31.1-25.2-56.3-56.3-56.3s-56.3,25.2-56.3,56.3c0,31.1,25.2,56.3,56.3,56.3l0,0h56.3
				V-1663.7L2784.6-1663.7z M2705.1-1663.7c0-12.8,10.4-23.2,23.2-23.2s23.2,10.4,23.2,23.2c0,12.8-10.4,23.2-23.2,23.2
				S2705.1-1650.8,2705.1-1663.7z"/>
			<path class="st31" d="M2923.1-1753.2c0,10.9-8.8,19.7-19.7,19.7s-19.7-8.8-19.7-19.7s8.8-19.7,19.7-19.7
				S2923.1-1764,2923.1-1753.2z M2920-1719.9h-33v112.6h33V-1719.9z"/>
			<path class="st31" d="M2838.9-1753.2c0,10.9-8.8,19.7-19.7,19.7s-19.7-8.8-19.7-19.7s8.8-19.7,19.7-19.7
				S2838.9-1764,2838.9-1753.2z M2836.5-1719.9c-0.1,0-0.2,0-0.4,0c-0.1,0-0.2,0-0.4,0c-17.7,0-32.1,13.9-33,31.3
				c-0.1,0.8-0.1,1.6-0.1,2.5v78.8h33v-79.5h33l0,0v-33h-32.1V-1719.9z"/>
			<path class="st31" d="M3005-1719.9C3004.9-1719.9,3004.9-1719.9,3005-1719.9C3004.9-1719.9,3004.9-1719.9,3005-1719.9
				c-0.7,0-1.3,0-2,0.1c-16.8,0.6-30.3,13.7-31.7,30.3c-0.1,1.1-0.2,2.3-0.2,3.5l0,0l0,0v45.7h-32.9h-0.1v33h32.3
				c0.6,0,1.3,0,1.9-0.1c17.7-0.6,31.9-15.1,31.9-33c0-0.4,0-0.7,0-1.1v-45.4h33l0,0v-33H3005z"/>
		</g>
		<g>
			<path class="st31" d="M2604.1-1546.8c0,16.9-15.8,30.9-32.2,30.9c-13.6,0-23-10-23-23.1c0-16.8,15.7-30.9,32.2-30.9
				C2594.7-1569.7,2604.1-1559.7,2604.1-1546.8z M2598-1546.2c0-9.9-6.8-17.8-17.5-17.8c-13.3,0-25.4,11.2-25.4,24.5
				c0,10,6.7,17.8,17.4,17.8C2585.4-1521.5,2598-1532.7,2598-1546.2z"/>
			<path class="st31" d="M2647.1-1537l-3.6,20.4h-5.8l3.5-20.1c1.3-7.2-2.1-11-8.4-11c-4.2,0-9,2.1-12.8,6.1l-4.4,25h-5.8l6.3-35.5
				h5.8l-0.7,4.1c3.8-3.2,8.6-5,13.6-5C2643.8-1553.2,2648.8-1547,2647.1-1537z"/>
			<path class="st31" d="M2670.3-1571l-9.7,54.4h-5.8l9.7-54.4H2670.3z"/>
			<path class="st31" d="M2686.6-1552.2l-6.3,35.5h-5.8l6.3-35.5H2686.6z M2681.9-1565.5c0-2.2,1.7-3.9,3.9-3.9s4,1.7,4,3.9
				c0,2.1-1.8,3.8-4,3.8C2683.6-1561.8,2681.9-1563.4,2681.9-1565.5z"/>
			<path class="st31" d="M2730.7-1537l-3.6,20.4h-5.8l3.5-20.1c1.3-7.2-2.1-11-8.4-11c-4.2,0-9,2.1-12.8,6.1l-4.4,25h-5.8l6.3-35.5
				h5.8l-0.7,4.1c3.8-3.2,8.6-5,13.6-5C2727.4-1553.2,2732.4-1547,2730.7-1537z"/>
			<path class="st31" d="M2745.2-1532.7c-0.5,6.7,3.4,11.7,10.9,11.7c4.4,0,8.3-1.8,10.2-4.6h6.5c-3.1,6.1-10.1,9.8-17.7,9.8
				c-11.3,0-17.3-8.4-15.5-18.7c1.8-10.6,11.1-18.6,21.8-18.6c10.6,0,16.3,8,13.6,20.4L2745.2-1532.7L2745.2-1532.7z M2745.9-1536.8
				h23.8c0.8-7.2-2.6-11.3-9.1-11.3C2753.4-1548,2748-1543.2,2745.9-1536.8z"/>
			<path class="st31" d="M2849.1-1554.4h-6.1c0.1-6.1-4.1-10.1-12.4-10.1c-8.7,0-14.2,4.3-14.2,10.3c0,4.2,3,6.5,9,7.7l6.7,1.3
				c9,1.8,13.3,5.6,13.3,12.4c0,10.1-8.8,17.2-22.1,17.2c-12.6,0-19.9-6.4-19.1-17.7h6c-0.2,8.1,4.7,12.3,14.4,12.3
				c9.1,0,14.4-4.1,14.4-10.1c0-3.8-1.9-6.7-8.9-8.2l-7.9-1.6c-8.2-1.7-12.4-5.6-12.2-12.6c0.3-10.3,9.9-16.2,21.3-16.2
				C2841.3-1569.8,2849.7-1565,2849.1-1554.4z"/>
			<path class="st31" d="M2864.9-1529.8c-0.9,5.3,1.1,8.7,5.8,8.7c1.9,0,4.7-0.7,6.7-1.6l-0.2,5.7c-3.1,0.8-5.5,1.3-7.8,1.3
				c-7.5,0-11.8-5.9-10.3-14.2l3.1-17.5h-9.2l0.8-5h9.3l2.3-13.1h5.8l-2.3,13.1h13.3l-0.8,5H2868L2864.9-1529.8z"/>
			<path class="st31" d="M2923-1537.2c0,11.9-10.6,21.4-22.4,21.4c-9.5,0-15.9-6.7-15.9-15.8c0-12,10.6-21.6,22.5-21.6
				C2916.5-1553.2,2923-1546.3,2923-1537.2z M2917.1-1536.4c0-6.4-4.3-11.3-10.9-11.3c-8.3,0-15.7,7.1-15.7,15.5
				c0,6.4,4.3,11.2,11,11.2C2909.8-1521.2,2917.1-1528,2917.1-1536.4z"/>
			<path class="st31" d="M2955.9-1552.9l-1,5.5c-5.9,0.2-11.1,2.8-15.2,7.7l-4.1,23.1h-5.8l6.3-35.5h5.8l-1.1,5.9
				C2944.9-1550.5,2950.1-1552.9,2955.9-1552.9z"/>
			<path class="st31" d="M2963.5-1532.7c-0.5,6.7,3.4,11.7,10.9,11.7c4.4,0,8.3-1.8,10.2-4.6h6.5c-3.1,6.1-10.1,9.8-17.7,9.8
				c-11.3,0-17.3-8.4-15.5-18.7c1.8-10.6,11.1-18.6,21.8-18.6c10.6,0,16.3,8,13.6,20.4L2963.5-1532.7L2963.5-1532.7z M2964.2-1536.8
				h23.8c0.8-7.2-2.6-11.3-9.1-11.3C2971.7-1548,2966.3-1543.2,2964.2-1536.8z"/>
		</g>
	</g>
</g>
<g>
	<g>
		<g>
			<path class="st1" d="M75,0c-28,0-51.2,22.8-51.2,51.2V150h30.1V98c6.5,2.8,13.8,4.5,21.1,4.5c28.5,0,51.2-23.2,51.2-51.2
				C126.6,22.8,103.5,0,75,0z M75,72.4c-11.8,0-21.1-9.3-21.1-21.1S63.2,30.1,75,30.1s21.1,9.3,21.1,21.1S86.8,72.4,75,72.4z"/>
		</g>
	</g>
</g>
</svg>
